<?xml version="1.0" encoding="UTF-8"?><svg id="Layer_1" xmlns="http://www.w3.org/2000/svg" viewBox="0 0 677.58 477.07"><text transform="translate(116.96 380.02)" style="fill:#73b6a8; font-family:Handlee-Regular, Handlee; font-size:73.79px; stroke:#73b6a8; stroke-miterlimit:10; stroke-width:1.51px;"><tspan x="0" y="0">MEAS</tspan><tspan x="207.5" y="0" xml:space="preserve" style="letter-spacing:.01em;">      </tspan><tspan x="313.31" y="0" style="letter-spacing:.07em;"> </tspan><tspan x="335.08" y="0">N</tspan></text><path d="M222.53,127.05c0-71.25,54.38-119.98,121.33-119.98s120.83,48.73,120.83,119.98" style="fill:none; stroke:#454547; stroke-miterlimit:10; stroke-width:14.14px;"/><path d="M224.86,169.5c9.31,59.97,59.44,99.55,119.78,99.55s110.06-39.58,119.3-99.55" style="fill:none; stroke:#454547; stroke-miterlimit:10; stroke-width:14.14px;"/><line x1="482.79" y1="183.81" x2="449.7" y2="158.71" style="fill:none; stroke:#454547; stroke-miterlimit:10; stroke-width:10.58px;"/><line x1="205.99" y1="183.81" x2="239.08" y2="158.71" style="fill:none; stroke:#454547; stroke-miterlimit:10; stroke-width:10.58px;"/><path d="M336.28,381.7c0-31.32,23.9-52.73,53.33-52.73s53.11,21.42,53.11,52.73" style="fill:none; stroke:#454547; stroke-miterlimit:10; stroke-width:6.22px;"/><path d="M337.3,400.36c4.09,26.36,26.13,43.76,52.65,43.76s48.38-17.4,52.44-43.76" style="fill:none; stroke:#454547; stroke-miterlimit:10; stroke-width:6.22px;"/><line x1="450.67" y1="406.65" x2="436.13" y2="395.62" style="fill:none; stroke:#454547; stroke-miterlimit:10; stroke-width:4.65px;"/><line x1="329" y1="406.65" x2="343.55" y2="395.62" style="fill:none; stroke:#454547; stroke-miterlimit:10; stroke-width:4.65px;"/><text transform="translate(.76 446.8)" style="fill:#454547; font-family:Handlee-Regular, Handlee; font-size:73.79px; stroke:#454547; stroke-miterlimit:10; stroke-width:1.51px;"><tspan x="0" y="0">O</tspan><tspan x="60.14" y="0" style="letter-spacing:-.03em;">R</tspan><tspan x="108.77" y="0" style="letter-spacing:0em;">T</tspan><tspan x="155.99" y="0" xml:space="preserve">HOD      </tspan><tspan x="425.25" y="0" style="letter-spacing:.15em;"> </tspan><tspan x="452.63" y="0">NTI</tspan><tspan x="575.86" y="0" style="letter-spacing:0em;">C</tspan><tspan x="629.8" y="0">S</tspan></text><text transform="translate(266.38 219.61)" style="fill:#73b6a8; font-family:Noteworthy-Bold, Noteworthy; font-size:190.77px; font-weight:700;"><tspan x="0" y="0">M</tspan></text></svg>