<?xml version="1.0" encoding="UTF-8"?><svg id="Layer_1" xmlns="http://www.w3.org/2000/svg" viewBox="0 0 380.87 319.5"><path d="M179.3,36.7l-13.08,3.09c-13.5-22.45-36.89-31.76-62.44-25.37-34.71,8.68-51.39,43.98-36.91,76.75,23.72,53.68,107.79,34.15,106.54-23.83l-66.6,17.67-3.56-13.37,81.55-21.98c11.16,43.33-19.09,80.86-62.28,85.24C48.75,142.39,19.19,43.88,83.03,9.39,117.38-9.17,162.51-.29,179.3,36.7Z" style="fill:#ffcd01;"/><path d="M255.83.68c48.6-3.69,86.05,33.6,75.31,82.77-14.28,65.41-112.9,69.04-133.59,6.69C183.51,47.8,211.13,4.08,255.83.68ZM319.06,67.59c0-30.75-24.93-55.67-55.68-55.67s-55.68,24.92-55.68,55.67,24.93,55.67,55.68,55.67,55.68-24.92,55.68-55.67Z" style="fill:#ffcd01;"/><path d="M285.77,146.7c-18.34,24.44-47.33,41.18-77.66,45.49-43.05,6.12-86.49-10.89-112.89-45.3l19.25,12.18c54.66,29.99,121.63,24.95,171.3-12.38Z" style="fill:#ffcd01;"/><path d="M293.23,283h-8.84l-9.23-13.36h-12.18v13.36h-8.64v-45.57h21.41c.86,0,4.19.78,5.22,1.07,14.77,4.2,15.76,23.61,2.06,29.77l10.21,14.73ZM262.98,262.58h13.55c1.62,0,5.38-2.51,6.27-3.95,1.63-2.63,1.49-7.69-.36-10.2-.93-1.27-4.4-3.53-5.9-3.53h-13.55v17.68Z" style="fill:#bf0a30;"/><path d="M245.69,283h-8.84l-9.43-13.36h-11.39l-.59.59v12.77h-8.25v-45.57h21.02c17.87,0,23.81,23.67,7.28,30.84l10.21,14.73ZM215.44,262.58h13.55c6.69,0,10.08-10.09,5.46-14.89-.79-.82-4.46-2.79-5.46-2.79h-13.55v17.68Z" style="fill:#bf0a30;"/><polygon points="335.27 237.44 335.27 244.51 310.52 244.51 310.52 256.29 331.93 256.29 332.52 256.88 332.52 263.36 310.52 263.36 310.52 275.93 336.05 275.93 336.05 283 301.87 283 301.87 237.44 335.27 237.44" style="fill:#bf0a30;"/><polygon points="196.58 237.44 196.58 244.51 172.22 244.51 172.22 256.29 193.83 256.29 193.83 263.36 172.22 263.36 172.22 275.93 197.76 275.93 197.76 283 163.58 283 163.58 237.44 196.58 237.44" style="fill:#bf0a30;"/><path d="M34.32,259.83h7.86v18.46c-18.42,12.4-44.69,2.93-41.99-21.75,2.17-19.79,30.18-26.11,42.76-12.23l-4.99,4.87c-.85.19-4.09-2.59-5.34-3.17-9.15-4.22-21.41-.15-23.67,10.26-3.32,15.33,12.47,24.81,25.37,17.51v-13.95Z" style="fill:#bf0a30;"/><polygon points="380.06 237.44 380.06 243.13 353.34 275.93 380.84 275.93 380.84 283 341.95 283 341.95 277.31 368.27 244.9 342.93 244.9 342.34 244.31 342.34 237.44 380.06 237.44" style="fill:#bf0a30;"/><path d="M61.43,237.44v28.09c0,13.83,23.18,15.73,23.18-1.96v-26.12h8.25v28.87c0,22.69-40.07,24.43-40.07-1.57v-26.71l.59-.59h8.05Z" style="fill:#bf0a30;"/><polygon points="136.47 237.44 136.47 244.9 121.54 244.9 121.54 283 112.9 283 112.9 244.9 97.97 244.9 97.97 237.44 136.47 237.44" style="fill:#bf0a30;"/><rect x="142.76" y="237.44" width="8.64" height="45.57" style="fill:#bf0a30;"/><path d="M172.62,318.75v-20.43h11.2c8.77,0,12.72,13.7,4.65,18.79-.45.29-2.58,1.64-3.86,1.64h-11.98ZM176.55,315.61h6.48c7.59,0,8.25-14.14-.79-14.14h-5.7v14.14Z" style="fill:#bf0a30;"/><path d="M259.51,311.68v-13.36h3.57v20.43h-2.54s-9.19-11.46-11.6-13.36v13.36h-3.93v-20.43h3.36l11.14,14.04v-.69Z" style="fill:#bf0a30;"/><path d="M21.94,308.59c0,6.01-4.87,10.89-10.89,10.89S.16,314.6.16,308.59s4.87-10.89,10.89-10.89,10.89,4.87,10.89,10.89ZM9.47,301.57c-7.46,1.24-7.29,13.2.3,14.04,11.6,1.29,10.82-15.89-.3-14.04Z" style="fill:#bf0a30;"/><path d="M157.45,308.59c0,6.02-4.88,10.89-10.89,10.89s-10.89-4.88-10.89-10.89,4.88-10.89,10.89-10.89,10.89,4.88,10.89,10.89ZM144.83,301.56c-7.15,1.33-7.14,13.08.29,14.05,11.88,1.56,11.01-16.15-.29-14.05Z" style="fill:#bf0a30;"/><path d="M229.83,308.6c0,6.02-4.88,10.9-10.9,10.9s-10.9-4.88-10.9-10.9,4.88-10.9,10.9-10.9,10.9,4.88,10.9,10.9ZM226.15,308.57c0-3.98-3.23-7.21-7.21-7.21s-7.21,3.23-7.21,7.21,3.23,7.21,7.21,7.21,7.21-3.23,7.21-7.21Z" style="fill:#bf0a30;"/><path d="M47.52,298.33c7.59,1.07,9.12,10.39,2.55,13.96l4.32,6.46c-1.12-.2-3.34.34-4.23-.09s-3.28-5.8-3.62-5.8h-5.5v5.89h-3.93v-20.43c3.24.32,7.27-.44,10.41,0ZM41.04,309.72h5.7c1.73,0,3.62-2.29,3.6-4.06-.04-4.87-5.88-4.17-9.3-4.19v8.25Z" style="fill:#bf0a30;"/><polygon points="106.35 298.33 106.35 306.57 116.56 306.57 116.56 298.33 120.49 298.33 120.49 318.75 116.56 318.75 116.56 310.11 106.35 310.11 106.35 318.75 102.42 318.75 102.42 298.33 106.35 298.33" style="fill:#bf0a30;"/><path d="M379.61,299.56l-.77,3.05c-2.27-1-10.52-2.62-10.2,1.42.33,4.16,12.65,1.73,12.22,9.4-.4,6.93-12.15,6.93-16.33,3.37l1-3.16c1.91,2.01,10.87,3.83,11.4.17.71-4.88-12.42-2.03-12.21-9.78.18-6.72,10.5-7.2,14.89-4.48Z" style="fill:#bf0a30;"/><path d="M339.84,298.04c3.46-.33,7.04.78,9.51,3.24l-2.55,2.53c-5.64-5.53-14.74-.7-12.26,7.17,1.67,5.29,8.79,6.33,12.26,2.28l2.55,2.55c-8.02,7.9-21.93,1.15-18.66-10.42,1.12-3.96,5.08-6.96,9.15-7.35Z" style="fill:#bf0a30;"/><polygon points="87.25 298.33 87.25 301.47 80.57 301.47 80.57 318.75 76.64 318.75 76.64 302.06 76.05 301.47 69.57 301.47 69.57 298.33 87.25 298.33" style="fill:#bf0a30;"/><polygon points="295.93 298.33 295.93 301.47 288.85 301.47 288.85 302.06 288.85 318.75 284.93 318.75 284.93 301.47 278.25 301.47 278.25 298.33 295.93 298.33" style="fill:#bf0a30;"/><rect x="311.1" y="298.33" width="3.93" height="20.43" style="fill:#bf0a30;"/></svg>