<?xml version="1.0" encoding="UTF-8"?><svg id="Layer_1" xmlns="http://www.w3.org/2000/svg" viewBox="0 0 760.64 260.37"><path d="M212.01,0c4.13,3.18,9.89,1.86,14.78,4.75,15.28,9.4,22.16,35.17-4.24,30.27-7.32-2.15-4.24-17.03-13.36-18.32-63.93,10.14-130.7,68.05-159.33,125.22-27.32,56.49,104.2-55.83,118.79-57.88,41.65-27.43,50.46,9.7,39.65,44.29l34.33-17.87c160.48,5.38,326.74,3.48,484.53,8.57-157.43,5.47-315.61,7.54-473.34,12.99-16.15,1.27-33.48,7.75-49.81,9.33-19.18,41.21-52.65,104.66-98.01,119.03-44.26-56.44,52.97-89.79,77.62-126.02,8.05-13.44,25.33-69.39-7.87-43.2-44.07,25.87-90.1,111.25-144.09,101.28-10.22-12.36-25.78-18.91-31.67-34.34C1.73,82.77,129.14,13.18,193.41,0h18.6Z" style="fill:#0094d1;"/><path d="M760.64,70.67c-13.76,10.65-27.11,30.91-45.67,33.35-14.16,2.96-20.96-7.36-18.5-20.34-5.39.59-7.1,7.09-10.33,10.12-19.05,19.41-32.43,9.36-25.93-15.69-13.54,16.58-43.39,46.87-40.91,3.72-4.53,1.88-5.83,7.08-9.2,10.31-17.54,16.82-36.7,12.83-26.5-13.48,2.61-6.74,16.24-24.82,16.74-27.83.27-1.67-1.45-2.79-1.48-4.33,2.8-2.56,13.81,6.24,12.79,11.68-2.12,11.3-22.17,26.99-23.94,40.37,4.54,3.86,25.19-12.66,28.87-16.69,7.45-8.14,11.12-20.23,16.83-29.66,7.85-14.62,27.05-29.52,28.68-44.77l-5.56.93,4.67-2.92,7.43,3.82c6.09,26.76-36.08,64.56-39.99,91.14,7.79-.83,28.45-20.77,33.53-26.91,10.22-22.06,26-43.65,40.85-63.3l-7.43-.92c3.76-7.69,11.45-2.71,14.65,3.14l-.1,4.8-41.53,81.34c1.76,2.74,3.18,1.02,5.28-.31,6.78-4.31,20.52-16.59,25.44-22.92,3.41-4.39,5.56-10.2,9.29-14.89,1.99-2.5,14.21-14.93,16.11-15.5,9.7-2.95,23.34,10.18,20.84,18.88.07,2.99-26.66,22.4-23.94,10.58,5.18.68,21.79-15.52,18.59-18.61-15.08,1.88-27.42,18.19-32.51,31.63-13.1,35.5,44.74-13.42,52.98-18.62v1.86Z" style="fill:#0094d1;"/><path d="M254.79,57.64c9.04-.54,19.04-5.66,24.68,4.29,5.87,7.42-19.09,31.61-8.89,29.18,5.44-7.01,15.68-11.56,21.44-17.62,9.07-9.55,21.29-40.74,39.1-24.3,17.22,15.9-3.35,25.74-18.68,28.9,5.65-7.9,19.34-10.76,18.59-22.3-3.41-3.33-18.72,11.59-21.42,14.83-3.85,4.63-19.89,30.07-7.45,29.85,6.26-.11,35.16-19.08,40.96-24.24,9.3-8.29,22.84-35.57,36.89-31.32,10.75,8.62,19.46,16.06,4.88,26.6-3.61,2.61-12.75,7.76-16.64,5.67,6.64-6.4,17.26-11.16,18.59-21.39-17.96,3.47-34.7,26.25-33.47,44.63,18.84.04,69.83-38.36,67.86-59.49,10.71,4.72,9.98,12.29,5.06,21.76-2.35,4.53-8.08,7.76-7.83,13.55,10.04-6.25,32.62-39.01,41.98-16.82,3.53,10.97-10.97,24.28-13.79,34.8-2.54,9.49,8.63,1.23,11.77-1.25,15.65-12.4,19.45-29.31,32.48-41.91,20.72-21.45,50.53,20.67,3.8,27.04,5.14-7.21,17.26-9.75,18.63-19.5.36-2.56-.04-3.61-2.79-2.78-9.59,2.88-22.54,18.33-26.55,27.39-2.01,4.53-7.56,17.37.38,17.23,15.89-4.62,56.1-27.08,51.24-48.36,30.47,5.4,1.91,28.47,0,44.62,3.75,3.75,21.21-12.17,24.16-15.81,9.36-11.54,14.33-25.4,9.32-39.97,41.52,22.08-50.75,90.34-45.11,47.02,1.93-10.59-7.28,1.32-9.77,3.18-16.06,12.01-42.55,25.45-43.7-5.57-9.5,6.03-21.68,28.57-33.47,13.96-8.48-10.51,2.38-23.49,7.11-33.82.79-1.73,4.05-4.78,1.26-6.18-16.38,7.37-34.91,26.4-41.88,42.76-4.24.79-7.19-1.26-9.02-4.96l2.56-15.46c-11.11,10.91-42.16,36.23-52.61,13.55-1.32-5.05.87-10.81-1.33-15.41-12.9,14.88-52.53,43.32-54.91,6.53-.07-1.87.91-6.51-2.73-4.67-7.31,3.69-26.01,35.58-35.34,16.73-7.62-15.39,17.35-26.86,17.66-40.91-1.19-1.18-19.67,6.91-22.21,8.46-5.49,3.21-9.59,13.26-16.82,12.93l14.07-15.71c-6.95-13.77-.25-22.44,12.91-27.58,11.14,7.47,6.61,14.01-.96,21.88Z" style="fill:#0094d1;"/><path d="M628.59,26.04c-1.77,8.27-4.95,15.46-14.69,12.84l-1.25-7.34,15.94-5.5Z" style="fill:#0094d1;"/><text transform="translate(233.77 185.51)" style="font-family:Roboto-BlackItalic, Roboto; font-size:59px; font-style:italic; font-weight:800;"><tspan x="0" y="0" style="letter-spacing:.12em;">O</tspan><tspan x="46.78" y="0" style="letter-spacing:.09em;">R</tspan><tspan x="89.92" y="0" style="letter-spacing:.12em;">THODONTICS</tspan></text></svg>