<?xml version="1.0" encoding="UTF-8"?><svg id="Layer_1" xmlns="http://www.w3.org/2000/svg" viewBox="0 0 768 208.5"><path d="M235,27.04c3.07,0,4.61,1.54,4.61,4.61v60.26c0,11.84.77,19.06,12.14,19.06s12.15-7.23,12.15-19.06V31.66c0-3.08,1.69-4.61,4.61-4.61h17.22c3.07,0,4.61,1.54,4.61,4.61v68.41c0,10.15-2.15,37.36-38.59,37.36s-38.59-27.21-38.59-37.36V31.66c0-3.08,1.69-4.61,4.61-4.61h17.22Z" style="fill:#fff;"/><path d="M341.54,27.04c27.36,0,38.43,11.68,38.43,36.9s-11.07,36.9-38.43,36.9h-7.38c-2.92,0-4.61,1.54-4.61,4.61v24.6c0,3.07-1.54,4.61-4.61,4.61h-17.22c-2.92,0-4.61-1.69-4.61-4.61V31.81c0-3.08,1.54-4.61,4.61-4.77h33.82ZM342.46,74.39c7.38,0,11.07-.92,11.07-10.45s-3.69-10.45-11.07-10.45h-8.3c-2.92,0-4.61,1.54-4.61,4.61v11.68c0,2.92,1.69,4.61,4.61,4.61h8.3Z" style="fill:#fff;"/><path d="M412.41,58.1c0-3.07-1.54-4.61-4.61-4.61h-21.52c-2.92,0-4.61-1.69-4.61-4.61v-17.22c0-3.08,1.69-4.61,4.61-4.61h78.71c3.07,0,4.61,1.54,4.61,4.61v17.22c0,2.92-1.54,4.61-4.61,4.61h-21.52c-2.92,0-4.61,1.54-4.61,4.61v71.95c0,2.92-1.54,4.61-4.61,4.61h-17.22c-2.92,0-4.61-1.69-4.61-4.61V58.1Z" style="fill:#fff;"/><path d="M551.24,100.07c0,10.15-2.15,37.36-38.59,37.36s-38.59-27.21-38.59-37.36v-38.43c0-10.15,2.15-37.36,38.59-37.36s38.59,27.21,38.59,37.36v38.43ZM524.79,69.78c0-11.84-.77-19.06-12.14-19.06s-12.15,7.23-12.15,19.06v22.14c0,11.84.77,19.06,12.15,19.06s12.14-7.23,12.14-19.06v-22.14Z" style="fill:#fff;"/><path d="M557.84,32.12c-.61-3.23.92-5.07,4.15-5.07h18.29c2.77,0,4.77,1.38,5.07,4l8.76,64.11c.31,1.54,1.54,1.54,1.84,0l10.3-64.11c.46-2.61,2.31-4,5.07-4h13.22c2.77,0,4.61,1.38,5.07,4l10.3,64.11c.31,1.54,1.54,1.54,1.84,0l8.76-64.11c.31-2.61,2.31-4,5.07-4h18.29c3.23,0,4.77,1.84,4.15,5.07l-18.91,98.54c-.46,2.61-2.31,4-5.07,4h-21.68c-2.77,0-4.46-1.38-5.07-4l-8.46-37.82c-.31-1.54-1.54-1.54-1.84,0l-8.46,37.82c-.61,2.61-2.31,4-5.07,4h-21.68c-2.77,0-4.61-1.38-5.07-4l-18.91-98.54Z" style="fill:#fff;"/><path d="M713.42,27.04c2.61,0,4.3,1.08,5.38,3.54l20.91,51.19c.61,1.38,1.84,1.08,1.84-.46V31.66c0-3.08,1.69-4.61,4.61-4.61h17.22c3.07,0,4.61,1.54,4.61,4.61v98.39c0,2.92-1.54,4.61-4.61,4.61h-22.6c-2.61,0-4.3-1.08-5.38-3.54l-20.91-51.19c-.61-1.38-1.85-1.08-1.85.46v49.66c0,2.92-1.54,4.61-4.61,4.61h-17.22c-2.92,0-4.61-1.69-4.61-4.61V31.66c0-3.08,1.69-4.61,4.61-4.61h22.6Z" style="fill:#fff;"/><path d="M72.24,104.22c-5.11,17.86,2.78,26.06,20.82,24.22,15.33-1.57,22.63-20.89,29.97-32.12,15.7-4.02,30.59-11.46,40.46-24.65-1.02,32.57-22.32,60.75-51.6,74.09-24.44,11.13-34.08,3.77-46.82,32.68-4.55,10.32-6.12,24.53-18.56,28.38-16.66,5.16-27.81-18.27-28.76-31.81-2-28.55,23.94-68.24,54.5-70.78Z" style="fill:#fff;"/><path d="M166.12,33.8c-13.82-9.75-30.14-10.6-46.45-8.23-4.21.61-14.27,4.41-16.77,4.36-1.26-.02-11.19-4.62-14.17-5.42-7.1-1.91-13.98-2.73-21.39-2.06-19.74,1.77-35.84,18.17-15.53,33.29-12.02,6.68-21.39,19.24-28.79,30.66-1.39,2.14-7.23,13.65-7.94,14.02-1.18.61-3.59-5.85-4.76-6.58C-12.84,51.45,2.94-1.37,58.27,2.73c18.93,1.4,41.27,16.59,60.04,11.61,1.35-.36,1.96.21,1.63-1.73-6.94,1.13-17.65,1.63-23.64-2.3-.49-.32-4.32-3.89-3.61-4.51,15.01-4.06,29.05-8.13,44.67-4.17,14.88,3.77,26.38,17.13,28.76,32.18Z" style="fill:#1f6090;"/><path d="M97.23,155.7c18.89-2.76,36.95-14.06,49.23-28.38,2.59-3.02,4.55-7.06,6.91-9.75.58-.67.99-1.95,1.79-.5s2.21,11.02,2.53,13.37c3.16,23.35,2.74,58.43-19.48,72.68-26.6,17.05-28.05-10.24-34.15-28.88-2.06-6.28-4.56-12.35-6.83-18.53Z" style="fill:#1f6090;"/><path d="M117.08,91.5c-3.66,13.89-15.72,37.54-33.69,31.48-11.63-3.92-6.72-16.43-3.57-24.82-27.93.48-51.17,17.84-61.34,43.52l-6.04,19.31c-6.98-34.49,7.77-71,33.7-93.86,2.25-1.98,15.06-10.89,15.5-11.76.59-1.18-.53-1.04-.96-1.29-6.12-3.61-17.41-8.57-11.78-17.5,8.16-12.91,29.84-10.54,42.23-6.15,2.57.91,9,4.68,10.87,4.67,4.35-.02,15.58-4.23,21.44-5,26.32-3.45,58.17,4.11,36.05,36.05-9.76,14.09-25.39,23.14-42.41,25.34ZM126.76,56.52c-6.37,2.18-11.43,6.27-18.16,7.95-9.21,2.31-19.94.37-27.78,4.02-6.89,3.2-10.71,10.01-17.1,13.94l-14.94,8.15c5.63-.4,10.84-1.7,15.92-4.13,9.19-4.42,14.64-14.5,25.43-14.71,12.96-.24,19.02,1.72,30.18-7.67l6.45-7.55Z" style="fill:#2ebfba;"/><path d="M253.05,157.95c9.26,0,16.27,4.72,16.27,13.37v3.03c0,8.74-7.01,13.37-16.27,13.37h-1.51c-9.43,0-16.48-4.63-16.48-13.37v-3.03c0-8.65,7.05-13.37,16.48-13.37h1.51ZM241.11,171.36v2.9c0,5.45,4.07,8.35,10.43,8.35h1.3c6.32,0,10.43-2.9,10.43-8.35v-2.9c0-5.36-4.11-8.31-10.43-8.31h-1.3c-6.36,0-10.43,2.94-10.43,8.31Z" style="fill:#2ebfba;"/><path d="M302.29,158.34c6.23,0,10.12,3.07,10.12,8.35v1.34c0,3.89-2.25,6.71-5.88,7.79l7.18,11.51h-6.71l-6.84-10.95h-11.21v10.95h-5.93v-28.99h19.25ZM288.96,171.75h12.07c3.29,0,5.32-1.08,5.32-3.94v-.87c0-2.9-2.03-4.02-5.32-4.02h-12.07v8.83Z" style="fill:#2ebfba;"/><path d="M355.9,158.34v4.89h-13.07v24.1h-5.97v-24.1h-13.07v-4.89h32.1Z" style="fill:#2ebfba;"/><path d="M374.24,158.34v11.81h18.17v-11.81h5.97v28.99h-5.97v-12.29h-18.17v12.29h-5.93v-28.99h5.93Z" style="fill:#2ebfba;"/><path d="M430.06,157.95c9.26,0,16.27,4.72,16.27,13.37v3.03c0,8.74-7.01,13.37-16.27,13.37h-1.51c-9.43,0-16.48-4.63-16.48-13.37v-3.03c0-8.65,7.05-13.37,16.48-13.37h1.51ZM418.11,171.36v2.9c0,5.45,4.07,8.35,10.43,8.35h1.3c6.32,0,10.43-2.9,10.43-8.35v-2.9c0-5.36-4.11-8.31-10.43-8.31h-1.3c-6.36,0-10.43,2.94-10.43,8.31Z" style="fill:#2ebfba;"/><path d="M479.51,158.34c9.82,0,15.27,3.89,15.27,12.85v3.42c0,8.91-5.28,12.72-15.27,12.72h-16.22v-28.99h16.22ZM469.21,182.43h10.3c6.58,0,9.22-2.47,9.22-7.83v-3.42c0-5.36-2.6-7.96-9.22-7.96h-10.3v19.21Z" style="fill:#2ebfba;"/><path d="M526.67,157.95c9.26,0,16.27,4.72,16.27,13.37v3.03c0,8.74-7.01,13.37-16.27,13.37h-1.51c-9.43,0-16.48-4.63-16.48-13.37v-3.03c0-8.65,7.05-13.37,16.48-13.37h1.51ZM514.73,171.36v2.9c0,5.45,4.07,8.35,10.43,8.35h1.3c6.32,0,10.43-2.9,10.43-8.35v-2.9c0-5.36-4.11-8.31-10.43-8.31h-1.3c-6.36,0-10.43,2.94-10.43,8.31Z" style="fill:#2ebfba;"/><path d="M564.7,158.34l16.35,21.42h1.04v-21.42h5.58v28.99h-8.05l-16.31-21.42h-1.04v21.42h-5.62v-28.99h8.05Z" style="fill:#2ebfba;"/><path d="M634.27,158.34v4.89h-13.07v24.1h-5.97v-24.1h-13.07v-4.89h32.1Z" style="fill:#2ebfba;"/><path d="M652.14,158.34v28.99h-5.75v-28.99h5.75Z" style="fill:#2ebfba;"/><path d="M702.65,179.77,697.01,169.54c0-4.02-3.37-6.45-9.65-6.45h-1.21c-6.19,0-9.78,2.55-9.78,7.87v3.59c0,5.49,3.59,8,9.78,8h1.21c6.27,0,9.82-2.51,9.82-6.45v-.22l5.46,3.87c-1.81,5.16-7.59,7.94-15.28,7.94h-1.21c-9.13,0-15.83-4.11-15.83-13.15v-3.59c0-8.96,6.71-13.02,15.83-13.02h1.21c7.55,0,13.15,2.57,15.03,7.6l-5.38,4ZM702.39,165.55" style="fill:#2ebfba;"/><path d="M739.8,167.25c0-3.37-3.33-4.76-8.39-4.76h-1c-5.15,0-8.35,1.34-8.35,3.59v.48c0,2.51,2.47,3.07,10.99,4.07,9.26,1.17,13.07,3.46,13.07,8.35v.52c0,4.98-5.06,8.22-14.54,8.22h-.99c-7.78,0-12.55-2.1-14.15-6.15l5.11-3.41c0,3.76,3.24,4.98,9.04,4.98h1.04c5.49,0,8.7-1.17,8.7-3.55v-.52c0-2.38-2.68-3.24-10.99-4.2-8.57-.95-13.07-2.94-13.07-8.05v-.52c0-5.28,5.45-8.35,14.15-8.35h1.04c6.99,0,12.02,2.09,13.56,6.32l-5.21,2.99ZM745.01,164.26" style="fill:#2ebfba;"/></svg>