<svg width="1080" height="1350" viewBox="0 0 1080 1350" fill="none" xmlns="http://www.w3.org/2000/svg" preserveAspectRatio="none">
<path d="M1080 0H0V300H1080V0Z" fill="url(#kgp0)"/>
<path d="M1080 470H0V1350H1080V470Z" fill="url(#kgp1)"/>
<path d="M318 907C379 901 495 901 551 906" stroke="#DACEE5" stroke-width="5" stroke-linecap="round"/>
<path d="M72 1206H1008" stroke="#F6F2EE" stroke-opacity="0.3"/>
<path d="M85 1277C93 1277 100 1270 100 1262C100 1254 93 1247 85 1247C77 1247 70 1254 70 1262C70 1270 77 1277 85 1277Z" stroke="#F6F2EE" stroke-opacity="0.7" stroke-width="1.4"/>
<path d="M79 1262H91M87 1266L91 1262L87 1258" stroke="#F6F2EE" stroke-width="1.6" stroke-linecap="round" stroke-linejoin="round"/>
<defs>
<linearGradient id="kgp0" x1="0" y1="0" x2="0" y2="300" gradientUnits="userSpaceOnUse">
<stop stop-color="#1C1A17" stop-opacity="0.45"/><stop offset="1" stop-color="#1C1A17" stop-opacity="0"/>
</linearGradient>
<linearGradient id="kgp1" x1="0" y1="470" x2="0" y2="1110" gradientUnits="userSpaceOnUse">
<stop stop-color="#1C1A17" stop-opacity="0"/><stop offset="0.48" stop-color="#1C1A17" stop-opacity="0.6"/><stop offset="1" stop-color="#1C1A17" stop-opacity="0.88"/>
</linearGradient>
</defs>
</svg>
