<svg width="1080" height="1350" viewBox="0 0 1080 1350" fill="none" xmlns="http://www.w3.org/2000/svg" preserveAspectRatio="none">
<path d="M1080 0H0V1350H1080V0Z" fill="#FDFAF3"/>
<path d="M600 1104H114C100 1104 88 1116 88 1130C88 1144 100 1156 114 1156H600C614 1156 626 1144 626 1130C626 1116 614 1104 600 1104Z" fill="#AED6C1"/>
<path d="M431 1179H129C106 1179 88 1197 88 1220C88 1243 106 1261 129 1261H431C454 1261 472 1243 472 1220C472 1197 454 1179 431 1179Z" fill="#243F86"/>
<path d="M430 1243C443 1243 453 1233 453 1220C453 1207 443 1197 430 1197C417 1197 407 1207 407 1220C407 1233 417 1243 430 1243Z" fill="#FDFAF3"/>
<path d="M421 1220H436M429 1212L437 1220L429 1228" stroke="#243F86" stroke-width="3.5" stroke-linecap="round" stroke-linejoin="round"/>
</svg>
