<svg width="1080" height="1920" viewBox="0 0 1080 1920" fill="none" xmlns="http://www.w3.org/2000/svg" preserveAspectRatio="none">
<path d="M1080 0H0V1920H1080V0Z" fill="#FDFAF3"/>
<path d="M600 1470H114C100 1470 88 1482 88 1496C88 1510 100 1522 114 1522H600C614 1522 626 1510 626 1496C626 1482 614 1470 600 1470Z" fill="#AED6C1"/>
<path d="M431 1554H129C106 1554 88 1572 88 1595C88 1618 106 1636 129 1636H431C454 1636 472 1618 472 1595C472 1572 454 1554 431 1554Z" fill="#243F86"/>
<path d="M430 1618C443 1618 453 1608 453 1595C453 1582 443 1572 430 1572C417 1572 407 1582 407 1595C407 1608 417 1618 430 1618Z" fill="#FDFAF3"/>
<path d="M421 1595H436M429 1587L437 1595L429 1603" stroke="#243F86" stroke-width="3.5" stroke-linecap="round" stroke-linejoin="round"/>
</svg>
