<?xml version="1.0" encoding="UTF-8"?><svg id="Layer_1" xmlns="http://www.w3.org/2000/svg" viewBox="0 0 4101.76 1467.31"><path d="M4097.21,416.9V7.42l-94.69-.2-2.58,259.91L3849.58,7.42l-96.87.59v410.07l96.08.4,1.78-261.69,151.15,261.69,95.29-1.39.2-.2ZM4045.31,1448.22c40.41-19.61,58.84-56.66,55.47-96.67-2.97-35.06-26.74-70.52-66.36-84.39l-129.16-44.97c-27.54-9.71-47.15-37.24-47.35-62.4-.2-25.16,14.07-50.52,38.23-62.6,41.8-21,88.35-19.41,130.55,2.77,22.58,11.89,36.05,47.15,40.21,68.74,1.39,7.33,27.54,7.53,28.13,0,3.17-33.88-21.2-74.88-52.89-92.32-53.49-29.32-119.26-29.72-170.96,1.78-33.88,20.6-49.92,55.27-45.76,92.51,3.76,33.28,27.54,64.98,64.98,78.05l126.19,44.18c32.49,11.29,52.5,41.21,51.51,70.92-.99,29.72-19.22,53.69-51.11,65.18-56.46,20.4-161.26,12.68-172.94-74.88-.99-7.92-27.73-8.32-28.53,0-3.17,36.25,20.21,72.31,52.3,89.34,53.69,28.53,119.46,32.89,176.91,4.95l.59-.2Z" style="fill:#fff;"/><path d="M1415.1,8.41l92.91-.99-93.9,410.27-89.54,1.78-71.32-255.95-68.54,252.98c-27.54,2.18-56.86,2.38-90.73,1.78L999.88,8.81l91.33-1.58,55.27,268.03L1219.77,9.01l67.75-.59,73.1,261.89,54.68-261.69-.2-.2Z"/><polygon points="3509.24 8.21 3601.76 7.62 3507.86 417.89 3418.31 419.28 3347.79 170.46 3278.25 416.9 3187.72 417.89 3093.62 8.81 3185.15 6.83 3240.22 274.66 3314.31 7.62 3381.07 7.62 3454.37 270.7 3509.24 8.21"/><polygon points="4097.21 416.9 4001.73 418.29 3850.77 156.79 3848.99 418.48 3752.91 418.09 3752.91 7.82 3849.78 7.42 3999.94 266.94 4002.52 7.22 4096.81 7.42 4097.21 416.9"/><polygon points="2003.86 417.1 1907.78 418.48 1758.81 161.94 1755.04 418.09 1659.56 418.88 1659.76 7.22 1755.84 7.82 1906.59 267.33 1909.17 7.22 2003.66 7.42 2003.86 417.1"/><path d="M341.18,255.25c.4,95.29-77.46,163.63-168.78,163.63H22.04l-.2-411.26,163.83.4c86.37.2,154.52,74.49,154.92,158.48l.4,88.75h.2ZM243.72,153.42c-2.18-35.46-29.72-69.34-65.77-71.91-19.81-1.39-38.04-1.39-60.03-1.58v263.67c26.35,1.19,49.92,1.98,71.71-2.77,69.93-15.06,57.65-130.55,54.08-187.6v.2Z"/><path d="M2773.89,425.42c-84.19-1.78-157.89-55.07-169.97-141.64-6.14-44.18-5.94-93.11-.59-137.29C2614.02,57.54,2687.12,1.08,2773.89.09c96.67-1.19,174.33,67.75,176.51,166.01.79,34.07,1.19,70.72-.99,104-6.14,94.49-84.19,157.1-175.52,155.31ZM2851.74,141.34c-5.94-43.78-42.79-68.94-81.02-67.16-35.46,1.78-67.75,30.11-71.32,71.32-6.54,76.07-19.41,206.42,77.66,205.83,97.07-.59,83.6-141.64,74.49-210.19l.2.2Z"/><path d="M684.1,425.42c-99.65.4-176.71-70.72-176.91-167.4v-92.12C506.8,66.46,590-2.88,687.47.09c88.75,2.77,162.44,64.78,168.19,155.31,2.58,38.43,2.97,80.03-.4,118.07-7.92,89.54-79.64,151.55-171.16,151.94ZM758.98,146.69c-3.76-43.38-38.04-71.91-75.28-72.7-40.02-.79-72.7,25.95-78.25,69.73-8.72,69.53-20.4,209.39,78.65,207.81,93.9-1.58,81.02-133.12,74.88-204.84Z"/><polygon points="2354.7 417.69 2258.82 418.29 2259.02 79.73 2151.05 79.73 2151.84 7.22 2463.46 7.22 2463.66 79.73 2354.9 79.93 2354.7 417.69"/><path d="M2897.11,1452.18c-6.93,12.48-32.29,9.91-40.61-2.77l-220.88-334.79-.59,344.7h-32.89v-396.01c9.71-1.19,23.57-1.19,34.67-.2l225.24,338.76,2.58-333.8c0-8.32,25.75-8.91,32.09-3.37l.4,387.69v-.2Z"/><path d="M644.88,1454.76c-10.9-18.23-16.05-61.61-13.67-86.57,4.56-47.94-27.14-86.77-76.27-87.17l-125.6-.99-.59,178.29-32.09.99v-397.59l164.82,1.39c53.88.4,95.09,39.82,102.22,87.96,7.13,48.14-15.06,92.32-64.98,114.7,101.63,36.25,42.99,116.09,80.63,192.95,0,1.98-31.1,2.18-34.67-3.76l.2-.2ZM551.57,1250.32c53.29-.59,81.82-40.02,80.83-82.61-.99-44.97-34.47-77.46-83.8-77.66l-119.26-.59v162.05l122.43-1.19h-.2Z"/><path d="M2136.39,1321.83c-10.9,72.9-69.93,132.73-141.64,136.29-47.54,2.38-90.53,1.78-141.05,1.58l.4-399.77,125.2.99c82.81.59,151.55,65.37,158.88,148.18,3.17,36.65,4.16,73.5-1.58,112.52l-.2.2ZM2104.1,1316.29c4.75-38.23,5.15-76.67,0-110.74-9.51-65.57-63-116.48-128.37-116.48h-88.35v344.5l88.16-.79c63.99-.59,120.05-49.72,128.37-116.68l.2.2Z"/><path d="M2513.18,1325.6c-7.92,85.38-73.1,141.25-152.34,141.64-79.24.4-145.61-56.46-152.74-141.64-3.57-42.99-4.16-91.33.59-133.92,9.51-84,74.29-138.28,152.34-137.29s141.84,55.07,151.55,138.47c4.95,42.2,4.56,90.14.59,132.73ZM2479.9,1329.56c5.15-45.17,6.14-97.27-.79-142.24-10.1-66.56-63.59-106.18-124.61-104.4-61.02,1.78-105.59,44.57-113.12,109.75-4.95,43.98-5.15,94.1,0,138.08,7.73,67.16,58.84,108.16,119.65,107.97,60.82-.2,110.94-42.2,118.66-109.15h.2Z"/><path d="M1765.74,1326.39c-8.32,83.2-69.53,135.7-144.42,140.45-74.88,4.75-143.23-42.59-157.49-122.03-18.23-102.62-16.05-260.9,114.11-286.65,92.12-18.23,174.53,37.44,186.81,131.14,5.55,43.19,5.55,90.73.99,137.09ZM1620.73,1438.32c129.36-8.12,122.03-156.7,110.94-248.42-8.12-67.95-60.62-107.57-123.02-106.58-57.85.79-106.98,42.2-114.11,107.57-5.35,48.73-6.14,104.2,1.98,151.35,10.7,62.6,60.62,100.04,124.21,96.08Z"/><path d="M307.7,1328.57c-9.51,86.17-75.08,138.08-152.14,138.47-77.06.4-144.22-56.06-152.54-141.64-3.96-40.81-3.96-86.57-.4-127.38,7.53-84.19,68.35-141.25,146.4-143.62,78.05-2.38,146.2,49.72,157.69,132.53,6.14,43.78,5.94,94.3.59,141.45l.4.2ZM275.02,1328.17c4.56-44.57,4.95-94.1,0-135.11-7.92-67.35-58.84-110.34-119.46-110.34s-112.32,42.39-119.46,110.34c-4.56,41.8-4.16,90.33-.2,132.33,6.54,69.34,56.46,114.11,119.65,113.51,63.19-.59,111.93-40.21,119.26-110.74h.2Z"/><path d="M1371.32,1453.77c0,8.32-32.29,7.92-32.49,0l-.79-176.11-225.44-.4-.99,182.06-33.48-2.58v-391.45c7.13-4.75,24.76-5.15,33.28-1.39l.99,184.24,225.24.4,1.58-184.43c7.73-4.36,26.15-4.16,32.09,1.98v387.69Z"/><path d="M4045.31,1448.22c-57.25,27.93-123.22,23.57-176.91-4.95-32.09-17.04-55.47-53.09-52.3-89.34.79-8.32,27.34-7.92,28.53,0,11.69,87.56,116.48,95.29,172.94,74.88,31.7-11.49,50.12-35.06,51.11-65.18.99-30.11-19.02-59.43-51.51-70.92l-126.19-44.18c-37.24-13.07-61.21-44.77-64.98-78.05-4.16-37.24,11.89-71.91,45.76-92.51,51.7-31.5,117.28-31.1,170.96-1.78,31.7,17.43,55.87,58.44,52.89,92.32-.79,7.53-26.74,7.33-28.13,0-4.36-21.79-17.83-56.86-40.21-68.74-42.2-22.19-88.75-23.77-130.55-2.77-24.17,12.08-38.63,37.64-38.23,62.6.4,24.96,19.81,52.7,47.35,62.4l129.16,44.97c39.62,13.87,63.39,49.33,66.36,84.39,3.37,40.02-15.06,77.06-55.47,96.67l-.59.2Z"/><path d="M3500.33,1336.49c10.3,70.72,67.16,107.97,129.16,101.43,89.15-9.31,83.2-80.43,99.84-101.63,3.17-3.96,23.38,1.39,23.38,9.11-.59,53.69-54.08,118.27-120.45,121.64-77.46,3.96-144.81-35.46-162.25-117.28-11.69-54.87-11.69-120.84-.2-176.31,16.84-80.83,84.59-125.4,163.04-118.27,68.54,6.34,120.64,58.64,120.45,126.39-2.38,5.74-28.92,4.75-30.31-4.16-8.12-60.03-62.01-106.98-131.54-93.11-107.57,21.4-104,161.65-90.73,251.99l-.4.2Z"/><path d="M3123.93,1457.73l-33.08,1.58v-370.25l-131.34-1.39c-7.73,0-6.93-27.14,1.98-27.14h295.97l2.18,27.34-136.1,1.19v368.67h.4Z"/><path d="M876.26,1455.55l-32.69,3.37-.59-369.66-130.95-1.39c-7.13,0-8.52-27.54-1.39-27.54h293.98c8.91,0,9.31,27.54.59,27.73l-128.96.99v366.49Z"/><path d="M2187.1,672.85c14.66,8.52,28.72,18.03,43.78,29.91-33.88,49.33-80.03,86.97-139.66,99.65-88.16,18.82-168.59-23.97-219.7-98.66,12.28-11.69,26.55-21.99,42.59-30.51,35.06,45.56,76.47,79.64,133.52,80.03,57.05.4,102.02-28.53,139.66-80.43h-.2Z"/><path d="M3366.81,1457.93l-33.88.79v-394.03c9.91-4.16,26.35-4.16,33.68.59v392.64h.2Z"/></svg>