<?xml version="1.0" encoding="UTF-8"?><svg id="Layer_1" xmlns="http://www.w3.org/2000/svg" viewBox="0 0 768 390.88"><path d="M230.66,124.98c-.97.27-.7-.25-.95-.53-10.12-11.48-23.07-17.65-36.14-25.11-5.93-27.86-17.81-52.45-46.61-61.77-56.16-18.19-114.58,19.42-113.06,79.71.82,32.68,20.29,44.5,48.87,53.26,53.41,16.36,133.53,16.11,146.09,85.69,9.34,51.73-19.09,103.7-66.7,124.79-62.49,27.68-135.53-5.12-156.3-69.79C-2.95,283.78,1.05,254.66.14,226.28c.96-.24.69.19.95.53,1.74,2.21,3.16,4.79,5.08,6.98,7.37,8.4,17.69,14.1,27.22,19.67.39,7.39-.21,14.84.07,22.23,1.21,31.84,17.33,59.69,46.34,73.72,52.81,25.53,114.84-11.74,117.5-69.99,1.6-34.93-16.9-48.9-47.52-58.36C88.67,202.19,2.7,204.54.57,118.5-2.33,1.16,150.91-44.76,212.91,53.73c13.46,21.38,18.89,46.04,17.75,71.25Z" style="fill:#143953;"/><path d="M93.1,151.24c-11.51-2.72-23.06-6.7-32.84-13.43l-.12-.52c.28-19.74-2.56-37.37,8.61-54.8,28.66-44.7,97.34-26.95,101.91,25.16l-.02,63.17-32.87-9.23-.11-50.54c-1.53-17.96-22.11-27.35-36.41-15.67-4.44,3.63-8.14,10.65-8.14,16.45v39.39Z" style="fill:#e6035f;"/><path d="M137.7,239.62c11.35,3.35,23.04,6.57,32.84,13.43l.13.52c-.66,15.63,2.17,30.95-3.88,45.77-22.13,54.24-102.41,40.79-106.64-16.97l.02-62.34,32.74,9.56.19,48.58c.29,18.19,20.92,29.16,35.81,17.89,4.08-3.09,8.79-10.62,8.79-15.8v-40.64Z" style="fill:#e6035f;"/><path d="M526.43,125.4c18.77,1.74,29.11,20.41,19.14,36.65-2.96,4.82-6.1,6.29-10.9,8.69-.39.19-.68-.12-.54.71l16.68,25.23h-17.72l-15.84-22.93h-11.88v22.3l-.63.63h-15.22v-71.28h36.89ZM505.38,160h18.55c.69,0,4.3-1.51,5.08-2,5.76-3.61,5.54-13.62-.41-16.84-.45-.25-4.4-1.58-4.67-1.58h-18.55v20.43Z" style="fill:#143953;"/><path d="M684.72,161.02c0,20.72-16.8,37.52-37.52,37.52s-37.52-16.8-37.52-37.52,16.8-37.52,37.52-37.52,37.52,16.8,37.52,37.52ZM643.26,138.85c-23.67,3.2-22.98,42.07,1.15,44.49,32.68,3.28,32.03-48.98-1.15-44.49Z" style="fill:#143953;"/><path d="M743.61,125.4c2.85.27,7.77,1.71,10.37,2.97,17.49,8.48,15.63,36.97-3.08,42.68l17.1,25.63h-18.13l-15.42-22.93h-12.3v22.93h-15.42v-71.28h36.89ZM741.11,139.57c-5.73-.77-13.06.57-18.97,0v20.43h18.55c3.07,0,7.22-2.88,8.5-5.68,3.05-6.67-.83-13.77-8.08-14.75Z" style="fill:#143953;"/><path d="M467.44,125.4v13.76h-37.93v14.59h33.35v14.17h-33.35v15.01h38.77c-1.32,3.84.25,9.13-.19,12.88-.05.41.06.59-.44.88h-53.36l-.63-.63v-70.66h53.78Z" style="fill:#143953;"/><path d="M268.18,125.4v42.31c0,12.26,12.02,19.15,22.93,14.17,3.72-1.7,7.92-7.58,7.92-11.67v-44.81h15.84c-.61,13.76.82,28.23.02,41.91-1.37,23.52-17.66,34.24-40.47,29.6-11.45-2.33-21.66-13.51-21.66-25.45v-46.06h15.42Z" style="fill:#143953;"/><path d="M354.06,175.42v21.26h-15.84v-71.28h33.14c17.53,0,27.78,19.23,21.48,34.82-6.21,15.35-24.64,15.67-38.78,15.21ZM354.06,161.25h15.63c.19,0,3.09-1.2,3.56-1.44,7.1-3.63,7.63-14.72.62-18.58-.48-.26-3.96-1.65-4.18-1.65h-15.63v21.68Z" style="fill:#143953;"/><rect x="571.24" y="125.4" width="15.84" height="71.28" style="fill:#143953;"/><polygon points="590.83 251.29 590.83 225.45 600 225.45 600 268.38 592.29 268.38 571.24 241.29 571.24 268.38 562.07 268.38 562.07 225.45 570.2 225.45 589.59 250.66 590.83 251.29" style="fill:#e6035f;"/><path d="M452.85,225.45h18.55c27.65,0,27.59,42.94,0,42.94h-17.93l-.63-.63v-42.31ZM462.44,260.05h8.55c10.08,0,15.03-13.55,9.18-21.27-1.75-2.31-6.31-4.99-9.18-4.99h-8.55v26.26Z" style="fill:#e6035f;"/><path d="M433.11,230.6c11.08,10.22,8.39,29.81-5.4,36.2-17.14,7.93-36.7-5.49-32.61-24.69,3.61-16.95,25.67-22.9,38.02-11.5ZM430.66,246.9c0-7.36-5.96-13.32-13.32-13.32s-13.32,5.96-13.32,13.32,5.96,13.32,13.32,13.32,13.32-5.96,13.32-13.32Z" style="fill:#e6035f;"/><path d="M543.12,261.96c-12.13,13.45-36.77,7.05-39.41-11.71-2.5-17.75,15.1-30.07,31.37-23.87,14.55,5.55,18.3,24.2,8.04,35.58ZM539.55,246.92c0-7.36-5.96-13.32-13.32-13.32s-13.32,5.96-13.32,13.32,5.96,13.32,13.32,13.32,13.32-5.96,13.32-13.32Z" style="fill:#e6035f;"/><path d="M289.02,268.38h-10.21l-9.59-13.76h-7.3v13.13l-.63.63h-8.55v-42.94h21.47c.75,0,4.08.92,5.02,1.23,12.51,4.21,11.66,22.02-.22,26.49l10,15.22ZM261.93,246.29h11.88c1,0,3.6-2,4.13-2.95,1.24-2.22.95-5.94-.99-7.7-.5-.46-3.55-1.85-3.98-1.85h-11.05v12.51Z" style="fill:#e6035f;"/><polygon points="354.89 225.45 354.89 242.54 371.77 242.54 372.4 241.91 372.4 225.45 381.57 225.45 381.57 268.38 372.4 268.38 372.4 251.5 371.77 250.88 355.51 250.88 354.89 251.5 354.89 267.76 354.26 268.38 345.93 268.38 345.3 267.76 345.3 226.07 345.93 225.45 354.89 225.45" style="fill:#e6035f;"/><path d="M760.86,237.06l-.89-.02c-3.87-2.52-8.88-4.85-13.58-3.4-3.17.98-3.49,5.03-.63,6.75,6.95,4.17,20.86,2.37,21,14.88.2,17.41-24.26,15.97-33.59,7.28-.51-.5-.01-.7.22-1.06.56-.88,4.19-5.4,4.89-5.58h.66c3.43,3.55,14.39,7.34,17.81,2.68,4.18-5.69-8.13-7.45-11.16-8.45-5.22-1.72-10.17-3.74-10.89-9.95-2.03-17.37,20.32-18.77,30.36-9.92l-4.19,6.78Z" style="fill:#e6035f;"/><path d="M717.92,237.89c-.81.47-3.18-1.93-4.25-2.52-16.51-9.14-26.9,14.21-14.18,22.94,6.44,4.42,12.99,1.53,18.48-2.67l5.39,5.5c-2.71,4.24-7.88,6.79-12.73,7.61-28.1,4.72-36.23-33.77-12.47-42.48,8.02-2.94,19.26-1.67,24.83,5.22l-5.07,6.4Z" style="fill:#e6035f;"/><polygon points="333.63 225.45 333.63 234.2 320.71 234.2 320.71 267.76 320.08 268.38 311.74 268.38 311.12 267.76 311.12 234.2 298.82 234.2 298.2 233.58 298.2 225.45 333.63 225.45" style="fill:#e6035f;"/><path d="M647.11,225.45v8.75h-12.92v34.18h-8.96c-.59-.37-.58-.83-.65-1.44-.89-7.6-.25-20.77,0-28.8.02-.75,1-3.94-.19-3.94h-12.09l-.63-.63v-8.13h35.43Z" style="fill:#e6035f;"/><rect x="661.28" y="225.45" width="9.59" height="42.94" style="fill:#e6035f;"/></svg>