<?xml version="1.0" encoding="UTF-8"?><svg id="Layer_1" xmlns="http://www.w3.org/2000/svg" viewBox="0 0 762.72 305.99"><path d="M366.9,202.75c2.92,1.52,5.28,3.55,7.08,6.08,1.8,2.53,2.7,5.63,2.7,9.29,0,3.22-.8,6.02-2.41,8.41-1.61,2.39-3.74,4.34-6.39,5.86-2.7,1.52-5.76,2.65-9.19,3.39-3.43.74-7.02,1.11-10.77,1.11h-24.11v-2.09c.72-.02,1.62-.07,2.7-.16,1.08-.09,1.8-.2,2.16-.32.81-.27,1.37-.63,1.69-1.09.31-.46.47-1.01.47-1.65v-26.98c0-.61-.15-1.16-.44-1.65-.29-.49-.87-.89-1.72-1.19-.85-.3-1.76-.51-2.71-.62-.96-.11-1.69-.18-2.21-.21v-2.09h25.46c2.72,0,5.63.28,8.73.83,3.1.55,6.09,1.58,8.97,3.08ZM360.02,230.03c1.1-1.43,1.91-3.13,2.41-5.11.51-1.98.76-4.25.76-6.83s-.34-4.82-1.01-6.89c-.67-2.07-1.66-3.84-2.97-5.31-1.3-1.47-2.93-2.6-4.87-3.41-1.94-.8-4.15-1.21-6.63-1.21-.79,0-1.68.01-2.68.04-1,.03-1.75.05-2.24.07v28.89c0,.64.11,1.21.32,1.7.21.49.58.93,1.1,1.3.52.38,1.15.67,1.91.87.75.21,1.74.31,2.95.31,2.54,0,4.72-.38,6.54-1.13s3.29-1.85,4.42-3.3Z" style="fill:#939598;"/><path d="M104.06,170.14l-2.99,7.31c-11.63,5.92-24.05,8.88-37.25,8.88-18.92,0-34.28-5.37-46.1-16.11C5.91,159.48,0,145.44,0,128.09c0-11.95,2.95-22.39,8.84-31.32,5.9-8.93,13.68-15.61,23.34-20.04,9.67-4.43,20.53-6.64,32.58-6.64,6.97,0,13.86.73,20.67,2.2,6.81,1.47,12.5,3.22,17.06,5.27l.55.79c-1.21,2.94-2.33,10.19-3.38,21.77l-.55.63h-3.69l-.63-.63-.79-13.36c-3.83-3.04-8.45-5.41-13.87-7.11-5.42-1.7-11.07-2.55-16.94-2.55-8.86,0-16.79,1.9-23.81,5.7-7.02,3.8-12.47,9.3-16.35,16.51-3.88,7.21-5.82,16.02-5.82,26.45s2.28,19.68,6.84,27.59c4.56,7.91,10.78,13.99,18.67,18.23,7.89,4.24,17.09,6.37,27.63,6.37,4.66,0,9.14-.44,13.44-1.34,4.3-.89,7.87-1.99,10.73-3.3,2.86-1.31,5.59-2.91,8.21-4.79l1.34,1.65Z" style="fill:#005daa;"/><path d="M132.21,67.02l1.49.94c-.58,6.03-.86,18.1-.86,36.23v19.41c4.4-3.62,8.49-7.2,12.26-10.77,1.1-.99,2.15-1.73,3.14-2.2.99-.47,2.61-.97,4.83-1.49,2.23-.52,4.52-.79,6.88-.79,3.98,0,7.85.81,11.59,2.44,3.75,1.62,6.57,3.55,8.49,5.78,1.91,2.23,3.23,4.86,3.97,7.9.73,3.04,1.1,6.79,1.1,11.24v13.83c0,.89.13,7.42.39,19.57.16,4.98.72,7.94,1.69,8.88.97.94,4.21,1.41,9.71,1.41l.63.63v3.38l-.63.63c-6.65-.42-11.16-.63-13.52-.63-1.21,0-5.03.21-11.48.63l-.94-.86c.68-6.81,1.02-15.69,1.02-26.64v-10.3c0-6.18-.14-10.64-.43-13.36-.29-2.72-1.17-5.2-2.63-7.43-1.47-2.23-3.42-3.96-5.86-5.19-2.44-1.23-5.38-1.85-8.84-1.85s-6.54.48-8.92,1.45c-2.39.97-4.81,2.61-7.27,4.91-2.46,2.31-3.94,4.23-4.44,5.78-.5,1.55-.75,4.52-.75,8.92v13.99c0,1.15.1,4.86.31,11.12.21,6.26.43,9.92.67,10.96.24,1.05.59,1.81,1.06,2.28s1.05.77,1.73.9c.68.13,3.51.35,8.49.67l.71.63v3.3l-.63.71c-6.55-.42-12.86-.63-18.94-.63s-12.31.21-18.86.63l-.71-.71v-3.3l.71-.63c5.08-.31,7.95-.55,8.61-.71.65-.16,1.23-.48,1.73-.98.5-.5.84-1.26,1.02-2.28.18-1.02.39-4.4.63-10.14.24-5.74.35-10.07.35-13.01v-40.71l-.31-16.66c-.16-5.82-.33-9.85-.51-12.1-.18-2.25-.43-3.59-.75-4.01-.31-.42-.86-.73-1.65-.94-.79-.21-3.96-.31-9.51-.31l-.71-.71v-3.3l.63-.71c10.01-1.15,18.44-3.09,25.31-5.82Z" style="fill:#005daa;"/><path d="M212.77,130.14l-3.07-.79-.63-.79v-9.75c9.33-6.92,18.39-10.37,27.19-10.37,6.02,0,11.03,1.13,15.01,3.38,3.98,2.25,6.86,5.07,8.65,8.45,1.78,3.38,2.67,7.32,2.67,11.83l-.39,15.8v23.42c0,3.2.22,5.14.67,5.82.44.68.96,1.14,1.53,1.38.58.24,1.65.43,3.22.59l4.48.39.63.71v3.14l-.63.63c-3.83-.31-7.39-.47-10.69-.47s-6.92.16-11.32.47l-1.18-1.1.31-12.65-17.13,13.36c-2.88,1.2-6.03,1.81-9.43,1.81-4.19,0-7.79-.76-10.81-2.28-3.01-1.52-5.32-3.64-6.92-6.37-1.6-2.72-2.4-6.02-2.4-9.9,0-7.7,2.41-13.71,7.23-18.04,4.82-4.32,17.97-8,39.46-11.04,0-7.75-1.73-13.22-5.19-16.39-3.46-3.17-8.1-4.76-13.91-4.76-3.04,0-5.8.45-8.29,1.34-2.49.89-3.92,1.61-4.28,2.16-.37.55-1.78,3.76-4.24,9.63l-.55.39ZM249.24,142.56c-14.67,2.46-23.81,5.11-27.43,7.94-3.62,2.83-5.42,7.21-5.42,13.13,0,8.17,4.06,12.26,12.18,12.26,6.97,0,13.86-4.03,20.67-12.1v-21.22Z" style="fill:#005daa;"/><path d="M300.42,108.52l1.49,1.02c-.31,3.51-.52,8.12-.63,13.83,4.19-3.46,8.17-6.97,11.95-10.53,1.1-.99,2.13-1.73,3.1-2.2.97-.47,2.58-.97,4.83-1.49,2.25-.52,4.56-.79,6.92-.79,3.98,0,7.85.81,11.59,2.44,3.75,1.62,6.58,3.55,8.49,5.78,1.91,2.23,3.23,4.86,3.97,7.9.73,3.04,1.1,6.79,1.1,11.24v13.83c0,.89.13,7.42.39,19.57.1,4.98.65,7.94,1.65,8.88.99.94,4.24,1.41,9.75,1.41l.63.63v3.38l-.63.63c-6.65-.42-11.16-.63-13.52-.63-1.36,0-5.19.21-11.48.63l-.94-.86c.68-6.81,1.02-15.69,1.02-26.64v-10.3c0-6.18-.14-10.64-.43-13.36-.29-2.72-1.17-5.2-2.63-7.43-1.47-2.23-3.43-3.96-5.89-5.19-2.46-1.23-5.4-1.85-8.8-1.85-2.73,0-5.06.28-7,.83-1.94.55-4.11,1.68-6.52,3.38-2.41,1.7-4.19,3.3-5.34,4.79-1.15,1.49-1.85,2.88-2.08,4.17-.24,1.28-.35,4.02-.35,8.21v13.68c0,1.15.1,4.86.31,11.12.21,6.26.43,9.92.67,10.96.24,1.05.59,1.81,1.06,2.28s1.05.77,1.73.9c.68.13,3.51.35,8.49.67l.71.63v3.3l-.63.71c-6.55-.42-12.86-.63-18.94-.63s-12.31.21-18.86.63l-.71-.71v-3.3l.71-.63c5.08-.31,7.95-.55,8.61-.71.65-.16,1.23-.48,1.73-.98.5-.5.84-1.26,1.02-2.28.18-1.02.39-4.4.63-10.14.24-5.74.35-10.07.35-13.01v-15.48c0-2.09-.11-4.95-.31-8.57-.21-3.62-.38-5.84-.51-6.68-.13-.84-.54-1.45-1.22-1.85-.68-.39-2.04-.59-4.09-.59l-6.6-.08-.71-.63v-3.38l.63-.63c10.01-1.2,18.44-3.17,25.31-5.89Z" style="fill:#005daa;"/><path d="M397.55,219.75c-.46-2.11-.69-4.36-.69-6.74,0-5.61,1.06-9.94,3.17-13.02l-9.14-1.68c-1.09.76-2.69,2.09-4.06,4.16-.24.36-.88,1.37-1.46,2.8-1.37,3.4-1.26,6.43-1.18,8.01.05,1.13.29,4.36,1.96,8.13,2.76,6.26,7.52,9.61,9.84,11.2,1.91,1.31,4.66,2.87,8.19,3.97,4.11,1.28,7.4,1.37,9.88,1.37,4.32,0,8.04-.52,11.16-1.57,1.14-.38,2.21-.84,3.25-1.33.34-.15.67-.31.99-.48.13-.07.26-.14.39-.22.18-.1.37-.19.54-.3.17-.1.31-.2.47-.31.57-.35,1.12-.72,1.65-1.11.14-.1.28-.2.41-.3.15-.12.32-.22.46-.34.02-.02.04-.04.07-.06,3.9-3.04,5.81-6.54,6.75-9.24,1.28-3.7,2.31-9.61,2.23-15.52-.14-10.61-5.95-20.42-15.28-25.46-.09-.05-.17-.09-.26-.14-8.29-4.4-15.97-4.74-19.57-4.67-6.65,0-11.04-3.14-13.17-4.09-2.12-.94-3.18-2.57-3.18-4.87,0-1.26.44-2.49,1.34-3.69.89-1.2,2.88-3.04,5.97-5.5h3.62c4.92,0,9.31-.73,13.16-2.2,4.57-1.74,8.56-4.18,11.99-7.32,1.29-1.19,2.45-2.52,3.42-3.98,3.06-4.61,4.59-9.41,4.59-14.4,0-3.14-.73-6.16-2.2-9.04h14.62c.52-.99,1.86-3.14,4.01-6.44l-.63-1.41c-5.66.21-13.23.31-22.71.31-5.92-4.24-12.16-6.37-18.71-6.37-3.77,0-7.95.67-12.54,2-4.59,1.34-8.72,3.16-12.42,5.46-3.69,2.31-6.46,5.38-8.29,9.23-1.83,3.85-2.75,7.9-2.75,12.14,0,4.61,1.3,8.86,3.89,12.73,2.59,3.88,7.61,6.79,15.05,8.72l-9.59,6.91c-2.79,2.01-4.73,5.09-5,8.52-.02.26-.03.51-.03.76,0,1.94.59,3.6,1.77,4.99,1.18,1.39,4.05,2.79,8.61,4.2,2.42.55,4.79,1.56,7.27,1.65,1.69.06,16.85-2.27,27.85,8.89,7.6,7.71,8.66,17.09,8.87,19.89-.04,2.3-.47,9.24-5.67,15.07-2.21,2.48-4.61,4-6.43,4.92-1.6.9-3.51,1.34-5.73,1.34s-4.98-.44-6.53-1.33c-1.67-.72-4.87-2.72-7.66-7.22-1.71-2.74-2.32-5.37-2.56-7.04ZM416.47,149.08c-3.38,3.04-7.4,4.56-12.06,4.56-3.51,0-6.67-.94-9.47-2.83-2.8-1.89-4.83-4.66-6.09-8.33-1.26-3.67-1.89-7.1-1.89-10.3,0-6.13,1.61-10.75,4.83-13.87,3.22-3.12,7.22-4.68,11.99-4.68,5.66,0,10.03,2.18,13.13,6.52,3.09,4.35,4.64,9.25,4.64,14.7,0,6.44-1.69,11.19-5.07,14.23Z" style="fill:#005daa;"/><path d="M54.91,203.07c2.36,1.72,4.23,3.79,5.61,6.22,1.38,2.43,2.07,5.2,2.07,8.31,0,2.77-.58,5.41-1.75,7.91-1.17,2.5-2.86,4.66-5.06,6.46-2.32,1.88-5.04,3.34-8.16,4.39-3.12,1.05-6.84,1.57-11.16,1.57-3.48,0-6.78-.46-9.88-1.37-3.1-.91-5.83-2.23-8.19-3.97-2.34-1.7-4.19-3.76-5.56-6.2-1.37-2.43-2.06-5.14-2.06-8.13s.67-5.93,2.01-8.46c1.34-2.53,3.17-4.7,5.51-6.5,2.32-1.77,5.06-3.13,8.24-4.09,3.18-.96,6.57-1.43,10.17-1.43s6.93.47,10.06,1.39c3.14.93,5.85,2.23,8.14,3.89ZM46.25,230.32c1.01-1.63,1.74-3.47,2.19-5.53.45-2.06.67-4.39.67-6.98,0-2.2-.2-4.35-.59-6.43-.39-2.09-1.06-3.94-2.01-5.57-.97-1.63-2.25-2.94-3.84-3.92-1.6-.98-3.59-1.48-5.97-1.48-4.07,0-7.16,1.54-9.27,4.61-2.11,3.07-3.17,7.41-3.17,13.02,0,2.38.23,4.63.69,6.74.46,2.11,1.19,3.96,2.17,5.53,1.01,1.59,2.29,2.83,3.84,3.72,1.55.89,3.46,1.33,5.73,1.33s4.14-.45,5.73-1.34c1.6-.9,2.87-2.12,3.81-3.68Z" style="fill:#939598;"/><path d="M129.15,236.89h-18.36c-3.17-3.86-5.8-6.94-7.9-9.23-2.1-2.29-4.71-4.94-7.83-7.94h-1.85v11.56c0,.64.15,1.19.46,1.64.3.45.88.82,1.74,1.13.43.14,1.1.29,2.01.44.91.15,1.69.25,2.34.31v2.09h-25.52v-2.09c.65-.05,1.51-.13,2.58-.23,1.07-.1,1.83-.22,2.28-.36.85-.29,1.43-.65,1.72-1.09.29-.44.44-1,.44-1.68v-26.85c0-.64-.12-1.18-.37-1.61-.25-.43-.84-.8-1.79-1.13-.72-.23-1.57-.43-2.55-.59s-1.75-.28-2.31-.35v-2.09h26.84c6,0,10.56.75,13.67,2.24,3.11,1.49,4.67,3.75,4.67,6.77,0,2.66-.96,4.81-2.88,6.42-1.92,1.62-4.85,2.88-8.78,3.8,1.53,1.57,3.31,3.4,5.34,5.47,2.03,2.07,4.15,4.19,6.36,6.36.7.7,1.65,1.55,2.85,2.56,1.2,1.01,2.26,1.63,3.19,1.86.52.13,1.17.23,1.97.32.8.09,1.37.14,1.7.16v2.09ZM106.19,208.6c0-2.54-.89-4.39-2.68-5.57-1.79-1.17-4.33-1.76-7.64-1.76h-2.66v15.93h2.56c3.3,0,5.87-.69,7.69-2.07,1.82-1.38,2.73-3.56,2.73-6.54Z" style="fill:#939598;"/><path d="M180.66,209.72h-2.63c-.7-1.63-1.81-3.37-3.35-5.23-1.54-1.86-2.96-2.86-4.26-3-.72-.07-1.6-.13-2.66-.19-1.05-.05-1.96-.08-2.72-.08h-1.58v29.85c0,.64.15,1.21.44,1.7.29.49.87.88,1.72,1.17.52.16,1.32.33,2.41.5,1.09.17,2.02.29,2.78.36v2.09h-26.67v-2.09c.65-.05,1.57-.13,2.75-.23,1.18-.1,1.98-.22,2.41-.36.88-.29,1.46-.67,1.75-1.15.29-.48.44-1.05.44-1.72v-30.12h-1.58c-.76,0-1.67.03-2.72.08-1.05.05-1.94.12-2.66.19-1.3.14-2.72,1.14-4.26,3-1.54,1.86-2.65,3.6-3.35,5.23h-2.63v-10.89h46.36v10.89Z" style="fill:#939598;"/><path d="M248.73,236.89h-25.86v-2.09c.56-.04,1.38-.09,2.46-.16,1.08-.07,1.82-.18,2.23-.32.83-.27,1.4-.62,1.72-1.06.31-.44.47-1,.47-1.68v-13.12h-20.43v12.82c0,.61.16,1.15.49,1.64.33.48.88.86,1.67,1.13.43.14,1.16.3,2.19.46,1.03.16,1.88.26,2.53.3v2.09h-25.86v-2.09c.56-.02,1.39-.08,2.48-.17,1.09-.1,1.88-.22,2.38-.36.81-.23,1.37-.59,1.69-1.06.31-.47.47-1.03.47-1.68v-26.93c0-.63-.14-1.15-.42-1.58-.28-.43-.86-.8-1.74-1.13-.65-.23-1.51-.44-2.56-.63-1.06-.19-1.82-.3-2.29-.34v-2.09h25.86v2.09c-.7.04-1.53.13-2.5.27-.97.14-1.71.28-2.23.4-.88.23-1.46.6-1.74,1.11-.28.51-.42,1.05-.42,1.62v11.37h20.43v-11.1c0-.63-.15-1.15-.44-1.58-.29-.43-.88-.8-1.75-1.13-.58-.21-1.37-.42-2.34-.6s-1.76-.31-2.34-.36v-2.09h25.86v2.09c-.72.04-1.53.11-2.43.23-.9.12-1.71.26-2.43.44-.85.23-1.43.6-1.72,1.1-.29.5-.44,1.05-.44,1.64v26.96c0,.64.15,1.19.44,1.64.29.45.87.82,1.72,1.13.54.18,1.32.34,2.34.48,1.02.14,1.86.23,2.51.27v2.09Z" style="fill:#939598;"/><path d="M304.5,203.07c2.36,1.72,4.23,3.79,5.61,6.22,1.38,2.43,2.07,5.2,2.07,8.31,0,2.77-.58,5.41-1.75,7.91-1.17,2.5-2.86,4.66-5.06,6.46-2.32,1.88-5.04,3.34-8.16,4.39-3.12,1.05-6.84,1.57-11.16,1.57-3.48,0-6.78-.46-9.88-1.37-3.1-.91-5.83-2.23-8.19-3.97-2.34-1.7-4.19-3.76-5.56-6.2-1.37-2.43-2.06-5.14-2.06-8.13s.67-5.93,2.01-8.46c1.34-2.53,3.17-4.7,5.51-6.5,2.32-1.77,5.06-3.13,8.24-4.09,3.18-.96,6.57-1.43,10.17-1.43s6.93.47,10.06,1.39c3.14.93,5.85,2.23,8.14,3.89ZM295.83,230.32c1.01-1.63,1.74-3.47,2.19-5.53.45-2.06.67-4.39.67-6.98,0-2.2-.2-4.35-.59-6.43-.39-2.09-1.06-3.94-2.01-5.57-.97-1.63-2.25-2.94-3.84-3.92-1.6-.98-3.59-1.48-5.97-1.48-4.07,0-7.16,1.54-9.27,4.61-2.11,3.07-3.17,7.41-3.17,13.02,0,2.38.23,4.63.69,6.74.46,2.11,1.19,3.96,2.17,5.53,1.01,1.59,2.29,2.83,3.84,3.72,1.55.89,3.46,1.33,5.73,1.33s4.14-.45,5.73-1.34c1.6-.9,2.87-2.12,3.81-3.68Z" style="fill:#939598;"/><path d="M506.78,200.93c-.63.05-1.53.15-2.7.3-1.17.14-2.23.49-3.17,1.05-.83.48-1.42,1.31-1.77,2.48-.35,1.17-.52,2.89-.52,5.16v27.2h-6l-29.81-29.42v17.86c0,2.22.19,3.9.56,5.06.37,1.15.97,2,1.8,2.53.61.39,1.57.74,2.9,1.05,1.33.3,2.38.51,3.17.62v2.09h-20.57v-2.09c.88-.05,1.88-.18,3.02-.39,1.13-.21,2.08-.52,2.85-.95.88-.52,1.48-1.3,1.8-2.35.33-1.05.49-2.8.49-5.27v-18.02c0-.89-.17-1.74-.52-2.53-.35-.8-.89-1.48-1.64-2.05-.79-.61-1.69-1.09-2.71-1.43-1.02-.35-2.19-.62-3.49-.82v-2.15h18.01l26.16,25.74v-14.4c0-2.29-.19-3.99-.57-5.11-.38-1.12-.99-1.94-1.82-2.48-.65-.41-1.62-.76-2.9-1.06-1.28-.3-2.32-.5-3.1-.6v-2.09h20.53v2.09Z" style="fill:#939598;"/><path d="M561.16,209.72h-2.63c-.7-1.63-1.81-3.37-3.35-5.23-1.54-1.86-2.96-2.86-4.26-3-.72-.07-1.6-.13-2.66-.19-1.05-.05-1.96-.08-2.72-.08h-1.58v29.85c0,.64.15,1.21.44,1.7.29.49.87.88,1.72,1.17.52.16,1.32.33,2.41.5,1.09.17,2.02.29,2.78.36v2.09h-26.67v-2.09c.65-.05,1.57-.13,2.75-.23,1.18-.1,1.98-.22,2.41-.36.88-.29,1.46-.67,1.75-1.15.29-.48.44-1.05.44-1.72v-30.12h-1.58c-.76,0-1.67.03-2.72.08-1.05.05-1.94.12-2.66.19-1.3.14-2.72,1.14-4.26,3-1.54,1.86-2.65,3.6-3.35,5.23h-2.63v-10.89h46.36v10.89Z" style="fill:#939598;"/><path d="M597.16,236.89h-26.54v-2.09c.61-.04,1.5-.09,2.68-.16,1.18-.07,1.99-.18,2.44-.32.83-.27,1.4-.62,1.7-1.06.3-.44.46-1,.46-1.68v-26.98c0-.61-.15-1.14-.44-1.61-.29-.46-.87-.84-1.72-1.13-.54-.18-1.34-.36-2.39-.55-1.06-.19-1.97-.32-2.73-.39v-2.09h26.54v2.09c-.67.05-1.52.13-2.53.23-1.01.1-1.87.24-2.56.42-.88.23-1.46.59-1.75,1.09-.29.49-.44,1.05-.44,1.68v26.96c0,.64.15,1.19.46,1.65s.88.83,1.74,1.11c.47.16,1.25.32,2.34.47,1.09.15,2.01.25,2.75.28v2.09Z" style="fill:#939598;"/><path d="M633.6,237.94c-3.51,0-6.79-.45-9.85-1.36-3.06-.9-5.72-2.22-7.99-3.93-2.23-1.68-3.98-3.76-5.26-6.24-1.28-2.48-1.92-5.21-1.92-8.18s.65-5.69,1.94-8.21c1.29-2.52,3.11-4.7,5.45-6.54,2.29-1.81,5.05-3.21,8.26-4.2,3.21-.99,6.65-1.49,10.32-1.49,2.65,0,5.07.26,7.25.78,2.18.52,4.02,1.1,5.53,1.74l2.09-1.48h2.93l.3,13.89h-2.97c-1.68-4.25-3.7-7.37-6.06-9.35-2.36-1.99-5.23-2.98-8.62-2.98-4.22,0-7.43,1.48-9.63,4.45-2.2,2.96-3.3,7.12-3.3,12.48,0,3.03.38,5.61,1.13,7.75s1.73,3.86,2.95,5.17c1.3,1.36,2.84,2.36,4.61,3,1.77.64,3.74.95,5.89.95,3.14,0,5.94-.68,8.4-2.04,2.46-1.36,4.7-3.42,6.72-6.17l2.9,1.39c-.97,1.57-2.07,2.98-3.3,4.22-1.24,1.24-2.66,2.31-4.28,3.21-1.78.98-3.74,1.75-5.88,2.31-2.15.55-4.68.83-7.6.83Z" style="fill:#939598;"/><path d="M684.88,237.94c-2.92,0-5.65-.29-8.18-.87-2.53-.58-4.67-1.26-6.42-2.05l-2.33,1.88h-2.87l-.44-13.76h2.9c.65,1.31,1.48,2.69,2.5,4.14,1.01,1.45,2.18,2.75,3.51,3.9,1.37,1.2,2.91,2.18,4.6,2.93,1.7.75,3.68,1.13,5.95,1.13,3.06,0,5.4-.59,7.03-1.78,1.63-1.19,2.44-2.69,2.44-4.5,0-1.49-.69-2.73-2.07-3.74-1.38-1.01-3.52-1.88-6.42-2.62-1.89-.48-3.62-.93-5.21-1.35s-3.07-.84-4.47-1.27c-3.21-1.02-5.6-2.48-7.16-4.38-1.56-1.9-2.34-4.02-2.34-6.36,0-1.49.4-2.91,1.21-4.28.81-1.37,1.99-2.6,3.54-3.69,1.48-1.02,3.38-1.85,5.7-2.5,2.32-.64,4.83-.97,7.55-.97s5.14.3,7.45.89c2.32.59,4.14,1.18,5.46,1.77l2.06-1.61h2.93l.27,12.98h-2.9c-.67-1.4-1.47-2.83-2.38-4.29-.91-1.46-1.87-2.67-2.88-3.64-1.1-1.04-2.37-1.87-3.81-2.49-1.44-.62-3.12-.93-5.06-.93-2.43,0-4.41.55-5.95,1.64-1.54,1.09-2.31,2.44-2.31,4.06,0,1.52.67,2.77,2.01,3.73,1.34.97,3.42,1.82,6.25,2.55,1.66.45,3.36.89,5.09,1.34,1.73.45,3.27.88,4.62,1.29,3.26,1,5.74,2.39,7.43,4.15,1.7,1.76,2.55,3.95,2.55,6.57,0,1.65-.48,3.24-1.45,4.78-.97,1.54-2.27,2.82-3.91,3.84-1.8,1.13-3.88,2-6.24,2.61-2.36.61-5.11.91-8.26.91Z" style="fill:#939598;"/><path d="M312.54,297.39h-12.15v-1.38c.44-.01,1-.06,1.7-.14.69-.08,1.17-.19,1.42-.33.4-.25.69-.53.88-.84.19-.32.28-.71.28-1.19v-20h-.29l-9.38,23.43h-.97l-8.93-23.91h-.25v16.41c0,1.59.1,2.8.3,3.62.2.83.51,1.42.92,1.78.28.27.87.53,1.76.78.89.25,1.47.37,1.74.39v1.38h-11.1v-1.38c.58-.05,1.19-.15,1.83-.29.64-.14,1.13-.36,1.48-.64.45-.36.76-.92.93-1.67.17-.75.25-2,.25-3.76v-14.07c0-.81-.1-1.48-.29-2-.19-.52-.47-.94-.83-1.26-.4-.35-.89-.61-1.47-.78-.58-.17-1.16-.26-1.72-.29v-1.38h9.38l7.88,20.64,6.72-17.27c.25-.63.45-1.3.63-1.99.17-.69.27-1.15.28-1.39h8.97v1.38c-.36.01-.82.07-1.39.17-.56.1-.97.2-1.23.29-.44.16-.74.41-.89.78-.16.36-.23.76-.23,1.18v19.82c0,.45.08.83.23,1.14s.45.58.89.81c.23.13.65.25,1.24.36.59.11,1.07.17,1.41.18v1.38Z" style="fill:#005daa;"/><path d="M324.61,297.39h-9.22v-1.28c.3-.03.6-.05.92-.08.32-.03.59-.08.82-.15.36-.12.63-.32.8-.61.17-.29.26-.67.26-1.13v-11.79c0-.41-.09-.79-.28-1.13-.19-.34-.45-.63-.78-.86-.25-.16-.6-.29-1.07-.4-.47-.11-.89-.18-1.28-.2v-1.28l6.74-.43.27.27v15.58c0,.45.09.83.26,1.12.17.3.45.52.82.66.28.12.56.21.83.28.27.07.57.12.9.15v1.28ZM322.18,270.51c0,.74-.24,1.38-.73,1.93-.48.55-1.08.82-1.79.82-.66,0-1.23-.26-1.72-.79-.48-.52-.73-1.12-.73-1.79,0-.71.24-1.33.73-1.86.48-.53,1.06-.79,1.72-.79.74,0,1.34.25,1.81.75.47.5.71,1.08.71,1.73Z" style="fill:#005daa;"/><path d="M335.41,297.89c-2.76,0-4.93-.92-6.49-2.75-1.56-1.83-2.34-4.29-2.34-7.38,0-1.34.21-2.6.63-3.77.42-1.17,1.03-2.23,1.83-3.19.76-.92,1.72-1.66,2.87-2.22,1.15-.56,2.4-.84,3.76-.84,1.87,0,3.4.45,4.57,1.35,1.18.9,1.76,2.12,1.76,3.67,0,.65-.16,1.22-.47,1.72-.31.5-.82.75-1.53.75-.76,0-1.35-.19-1.77-.58-.42-.39-.63-.82-.63-1.29,0-.58.08-1.18.23-1.79s.25-1.06.27-1.34c-.23-.4-.58-.67-1.03-.8-.46-.13-.95-.2-1.48-.2-.62,0-1.21.13-1.77.4-.56.26-1.11.75-1.63,1.46-.48.65-.86,1.52-1.16,2.62-.3,1.1-.44,2.41-.44,3.93,0,2.4.53,4.36,1.6,5.88,1.06,1.52,2.46,2.28,4.19,2.28,1.25,0,2.3-.31,3.14-.92.84-.61,1.63-1.53,2.35-2.75l1.24.81c-.85,1.52-1.98,2.73-3.37,3.62s-2.84,1.34-4.32,1.34Z" style="fill:#005daa;"/><path d="M364.99,297.39h-9.4v-1.28c.3-.03.63-.05.99-.08.36-.03.66-.08.89-.16.36-.12.63-.32.8-.61.17-.29.26-.67.26-1.13v-9.82c0-1.36-.32-2.4-.96-3.14s-1.42-1.1-2.34-1.1c-.67,0-1.3.11-1.87.32-.58.21-1.09.48-1.54.79-.44.32-.78.65-1.01.97-.23.32-.41.59-.54.81v10.99c0,.44.09.8.26,1.09.17.28.44.5.8.66.28.13.58.23.88.29.3.06.64.11,1,.14v1.28h-9.36v-1.28c.29-.03.6-.05.92-.09.32-.03.59-.08.81-.15.36-.12.63-.32.81-.61.18-.29.27-.67.27-1.13v-22.26c0-.44-.1-.88-.3-1.32-.2-.44-.46-.77-.79-.99-.23-.17-.64-.29-1.23-.36-.59-.07-1.06-.12-1.42-.15v-1.24l7.07-.43.27.29v13.33h.08c.43-.43.81-.8,1.16-1.13.35-.33.81-.67,1.38-1.04.49-.31,1.07-.57,1.74-.78.67-.21,1.41-.31,2.24-.31,1.71,0,3.02.54,3.94,1.62.92,1.08,1.38,2.63,1.38,4.66v9.94c0,.45.08.82.24,1.09.16.28.43.49.81.65.3.12.57.2.81.26.24.06.56.1.95.13v1.28Z" style="fill:#005daa;"/><path d="M385,297.04c-.61.22-1.14.4-1.6.53-.46.14-.98.2-1.56.2-1.01,0-1.81-.24-2.41-.71-.6-.47-.99-1.16-1.15-2.06h-.12c-.84.93-1.74,1.64-2.7,2.13-.96.49-2.12.74-3.48.74-1.43,0-2.61-.44-3.54-1.32-.92-.88-1.39-2.03-1.39-3.45,0-.74.1-1.4.31-1.98.21-.58.52-1.1.93-1.57.32-.39.75-.73,1.28-1.04.53-.3,1.03-.55,1.49-.73.58-.22,1.76-.63,3.54-1.22,1.78-.59,2.97-1.06,3.59-1.4v-1.92c0-.17-.04-.49-.11-.97-.07-.48-.22-.93-.46-1.36-.26-.48-.62-.89-1.09-1.25-.47-.36-1.14-.53-2.01-.53-.59,0-1.15.1-1.66.3-.51.2-.87.41-1.08.63,0,.26.06.64.18,1.14.12.5.18.97.18,1.4,0,.45-.2.87-.61,1.24-.41.37-.97.56-1.7.56-.65,0-1.12-.23-1.42-.69-.3-.46-.46-.97-.46-1.54s.21-1.16.63-1.71c.42-.54.97-1.03,1.64-1.45.58-.36,1.29-.67,2.11-.92.83-.25,1.63-.38,2.42-.38,1.09,0,2.03.07,2.84.22.81.15,1.54.47,2.2.96.66.48,1.16,1.13,1.5,1.95.34.82.51,1.88.51,3.17,0,1.85-.02,3.48-.06,4.91-.04,1.43-.06,2.99-.06,4.68,0,.5.09.9.26,1.2.17.3.44.55.8.76.19.12.5.18.92.19.42.01.85.02,1.29.02v1.24ZM378.23,286.81c-1.1.32-2.06.64-2.89.95-.83.31-1.6.7-2.31,1.17-.65.44-1.16.96-1.53,1.56-.37.6-.56,1.32-.56,2.15,0,1.07.28,1.86.84,2.37.56.5,1.28.76,2.14.76.92,0,1.72-.22,2.42-.67s1.29-.97,1.76-1.58l.12-6.7Z" style="fill:#005daa;"/><path d="M403.47,292.89c-.8,1.52-1.87,2.74-3.22,3.64-1.34.9-2.89,1.36-4.63,1.36-1.54,0-2.88-.27-4.04-.81-1.16-.54-2.11-1.28-2.86-2.21-.75-.93-1.31-2.02-1.68-3.26-.37-1.24-.55-2.55-.55-3.93,0-1.24.2-2.46.59-3.65.39-1.19.97-2.27,1.73-3.23.74-.92,1.65-1.66,2.74-2.22,1.09-.56,2.32-.84,3.67-.84s2.59.22,3.58.66c.99.44,1.8,1.04,2.42,1.8.59.72,1.04,1.58,1.33,2.56.29.98.44,2.05.44,3.2v1.28h-12.65c0,1.26.12,2.4.36,3.42.24,1.02.62,1.92,1.13,2.7.5.75,1.16,1.34,1.98,1.78s1.78.65,2.91.65,2.14-.27,2.97-.81c.83-.54,1.64-1.51,2.41-2.91l1.36.83ZM399.19,285.6c0-.72-.06-1.49-.18-2.32-.12-.82-.32-1.51-.59-2.07-.3-.59-.7-1.07-1.22-1.45-.52-.37-1.18-.56-2-.56-1.36,0-2.48.56-3.38,1.69-.9,1.13-1.39,2.7-1.46,4.7h8.84Z" style="fill:#005daa;"/><path d="M414.24,297.39h-9.32v-1.28c.3-.03.61-.05.95-.09.34-.03.61-.08.83-.15.36-.12.63-.32.81-.61.18-.29.27-.67.27-1.13v-22.14c0-.47-.1-.9-.3-1.31-.2-.41-.46-.73-.79-.96-.23-.16-.66-.3-1.28-.43-.62-.13-1.12-.21-1.49-.23v-1.24l7.19-.43.27.29v26.22c0,.45.08.82.25,1.11.17.29.44.51.81.67.28.13.57.23.84.29.28.06.59.11.94.14v1.28Z" style="fill:#005daa;"/><path d="M438.02,298.04c-1.64,0-3.21-.32-4.71-.97-1.5-.65-2.84-1.58-4-2.79-1.15-1.22-2.07-2.7-2.75-4.45-.68-1.75-1.03-3.73-1.03-5.92s.34-4.19,1.01-5.98c.67-1.79,1.6-3.33,2.79-4.62,1.17-1.28,2.56-2.27,4.16-2.97,1.6-.7,3.31-1.05,5.13-1.05,1.35,0,2.58.17,3.68.5,1.1.34,2.14.81,3.14,1.41l.79-1.32h1.55l.17,9.8h-1.59c-.21-.96-.52-1.99-.93-3.11-.41-1.12-.9-2.06-1.45-2.84-.62-.88-1.35-1.57-2.21-2.06-.85-.5-1.83-.75-2.92-.75-1.25,0-2.42.28-3.49.83-1.08.56-2.01,1.38-2.8,2.46-.75,1.05-1.34,2.38-1.76,3.99-.43,1.62-.64,3.42-.64,5.41,0,1.76.22,3.37.67,4.84.45,1.47,1.08,2.76,1.91,3.87.83,1.1,1.8,1.96,2.93,2.58,1.13.62,2.39.93,3.78.93,1.05,0,2.01-.16,2.88-.49.88-.33,1.64-.77,2.28-1.31.65-.57,1.21-1.21,1.7-1.94.49-.72.89-1.51,1.2-2.36l1.45.7c-1.11,2.73-2.58,4.67-4.41,5.84-1.83,1.17-4.01,1.75-6.54,1.75Z" style="fill:#005daa;"/><path d="M471.3,297.39h-9.4v-1.28c.3-.03.63-.05.99-.08.36-.03.66-.08.89-.16.36-.12.63-.32.8-.61.17-.29.26-.67.26-1.13v-9.82c0-1.36-.32-2.4-.96-3.14s-1.42-1.1-2.34-1.1c-.67,0-1.3.11-1.87.32-.58.21-1.09.48-1.54.79-.44.32-.78.65-1.01.97-.23.32-.41.59-.54.81v10.99c0,.44.09.8.26,1.09.17.28.44.5.8.66.28.13.58.23.88.29.3.06.64.11,1,.14v1.28h-9.36v-1.28c.29-.03.6-.05.92-.09.32-.03.59-.08.81-.15.36-.12.63-.32.81-.61.18-.29.27-.67.27-1.13v-22.26c0-.44-.1-.88-.3-1.32-.2-.44-.46-.77-.79-.99-.23-.17-.64-.29-1.23-.36-.59-.07-1.06-.12-1.42-.15v-1.24l7.07-.43.27.29v13.33h.08c.43-.43.81-.8,1.16-1.13.35-.33.81-.67,1.38-1.04.49-.31,1.07-.57,1.74-.78.67-.21,1.41-.31,2.24-.31,1.71,0,3.02.54,3.94,1.62.92,1.08,1.38,2.63,1.38,4.66v9.94c0,.45.08.82.24,1.09.16.28.43.49.81.65.3.12.57.2.81.26.24.06.56.1.95.13v1.28Z" style="fill:#005daa;"/><path d="M491.3,297.04c-.61.22-1.14.4-1.6.53-.46.14-.98.2-1.56.2-1.01,0-1.81-.24-2.41-.71-.6-.47-.99-1.16-1.15-2.06h-.12c-.84.93-1.74,1.64-2.7,2.13-.96.49-2.12.74-3.48.74-1.43,0-2.61-.44-3.54-1.32-.92-.88-1.39-2.03-1.39-3.45,0-.74.1-1.4.31-1.98.21-.58.52-1.1.93-1.57.32-.39.75-.73,1.28-1.04.53-.3,1.03-.55,1.49-.73.58-.22,1.76-.63,3.54-1.22,1.78-.59,2.97-1.06,3.59-1.4v-1.92c0-.17-.04-.49-.11-.97-.07-.48-.22-.93-.46-1.36-.26-.48-.62-.89-1.09-1.25-.47-.36-1.14-.53-2.01-.53-.59,0-1.15.1-1.66.3-.51.2-.87.41-1.08.63,0,.26.06.64.18,1.14.12.5.18.97.18,1.4,0,.45-.2.87-.61,1.24-.41.37-.97.56-1.7.56-.65,0-1.12-.23-1.42-.69-.3-.46-.46-.97-.46-1.54s.21-1.16.63-1.71c.42-.54.97-1.03,1.64-1.45.58-.36,1.29-.67,2.11-.92.83-.25,1.63-.38,2.42-.38,1.09,0,2.03.07,2.84.22.81.15,1.54.47,2.2.96.66.48,1.16,1.13,1.5,1.95.34.82.51,1.88.51,3.17,0,1.85-.02,3.48-.06,4.91-.04,1.43-.06,2.99-.06,4.68,0,.5.09.9.26,1.2.17.3.44.55.8.76.19.12.5.18.92.19.42.01.85.02,1.29.02v1.24ZM484.54,286.81c-1.1.32-2.06.64-2.89.95-.83.31-1.6.7-2.31,1.17-.65.44-1.16.96-1.53,1.56-.37.6-.56,1.32-.56,2.15,0,1.07.28,1.86.84,2.37.56.5,1.28.76,2.14.76.92,0,1.72-.22,2.42-.67s1.29-.97,1.76-1.58l.12-6.7Z" style="fill:#005daa;"/><path d="M513.91,297.39h-9.34v-1.28c.3-.03.62-.05.98-.08.36-.03.65-.08.88-.16.36-.12.63-.32.8-.61.17-.29.26-.67.26-1.13v-9.82c0-1.36-.32-2.4-.96-3.14s-1.42-1.1-2.34-1.1c-.69,0-1.31.11-1.88.32-.57.21-1.07.48-1.51.79-.43.3-.77.62-1.02.96-.25.34-.44.62-.55.82v10.99c0,.44.09.8.27,1.09.18.28.45.5.81.66.27.13.57.23.88.29.32.06.64.11.98.14v1.28h-9.36v-1.28c.3-.03.6-.05.92-.08.32-.03.59-.08.82-.15.36-.12.63-.32.8-.61.17-.29.26-.67.26-1.13v-11.79c0-.44-.09-.84-.28-1.21-.19-.37-.45-.67-.78-.9-.25-.16-.54-.27-.87-.34-.34-.07-.7-.12-1.09-.15v-1.28l6.36-.43.27.27v2.69h.1c.31-.31.7-.68,1.16-1.11.47-.43.9-.79,1.32-1.06.48-.31,1.05-.57,1.71-.78.66-.21,1.4-.31,2.23-.31,1.83,0,3.19.57,4.08,1.72.88,1.14,1.33,2.66,1.33,4.56v9.94c0,.45.08.82.23,1.09.16.28.42.49.79.65.31.13.58.22.8.27.23.05.54.09.94.12v1.28Z" style="fill:#005daa;"/><path d="M532.23,295.41c.52.49.92,1.05,1.22,1.67.3.62.45,1.39.45,2.31s-.2,1.78-.6,2.59c-.4.81-1.01,1.51-1.82,2.1-.87.61-1.9,1.08-3.1,1.41-1.2.34-2.69.5-4.46.5-2.89,0-5.06-.42-6.49-1.27-1.43-.85-2.15-2.08-2.15-3.71,0-1.32.52-2.36,1.55-3.12,1.03-.76,2.35-1.18,3.95-1.24v-.27c-.39-.12-.79-.26-1.2-.44-.41-.17-.77-.38-1.07-.61-.34-.27-.61-.59-.81-.96-.21-.37-.31-.82-.31-1.37,0-.68.24-1.31.73-1.89.48-.57,1.22-1.07,2.2-1.48v-.29c-1.24-.58-2.2-1.33-2.89-2.24-.69-.91-1.03-1.97-1.03-3.17,0-1.81.68-3.29,2.02-4.46,1.35-1.16,3.08-1.74,5.18-1.74.58,0,1.16.06,1.73.17.57.12,1.16.26,1.75.45h6.67v1.86h-4.5v.12c.48.56.83,1.17,1.07,1.84.23.67.35,1.33.35,1.98,0,1.68-.68,3.1-2.04,4.26-1.36,1.16-2.95,1.74-4.76,1.74h-2.34c-.3.1-.61.29-.93.56-.32.27-.48.64-.48,1.1s.14.84.41,1.1c.27.25.6.42.99.51.37.1.81.17,1.31.19.5.03,1.01.05,1.54.06.57.01,1.35.05,2.34.12.99.06,1.69.1,2.1.12.59.03,1.19.17,1.79.43.6.26,1.15.61,1.64,1.07ZM530.72,300.1c0-.72-.17-1.32-.5-1.78-.34-.47-.85-.78-1.53-.95-.36-.05-1.1-.11-2.23-.17-1.12-.06-2.43-.1-3.91-.1-1.4.27-2.39.73-2.97,1.37-.59.64-.88,1.46-.88,2.47,0,.45.1.88.29,1.3.19.41.53.79,1.01,1.14.45.34,1.06.61,1.82.82.76.21,1.69.32,2.79.32,1.9,0,3.39-.37,4.49-1.09,1.09-.73,1.64-1.84,1.64-3.32ZM527,284.07c0-1.51-.31-2.72-.92-3.61-.61-.9-1.48-1.35-2.59-1.35-.61,0-1.13.13-1.56.38-.43.25-.79.61-1.06,1.08-.26.43-.44.94-.55,1.54-.11.6-.16,1.22-.16,1.85,0,1.43.31,2.6.94,3.51.63.9,1.44,1.36,2.43,1.36,1.11,0,1.97-.45,2.57-1.35.6-.9.9-2.03.9-3.4Z" style="fill:#005daa;"/><path d="M571.68,283.8c0,2.34-.44,4.37-1.32,6.08-.88,1.72-2.02,3.13-3.43,4.22-1.42,1.1-3.02,1.92-4.79,2.46-1.77.54-3.6.81-5.48.81h-11.39v-1.38c.37,0,.86-.04,1.46-.11.6-.07,1-.15,1.19-.24.39-.17.67-.42.84-.75.17-.33.26-.73.26-1.19v-19.84c0-.44-.07-.83-.22-1.18-.15-.35-.44-.63-.88-.83-.4-.19-.83-.34-1.3-.43-.47-.09-.87-.15-1.2-.17v-1.38h12.01c1.65,0,3.28.26,4.88.77,1.6.51,3,1.2,4.19,2.06,1.61,1.15,2.88,2.65,3.8,4.51.92,1.86,1.38,4.05,1.38,6.57ZM566.94,283.79c0-1.85-.25-3.51-.74-5-.49-1.49-1.21-2.79-2.15-3.9-.89-1.06-1.99-1.89-3.28-2.5-1.3-.61-2.74-.91-4.33-.91-.53,0-1.13,0-1.79.03-.67.02-1.16.04-1.48.05v21.12c0,1.17.34,1.99,1.03,2.44.68.45,1.74.68,3.16.68,1.64,0,3.07-.29,4.3-.87,1.23-.58,2.22-1.39,2.98-2.42.8-1.08,1.39-2.34,1.75-3.77.37-1.43.55-3.08.55-4.95Z" style="fill:#005daa;"/><path d="M601.01,283.8c0,2.34-.44,4.37-1.32,6.08-.88,1.72-2.02,3.13-3.43,4.22-1.42,1.1-3.02,1.92-4.79,2.46-1.77.54-3.6.81-5.48.81h-11.39v-1.38c.37,0,.86-.04,1.46-.11.6-.07,1-.15,1.19-.24.39-.17.67-.42.84-.75.17-.33.26-.73.26-1.19v-19.84c0-.44-.07-.83-.22-1.18-.15-.35-.44-.63-.88-.83-.4-.19-.83-.34-1.3-.43-.47-.09-.87-.15-1.2-.17v-1.38h12.01c1.65,0,3.28.26,4.88.77,1.6.51,3,1.2,4.19,2.06,1.61,1.15,2.88,2.65,3.8,4.51.92,1.86,1.38,4.05,1.38,6.57ZM596.26,283.79c0-1.85-.25-3.51-.74-5-.49-1.49-1.21-2.79-2.15-3.9-.89-1.06-1.99-1.89-3.28-2.5-1.3-.61-2.74-.91-4.33-.91-.53,0-1.13,0-1.79.03-.67.02-1.16.04-1.48.05v21.12c0,1.17.34,1.99,1.03,2.44.68.45,1.74.68,3.16.68,1.64,0,3.07-.29,4.3-.87,1.23-.58,2.22-1.39,2.98-2.42.8-1.08,1.39-2.34,1.75-3.77.37-1.43.55-3.08.55-4.95Z" style="fill:#005daa;"/><path d="M621.12,284.77c.58.65,1.01,1.35,1.29,2.12.28.77.42,1.66.42,2.68,0,2.43-.9,4.43-2.69,6.01-1.8,1.58-4.02,2.36-6.69,2.36-1.23,0-2.45-.19-3.68-.57-1.23-.38-2.29-.84-3.18-1.39l-.83,1.41h-1.55l-.27-9.42h1.57c.32,1.16.7,2.21,1.13,3.15.43.94,1,1.81,1.71,2.63.67.76,1.46,1.37,2.35,1.82.9.45,1.94.68,3.13.68.89,0,1.67-.12,2.34-.35.67-.23,1.2-.56,1.62-.99.41-.43.72-.93.92-1.5.2-.58.3-1.24.3-1.99,0-1.1-.31-2.12-.93-3.08-.62-.95-1.54-1.67-2.77-2.16-.84-.33-1.8-.7-2.89-1.11-1.09-.41-2.02-.79-2.81-1.15-1.55-.7-2.75-1.61-3.61-2.74-.86-1.13-1.29-2.61-1.29-4.43,0-1.05.21-2.02.64-2.92.43-.9,1.03-1.71,1.82-2.42.75-.67,1.63-1.2,2.65-1.58,1.02-.38,2.09-.57,3.2-.57,1.27,0,2.4.19,3.4.58,1,.39,1.92.84,2.74,1.36l.79-1.32h1.55l.16,9.13h-1.57c-.28-1.05-.6-2.05-.96-3-.36-.96-.82-1.82-1.39-2.6-.56-.75-1.23-1.35-2.03-1.79-.8-.45-1.78-.67-2.95-.67-1.23,0-2.27.39-3.14,1.18-.87.79-1.3,1.75-1.3,2.89s.28,2.17.83,2.95c.56.78,1.36,1.42,2.42,1.93.94.45,1.87.84,2.78,1.17.91.33,1.79.68,2.65,1.06.78.34,1.52.72,2.24,1.14.72.43,1.34.92,1.87,1.49Z" style="fill:#005daa;"/><path d="M632.29,296.71c0,.93-.21,1.81-.63,2.64-.42.83-.9,1.54-1.44,2.13-.56.62-1.14,1.17-1.76,1.65-.62.48-1.19.85-1.71,1.12l-.89-1.3c.62-.39,1.18-.78,1.67-1.16.49-.39.89-.78,1.2-1.16.39-.45.72-.94.99-1.47.27-.53.45-1.13.52-1.8h-.99c-.87,0-1.54-.23-2.02-.68-.48-.45-.73-1.06-.73-1.82,0-.54.22-1.07.66-1.58.44-.51,1.04-.77,1.8-.77,1.11,0,1.94.37,2.5,1.11.56.74.83,1.77.83,3.09Z" style="fill:#005daa;"/><path d="M678.45,297.39h-12.15v-1.38c.44-.01,1-.06,1.7-.14.69-.08,1.17-.19,1.42-.33.4-.25.69-.53.88-.84.19-.32.28-.71.28-1.19v-20h-.29l-9.38,23.43h-.97l-8.93-23.91h-.25v16.41c0,1.59.1,2.8.3,3.62.2.83.51,1.42.92,1.78.28.27.87.53,1.76.78.89.25,1.47.37,1.74.39v1.38h-11.1v-1.38c.58-.05,1.19-.15,1.83-.29.64-.14,1.13-.36,1.48-.64.45-.36.76-.92.93-1.67.17-.75.25-2,.25-3.76v-14.07c0-.81-.1-1.48-.29-2-.19-.52-.47-.94-.83-1.26-.4-.35-.89-.61-1.47-.78-.58-.17-1.16-.26-1.72-.29v-1.38h9.38l7.88,20.64,6.72-17.27c.25-.63.45-1.3.63-1.99.17-.69.27-1.15.28-1.39h8.97v1.38c-.36.01-.82.07-1.39.17-.56.1-.97.2-1.23.29-.44.16-.74.41-.89.78-.16.36-.23.76-.23,1.18v19.82c0,.45.08.83.23,1.14s.45.58.89.81c.23.13.65.25,1.24.36.59.11,1.07.17,1.41.18v1.38Z" style="fill:#005daa;"/><path d="M698.86,284.77c.58.65,1.01,1.35,1.29,2.12.28.77.42,1.66.42,2.68,0,2.43-.9,4.43-2.69,6.01-1.8,1.58-4.02,2.36-6.69,2.36-1.23,0-2.45-.19-3.68-.57-1.23-.38-2.29-.84-3.18-1.39l-.83,1.41h-1.55l-.27-9.42h1.57c.32,1.16.7,2.21,1.13,3.15.43.94,1,1.81,1.71,2.63.67.76,1.46,1.37,2.35,1.82.9.45,1.94.68,3.13.68.89,0,1.67-.12,2.34-.35.67-.23,1.2-.56,1.62-.99.41-.43.72-.93.92-1.5.2-.58.3-1.24.3-1.99,0-1.1-.31-2.12-.93-3.08-.62-.95-1.54-1.67-2.77-2.16-.84-.33-1.8-.7-2.89-1.11-1.09-.41-2.02-.79-2.81-1.15-1.55-.7-2.75-1.61-3.61-2.74-.86-1.13-1.29-2.61-1.29-4.43,0-1.05.21-2.02.64-2.92.43-.9,1.03-1.71,1.82-2.42.75-.67,1.63-1.2,2.65-1.58,1.02-.38,2.09-.57,3.2-.57,1.27,0,2.4.19,3.4.58,1,.39,1.92.84,2.74,1.36l.79-1.32h1.55l.16,9.13h-1.57c-.28-1.05-.6-2.05-.96-3-.36-.96-.82-1.82-1.39-2.6-.56-.75-1.23-1.35-2.03-1.79-.8-.45-1.78-.67-2.95-.67-1.23,0-2.27.39-3.14,1.18-.87.79-1.3,1.75-1.3,2.89s.28,2.17.83,2.95c.56.78,1.36,1.42,2.42,1.93.94.45,1.87.84,2.78,1.17.91.33,1.79.68,2.65,1.06.78.34,1.52.72,2.24,1.14.72.43,1.34.92,1.87,1.49Z" style="fill:#005daa;"/><path d="M496.21,0l.85,7.66c-7.53,4.61-14.54,14.5-18.88,22.22-7.1,12.63-10.99,27.12-6.01,41.2,9.09,2.34,5.73,9.44,8.01,14.03,2.47,4.96,11.39,8.28,15.27,12.12l4.51-5.66,12.88,4.27.24,7.37c9.37,2.46,18.95,5.47,28.76,4.57-.05-3.28,1.05-5.91,4.12-7.29,5.27-.59,11-1.02,15.06,2.81l1.56,4.64,24.15-1.75c2.91-.8,1.9-5.26,3.9-6.74,2.69-1.99,12.74-3.05,15.92-2.08l3.11,4.34,25.75-7.75c3.14-1.21,2.07-5.25,4.7-7.47,1.87-1.57,11.12-5.29,13.15-3.78l2.18,3.87,41.14-21.28c4.56-5.29,20.5-45.98,22.88-47.09,2.83-1.32,3.85,4.84,3.62,6.52-2.98,9.16-11.26,20.42-13.48,29.24-.57,2.28.04,2.58,2.23,2.22,13.44-10.89,27.4-21.12,38.88-34.17,1.96-2.23,3.65-5.44,5.8-7.9,1.45-1.66,1.46-4.28,4.85-3.51l1.37,6.55c-15.21,22.21-37.31,39.78-60.6,52.89.06,10.36-.86,17.09-10.32,22.38-2.43,1.36-5.63,1.45-7.39,3.26-1.02,1.05-7.86,10.76-8.11,11.66-1.65,5.87-.36,12.81-6.38,17.95-.54.46-8.15,5.01-8.63,5.16-5.81,1.82-2.55-3.76-11.91,3.24-3.6,2.69-14.13,8.84-16.11,11.29-1.77,2.2-1.64,5.26-3.11,7.53-2.48,3.84-12.81,6.59-17.11,5.22-1.37-.44-2.31-2.23-3.58-2.62s-25.77,5.09-26.94,5.83c-1.4.89-1.28,2.8-2.47,3.84-4.43,3.87-15.84,2.81-21.19.57l-.24-4.23-23.42-4.77-2.3,3.99-12.34-3.09-1.31-1.73c1.73-9.19-4.87-10.83-9.33-16.53-2.2-2.81-12.53-18.43-10.65-20.52,5.28-.02,5.92,7.05,8.43,10.58,3.04,4.27,8.72,8.03,12.14,12.21l3.16-4.48c2.46-.75,12.4,2.42,13.67,4.41,1.77,2.77-.99,7.25,3.22,8.95,2.62,1.05,17.31,3.8,19.43,3.16l6.45-8.77,15.8.51,2.91,3.3-1.41,5.08,32-7.6c.58-2.82-4.3-.06-3.01-3.74,2.13-6.07,10.12-7.91,16.08-8.41,2.65-.22,5.2,1.25,6.83.83,3.17-.8,18.87-13.65,21.26-16.76,6.5-8.44,10.03-10.95,16.75-18.24,5.01-5.43,9.41-12.94,13.7-19l-32.06,14.37c-2.58,8.35-7.33,10.69-15.82,11.41l-3.26-4.61c-5.18,3.5-24.73,5.42-27.34,9.21-1.17,1.69-.71,4.29-2.95,6.18-4.15,3.51-12.41,3.06-17.57,2.88l-.04-6.02-27.32,1.62-1.92,5.7c-3.06,3.09-17.75,1.55-19.53-2.02l7.61-3.78c-11.62-.32-23.44-1.84-34.29-6.07l-3.14,6.02c-8.17-1.22-16.07-3.73-14.5-13.5-6.52-.4-12.07-9.19-16.6-11.54-1.3-.67-4.86,1.72-8.41-2.28-5.4-6.08-3.17-13.57-3.76-20.55-.22-2.63-1.44-4.86-1.63-7.48-1.72-23.56,13.07-44.47,29-60.08h3.05Z" style="fill:#939598;"/><path d="M503.83,86.62c-3.27,1.21-4.38-3.04-4.55-5.39-.46-6.25,2.87-17.57,5.31-23.5,1.03-2.51,5.72-13.17,9.14-12.15,5.55,4.41-1.83,10.68-4.1,15.66-3.62,7.96-4.93,16.73-5.8,25.37Z" style="fill:#939598;"/></svg>