<?xml version="1.0" encoding="UTF-8"?><svg id="Layer_1" xmlns="http://www.w3.org/2000/svg" viewBox="0 0 705.32 497.09"><path d="M352.66,292.65c12.96-2.58,27.32-5.47,38.34,3.67,10.77,8.94,22.02,30.5,25.22,44.08,1.91,8.12,1.77,16.87-5.33,22.51-6.48,5.15-20.21,5.43-25.78-1.23-3.18-3.81-2.58-5.92-3.77-9.99-6.1-20.75-14.69-42.39-28.67-59.04Z" style="fill:#62e4db;"/><path d="M381.83,23.66c3.18,3.13,12.52-2.6,15.29.68.55.65,3.62,10.1,4.04,11.68,1.41,5.25,2.6,11.4,2.6,16.81-23.89-26.16-64.29-30.65-92.83-9.05-3.15,2.38-5.78,5.43-8.88,7.82-.49.38-.63.95-1.48.73.95-5.56,1.68-11.27,3.18-16.72.42-1.52,3.6-11,4.16-11.57,2-2.03,9.41.8,12.09.78,1.78-.01,3.06-1.49,4.17-2.71,4.68-5.18,8.92-12.83,13.47-17.98.39-.45,4.28-3.55,4.68-3.68,2.09-.65,15.19-.5,17.98-.24,4.18.39,6.03,3.67,8.57,6.67,4.54,5.36,8.58,11.28,12.97,16.77Z" style="fill:#5b4096;"/><path d="M421.21,88.21c-.6-.2-3.05-10.31-3.67-12.06-.76-2.17-1.89-4.86-2.88-6.95-1.72-3.6-6.86-10.1-7.61-13.03-2.28-8.83-2.2-17.56-5.39-27.04-.55-1.63-2.03-6.41-2.86-7.46-.6-.76-.73-.71-1.64-.81-4.35-.51-8.76,1.51-13.04.75l-15.74-20.13c-.08-.82-.04-.81.74-.75,10.03.71,24.81,4.88,34.29,8.48,14.61,5.55,17.45,9.63,22.48,24.2,5.99,17.36,7.93,35.12,10.77,53.16.23.52-.34,1.64-.71,1.64h-14.74Z" style="fill:#07b4ba;"/><path d="M268.87,88.21c-.88-.28-.78-1.9-.74-2.68.35-6.84,2.36-17.44,3.59-24.45,2.44-13.89,7.77-41.35,20.97-48.32,8.92-4.72,33.13-11.86,43.01-12.04.77-.01.85-.1.74.75l-15.72,20.15c-2.29,1.39-11.12-2-14.25-.49-2.02.98-6.02,16.46-6.64,19.41-.94,4.53-1.13,12.66-2.45,16.23-.87,2.34-4.17,6.18-5.56,8.69-2.42,4.35-4.32,9.06-5.85,13.81-.44,1.37-1.81,8.95-2.84,8.95-2.77,0-12.47.55-14.25,0Z" style="fill:#07b4ba;"/><path d="M351.68,64.13c.74-.57,2.24,3.61,2.46,4.17,5.95,14.89,10.33,30.66,15.76,45.72l-.43,2.07-17.07,34.04c-.82.2-.97-.68-1.25-1.2-3.44-6.54-6.74-13.4-9.89-20.09-2.25-4.78-4.83-9.85-6.35-14.83l16.76-49.88Z" style="fill:#5b4096;"/><path d="M417.46,87.16l-23.95,4.91c-3.08-12.79-10.35-24.11-22.5-29.84-4.03-1.9-7.74-2.64-11.87-3.87-.51-.15-1.45.06-1.07-.87.32-.78,6.47-5.14,7.7-6.06,3.38-2.52,12.31-9.73,15.54-11.03,2.62-1.05,9.29,4.04,11.6,5.81,12.53,9.63,22.77,25.01,24.55,40.93Z" style="fill:#5b4096;"/><path d="M346.76,58.22c-15.07,3.03-26.64,10.67-32.67,25.08-.65,1.56-2.65,8.99-3.52,9.28-2.84-.38-23.32-4.41-23.72-5.68-.5-1.58,3.36-12.12,4.3-14.27,4.23-9.7,11.65-19.19,20-25.7,1.77-1.38,9.04-6.43,10.8-6.43.7,0,1.32.21,1.89.6,7.62,5.7,15.77,10.86,22.92,17.12Z" style="fill:#5b4096;"/><path d="M350.69,349.9c-.02.13-.58,1.26-.73,1.21-1.11-.84-2.46-1.02-3.66-1.74-5.51-3.26-14.38-12.23-18.69-17.18-1.72-1.98-9.33-12.82-10.34-13.25-3.47-1.45-14.52,2.2-16.58.12l-14.88-41.89c-.07-.87-.02-.76.76-.76,5.2,0,6.24,4.83,8.9,8.32,6.36,8.36,14.33,16.3,24.1,20.62,2.79,1.23,6.16,1.78,8.79,3.01,3.27,1.52,17.32,16.58,20.14,20.16.72.91,2.21,3.12,2.21,4.18,0,4.96.66,12.64,0,17.2Z" style="fill:#07b4ba;"/><path d="M281.4,19.9c-2.19,6.32-5.04,12.38-7.01,18.79-5.72,18.61-7.09,38.59-10.3,58.5-.5,3.1-1.14,7.45-1.86,10.44-.14.58-.12,1.55-.97.73-.23-.23-2.37-5.09-2.7-5.9-4.35-10.59-7.64-25.7-8.6-37.1-.33-3.88-.91-10.38-.28-14.03,1.21-7.01,15.89-20.51,21.74-24.95l9.98-6.48Z" style="fill:#5b4096;"/><path d="M442.6,108.36c-4.86-24.09-5.66-49.95-13.41-73.33-1.38-4.16-4.42-9.36-5.53-13.15-.19-.66-.32-1.29-.23-1.98.8-.19,1.14.16,1.73.48,4.56,2.44,11.36,8.19,15.23,11.79,3.23,3,13.58,13.74,14.37,17.57.54,2.62.27,9.23.11,12.17-.63,11.54-3.83,26.54-7.85,37.37-.31.85-3.84,9.51-4.43,9.08Z" style="fill:#5b4096;"/><path d="M350.2,60.69l-17.44,50.11c-2.64-3.29-5.35-6.84-8.59-9.58-1.83-1.55-8.6-5.37-9.29-6.44-1.07-1.67.31-5.87.91-7.82,4.61-15.07,18.82-25.36,34.41-26.27Z" style="fill:#07b4ba;"/><path d="M418.51,201.24c.73.74-4.39,8.12-5.2,9.29-6.55,9.43-15.39,19.01-23.78,26.83-.61.57-7.09,6.52-7.37,6.14,2.7-16.27-2.65-32-7.87-47.17.35-.36,7.68,3.71,8.85,4.16,11.42,4.37,23.73,4.16,35.37.75Z" style="fill:#5b4096;"/><path d="M378.99,71.21c3.15,2.97,6.74,7.97,8.43,11.97.9,2.13,2.95,8.62,2.59,10.66-.33,1.82-6.05,4.61-7.82,5.96-4.25,3.24-6.52,6.28-9.73,10.4-.31.4.01.9-1.12.62l-16.71-50.12c8.95.67,17.84,4.38,24.36,10.52Z" style="fill:#07b4ba;"/><path d="M330.05,196.33c-1.18,5.64-3.67,11.1-5.15,16.71-2.32,8.73-3.57,16.72-3.22,25.82.02.58,1.26,4.76-.22,4.15-11.17-10.1-22.43-20.91-30.92-33.46-.56-.83-5.09-7.96-4.71-8.31,12.45,3.48,25.17,3.67,37.19-1.39,2.41-1.01,4.61-2.57,7.03-3.53Z" style="fill:#5b4096;"/><path d="M459.79,155.05c-3.1,7.23-8.41,13.51-11.39,20.79-1.47,3.59-1.99,7.5-3.75,10.99-2.7,5.34-7.83,7.68-10.01,13.08-2.84,7.01-3.04,16.42-5.86,23.62-1.25,1.88-11.9,7.19-13.21,6.2l11.09-44.19c6.69-5.97,13.1-12.21,18.3-19.54,1.27-1.79,5.64-9.56,6.52-10.19,1.94-1.41,5.99-.53,8.32-.77Z" style="fill:#5b4096;"/><path d="M251.67,155.04c2.15.46,2.55,3.04,3.47,4.4,6.8,10.1,13.77,18.6,22.94,26.69,2.9,11.37,5.89,22.74,8.59,34.17.19.81,2.34,9.41,1.86,9.45-1.95-.45-4.17-1.07-5.98-1.89-.82-.37-6.36-3.55-6.59-3.85-.69-.92-1.83-6.03-2.19-7.52-1.54-6.39-2.08-15.21-6.14-20.4-2.14-2.73-5.04-4.55-6.96-7.78-2.41-4.04-2.94-8.89-4.89-13.29-3.08-6.97-7.94-13.13-11.23-19.97,2.09.3,5.2-.41,7.13,0Z" style="fill:#5b4096;"/><path d="M289.96,319.96c-5.42-4.46-21.77-18.02-23.19-24.23-.29-1.26-.4-3.34-.6-4.81-.77-5.56-1.05-11.3-1.42-16.9l14.47-1.56,1.64.82,17.25,46.19c.57,1.29-2.23,4.15-3.2,4.15-.39,0-4.25-3.09-4.95-3.67Z" style="fill:#5b4096;"/><path d="M321.56,175.04c-2.8,2.26-4.71-1.45-7.2-.58-3.53,1.23-1.75,6.41-5.31,7.04-3.59.64-3.45-3.91-6.76-3.91-3.49,0-2.75,4.14-6.9,3.76-3.14-.28-2.05-5.43-5.28-6.79-2.45-1.03-5.94,3.6-8.15-.68-1.16-2.25.45-2.88.45-4.85-.01-5.01-7-1.93-7.78-6.02-.66-3.45,3.64-4.68,3.26-7.13-.4-2.54-5.03-3.33-4.83-6.46.23-3.59,5.22-2.69,6.17-5.66.99-3.11-3.45-4.71-1-7.88,2.16-2.8,5.18-.11,7.4-1.45,2.63-1.59-.65-7.3,3.95-7.88,3.36-.42,4.04,2.85,6.72,2.37,3.37-.6,2.02-6.41,7.38-5.23,3.09.68,1.38,4.56,4.65,5.22s4.5-3.7,7.98-2.12c3.16,1.44.32,5.97,2.67,7.64,2.21,1.57,9.11-1.6,8.13,4.6-.32,1.99-2.2,2.35-1.24,5.22s6.64,1.54,5.67,6.59c-.49,2.58-5.61,3.05-4.32,7.28.49,1.63,3.2,1.94,2.15,5.28-1.08,3.44-5.46,1.16-7.1,4.24-1.18,2.2,1.92,5.28-.69,7.38ZM324.61,153.62c0-11.9-9.65-21.55-21.55-21.55s-21.55,9.65-21.55,21.55,9.65,21.55,21.55,21.55,21.55-9.65,21.55-21.55Z" style="fill:#5b4096;"/><path d="M439.64,273.97c-.52,7.97-1.16,16.12-2.93,23.86-2.71,3.88-5.93,7.5-9.35,10.8-2.92,2.82-10.89,10.24-13.99,12.05-.48.28-.78.67-1.46.46-.4-.12-3.92-6.35-3.13-7.48,3.76-9.19,6.27-18.86,9.71-28.16.91-2.45,3.75-10.62,4.98-12.21s5.58,0,7.57.19c2.79.25,5.78.17,8.6.49Z" style="fill:#5b4096;"/><path d="M349.56,247.77c-.29.39-1.3.72-1.84,1.35-1.11,1.3-7.41,8.79-8.5,8.59-9.53-7.67-15.74-11.32-15.08-24.8.6-12.29,4.84-24.15,8.87-35.61.29-.23.91.75,1.08,1.12.48,1.01,2.82,8.06,2.86,8.97.25,4.74-5.58,10.2-.27,14.98,2.4,2.16,5.02,1.01,6.91,4.39,1.74,3.11,5.22,13.83,6.1,17.52.26,1.11.63,2.46-.13,3.49Z" style="fill:#07b4ba;"/><path d="M370.85,197.31c.71-.56,3.65,8.25,3.93,9.08,3.61,10.68,9.32,31.81,1.94,41.28-1.09,1.4-10.55,10.1-11.54,10.1-.51,0-.93-.36-1.26-.72-1.67-3.53-9.55-8.04-9.29-11.77l6.64-19.45c1.35-2.12,7.04-1.44,8.34-6.4,1.36-5.16-2.16-8.01-2.16-11.56,0-2.47,3.02-7.79,3.38-10.56Z" style="fill:#07b4ba;"/><path d="M378.7,37.59l-.75,1.46c-7.89,4.48-16.39,13.63-24.14,17.63-.62.32-1.18.64-1.91.6l-26.28-19.45c16.95-7.35,35.96-6.66,53.08-.25Z" style="fill:#62e4db;"/><path d="M353.14,157.5l15.51,32.42c1.32,1.4-1.73,11.93-2.27,12.27-1.54.98-2.57-2.97-3.32-4.23-1.83-3.11-4.44-8.48-7.83-9.86-8.18-3.31-11.51,9.78-14.94,14.29-.42.56-.51,1.01-1.39.81-.25-4.1-3.66-8.39-2.84-12.42,5.36-10.18,9.66-21,15.04-31.16.31-.59,1.26-2.77,2.04-2.12Z" style="fill:#5b4096;"/><path d="M440.14,271.02c-5.26.08-10.57-.49-15.73-1.48l3.43-42.4c3.73-2.83,7.41-5.72,10.58-9.19l1.72,53.07Z" style="fill:#62e4db;"/><path d="M428.85,122.14c3.01-.63,10.51-7.17,12.99-6.92,2.28.23,14.28,15,16.2,17.74,1.46,2.08,5.53,7.92,6.29,9.94.75,1.99-1.55,8.59-3.57,9.43-1.93.8-8.05.49-9.78-1.01-2.94-4.07-5.3-8.8-8.41-12.73-3.43-4.33-8.28-8.52-11.77-12.81-.56-.69-2.48-2.89-1.96-3.65Z" style="fill:#5b4096;"/><path d="M263.01,137.64c-2.43,2.97-4.69,5.95-6.75,9.22-.95,1.51-1.72,4.55-3.37,5.48-.74.41-6.96.44-8.12.28-2.93-.4-5.33-7.44-4.26-10.21,1.24-3.2,7.55-11.6,9.95-14.62,1.76-2.22,10.42-12.39,12.55-12.56,1.78-.14,10.69,6.52,12.99,7.65-4.08,5.14-8.83,9.69-12.98,14.76Z" style="fill:#5b4096;"/><path d="M279.86,269.48c-.44.69-15.1,2.1-15.66,1.54l1.97-52.59,10.21,8.71c1.63,14.05,2.26,28.24,3.48,42.34Z" style="fill:#62e4db;"/><path d="M466.67,138.34c-.06.06-1.37.19-1.49-.33l-20.13-24.97c8.92-5.38,16-12.93,23.1-20.4-.07,10.06,1,20.17.52,30.24-.09,1.81-1.42,14.93-1.99,15.46Z" style="fill:#5b4096;"/><path d="M244.37,100.66c3.4,3.35,6.71,6.43,10.53,9.37.92.71,4.57,2.55,4.36,3.45l-21.11,24.85c-3.91-15.16-1.62-30.74-1.97-46.19,2.65,2.91,5.37,5.76,8.18,8.52Z" style="fill:#5b4096;"/><path d="M446.53,108.85c2.16-9.42,5.79-18.42,7.7-27.92,1.77-8.8,2.27-17.81,3.84-26.63,4.37,7.25,7.72,15.73,9.36,24.06.31,1.58,1.28,6.28,1.11,7.53-.54,4.12-21.04,24.23-22.01,22.96Z" style="fill:#62e4db;"/><path d="M435.96,90.66c.59.18,1.33,2.24,1.5,2.92.59,2.29,1.24,6.78,1.56,9.25.36,2.79,1.16,6.83.41,9.5-.44,1.56-10.97,7.06-13.05,8.31l-4.92-29.98c3.61.69,11.46-.93,14.5,0Z" style="fill:#5b4096;"/><path d="M282.87,90.66l-4.92,29.98c-2.57-1.84-12.55-6.43-13.16-9.2-.37-1.67,1.49-13.98,1.99-16.47.18-.88,1.09-4.31,2.08-4.31h14.01Z" style="fill:#5b4096;"/><path d="M353.64,350.63v-16.46c0-2.36,1.55-4.61,2.96-6.37.93-1.16,8.43-9.26,9.06-9.11,3.41,5.1,5.23,11.29,7.47,16.96-4.03,4.25-8.38,8.82-13.15,12.22-1.98,1.41-3.65,2.96-6.34,2.75Z" style="fill:#07b4ba;"/><path d="M317.79,256.75c-.19-.13-1.55-3.26-2.08-4.06-4.18-6.2-9.89-12.11-15.97-16.47-1.38-.99-6.58-3.67-7.06-4.37-.5-.74-1.71-4.93-1.49-5.75.17-.62,1.88-.19,2.53-1.12,1-1.44,1-4.33.95-6.05,9.33,11.34,20.08,21.36,30.95,31.21-1.34.93-6.48,7.56-7.83,6.61Z" style="fill:#62e4db;"/><path d="M413.58,225.83c.38.41-1.24,5.37-1.93,6.14-1.37,1.53-5.71,3.39-7.55,4.74-7.12,5.22-13.14,12.61-17.79,20.06l-7.1-6.63c10.35-10,21.28-19.37,30.22-30.71.68,1.96.54,4.58,2.44,5.92.58.41,1.65.42,1.71.49Z" style="fill:#62e4db;"/><path d="M350.2,155.04l-17,34.38-1.18-.72c-1.71-2.97-4.32-5.33-6.37-7.99-.32-.42-2.75-3.81-2.47-4.04,5.25,1.22,11.4-.79,10.83-7.13-.19-2.08-2.4-3.88-1.94-5.32.4-1.25,3.28-1.39,4.36-2.07,1.94-1.22,3.66-4.89,2.47-7.1h11.3Z" style="fill:#62e4db;"/><path d="M304.01,189.93c.1-.14,1.9-.58,2.97-1.7.96-1.01,2.04-3.94,2.76-4.16,1.34-.4,2.82,1.62,4.1,2.17,2.76,1.18,4.77.39,7.13-1.22,1.34-.28,1.43-3.86,2.45-3.44.62.25,8.11,9.88,8.13,10.55-8.07,5.72-17.58,9.17-27.53,9.59.34-1.73-.46-11.13,0-11.79Z" style="fill:#07b4ba;"/><path d="M333.98,308.37h26.29c.87,0,3.95,5.8,3.61,7.02-.23.82-11.11,12.16-11.97,12.17l-17.94-19.18Z" style="fill:#5b4096;"/><path d="M400.33,200.99c-.11.4-.64.63-1.11.64-2.68.08-9.69-1.47-12.43-2.34-1.94-.62-13.93-6.21-13.93-7.63l7.57-9.58c.87-.19,2.82,3.96,5.42,4.39,4.83.79,4.46-1.37,7.07-2.22,3.1-1.01,2.28,1.94,3.62,3.57.91,1.1,3.77,1.9,3.77,2.12,0,2.42.48,9.31,0,11.06Z" style="fill:#07b4ba;"/><path d="M365.44,155.04c-.96,2.63.37,5.9,2.78,7.3,1.07.63,3.76.93,4.07,1.86.64,1.93-4.29,4.81-.67,9.98,2.59,3.69,5.68,2.72,9.55,2.49.69.65-2.2,4.1-2.75,4.86-1.25,1.71-4.28,5.92-5.61,7.17-.37.34-.57.9-1.21.75l-16.96-34.4h10.81Z" style="fill:#62e4db;"/><path d="M400.33,119.66c-4.09-3.92-10.33-3.6-12.17,2.33-.48,1.55.57,3.52-2.29,3.07-1.59-.25-3.69-2.22-6.09-1.57-.44-1.95-6-7.18-6.01-8.5,0-.73.54-1.06,1.03-1.45,4.5-3.6,13.76-6.72,19.45-7.57,1-.15,6.08-1.02,6.08.18v13.51Z" style="fill:#62e4db;"/><path d="M349.71,152.09h-12.53c-.2,0-2.24-2.17-3.23-2.26-.1-2.62,2.64-2.98,3.26-5.56,1.4-5.78-3.15-9.33-8.58-8.93-.46-2.22.84-3.84.41-6.56-.25-1.55-2.14-3.35-1.88-4.35.11-.43,5.1-6.77,5.6-6.72l16.95,34.39Z" style="fill:#07b4ba;"/><path d="M304.5,105.41c9.5.28,18.98,3.34,26.53,9.13l-6.48,8.95c-2.05-.93-7.08,2.49-8.03,1.1-.44-.65-.43-3.13-1.29-4.61-1.11-1.91-3.85-3.33-6.03-3.23-1.83.08-3.07,1.55-4.71,1.93v-13.27Z" style="fill:#62e4db;"/><path d="M355.12,152.09l16.47-34.4c.68-.16,6.06,6.62,6.02,7.13-.03.4-1.56,1.48-1.96,2.33-1.41,3.05.11,5.15.07,8.18-5.65.02-10.17,2.65-8.7,9.04.44,1.89,3.35,3.3,3.35,4.53,0,.88-3.29,3.19-3.7,3.19h-11.55Z" style="fill:#07b4ba;"/><path d="M419,90.66l1.96,15.73c-5.36-1.36-11.37-3.33-16.93-3.46-2.03-.05-8.38,1.19-9.37.03-.94-1.1-1.95-7.17.6-7.77,7.84-1.82,15.5-5.03,23.73-4.53Z" style="fill:#5b4096;"/><path d="M309.83,103.37c-.58.37-8.18-.51-10-.42-5.37.27-11.25,2.15-16.47,3.43l2.46-15.72c8.23-.2,16.16,2.75,24.05,4.69,1.98.37.31,7.79-.05,8.02Z" style="fill:#5b4096;"/><path d="M419,276.43l-12.25,34.11c.04.48-.93.35-1,.28-.21-.18-2.23-3.92-2.85-4.77-.85-1.18-6.06-7.56-5.95-8.18,2.49-3,5.78-5.5,8.29-8.44,4.02-4.7,6.94-13.98,13.77-13.01Z" style="fill:#07b4ba;"/><path d="M330.22,338.18c2.83,3.02,7.56,6.95,9.91,10,.38.49.95.62.73,1.47-1.63,1.44-23.88-6.2-25.59-8.56-1.69-2.33.91-13.72,1.52-16.99,4.94,4.21,9.01,9.36,13.43,14.08Z" style="fill:#5b4096;"/><path d="M402.78,120.15v-15.23c3.87.66,7.91,1.32,11.7,2.3,3.15.82,6.55.95,7.82,4.46.41,1.12,1.67,8.5,1.65,9.7-.08,3.3-1.52,1.72-3.62,2.32-1.02.29-2.17,1.37-3.07,1.35-2.06-.03-1.51-2.7-1.94-3.93-2.01-5.72-9.17-5.35-12.54-.97Z" style="fill:#07b4ba;"/><path d="M301.55,105.41v15.23c-3.1-4.77-10.85-5.22-12.89.62-.42,1.2-.13,3.43-1.17,3.77-.3.1-5.81-1.53-6.08-1.7-1.88-1.13.04-6.05.43-7.91.54-2.58-.56-4.39,2.53-6.32,1.75-1.1,11.62-3.23,14.11-3.58,1.03-.15,2.04-.18,3.07-.13Z" style="fill:#07b4ba;"/><path d="M301.55,200.75c-5.8.46-11.38-1.13-16.7-3.2-.81-.67-3.61-12.75-3.47-14.23.24-2.44,1.58.98,2.02,1.43,1.63,1.71,4.24,2.11,6.49,1.64,1.75-.36,4.06-3.33,5.7-2.28.17.11.79,2.7,1.52,3.63,1.36,1.71,3.39,1.67,4.8,2.93.02.2-.37.38-.37.5v9.58Z" style="fill:#62e4db;"/><path d="M403.28,189.93c.13-.15,2.31-.44,3.44-1.72.93-1.04,1.46-3.87,2.27-4.15,1.5-.51,2.36,1.13,3.6,1.71,4.05,1.89,5.91,1.12,8.89-2.01.47-.5.44-1.99,1.46-.97.24,1.8-1.98,13.91-2.96,14.74-2.8,2.36-12.98,3.45-16.7,3.2.27-1.49-.36-10.41,0-10.81Z" style="fill:#62e4db;"/><polygon points="367.4 263.16 367.4 278.39 352.66 278.88 352.66 263.16 367.4 263.16" style="fill:#62e4db;"/><polygon points="351.18 263.16 351.18 278.88 336.93 278.39 336.93 263.16 351.18 263.16" style="fill:#62e4db;"/><path d="M335.95,262.67v14.99c0,.17-.71.83-1.11.64l-11.67-.89v-15.73l12.78.98Z" style="fill:#62e4db;"/><path d="M381.16,261.68v15.48c0,.28-.83.75-1.23.74l-11.06.49v-15.23l12.29-1.47Z" style="fill:#62e4db;"/><path d="M448.49,155.04c-5.72,10.52-13.4,20.1-22.86,27.43-1.31-1.03-5.16-5.3-1.95-5.83,1.88-.31,2.63.95,5.29-.09,3.43-1.34,4.84-4.38,4.25-7.98-.25-1.52-2.28-3.18-1.91-4.39.28-.91,4.54-1.58,5.72-2.91s1.79-4.51,1.63-6.24h9.83Z" style="fill:#07b4ba;"/><path d="M392.96,260.21v16.22c-3.55.66-7.19,1.09-10.81.98v-15.73l10.81-1.47Z" style="fill:#62e4db;"/><path d="M448,152.09h-11.55c-.14,0-2.12-1.32-2.4-1.53-2.56-1.95,1.43-3.65,2.19-5.56,1.34-3.4-.42-8.42-4.24-9.1-1.34-.24-3.67.53-4.43-1.01-.36-.75.67-2.54.77-3.68.13-1.5-.36-2.76-.25-4.18,8.14,6.84,15.57,15.3,19.9,25.07Z" style="fill:#62e4db;"/><path d="M265.67,155.04c.13.13-.07,2.69.11,3.57.91,4.36,6.34,4.44,6.73,5.58.51,1.53-1.88,3.65-1.95,5.85-.11,3.48,3.2,6.98,6.7,7.06,1.96.04,6.43-1.82,4.06,2.68-2.22,4.22-4.68.95-7.07-1.15-7.42-6.53-13.44-15.13-18.42-23.6,1.37.26,9.48-.35,9.83,0Z" style="fill:#07b4ba;"/><path d="M408.19,237.61l-5.15,18.68c-.82.94-11.94,1.63-14.01,1.95,2.46-5.8,7.34-11.55,12.05-15.71.78-.69,6.59-5.46,7.11-4.93Z" style="fill:#07b4ba;"/><path d="M315.8,258.24l-14.19-1.53-4.98-19.1c.31-.36,4.89,3.23,5.41,3.68,5.36,4.61,10.56,10.65,13.75,16.96Z" style="fill:#07b4ba;"/><polygon points="321.7 261.68 321.7 277.41 310.89 276.43 310.89 260.21 321.7 261.68" style="fill:#62e4db;"/><path d="M314.33,322.13l-1.96,15.49c-.08.62.23.91-.75.73-2.21-.41-11.78-9.94-14.27-11.79-.37-.81,1.82-3.03,2.54-3.39.52-.26,3.47-1.04,3.87-1.04h10.57Z" style="fill:#62e4db;"/><path d="M256.34,152.59c-1.73-1.56,16.07-24.06,19.42-25.05-1.24,2.03,1.1,6.18.51,7.35-.93,1.85-4.47-.02-6.92,2.45-2.85,2.86-2.59,6.19-.46,9.35.79,1.17,2.99,1.01,1.22,3.7-.99-.04-3.01,2.2-3.2,2.2h-10.57Z" style="fill:#62e4db;"/><path d="M403.28,259.23v15.73c-2.35-.05-6.15,1.45-8.23,1.38-.46-.02-1.11-.34-1.11-.64v-15.48l9.34-.98Z" style="fill:#62e4db;"/><path d="M271.57,220.4c-8.31-6.2-12.98-18.21-12.28-28.5l5.66,5.39,2.72,4.16,3.9,18.95Z" style="fill:#62e4db;"/><path d="M445.54,191.9c-.21,10.67-4.51,21.6-12.77,28.5-.1-.85.07-1.65.22-2.48.73-4.04,2.67-13.58,4.11-17.02,1.11-2.65,3.86-5.37,6-7.29.27-.24,2.14-2.11,2.45-1.7Z" style="fill:#62e4db;"/><path d="M358.51,223.4c.49.68-4.12,14.1-4.86,15.93-.17.43-1.09,3.6-1.97,2.69-.02-2.79-6.26-16.5-5.86-17.86.81-2.77,10.54-2.63,12.7-.76Z" style="fill:#5b4096;"/><path d="M362.98,260.21h-21.62c1.32-1.46,10.17-11.95,11-11.77l10.62,11.77Z" style="fill:#5b4096;"/><polygon points="309.41 260.21 309.41 275.94 301.55 274.95 301.55 259.23 309.41 260.21" style="fill:#62e4db;"/><rect x="339.88" y="296.58" width="10.81" height="9.34" style="fill:#62e4db;"/><path d="M338.41,296.58v9.34h-9.09c-.16,0-.75-.65-1.23-.49v-9.34l10.32.49Z" style="fill:#62e4db;"/><path d="M335.46,260.21c-4.41-.29-9.19-.2-13.51-1-.69-.13-1.44.47-1.24-.73.34-2.06,5.6-4.76,6.44-7.07l.67-.03c.47.18,6.78,6.47,7.18,7.08s.61.98.47,1.74Z" style="fill:#5b4096;"/><path d="M383.62,259.22l-14.74.98c-.4-.34,2.37-3.43,2.76-3.87,1.45-1.65,3.34-3.38,4.92-4.94.45-.08,6.11,5.34,6.59,6.08.39.6.61.98.47,1.74Z" style="fill:#5b4096;"/><path d="M327.1,304.93c-.57.58-8.47-2.55-8.77-3.03-.5-.81.2-4.99-.08-6.31h8.11c.05,0,.74.69.74.74v8.6Z" style="fill:#62e4db;"/><path d="M363.96,349.65c-.36-.31,2.31-3.5,2.69-3.94,2.29-2.63,5.07-4.99,7.62-7.36.31,1.74,3.18,7.03,2.25,8.37-.66.95-11.77,3.6-12.56,2.92Z" style="fill:#5b4096;"/><path d="M327.59,108.85l-14.26-5.15c-1.31-1.09.07-4.62.01-6.15,4.9,1.79,9.95,5.56,13.27,9.58.46.55,1.19.79.98,1.72Z" style="fill:#5b4096;"/><path d="M285.32,127.07c.16.22-.62,2.25-.74,2.9-.22,1.18.75,2.57-1.42,2.93l-4.48-.43c-.95-2.69.2-6.47,3.46-6.44.48,0,3.08.92,3.18,1.05Z" style="fill:#5b4096;"/><path d="M275.5,138.34c.09.09-.05,1.73.22,2.48.39,1.09,1.58,1.36.93,2.8-.1.23-4.1,2.49-4.35,2.47-2.42-.18-3.49-6.6.11-7.64.52-.15,2.98-.22,3.09-.1Z" style="fill:#5b4096;"/><path d="M274.92,155.62c.56.96-2.13,5.12-2.68,5.28-1.41.42-3.75-1.94-4.02-3.27-.45-2.23,1.18-5.53,3.84-4.32.17.08,2.77,2.15,2.87,2.31Z" style="fill:#5b4096;"/><path d="M359.05,305.91h-6.88v-9.34c1.58.94,2.56,2.56,3.63,3.99,1.17,1.56,2.57,3.53,3.25,5.35Z" style="fill:#62e4db;"/><path d="M309.23,119.31c2.55-.26,6.28,3.18,4.1,5.01-.18.15-3.91,2.26-4.14,2.21-.27-.06-3.17-4.3-3.15-4.58.1-1.16,2.11-2.54,3.19-2.64Z" style="fill:#5b4096;"/><path d="M418.17,134.26c2.06,2.54,5.34-.83,7.73,1.85,2.54,2.85-.17,3.75-.5,5.43-1.27,6.52,5.54,3.78,5.89,7.91.32,3.69-4.06,3.49-4.41,6.38-.51,4.1,4.02,3.49,2.73,7.59-1.24,3.94-5.55,1.28-7.11,3.71-1.51,2.35,2.32,9-3.25,9.01-1.75,0-2.64-2.33-5.53-1.07s-.88,6.6-5.36,6.86c-3.19.18-3.09-3.65-5.82-3.83-3.59-.23-3.59,4.08-6.81,3.84-4.03-.3-2.42-5.59-5.36-6.87-2.99-1.3-4.8,3.02-7.76-.09-2.42-2.55.67-5.19-1.01-7.84-1.53-2.41-5.92.2-7.12-3.72-1.06-3.44,3.33-3.52,2.72-7.6-.48-3.2-5.22-2.5-4.28-6.79.69-3.15,4.65-1.68,5.82-4.53,1.43-3.49-3.8-5.23-.25-8.59,2.52-2.37,5.06.81,7.36-1.49,1.88-1.87-.96-5.91,2.81-7.52,3.33-1.42,3.94,2.71,7.37,2,3.25-.67,2.7-5.22,5.55-5.29,4.64-.12,3.13,4.6,6.48,5.29,3.49.72,4.28-3.79,7.69-1.82,2.96,1.71.92,5.33,2.42,7.17ZM423.95,153.48c0-11.93-9.67-21.59-21.59-21.59s-21.59,9.67-21.59,21.59,9.67,21.59,21.59,21.59,21.59-9.67,21.59-21.59Z" style="fill:#5b4096;"/><path d="M408.56,119.25c2.27-.37,5.27,1.78,5.06,4.09-.05.61-4.41,3.22-4.7,3.23-.43,0-3.55-4-3.6-4.27-.26-1.33,2.11-2.85,3.24-3.04Z" style="fill:#5b4096;"/><path d="M378.23,132.91c-.3-1.91-1.12-3.63.26-5.36,1.21-1.53,4.83-2.27,5.9-.52.26.42-.35,5.41-.73,5.69-.78.55-4.13-.42-5.42.2Z" style="fill:#5b4096;"/><path d="M390.52,124.56c-1.45-4.86,6.68-7.12,7.77-3.07.26.96-2.13,4.86-2.7,5.02-1.3.38-3.24-2.57-5.08-1.96Z" style="fill:#5b4096;"/><path d="M374.72,138.39c.2.17,1.57,4.74,1.48,5.03-.16.48-4.29,2.78-4.55,2.73-2.46-.41-3.28-6.24-.31-7.56.64-.28,3.04-.5,3.39-.2Z" style="fill:#5b4096;"/><path d="M429.37,138.39c.27-.23,2.49-.11,3.05.05,3.36,1,2.92,8.09-.75,7.17-.35-.09-3.49-1.68-3.6-1.85-.39-.62,1.08-5.18,1.3-5.37Z" style="fill:#5b4096;"/><path d="M425.86,132.91c-.21.18-4.54-.49-5.42-.19-.39-.27-.99-5.27-.74-5.69,1.5-2.45,6.39-.21,6.66,2.74.04.47-.39,3.03-.51,3.14Z" style="fill:#5b4096;"/><path d="M383.62,178.63c3.42-.1,6.24-2.56,7.17,2.44,1.1,5.88-8.94,3.34-7.17-2.44Z" style="fill:#5b4096;"/><path d="M379.14,174.16c-.12.14-2.1.49-2.54.44-3.42-.36-5.23-5.56-2.82-7.05.5-.31,4.74.87,5.18,1.25.74.64.37,5.13.18,5.36Z" style="fill:#5b4096;"/><path d="M371.28,152.62c.1.07.29,1.05.74,1.46,1.3,1.19,2.87,1.23,2.16,3.56-.06.19-1.99,3.3-2.18,3.34-3.85.82-6.29-5.93-2.01-8.02.36-.18.97-.57,1.29-.34Z" style="fill:#5b4096;"/><path d="M415.92,177.74c.64-.09,3.18.65,3.73.98,2.85,1.69-2,8.13-5.83,4.85-1.36-1.16.27-5.57,2.1-5.83Z" style="fill:#5b4096;"/><path d="M425.47,168.39c1.97.41,4.05-2.09,5.28-.28,2.67,3.93-3.55,8.39-5.14,6.12-.51-.73-1.02-5.28-.14-5.84Z" style="fill:#5b4096;"/><path d="M433.11,153.14c4.61-1.29,3.78,8.77-.55,7.73-.57-.14-2.86-3.82-2.79-4.59.05-.54,2.84-3,3.34-3.14Z" style="fill:#5b4096;"/><path d="M403.67,181.69c.18.11.4.96.82,1.36,1.2,1.17,2.77.88.76,3.2-3.17,3.66-8.2-.29-7.17-2.22.62-1.15,4.19-3.18,5.59-2.35Z" style="fill:#5b4096;"/><path d="M330.12,138.4c3.74-2.41,7.29,6.2,3.02,7.25-.47.12-4.37-1.75-4.53-2.22-.21-.62,1.28-4.88,1.5-5.02Z" style="fill:#5b4096;"/><path d="M294.03,119.76c1.69-.39,4.71.39,5.02,2.17.05.28-2.9,4.54-3.17,4.6s-4.52-2.52-4.61-2.77c-.62-1.78,1.09-3.62,2.75-4.01Z" style="fill:#5b4096;"/><path d="M284.35,178.64c.17-.17,4.54-.72,4.77-.63,1.09.44,2.76,3.77,2.39,4.54-1.22,2.54-6.28,1.84-7.06-.82-.15-.52-.22-2.97-.1-3.09Z" style="fill:#5b4096;"/><path d="M324.96,126.74c1.4.7,2.32,3.97,1.44,5.24-.3.43-4.99.89-5.2.74-.42-.3-1.01-5.36-.77-5.7.84-1.2,3.33-.88,4.53-.28Z" style="fill:#5b4096;"/><path d="M335.82,153.7c1.63,1.51,1.45,4.97-.66,6.19-2.77,1.61-2.5.04-3.7-1.61-.59-.81-1.83-.55-1.33-1.92.5-1.37,4.12-4.12,5.7-2.66Z" style="fill:#5b4096;"/><path d="M279.44,174.21c-.12.13-3.02.06-3.59-.1-2.25-.65-3.23-5.4-1.34-6.57.34-.21,4.62,1.04,4.98,1.47.5.6.13,5.02-.05,5.21Z" style="fill:#5b4096;"/><path d="M306.37,183.63c.45.76-.32,2.39-.87,2.99-2.34,2.54-8.74-.31-6.17-3.09,1.08-1.16,3.08-2.47,4.67-1.71.13.06,2.3,1.67,2.37,1.8Z" style="fill:#5b4096;"/><path d="M320.71,178.63c.12.11.05,2.57-.1,3.09-.7,2.4-5.53,3.38-6.56,1.32-.46-.92.68-4.23,1.55-4.87,1.31-.96,1.87.01,3.02.34.6.17,2,.03,2.09.11Z" style="fill:#5b4096;"/><path d="M326.22,174.1c-.43-.59-.86-4.66-.38-5.33.14-.2,4.5-1.36,4.71-1.23,1.27.75,1.22,4.17.43,5.4-.7,1.08-3.98,2.26-4.76,1.17Z" style="fill:#5b4096;"/><path d="M317.28,295.1v5.9c-.28.31-6.03-3.41-6.3-4.27-.13-.42-.21-1.99-.09-2.11.22-.24,5.25,1.06,6.39.49Z" style="fill:#62e4db;"/><path d="M290.26,222.86c-.25-.17-2.3-5.33.65-4.81,2.28.4,1.51,6.25-.65,4.81Z" style="fill:#07b4ba;"/><path d="M412.62,222.86c-.95-.61-.8-5.35,1.7-4.92,1.7.29.3,6.21-1.7,4.92Z" style="fill:#07b4ba;"/><path d="M417.53,211.56c-.51,1.01-.42,5.18-2.21,4.42-1.97-.84-.1-5.01,2.21-4.42Z" style="fill:#07b4ba;"/><path d="M288.68,211.67c1.02.59,2.52,4.5-.39,4.31-.39-1.28-2.13-5.77.39-4.31Z" style="fill:#07b4ba;"/><path d="M391.94,103.39c-.47.65-13.3,5.02-15.19,5.21,2.24-2.82,4.71-5.49,7.69-7.54,1.03-.71,5.88-4.04,6.82-2.57.13.21.83,4.69.68,4.89Z" style="fill:#5b4096;"/><path d="M363.22,349.65c.32.16.32.33,0,.49v-.49Z" style="fill:#5b4096;"/><path d="M247,54.79c.75,18.62,5.75,36.37,11.07,54.04-6.45-4.46-12.55-9.8-17.44-15.98-2.53-3.19-4.65-4.99-4.37-9.26.42-6.4,5.5-22.92,9.35-27.99.42-.56.51-1.01,1.39-.81Z" style="fill:#62e4db;"/><path d="M569.87,463.17c.56-5.14.32-10.31.5-15.47.35-9.92.63-20.03,1-29.96.21-5.58-.42-14.34,1.09-19.55,1.08-3.73,4.84-4.99,8.46-4.29,3.31.64,2.31,8.67,2.24,11.55-.33,14.53-1.32,29.18-2.01,43.7-.4,8.52-.1,17.59-.97,26.06-.76,7.45-8.22,9.6-13.27,4.44-9.71-23.45-14.87-48.94-24.19-72.62-.26-.66-.61-2.22-1.35-2.33l-.97,53.83c-1,7.26-.44,14.8-2.12,21.96-1.13,4.81-2.64,7.42-8.25,6.07-5.08-1.22-2.12-6.37-1.91-9.84,1.37-22.54-.42-45.37,1.95-67.83.56-5.28.77-9.04,5.17-12.52,6.35-5.04,9.82-3.84,13.1,3.1,8.67,18.38,12.42,43.06,20.42,62.14.26.61.27,1.45,1.11,1.59Z" style="fill:#fafafb;"/><path d="M376.71,474.45c1.55-1.03,5.67-26.98,6.57-31.03.97-4.35,2-9.08,3.43-13.28,1.64-4.83,3.66-11.95,10.2-9.99,4.6,1.38,4.73,7.82,5.32,11.88.75,5.15,3.51,37.29,5.99,38.98s4.8-6.93,5.14-8.32c3.66-15.06,2.81-31.99,3.21-47.41.06-2.3-.6-16.66.8-16.99,7.11-1.72,5.8,6.68,6.04,10.61,1.01,16.59.07,35.53-2.52,51.99-1.15,7.28-4.46,28.04-16.08,22.64-10.62-4.94-9.26-32.64-12.48-43.05-.16-.51-.13-1.49-.83-1.37-3.39,10.58-4.57,21.72-7.04,32.52-1.54,6.73-2.95,18.79-12.96,14.24-7.76-3.52-9.58-19.33-9.98-26.87-.87-16.2.09-46.78,4.06-62.27,1.62-6.32,7.81-4.07,10.68-.12-1.32,12.1-3.19,24.19-3.93,36.35-.65,10.65-1.55,26.58,1.12,36.71.3,1.14,1.47,6,3.27,4.79Z" style="fill:#fafafb;"/><path d="M164.27,402.41c12.42,12.78,9.55,40.13,3.36,55.35-7.29,17.92-23.41,31.44-43.74,29.01-2.87-.34-4.93-2.57-5.15-5.41l12.29-.99c-3.54-7.7-2.32-16.56-3.46-24.79.11-17.32.49-34.67,2.47-51.87-5.57,1.88-10.96,5.16-15.68,8.64-1.18.87-3.89,4.7-4.87,1.32-1.26-4.32,9.41-10.9,12.69-12.68,12.55-6.81,31.1-9.91,42.1,1.41ZM140.36,476.44c4.79-.81,8.01-4.58,10.52-8.4,9.12-13.87,15.98-47.58,5.2-61.63-5.31-6.92-12.79-7.4-20.64-4.66.04.84,1.5.47,2.33.85,1.97.91,2.4,3.79,2.57,5.78.69,8.09-1.7,19.86-1.98,28.47-.33,10.12-.04,21.9,1.01,31.96.26,2.53.92,5.07.98,7.62Z" style="fill:#fafafb;"/><path d="M33.29,443.58c-1.07,1.69,11.4,33.36,13.12,37.62.08,1.57,3.79,5.25,3.5,6.24-.51,1.72-5.19,2.33-6.83,1.02-2.01-1.62-8.01-15.57-9.24-18.77-2.8-7.28-4.49-15.03-7.26-22.23l-.98.96-.84,34.56c-1.07,3.71-9.52,1.43-9.75-2.33l.03-31.23c-2.74.02-5.77.46-7.89-1.69-3.92-4,7.38-4.32,8.16-7.11l1.91-34.47c1.17-3.62,9.16.26,9.88,2.45.64,1.94.33,10.02.23,12.58-.2,5.23-1.52,10.71-.76,15.95,11.16-4.29,18-18.12,16.95-29.72-1.38-15.27-21.15-7.22-29.14-2.13-1.81,1.15-4.99,3.38-6.48,4.82-1.95,1.89-2.83,5.77-5.69,3.71-7.24-5.21,5.04-13.68,9.53-16.08,11.1-5.93,29.23-8.71,37.88,2.58,10.67,13.93-1.29,37.59-16.36,43.26Z" style="fill:#fafafb;"/><path d="M97.21,445.39c.84.97,9.39-.19,7.04,4.52-1.05,2.09-4.81-.06-6.64.49.67,9.06.95,18.24,1.97,27.27.47,4.17,1,9.2,2.01,13.22.74,2.97,3.53,5.23-1.89,6.08-2.6.41-6.3-.58-7.27-3.31-.84-2.36-1-8.25-1.2-11.08-.68-9.45-.35-19.06-.97-28.52-.08-1.24-.49-2.41-.54-3.64-.54-.53-12.75.94-13.26,1.79l-4.17,31.1c-1.89,1.94-10.95.17-11.47-2.81l3.85-26.17c-2.19-.25-4.83,2.34-6.14-.5-1.72-3.73,6.1-3.65,7.05-5.22,3.62-14.94,5.69-30.9,11.24-45.27,1.95-5.05,5.07-11.74,11.45-6.76,4.95,3.86,5.69,16.51,6.37,22.62.39,3.45,1.64,25.14,2.55,26.19ZM87.28,401.25c-1.26-.2-.77.12-1.03.69-.5,1.11-.88,2.97-1.19,4.22-3.28,13.27-5.06,27.35-7.61,40.79,2.61.22,5.09-.66,7.62-.97,2.32-.29,5.01,1.18,5.04-1.87l-2.84-42.86Z" style="fill:#fafafb;"/><path d="M292.28,445.41c.75.93,6.77-.27,7.3,2.79.8,4.58-4.31,2.06-6.88,1.7.75,9.06.97,18.23,1.97,27.27.48,4.35,1.06,9.94,2.09,14.13.27,1.09,1.29,2.08,1.35,3.12.27,4.22-10.58,3.25-10.7-1.64-1.26-13.67-1.81-27.42-2.08-41.16-.03-.58-.22-.97-.81-1.16-1.21-.4-12.37.93-12.86,1.5-1.12,6.71-2.39,13.52-3.03,20.31-.31,3.27,1.33,11.96-3.68,12.04-2.09.03-8.65-1.26-9.01-3.8l3.84-26.19c-2.15-.24-4.28,2.01-5.94-.22-2.65-3.57,6.09-3.88,7.05-5.79,3.14-14.02,5.34-28.43,10.06-42.03,2.13-6.14,6.39-17.21,13.91-8.23,5.01,5.98,5.09,26.63,5.89,34.9.16,1.66,1.15,11.98,1.54,12.47ZM272.56,446.95c2.61.21,5.09-.64,7.62-.97,1.34-.18,4.62.59,5.08-.81l-2.88-43.91c-1.93,1.55-2.17,4.99-2.7,7.37-2.84,12.66-4.71,25.59-7.12,38.34Z" style="fill:#fafafb;"/><path d="M224.27,393.52c9.09-1.25,13.13,9.27,11.89,16.8-.52,3.15-3.82,4.05-4.36.49-.45-2.97-.66-14.93-6.17-11.02-11.01,7.82-16.96,49.19-15.97,62.16.41,5.4,5.08,23.74,12.69,14.66,6.38-7.61,10.99-20.25,16.22-28.99,1.56-2.61,3.55-7.72,7.24-5.59,5.59,3.22.14,13.06-1.82,17.4-5.57,12.38-15.97,31.02-32.5,23.79-18.47-8.07-14.18-48.2-8.72-63.54,2.98-8.37,11.82-24.82,21.51-26.15Z" style="fill:#fafafb;"/><path d="M684.25,394c5.13-.8,11.14.08,15.53,2.91,2.38,1.54,7.8,6.6,4.52,9.27-4.1,3.33-6.53-3.13-10.31-4.46-6.93-2.44-13.83,2.92-14.89,9.72-2.2,14.02,11.65,19.2,18.67,29.26,9.76,13.99,9.62,32.9-6.34,42.04-7.02,4.02-19.36.66-23.75-6.05-1.37-2.09-1.3-6.34,1.65-6.04,1.29.13,5.74,4.25,8.19,5.05,4.61,1.52,10.02-.37,13.03-4.16,5.13-6.47,2.44-15.5-1.16-21.96-7.69-13.82-22.97-16.43-21.21-35.78.76-8.36,7.27-18.42,16.08-19.79Z" style="fill:#fafafb;"/><path d="M641,394c4.02-.63,8.86-.2,12.59,1.43,3.24,1.41,11.77,7.63,6.68,10.96-3.72,2.43-4.82-1.59-7.38-3.38-6.87-4.81-15.74.13-17.05,7.95-2.31,13.68,8.26,17.36,15.62,25.92,9.68,11.24,14.17,26.81,3.9,39.31-6.22,7.58-12.56,10.48-22.21,7.01-3.73-1.34-11.6-6.39-9.46-11.16,1.71-3.79,6.1,1.57,8.15,2.64,10.74,5.58,19.4-4.03,18-15.05-2.28-17.9-23.07-23.45-24.88-39-1.25-10.73,4.17-24.77,16.04-26.61Z" style="fill:#fafafb;"/><path d="M441.11,442.04c2.99.74,11.58-2.55,13.77-1.23,1.57.95.52,3.38-.48,4.44-2,2.11-6.84,2.66-9.65,3.12-1.57.25-3.76-.65-4.12,1.29-.55,2.97-.17,11.33,0,14.74.1,1.95.29,4.97.55,6.83.19,1.37.98,6.22,2.23,6.63,3.26,1.07,3.71-4.07,6.73-3.74,3.48.38,2.31,4.47.8,6.5-4.08,5.5-13.04,3.12-17.65-.52-5.26-4.16-4.14-13.6-4.44-19.64-.77-15.6-.75-32.05,1.54-47.57.39-2.63,1.4-9.53,2.86-11.4,2.37-3.04,16.87-6.19,20.96-6.56,4.45-.4,7.13,1.8,3.4,5.36-4.39,4.2-13.7,3.26-15.16,9.41-1.17,10.7-1.19,21.57-1.32,32.35Z" style="fill:#fafafb;"/><path d="M617.91,395.47c3.1,3.11-3.33,6.38-5.45,7.34-4.24,1.93-10.08,2.03-11.02,7.65-.93,5.55-.4,13.3-.59,19.07-.13,4.03-.95,8.34-.51,12.51,2.94.9,12.49-3.01,14.3-.79,3.91,4.78-11.42,8.1-14.25,7.22-.76.65-.63,11.14-.56,12.99.08,2.28.29,5.6.52,7.84s.57,8.77,3.63,8.61c2.36-.13,2.1-2.16,3.1-2.98,3.58-2.94,6.37,2.05,3.02,6.1-3.64,4.4-10.74,2.84-15.11.51-4.95-2.64-5.73-5.42-6.44-10.76-1.84-13.97-1.17-33.99,0-48.15.33-3.95,2-18.46,3.91-21.15,1.75-2.46,9.76-4.24,12.78-4.91,2.41-.54,11.1-2.67,12.66-1.11Z" style="fill:#fafafb;"/><path d="M189.88,484.19c-2.15,2.15-10.24-.4-10.72-4.03-1.2-9.03.97-20.7,0-30.02.45-16.01,1.2-32.1,2.01-48.12.26-5.06-2.29-11.87,4.74-9.2,3.2,1.21,5.64,3.15,6.05,6.72.79,6.95.15,17.77.02,25.08-.22,12.02-1.2,24.3-1.51,36.33-.09,3.33.59,22.07-.59,23.25Z" style="fill:#fafafb;"/><path d="M469.47,392.49c2.48-.76,7.6,2.11,7.55,5.08-1.85,10.07-1.98,20.26-2.5,30.45-.71,14.03-1.7,28.7-.48,42.75.47,5.39.24,11.92,7.04,8.03,2.09-1.2,6.9-6.86,8.94-4.84,3.05,3.02-4.32,8.17-6.69,9.55-8.75,5.11-16.78,4-18.57-6.91s-.89-23.04-.54-34.31c.45-14.5.47-33.04,3.54-47.08.22-.99.65-2.41,1.7-2.73Z" style="fill:#fafafb;"/><path d="M500.93,392.49c2.69-.81,7.47,2.05,7.55,5.08-2.41,15.47-2.64,31.09-2.96,46.7-.2,9.89-1.2,21.9.69,31.7.99,5.16,2.4,5.04,6.62,2.64,2.25-1.28,6.27-6.16,8.4-4.88,4.33,2.59-4.43,8.62-6.44,9.8-6.11,3.57-15.52,4.87-17.92-3.63-2.7-9.57-1.45-25.11-1.19-35.14.4-15.39.48-33.59,3.49-48.6.25-1.24.37-3.26,1.75-3.67Z" style="fill:#fafafb;"/><path d="M310.25,392.49c2.58-.79,7.58,2.1,7.39,5.19-2.33,21.6-4.28,44.47-3.34,66.24.16,3.65.45,9.51,1.32,12.93,1.12,4.42,2.61,4.03,6.23,1.95,2.17-1.24,6.33-6.45,8.47-4.86,4.45,3.28-6.74,10.2-9.51,11.2-8.01,2.91-13.57.88-15.2-7.63-3.12-16.23-1.07-44.31.35-61.28.48-5.75,1.14-16.29,2.56-21.52.23-.83.84-1.97,1.71-2.23Z" style="fill:#fafafb;"/></svg>