<svg width="1080" height="1920" viewBox="0 0 1080 1920" fill="none" xmlns="http://www.w3.org/2000/svg" preserveAspectRatio="none">
<path d="M1080 0H0V1920H1080V0Z" fill="#FDFAF3"/>
<path d="M677 1456H125C109 1456 96 1469 96 1486C96 1502 109 1515 125 1515H677C693 1515 706 1502 706 1486C706 1469 693 1456 677 1456Z" fill="#AED6C1"/>
<path d="M506 1569H145C118 1569 96 1591 96 1618C96 1645 118 1667 145 1667H506C533 1667 555 1645 555 1618C555 1591 533 1569 506 1569Z" fill="#243F86"/>
<path d="M505 1645C520 1645 532 1633 532 1618C532 1603 520 1591 505 1591C490 1591 477 1603 477 1618C477 1633 490 1645 505 1645Z" fill="#FDFAF3"/>
<path d="M494 1618H512M504 1608L513 1618L504 1628" stroke="#243F86" stroke-width="4.2" stroke-linecap="round" stroke-linejoin="round"/>
</svg>
