<svg width="1080" height="1350" viewBox="0 0 1080 1350" fill="none" xmlns="http://www.w3.org/2000/svg" preserveAspectRatio="none">
<path d="M1080 0H0V1350H1080V0Z" fill="#FDFAF3"/>
<path d="M604 1120H100C84 1120 72 1132 72 1148C72 1164 84 1176 100 1176H604C620 1176 632 1164 632 1148C632 1132 620 1120 604 1120Z" fill="#AED6C1"/>
<path d="M467 1200H117C92 1200 72 1220 72 1245C72 1270 92 1290 117 1290H467C492 1290 512 1270 512 1245C512 1220 492 1200 467 1200Z" fill="#243F86"/>
<path d="M485 1269C498 1269 509 1258 509 1245C509 1232 498 1221 485 1221C472 1221 461 1232 461 1245C461 1258 472 1269 485 1269Z" fill="#FDFAF3"/>
<path d="M475 1245H494M486 1236L495 1245L486 1254" stroke="#243F86" stroke-width="4.2" stroke-linecap="round" stroke-linejoin="round"/>
</svg>
