<?xml version="1.0" encoding="UTF-8"?>
<svg xmlns="http://www.w3.org/2000/svg" viewBox="0 0 2000 528" fill="#095486" fill-rule="evenodd"><path d="M320.32,515.56 C313.77,513.51 309.00,510.07 305.88,505.15 C304.30,502.65 303.00,500.18 303.00,499.65 C303.00,497.88 346.19,501.45 353.95,503.87 C356.31,504.60 356.19,504.79 350.81,508.85 C341.01,516.25 330.16,518.64 320.32,515.56 Z M117.62,513.00 C108.24,509.34 102.77,504.14 94.56,491.11 L91.79,486.71L94.15,487.37 C106.43,490.77 140.09,496.00 149.72,496.00 C152.07,496.00 154.00,496.38 154.00,496.85 C154.00,498.50 148.09,505.83 144.63,508.47 C139.85,512.12 131.86,515.01 126.74,514.95 C124.41,514.93 120.31,514.05 117.62,513.00 Z M765.50,481.34 L735.50,449.75L735.00,479.62 L734.50,509.50L730.00,509.50 L725.50,509.50L725.24,468.03 L724.98,426.55L729.74,431.27 C732.36,433.87 746.20,448.26 760.50,463.27 L786.50,490.55L786.76,460.28 L787.03,430.00L791.51,430.00 L796.00,430.00L796.00,471.50 C796.00,494.32 795.89,512.98 795.75,512.96 C795.61,512.94 782.00,498.71 765.50,481.34 Z M1096.74,472.23 C1088.62,449.83 1081.99,431.16 1081.99,430.75 C1082.00,430.34 1084.14,430.00 1086.75,430.00 L1091.50,430.00L1101.91,459.57 L1112.32,489.13L1117.93,474.81 C1121.02,466.94 1126.46,452.97 1130.02,443.76 C1133.59,434.56 1136.74,427.02 1137.03,427.01 C1137.32,427.01 1142.24,439.71 1147.95,455.25 C1153.67,470.79 1158.92,484.62 1159.61,486.00 L1160.88,488.50L1161.99,485.50 C1162.60,483.85 1167.70,470.80 1173.31,456.50 L1183.52,430.50L1188.39,430.19 C1192.91,429.90 1193.22,430.03 1192.72,431.97 C1191.49,436.68 1160.61,512.88 1160.07,512.54 C1159.74,512.34 1154.53,498.64 1148.49,482.10 C1142.45,465.55 1137.28,452.01 1137.00,452.01 C1136.45,452.00 1136.28,452.42 1122.23,488.25 C1116.89,501.86 1112.29,512.99 1112.01,512.98 C1111.73,512.97 1104.86,494.63 1096.74,472.23 Z M1454.38,480.70 L1424.50,449.40L1424.24,479.70 L1423.97,510.00L1419.49,510.00 L1415.00,510.00L1415.00,468.41 L1415.00,426.83L1427.30,439.66 C1434.06,446.72 1447.68,460.97 1457.55,471.33 L1475.50,490.16L1476.00,460.33 L1476.50,430.50L1481.00,430.50 L1485.50,430.50L1485.76,471.25 C1485.91,494.29 1485.64,512.00 1485.14,512.00 C1484.66,512.00 1470.81,497.91 1454.38,480.70 Z M1608.50,509.85 C1601.71,507.34 1595.25,500.04 1593.49,492.88 C1592.93,490.60 1593.22,490.17 1595.67,489.58 C1597.23,489.21 1599.29,488.67 1600.25,488.39 C1601.46,488.02 1602.00,488.42 1602.00,489.68 C1602.01,492.58 1605.70,497.85 1609.24,500.01 C1613.68,502.71 1622.13,502.70 1626.53,499.98 C1630.57,497.48 1633.00,492.55 1633.00,486.82 C1633.00,479.78 1629.93,476.83 1616.00,470.51 C1601.77,464.04 1596.98,458.69 1597.02,449.29 C1597.08,437.12 1606.05,429.00 1619.45,429.00 C1626.15,429.00 1634.19,432.91 1637.50,437.79 L1639.93,441.36L1636.46,443.72 L1632.99,446.08L1629.15,442.04 C1625.51,438.21 1625.01,438.00 1619.38,438.00 C1612.75,438.00 1609.84,439.47 1607.49,444.01 C1603.35,452.03 1607.23,457.22 1622.02,463.43 C1637.76,470.04 1644.22,478.40 1642.49,489.92 C1641.25,498.15 1636.76,504.50 1629.50,508.25 C1624.82,510.67 1613.12,511.56 1608.50,509.85 Z M1682.38,508.60 C1677.00,506.09 1673.08,501.84 1670.53,495.73 C1668.47,490.80 1668.56,490.32 1671.75,489.56 C1673.26,489.20 1675.25,488.68 1676.16,488.41 C1677.37,488.06 1678.00,488.74 1678.48,490.91 C1680.00,497.82 1685.93,502.00 1694.20,501.99 C1703.36,501.98 1708.98,496.44 1708.99,487.38 C1709.00,480.21 1706.81,477.92 1693.64,471.33 C1687.51,468.26 1681.25,464.87 1679.73,463.79 C1672.49,458.67 1670.88,446.32 1676.37,438.01 C1684.42,425.86 1706.16,426.09 1713.97,438.42 L1715.86,441.41L1712.52,443.68 L1709.18,445.95L1705.21,441.97 C1701.51,438.28 1700.84,438.00 1695.58,438.00 C1689.20,438.00 1685.69,439.76 1683.45,444.10 C1679.35,452.02 1683.28,457.24 1698.02,463.43 C1713.59,469.97 1720.18,478.39 1718.62,489.74 C1716.34,506.38 1698.05,515.89 1682.38,508.60 Z M559.75,509.45 C559.34,509.02 559.00,490.97 559.00,469.33 L559.00,430.00L569.86,430.00 C583.35,430.00 589.76,431.16 597.70,435.04 C604.97,438.60 611.15,445.07 614.84,453.00 C618.24,460.30 619.07,474.37 616.56,482.24 C613.03,493.28 603.78,502.99 592.78,507.18 C588.81,508.70 584.14,509.33 574.00,509.72 C566.58,510.01 560.16,509.89 559.75,509.45 Z M651.69,509.35 C651.31,508.98 651.00,490.96 651.00,469.31 L651.00,429.96L671.75,430.23 L692.50,430.50L692.50,434.50 L692.50,438.50L676.25,438.77 L660.00,439.05L660.00,450.52 L660.00,462.00L676.00,462.00 L692.00,462.00L692.00,465.89 C692.00,468.52 691.49,469.98 690.42,470.39 C689.55,470.73 682.35,471.00 674.42,471.00 L660.00,471.00L660.00,486.00 L660.00,501.00L676.56,501.00 L693.11,501.00L692.81,505.25 L692.50,509.50L672.44,509.77 C661.40,509.92 652.06,509.73 651.69,509.35 Z M844.00,474.50 L844.00,439.00L834.50,439.00 L825.00,439.00L825.00,434.50 L825.00,430.00L848.50,430.00 L872.00,430.00L872.00,434.50 L872.00,439.00L862.50,439.00 L853.00,439.00L853.00,474.50 L853.00,510.00L848.50,510.00 L844.00,510.00L844.00,474.50 Z M887.22,508.28 C888.01,505.24 922.46,427.01 923.00,427.02 C923.55,427.03 956.86,504.74 957.72,508.04 C958.22,509.96 957.90,510.10 953.42,509.81 L948.57,509.50L943.95,498.50 L939.33,487.50L922.53,487.50 L905.73,487.50L901.09,498.50 L896.46,509.50L891.60,509.81 C887.29,510.08 886.79,509.91 887.22,508.28 Z M987.24,509.18 C986.25,508.54 986.03,499.91 986.24,469.43 L986.50,430.50L991.00,430.50 L995.50,430.50L995.76,465.75 L996.03,501.00L1007.07,501.00 L1018.11,501.00L1017.81,505.25 L1017.50,509.50L1003.00,509.75 C995.02,509.89 987.93,509.63 987.24,509.18 Z M1222.24,509.18 C1221.25,508.54 1221.03,499.91 1221.24,469.43 L1221.50,430.50L1242.25,430.23 L1263.00,429.96L1263.00,434.48 L1263.00,439.00L1247.00,439.00 L1231.00,439.00L1231.00,450.50 L1231.00,462.00L1246.50,462.00 L1262.00,462.00L1262.00,466.50 L1262.00,471.00L1246.50,471.00 L1231.00,471.00L1231.00,486.00 L1231.00,501.00L1247.06,501.00 L1263.11,501.00L1262.81,505.25 L1262.50,509.50L1243.00,509.75 C1232.28,509.88 1222.93,509.63 1222.24,509.18 Z M1296.00,470.03 L1296.00,430.00L1300.50,430.00 L1305.00,430.00L1305.00,465.50 L1305.00,501.00L1316.06,501.00 L1327.11,501.00L1326.81,505.25 L1326.50,509.50L1311.25,509.78 L1296.00,510.05L1296.00,470.03 Z M1355.67,509.33 C1355.30,508.97 1355.00,490.94 1355.00,469.28 L1355.00,429.89L1359.75,430.20 L1364.50,430.50L1364.76,465.75 L1365.03,501.00L1375.51,501.00 L1386.00,501.00L1386.00,505.50 L1386.00,510.00L1371.17,510.00 C1363.01,510.00 1356.03,509.70 1355.67,509.33 Z M1523.00,470.00 L1523.00,430.00L1543.50,430.00 L1564.00,430.00L1564.00,434.50 L1564.00,439.00L1548.00,439.00 L1532.00,439.00L1532.00,450.50 L1532.00,462.00L1547.50,462.00 L1563.00,462.00L1563.00,466.50 L1563.00,471.00L1547.50,471.00 L1532.00,471.00L1532.00,486.00 L1532.00,501.00L1548.00,501.00 L1564.00,501.00L1564.00,505.50 L1564.00,510.00L1543.50,510.00 L1523.00,510.00L1523.00,470.00 Z M592.38,497.60 C598.65,494.54 603.37,489.63 606.36,483.05 C609.40,476.39 609.32,462.18 606.21,456.28 C600.18,444.83 592.01,439.98 577.45,439.22 L568.00,438.73L568.00,470.00 L568.00,501.27L577.45,500.78 C585.01,500.38 588.00,499.75 592.38,497.60 Z M357.85,498.52 C356.89,497.56 326.16,494.06 312.80,493.39 L299.09,492.70L293.91,480.10 C285.48,459.61 281.66,449.00 282.44,448.23 C282.84,447.83 300.12,447.50 320.83,447.50 C359.91,447.50 380.63,448.88 381.66,451.56 C381.93,452.26 380.71,457.03 378.96,462.16 C371.68,483.43 361.06,501.73 357.85,498.52 Z M1784.74,497.87 C1777.10,497.10 1762.79,493.73 1760.08,492.05 C1757.98,490.75 1766.75,466.65 1768.96,467.62 C1774.67,470.11 1787.74,473.15 1794.98,473.66 C1815.00,475.08 1826.26,466.45 1839.51,439.50 C1844.47,429.40 1872.00,362.41 1872.00,360.42 C1872.00,360.19 1868.92,360.00 1865.15,360.00 L1858.30,360.00L1816.01,260.75 C1792.75,206.16 1770.60,155.54 1766.79,148.25 L1759.87,135.00L1780.20,135.00 L1800.53,135.00L1803.40,143.25 C1804.97,147.79 1822.95,192.79 1843.34,243.25 C1870.30,309.95 1880.85,335.00 1881.99,335.00 C1883.10,335.00 1894.42,309.84 1921.67,246.75 C1955.42,168.62 1960.10,157.15 1962.49,146.75 L1965.20,135.00L1976.10,135.00 C1982.09,135.00 1987.00,135.40 1987.00,135.89 C1987.00,136.38 1984.72,141.89 1981.93,148.14 C1977.33,158.43 1900.85,337.79 1870.30,409.94 C1863.44,426.13 1855.57,443.90 1852.80,449.44 C1833.70,487.61 1815.00,500.92 1784.74,497.87 Z M139.16,489.43 C124.52,487.84 113.43,485.88 98.61,482.27 L87.71,479.62L84.23,472.06 C79.96,462.80 73.00,445.96 73.00,444.88 C73.00,444.44 74.69,444.68 76.75,445.40 C83.17,447.66 102.15,451.93 113.06,453.57 C118.96,454.46 133.85,455.39 147.31,455.71 C168.70,456.21 171.04,456.43 170.45,457.88 C170.09,458.77 169.00,461.75 168.03,464.50 C167.06,467.25 164.37,474.34 162.06,480.25 C157.18,492.71 159.75,491.68 139.16,489.43 Z M935.00,477.98 C935.00,476.84 923.98,449.88 923.08,448.81 C922.55,448.19 909.97,476.49 909.99,478.25 C910.00,478.66 915.62,479.00 922.50,479.00 C930.30,479.00 935.00,478.62 935.00,477.98 Z M133.50,449.86 C118.24,448.78 99.73,445.67 86.69,442.00 C68.61,436.91 70.02,438.16 65.18,422.82 C62.87,415.49 60.58,408.06 60.08,406.30 L59.17,403.09L64.33,405.18 C88.69,415.03 113.96,418.72 149.50,417.63 C161.05,417.27 173.88,416.57 178.00,416.08 C182.12,415.58 185.66,415.33 185.85,415.52 C186.12,415.79 180.28,431.71 173.47,449.25 C172.86,450.81 171.29,450.98 159.14,450.86 C151.64,450.78 140.10,450.33 133.50,449.86 Z M376.50,443.98 C364.98,441.70 342.08,440.73 313.50,441.32 C297.00,441.66 282.60,442.20 281.50,442.52 C279.68,443.05 278.90,441.30 273.11,423.80 C269.59,413.19 266.55,404.05 266.35,403.50 C265.93,402.38 293.24,397.86 318.50,394.87 C340.00,392.32 372.23,391.40 387.46,392.90 C394.03,393.55 399.58,394.24 399.78,394.45 C399.98,394.65 396.64,406.11 392.35,419.91 C383.76,447.57 385.01,445.66 376.50,443.98 Z M108.00,410.37 C94.15,408.49 80.07,404.87 67.42,399.92 C58.09,396.27 57.03,395.60 56.12,392.70 C54.41,387.23 49.00,366.39 49.00,365.26 C49.00,364.68 53.45,366.15 58.89,368.55 C81.24,378.38 97.64,381.43 128.00,381.40 C151.67,381.37 162.19,380.34 188.60,375.46 C196.12,374.07 202.46,373.12 202.68,373.35 C202.90,373.57 199.97,381.57 196.16,391.11 C189.35,408.14 189.16,408.48 185.86,409.14 C171.14,412.11 126.05,412.82 108.00,410.37 Z M264.00,396.86 C263.99,396.18 254.25,363.50 253.58,361.92 C253.02,360.59 256.18,359.50 273.21,355.16 C335.90,339.19 369.49,334.00 401.42,335.36 C409.62,335.71 416.49,336.16 416.68,336.34 C416.95,336.62 411.82,354.97 402.83,385.83 C402.21,387.97 401.38,388.98 400.52,388.65 C399.79,388.36 392.73,387.60 384.84,386.94 C360.17,384.88 327.01,387.08 285.26,393.53 C276.04,394.96 267.49,396.37 266.25,396.67 C265.01,396.97 264.00,397.06 264.00,396.86 Z M1673.36,384.02 C1649.12,377.66 1636.59,362.06 1630.38,330.50 C1628.79,322.41 1628.57,312.80 1628.25,235.25 L1627.90,149.00L1605.95,149.00 L1584.00,149.00L1584.00,142.00 L1584.00,135.00L1606.00,135.00 L1628.00,135.00L1628.00,98.06 L1628.00,61.12L1632.25,60.59 C1634.59,60.30 1642.69,59.78 1650.25,59.43 L1664.00,58.80L1664.00,96.90 L1664.00,135.00L1701.01,135.00 L1738.02,135.00L1737.35,139.25 C1736.98,141.59 1736.38,144.62 1736.02,146.00 L1735.36,148.50L1699.63,148.76 L1663.90,149.03L1664.27,243.26 C1664.61,328.96 1664.80,338.17 1666.40,344.94 C1669.65,358.69 1674.77,366.27 1683.80,370.70 C1689.15,373.33 1690.26,373.50 1702.00,373.43 C1715.31,373.36 1723.61,371.85 1734.18,367.58 L1740.07,365.20L1742.53,370.07 C1743.89,372.74 1745.00,375.15 1745.00,375.42 C1745.00,376.43 1722.75,383.03 1714.44,384.48 C1702.19,386.62 1682.43,386.40 1673.36,384.02 Z M559.50,224.00 L559.50,65.00L578.28,65.00 L597.06,65.00L596.28,75.75 C595.26,89.81 595.26,352.53 596.29,369.75 L597.07,383.00L578.29,383.00 L559.50,383.00L559.50,224.00 Z M683.50,259.57 L683.50,136.11L689.50,135.58 C699.06,134.73 719.00,133.77 719.00,134.15 C719.00,134.34 718.10,143.72 717.00,155.00 C715.90,166.28 715.00,175.68 715.00,175.89 C715.00,176.11 719.05,172.38 724.01,167.60 C739.79,152.39 760.90,140.32 782.03,134.45 C795.82,130.61 815.03,129.95 827.38,132.90 C847.37,137.68 861.55,149.99 868.63,168.72 C874.47,184.18 874.27,180.50 874.96,284.00 C875.31,336.52 875.80,380.18 876.05,381.00 C876.44,382.29 873.90,382.54 858.00,382.77 L839.50,383.04L839.50,288.77 C839.50,200.56 839.38,194.09 837.68,188.07 C832.72,170.60 823.92,161.35 807.50,156.35 C798.72,153.68 776.39,153.91 765.86,156.78 C752.00,160.56 740.47,167.33 725.66,180.41 L718.82,186.45L719.29,282.47 C719.55,335.29 719.93,379.40 720.13,380.50 C720.49,382.43 719.88,382.51 702.00,382.77 L683.50,383.04L683.50,259.57 Z M964.72,382.25 C964.50,381.84 964.66,375.65 965.08,368.50 C965.49,361.35 965.87,309.04 965.91,252.25 L966.00,149.00L944.67,149.00 C932.93,149.00 923.10,148.76 922.81,148.48 C922.52,148.19 922.79,145.15 923.40,141.73 L924.51,135.50L945.26,135.23 L966.00,134.96L966.00,114.36 C966.00,91.74 967.47,78.49 971.56,64.39 C981.53,30.00 1005.54,12.99 1046.50,11.32 C1054.37,11.00 1064.29,11.22 1069.16,11.83 C1081.11,13.32 1092.00,16.06 1092.00,17.58 C1092.00,18.87 1088.30,28.00 1087.78,28.00 C1087.62,28.00 1084.35,27.10 1080.50,26.00 C1076.65,24.89 1068.42,23.48 1062.21,22.85 C1025.07,19.07 1007.22,34.84 1002.01,76.00 C1001.49,80.12 1001.05,95.12 1001.03,109.32 L1001.00,135.15L1069.00,134.82 L1137.00,134.50L1137.00,242.09 C1137.00,301.26 1137.30,357.18 1137.66,366.34 L1138.31,383.00L1120.41,383.00 L1102.50,383.00L1102.83,266.00 L1103.15,149.00L1052.03,149.00 L1000.90,149.00L1001.20,266.00 L1001.50,383.00L983.31,383.00 C973.30,383.00 964.94,382.66 964.72,382.25 Z M1224.50,264.25 C1224.50,198.94 1224.18,143.41 1223.78,140.85 L1223.07,136.20L1229.78,135.63 C1233.48,135.32 1241.69,134.78 1248.04,134.44 L1259.59,133.83L1257.86,151.16 C1256.91,160.70 1256.10,170.07 1256.06,172.00 L1255.99,175.50L1264.24,167.65 C1282.74,150.07 1307.99,136.89 1331.73,132.42 C1344.49,130.02 1362.74,130.86 1373.50,134.36 C1393.08,140.71 1405.79,154.81 1411.92,176.94 C1415.36,189.39 1416.00,206.98 1416.26,296.77 L1416.50,383.04L1398.00,382.77 L1379.50,382.50L1380.00,371.50 C1380.28,365.45 1380.50,324.27 1380.50,280.00 C1380.50,191.33 1380.45,190.57 1374.46,178.05 C1366.90,162.29 1351.62,154.16 1329.32,154.03 C1305.53,153.90 1286.07,162.08 1266.04,180.62 L1259.86,186.34L1260.18,284.67 L1260.50,383.00L1242.50,383.00 L1224.50,383.00L1224.50,264.25 Z M1499.50,259.57 L1499.50,136.11L1505.50,135.58 C1508.80,135.29 1516.53,134.78 1522.68,134.45 L1533.86,133.84L1534.39,253.67 C1534.68,319.58 1535.05,375.52 1535.21,378.00 L1535.50,382.50L1517.50,382.77 L1499.50,383.04L1499.50,259.57 Z M102.77,374.54 C84.08,371.85 70.18,367.64 54.86,360.01 L46.47,355.83L43.22,341.67 C41.44,333.87 39.98,327.23 39.99,326.91 C39.99,326.59 44.61,328.67 50.25,331.54 C75.10,344.21 102.03,349.16 133.90,346.93 C167.88,344.54 198.12,336.87 261.40,314.56 C330.51,290.20 355.49,283.09 388.00,278.53 C398.25,277.10 430.47,276.13 431.57,277.23 C432.01,277.68 420.67,324.11 419.11,328.20 L418.22,330.56L406.36,329.66 C385.09,328.05 350.61,331.47 317.00,338.50 C310.12,339.94 292.03,344.28 276.79,348.14 L249.08,355.16L245.59,352.50 C237.53,346.36 227.41,345.81 218.29,351.02 C213.80,353.59 211.66,356.01 206.50,364.41 C205.37,366.25 189.92,369.66 167.50,373.01 C149.17,375.75 116.57,376.52 102.77,374.54 Z M104.05,340.98 C78.84,338.35 52.80,329.02 38.12,317.37 C37.54,316.91 32.22,290.00 32.71,290.00 C32.95,290.00 35.02,291.29 37.32,292.87 C48.18,300.32 67.69,308.28 83.02,311.50 C109.54,317.08 144.34,314.51 179.35,304.37 C203.83,297.29 224.17,289.00 295.00,257.24 C356.78,229.55 392.62,218.92 432.40,216.51 L443.29,215.85L442.62,222.17 C442.25,225.65 440.05,237.95 437.73,249.50 L433.50,270.50L413.00,271.14 C390.66,271.85 383.64,272.67 362.50,277.05 C337.87,282.17 318.76,288.06 260.50,308.51 C206.23,327.55 179.45,335.15 153.00,338.99 C136.84,341.33 115.67,342.20 104.05,340.98 Z M102.00,308.37 C87.34,306.98 68.95,302.21 56.57,296.56 C48.60,292.93 34.26,284.08 31.78,281.26 C30.93,280.29 29.48,275.00 28.56,269.50 C27.64,264.00 26.64,258.46 26.32,257.20 C25.82,255.13 26.41,255.35 32.13,259.33 C46.24,269.15 66.77,277.32 85.50,280.58 C100.48,283.19 124.84,282.97 141.50,280.07 C178.74,273.59 212.28,259.37 282.00,220.49 C338.99,188.71 360.73,178.07 388.16,168.51 C408.54,161.42 423.62,157.91 443.91,155.52 L449.31,154.89L448.65,168.19 C448.00,181.05 445.39,207.19 444.50,209.75 C444.19,210.65 440.89,211.01 432.78,211.02 C412.82,211.05 389.01,215.48 362.21,224.16 C336.70,232.42 322.66,238.16 271.50,261.27 C207.22,290.31 179.21,300.26 145.73,305.97 C134.20,307.93 110.92,309.21 102.00,308.37 Z M94.61,275.94 C71.16,273.22 49.90,264.94 32.41,251.74 L24.32,245.62L22.67,234.64 C21.76,228.59 21.22,223.45 21.46,223.20 C21.71,222.96 23.65,224.14 25.78,225.82 C27.91,227.51 33.16,230.97 37.45,233.50 C77.08,256.93 128.39,258.07 181.50,236.70 C210.11,225.18 235.73,210.41 292.19,172.84 C340.29,140.85 359.17,129.38 382.50,117.99 C401.84,108.55 414.13,103.68 428.66,99.70 L437.81,97.19L440.33,102.85 C444.76,112.78 449.00,134.27 449.00,146.81 L449.00,149.70L440.68,150.29 C421.63,151.63 391.76,159.74 366.14,170.52 C346.95,178.59 321.19,191.80 281.50,213.93 C238.52,237.90 211.92,251.31 191.50,259.32 C154.69,273.76 122.86,279.22 94.61,275.94 Z M86.00,244.46 C63.24,240.86 42.80,231.87 25.35,217.78 L19.20,212.81L17.98,202.86 C17.31,197.38 16.95,192.71 17.18,192.48 C17.41,192.25 20.95,194.49 25.05,197.46 C34.24,204.11 49.87,211.98 60.52,215.31 C75.50,220.00 82.82,221.13 102.00,221.69 C117.87,222.15 122.24,221.93 132.72,220.14 C180.89,211.91 220.35,189.86 299.83,126.73 C338.89,95.71 365.41,76.46 386.81,63.58 L393.13,59.78L397.81,61.52 C408.88,65.64 423.31,76.94 430.75,87.29 L433.99,91.82L422.25,95.52 C384.86,107.29 357.18,122.30 288.83,167.85 C240.17,200.29 225.04,209.50 201.50,221.04 C174.42,234.31 154.30,241.04 131.44,244.49 C119.39,246.31 97.58,246.29 86.00,244.46 Z M81.50,214.48 C60.66,210.68 38.57,200.97 23.75,189.09 C14.29,181.51 15.05,183.67 12.98,158.34 C11.64,142.03 12.31,119.72 14.41,110.71 C16.09,103.47 19.59,97.67 26.15,91.27 C38.97,78.75 51.04,73.16 69.86,71.01 C93.28,68.34 129.31,76.94 174.50,95.99 C217.76,114.22 226.13,117.00 237.76,117.00 L245.10,117.00L254.59,108.55 C289.10,77.82 311.27,65.74 345.50,59.00 C357.03,56.73 381.27,55.87 383.06,57.66 C383.59,58.19 381.62,59.93 378.23,61.93 C361.04,72.06 336.02,90.43 292.50,124.87 C277.10,137.06 257.86,151.87 249.74,157.77 C208.22,187.96 172.45,205.73 138.50,213.05 C125.32,215.89 93.62,216.68 81.50,214.48 Z M1108.17,89.40 C1094.31,82.49 1090.65,64.77 1100.66,53.08 C1109.74,42.47 1125.33,42.23 1135.34,52.54 C1138.81,56.11 1142.00,63.63 1142.00,68.24 C1142.00,77.08 1134.55,87.60 1126.31,90.41 C1119.56,92.71 1114.22,92.41 1108.17,89.40 Z M1507.75,90.57 C1494.57,85.87 1488.45,71.16 1494.38,58.43 C1504.89,35.86 1539.00,43.77 1539.00,68.77 C1539.00,84.32 1522.49,95.84 1507.75,90.57 Z"/></svg>