<?xml version="1.0" encoding="UTF-8"?><svg id="Layer_1" xmlns="http://www.w3.org/2000/svg" viewBox="0 0 769.69 184.44"><path d="M210.57,126.89c0-8.24,4.19-16.48,12.57-16.48s12.52,8.24,12.52,16.48-4.14,16.43-12.57,16.43-12.52-8.24-12.52-16.43ZM221.8,111.06c-13.67,1.15-11.14,32.77,2.63,31.62,13.67-1.1,11.14-32.73-2.63-31.62Z" style="fill:#1c4656; stroke:#1c4656; stroke-miterlimit:10; stroke-width:1.51px;"/><path d="M247.15,142.96c1.15,0,1.98-1.84,1.98-3.08v-25.91c0-1.2-.83-3.04-1.98-3.04v-.09h7.6c12.15,0,12.98,14.64,2.53,16.71l7.55,12.33c.73,1.24,2.4,3.08,3.59,3.08v.09h-4.1l-9.39-15.28h-3.64v12.11c0,1.24.87,3.08,2.02,3.08l-.05.09h-6.12v-.09h0ZM251.3,111.38v15.83h3.45c9.94,0,9.94-15.83,0-15.83h-3.45Z" style="fill:#1c4656; stroke:#1c4656; stroke-miterlimit:10; stroke-width:1.51px;"/><path d="M275.78,115.94l1.43-5.11h17.12l1.43,5.11h-.09c-.46-1.52-2.85-4.56-5.75-4.56h-3.04v28.49c0,1.24.83,3.08,1.98,3.08v.09h-6.17v-.09c1.15,0,1.98-1.84,1.98-3.08v-28.49h-3.04c-2.9,0-5.29,3.04-5.76,4.56h-.1Z" style="fill:#1c4656; stroke:#1c4656; stroke-miterlimit:10; stroke-width:1.51px;"/><path d="M306.11,110.83h6.12l.05.09c-1.15,0-2.02,1.84-2.02,3.04v11.14h14.68v-11.14c0-1.2-.83-3.04-1.98-3.04v-.09h6.17v.09c-1.15,0-1.98,1.84-1.98,3.04v25.91c0,1.24.83,3.08,1.98,3.08v.09h-6.17v-.09c1.15,0,1.98-1.84,1.98-3.08v-14.23h-14.68v14.23c0,1.24.87,3.08,2.02,3.08l-.05.09h-6.12v-.09c1.15,0,1.98-1.84,1.98-3.08v-25.91c0-1.2-.83-3.04-1.98-3.04v-.09Z" style="fill:#1c4656; stroke:#1c4656; stroke-miterlimit:10; stroke-width:1.51px;"/><path d="M340.63,126.89c0-8.24,4.19-16.48,12.57-16.48s12.52,8.24,12.52,16.48-4.14,16.43-12.57,16.43-12.52-8.24-12.52-16.43ZM351.86,111.06c-13.67,1.15-11.14,32.77,2.63,31.62,13.67-1.1,11.14-32.73-2.63-31.62Z" style="fill:#1c4656; stroke:#1c4656; stroke-miterlimit:10; stroke-width:1.51px;"/><path d="M377.22,142.96c1.15,0,1.98-1.84,1.98-3.08v-25.91c0-1.2-.83-3.04-1.98-3.04v-.09h8.15c8.47,0,12.7,8.05,12.7,16.11s-4.23,16.11-12.7,16.11h-8.15v-.09h0ZM381.36,111.38v31.11h4.05c13.76,0,13.76-31.11-.05-31.11h-4Z" style="fill:#1c4656; stroke:#1c4656; stroke-miterlimit:10; stroke-width:1.51px;"/><path d="M410.49,126.89c0-8.24,4.19-16.48,12.57-16.48s12.52,8.24,12.52,16.48-4.14,16.43-12.57,16.43-12.52-8.24-12.52-16.43ZM421.72,111.06c-13.67,1.15-11.14,32.77,2.62,31.62,13.67-1.1,11.14-32.73-2.62-31.62Z" style="fill:#1c4656; stroke:#1c4656; stroke-miterlimit:10; stroke-width:1.51px;"/><path d="M446.02,142.96c1.24,0,2.12-1.93,2.12-3.13v-25.78c0-1.24-.87-3.13-2.12-3.13v-.09h3.45l16.75,28.08v-24.85c0-1.24-.92-3.13-2.16-3.13l.05-.09h4.78v.09c-1.2,0-2.12,1.89-2.12,3.13v29h-.56l-17.49-29.27v26.05c0,1.2.87,3.13,2.12,3.13v.09h-4.83v-.09h0Z" style="fill:#1c4656; stroke:#1c4656; stroke-miterlimit:10; stroke-width:1.51px;"/><path d="M479.25,115.94l1.43-5.11h17.12l1.43,5.11h-.09c-.46-1.52-2.85-4.56-5.76-4.56h-3.04v28.49c0,1.24.83,3.08,1.98,3.08v.09h-6.17v-.09c1.15,0,1.98-1.84,1.98-3.08v-28.49h-3.04c-2.9,0-5.29,3.04-5.75,4.56h-.1Z" style="fill:#1c4656; stroke:#1c4656; stroke-miterlimit:10; stroke-width:1.51px;"/><path d="M509.58,142.96c1.15,0,1.98-1.84,1.98-3.08v-25.91c0-1.2-.83-3.04-1.98-3.04v-.09h6.12l.05.09c-1.15,0-2.02,1.84-2.02,3.04v25.91c0,1.52,1.06,3.08,2.02,3.08l-.05.09h-6.12v-.09Z" style="fill:#1c4656; stroke:#1c4656; stroke-miterlimit:10; stroke-width:1.51px;"/><path d="M539.36,110.46c3.08,0,4.51,1.79,5.2,1.79s1.01-.69,1.01-1.57h.19l-.05,7.6h-.19c-.51-4.78-3.31-7.23-6.17-7.23-6.44,0-9.67,7.96-9.67,15.93,0,5.8,2.3,15.83,9.76,15.79,3.18,0,5.75-3.13,6.03-7.23h.23l.05,7.55h-.19c0-.87-.37-1.56-1.01-1.56-.5,0-2.67,1.79-5.2,1.79-8.05,0-12.06-8.24-12.06-16.43s4-16.43,12.06-16.43h0Z" style="fill:#1c4656; stroke:#1c4656; stroke-miterlimit:10; stroke-width:1.51px;"/><path d="M577.51,143.15v-8.19h.19c.46,5.62,4.19,7.92,7.83,7.92s7.5-2.3,7.5-6.77c0-8.42-14.64-11.05-14.64-19.38,0-4,3.5-6.26,6.95-6.26,3.68,0,5.15,2.07,6.17,2.07.78,0,1.06-.73,1.06-1.61h.19v7.6h-.23c-.23-5.02-3.82-7.41-7.13-7.41-2.81,0-5.62,1.48-5.62,4.61,0,7.32,15.05,10.04,15.05,19.42,0,5.48-4.47,8.33-9.48,8.33-3.69,0-5.57-1.93-6.63-1.93-.73,0-1.01.73-1.01,1.61h-.19Z" style="fill:#1c4656; stroke:#1c4656; stroke-miterlimit:10; stroke-width:1.51px;"/><path d="M603.52,115.94l1.43-5.11h17.12l1.43,5.11h-.09c-.46-1.52-2.85-4.56-5.76-4.56h-3.04v28.49c0,1.24.83,3.08,1.98,3.08v.09h-6.17v-.09c1.15,0,1.98-1.84,1.98-3.08v-28.49h-3.04c-2.9,0-5.29,3.04-5.75,4.56h-.1Z" style="fill:#1c4656; stroke:#1c4656; stroke-miterlimit:10; stroke-width:1.51px;"/><path d="M633.85,110.83h6.12l.05.09c-1.15,0-2.02,1.84-2.02,3.04v21.22c0,5.02,3.59,7.5,7.23,7.5s7.55-2.62,7.5-7.69v-20.94c0-1.24-.87-3.13-2.12-3.13v-.09h4.83v.09c-1.24,0-2.12,1.89-2.12,3.13v20.94c0,5.71-4.42,8.52-8.79,8.52s-8.7-2.76-8.7-8.33v-21.22c0-1.2-.83-3.04-1.98-3.04v-.09h0Z" style="fill:#1c4656; stroke:#1c4656; stroke-miterlimit:10; stroke-width:1.51px;"/><path d="M666.01,142.96c1.15,0,1.98-1.84,1.98-3.08v-25.91c0-1.2-.83-3.04-1.98-3.04v-.09h8.15c8.47,0,12.7,8.05,12.7,16.11s-4.23,16.11-12.7,16.11h-8.15v-.09h0ZM670.16,111.38v31.11h4.05c13.76,0,13.76-31.11-.05-31.11h-4Z" style="fill:#1c4656; stroke:#1c4656; stroke-miterlimit:10; stroke-width:1.51px;"/><path d="M698.37,142.96c1.15,0,1.98-1.84,1.98-3.08v-25.91c0-1.2-.83-3.04-1.98-3.04v-.09h6.12l.05.09c-1.15,0-2.02,1.84-2.02,3.04v25.91c0,1.52,1.06,3.08,2.02,3.08l-.05.09h-6.12v-.09Z" style="fill:#1c4656; stroke:#1c4656; stroke-miterlimit:10; stroke-width:1.51px;"/><path d="M716,126.89c0-8.24,4.19-16.48,12.57-16.48s12.52,8.24,12.52,16.48-4.14,16.43-12.57,16.43-12.52-8.24-12.52-16.43ZM727.23,111.06c-13.67,1.15-11.14,32.77,2.62,31.62,13.67-1.1,11.14-32.73-2.62-31.62Z" style="fill:#1c4656; stroke:#1c4656; stroke-miterlimit:10; stroke-width:1.51px;"/><path d="M751.62,143.15v-8.19h.19c.46,5.62,4.19,7.92,7.83,7.92s7.5-2.3,7.5-6.77c0-8.42-14.64-11.05-14.64-19.38,0-4,3.5-6.26,6.95-6.26,3.68,0,5.15,2.07,6.17,2.07.78,0,1.06-.73,1.06-1.61h.19v7.6h-.23c-.23-5.02-3.82-7.41-7.13-7.41-2.81,0-5.62,1.48-5.62,4.61,0,7.32,15.05,10.04,15.05,19.42,0,5.48-4.47,8.33-9.48,8.33-3.69,0-5.57-1.93-6.63-1.93-.73,0-1.01.73-1.01,1.61h-.19Z" style="fill:#1c4656; stroke:#1c4656; stroke-miterlimit:10; stroke-width:1.51px;"/><path d="M224.15,92.1s-.12-.08-.16-.16c-.04-.08-.04-.16-.04-.25-.04-.25,0-.46,0-.7,0-.16.04-.33,0-.54-.08-.62,0-1.37-.08-1.99,0-.25.08-.38.38-.71.29-.12.62-.16.96-.21.12.04.25.04.38-.08.16.04.38.08.54.08.38.04,1.95.08,2.33.04.91-.04,1.83.04,2.74-.04.12-.08.21-.12.25-.29.04-.21.04-.38.04-.54,0-.21,0-.38.04-.5.16-.96.16-1.91.16-2.87,0-.79.04-1.37.04-2.12.04-.46.08-.91.08-1.37-.04-.46.04-.91.04-1.37-.04-1-.04-2.04-.08-3.03-.04-.12,0-.25.04-.38,0-.21,0-.38-.04-.58,0-.12-.04-.25,0-.38.04-.91.04-1.83.04-2.74s-.04-1.74-.04-2.62c.04-.25.04-.46,0-.66-.04-.46,0-.91,0-1.37.04-.42-.04-1.2-.04-1.62,0-.46-.04-.91-.04-1.37,0-.08-.04-.16-.12-.25-.21,0-.46.04-.66,0-.79-.16-1.54-.16-2.33-.16-.75-.04-1.45-.04-2.2.08-.42.08-2.24.04-2.66.04-1.54,0-3.11-.04-4.65,0-.5-.04-1,.08-1.5.16-.12,0-.21.42-.25.54-.04.12-.08.25-.08.38,0,.16.04.29.08.42.08.38.12,1.08.04,1.45-.04.16-.08.38-.08.54-.04.38-.08.75,0,1.08.08.33.08.62-.04.96-.08.12-.04.25,0,.38l.12.25c-.04.08-.04.16-.08.25-.08.42-.33.58-.83.54-.42,0-.87,0-1.33-.08-.58-.08-1.08-.04-1.66.04-.16.04-.33.12-.54.16-.21.08-.42-.08-.46-.33,0-.16-.08-.29-.08-.42v-.29c0-.08-.04-.16-.08-.25-.04-.16-.08-.33-.04-.54,0-.21.04-.46.08-.66l.12-.54c-.04-.42-.04-.83-.08-1.24,0-.16-.04-.38,0-.54.16-.66.08-1.37.16-2.04,0-.12-.04-.25-.08-.42,0-.08,0-.16-.04-.25,0-.04.04-.08.04-.12.12-.42.08-.83.16-1.2l-.16-1.33c-.04-.29-.04-1.04.08-1.37.04-.12.12-.25.25-.29.29-.04.58.12.87,0,.5.04.7-.08,1.08-.08,1.2.04,2.37.12,3.57.12.33,0,.62-.04.96-.04.54-.04,1.08-.08,1.66.04.79-.08,1.62,0,2.45-.12.21-.04.46-.04.66-.04.16,0,.29,0,.42.04s1.7.04,1.83.04c1.2-.12,2.37-.08,3.57,0,.42.12.79.08,1.2,0,.38-.08.75-.08,1.08-.04.29,0,.54.04.83,0,.29,0,.54.08.83,0,.66,0,1.37-.08,2.04,0,.33.04.62.08.96.04.42-.08.83-.08,1.2,0,.79,0,1.2-.08,1.79-.04.42.04.7.04,1.24,0h1.79c.7,0,2.87-.16,3.57,0,.33.04.66.04.96-.04.16-.04.29.08.42.12.12,0,.29,0,.42-.04s.25-.08.42-.04c.7.16,1.45-.04,2.16,0,.75,0,1.62.08,2.49.08.29,0,.54-.04.79-.08.53.03.99.04,1.37.04.25,0,.54-.04.79,0,.08,0,.21,0,.29.04.12.04.33.25.33.42-.08.25-.12.54-.12.96-.04.96-.04,1.91.04,2.91,0,.33.08.7-.04,1.08.04.25.04.54.04.79s.04.46.08.7c.04.08.04.16.04.25-.08,1.08-.12,1.08-.08,2.2-.04.54.04,1.08.04,1.62-.04.16-.08.38-.25.42l-.42.12c-.58.08-1.16.16-1.74.12h-1.54c-.33-.04-.58-.21-.87-.5-.08-.08-.12-.25-.04-.38.12-.25.21-.5.16-.79,0-.62-.04-1.29,0-1.91-.04-.58-.12-1.58-.08-2.41,0-.21-.04-.46-.12-.66,0-.08-.08-.16-.16-.21-.08,0-.16-.04-.33-.04h-1.37c-.5,0-1.04-.04-1.54-.04-.33.04-.7.04-1.08.04-.46,0-.91,0-1.37-.08h-2.37c-.96,0-1.95,0-2.91.04-.91-.04-1.83-.04-2.74.04-.12,0-.25.04-.38.08-.08,0-.16.08-.21.16-.08.21,0,.46-.04.66v.54c-.04.29-.16.54-.12,1.2,0,.25.04.54.04.83.04.04.04.08,0,.12-.08,1.04,0,2.08,0,3.16-.04,1-.04,1.99-.04,2.99,0,1.29,0,2.57-.04,3.86,0,.21,0,.46-.04.66v1.25c0,.46.12.91,0,1.37.04.46,0,.87,0,1.33.04.42,0,.62,0,1.04,0,.54.08,1.08.04,1.66.08.96.08,1.87.16,2.82,0,.21.21.42.42.42.54.04,1.12.04,1.66.04.66-.04,3.03.04,3.7-.12.33-.08.62-.12.96-.08.21,0,.42.21.46.42l.04.29v.42c0,.12,0,.25.04.29.08.25.16.66.04.91,0,.12-.04.25-.04.42v.79c.04.29.12.54.16.83.04.16-.21.46-.38.46-1.12,0-3.45.08-4.94-.04-.25,0-.46-.04-.7-.04-.21,0-.42.04-.66.08-.16,0-.38.04-.54,0-1.04-.08-2.12-.04-3.16,0h-2.04c-1.5,0-2.95.04-4.4.04-1.7,0-3.57-.04-3.86-.12h-.02Z" style="fill:#809d9e;"/><path d="M318.06,90.72c0,.33-.04.75-.25,1-.25.21-.5.33-.79.29-.16-.04-.33,0-.46,0-.7.04-1.33.08-1.95.04-1.08-.08-2.2.21-3.24,0-.12,0-.25.04-.38.04-.7.04-1.33.04-1.99,0-.5-.04-3.11,0-4.07-.08h-.25c-.16,0-.38,0-.54.04-.79,0-1.58.04-2.41.04-1.2,0-2.33-.04-3.49-.08h-2.37c-.58.04-1.12.16-1.66.04-.12-.04-.29-.04-.42,0-1,.16-1.99.04-2.95.04-1.2.04-2.41,0-3.61,0-.79,0-1.54-.04-2.29-.04-.66.04-1.28.08-1.91.04h-.87c-.33,0-.66-.04-1-.04-1.16,0-2.37.04-3.57,0-1.25.04-2.08.08-2.91.04-.54.04-1.08.04-1.62,0-.38,0-.54-.08-.83-.38,0-.08.04-.16.04-.25.12-.42.12-.83.04-1.24-.16-.83.04-2.08,0-2.87.38-.21.66-.04,1-.21.38.21.83.08,1.29.12.62,0,1.83.04,2.91.04.42,0,.91-.04,1.37-.04,0-.16.04-.25.04-.38,0-1.12,0-2.12.04-3.28.08-1.04.04-2.12.04-3.2-.04-1.74,0-3.45-.04-5.19,0-.91-.04-1.87-.04-2.79v-2.53c0-.66-.04-1.29-.08-1.99-.04-1-.04-2.41.04-3.41,0-.38-.04-.7-.08-1.04-.42-.12-.83-.12-1.2-.04-.33.04-2.79.04-3.11.04-.25.04-.46.04-.62.04-.79.04-.87,0-1.54-.62-.08-1.29.12-2.45.12-3.78,0-.08.04-.21.16-.33,1.2-.16,3.7-.16,5.31-.12.83,0,1.7.08,2.53.04.21,0,.42-.04.62,0,1.37.08,2.74-.04,4.07-.08.38-.04.75-.04,1.12,0,1.08.12,2.2.04,3.28.08.16,0,.38-.04.54,0,1.16.08,2.33-.04,3.49,0,1.16.04,2.33,0,3.49.04,1.2,0,2.45,0,3.61.04.42,0,.83,0,1.2-.04,1.2,0,2.45-.04,3.61-.04.16-.04.33,0,.5.08.58-.12,1.16-.08,1.75-.12.66-.04,1.28-.04,1.99,0,.12,0,.25.04.38.04,1.04-.21,2.16.08,3.24,0,.62-.04,1.25,0,1.95.04.12,0,.29.04.46,0,.29-.04.54.08.79.29.21.25.25.66.25,1,.04,1,.08,2.04-.04,3.07-.12.83,0,1.7-.04,2.53,0,1.08-.12,2.08-.08,3.16,0,.29.08.62.16.91-.25.21-.5.29-1.29.25-.58,0-1.08.04-1.66.04-.25,0-.5,0-.79.08-.54.12-1.04-.12-1.5-.16-.25-.25-.16-.46-.21-.66.08-1.28.08-2.95.12-4.23-.04-.46-.04-1-.04-1.45-.16-.08-.21-.16-.29-.16-1.04,0-2.12.04-3.2.04h-.04c-.62-.16-1.16,0-1.74.04h-.58c-.83-.04-1.7-.08-2.53-.12-.42-.04-.83-.04-1.2-.04-1.08-.04-2.2-.12-3.37-.08-1.16,0-2.33-.08-3.53-.08-.25,0-.5.04-.75.04-1.04.04-2.04-.04-3.07.04-.79.04-1.62-.12-2.45.04-.25.04-.58.04-.83,0,.29-.04-.25-.04-.83,0-.62.08-1.24.08-1.91.08-.16,0-.42,0-.54.12-.04.04-.04.12-.04.16.04.66.04,1.37,0,2.08-.04,1.16-.04,2.74-.04,3.91v2.45c0,.21-.04.46.16.7.12.04.25.08.42.08,1.12,0,2.16.08,2.45-.04h.42c1.12,0,2.29,0,3.41-.04,1.12,0,2.2-.08,3.37-.08,1.37.08,2.79,0,4.15-.04.79,0,1.54.04,2.33.04.58,0,1.16-.04,1.74-.04.38,0,.5.12.62.46.16.5.16,1.04.12,1.58-.04.75-.12,1.12.12,1.91-.16.25-.08.66-.46.87-.46-.16-.96-.12-1.41-.12-.7.04-1.45,0-2.16,0h-.62c-.58,0-1.16-.04-1.74-.04-.66,0-1.29.04-1.95.04-.42,0-.83,0-1.25-.04-.83-.04-1.58-.08-2.41.04-.42.04-.83.04-1.29,0-.96-.12-1.83-.04-2.79,0,.12.04-.58,0-1.24.04-.46,0-.96,0-1.41.04-.14,0-.33.08-.58.25,0,.21,0,.42.04.58.04.33.04.71,0,1.08-.04.75-.04,2.66-.08,3.41,0,.25-.04.5-.08.75,0,.21-.04.42,0,.62.08.62.12,1.12.08,1.79-.04.46,0,.91.04,1.41.21.04.33.08.5.08h1.83c1.87.04,2.87.08,4.73.08,1.37,0,2.7-.08,4.07-.08,1.83,0,3.7-.12,5.52-.12,1.2,0,2.41-.04,3.65,0,.5,0,.83.04,1.25.04v-.04h1.37c.58.04,1.12.21,1.74.04l3.24.04c.08,0,.12-.08.29-.16,0-.46,0-1,.04-1.45-.04-1.29-.04-2.95-.12-4.23.04-.21-.04-.42.21-.66.46-.04.96-.29,1.5-.16.29.08.54.08.79.08.58,0,1.08.04,1.66.04.79-.04,1.04.04,1.29.25-.08.29-.16.62-.16.91-.04,1.08.08,2.08.08,3.16.04.83-.08,1.7.04,2.53.12,1.04.08,2.08.04,3.07h.02Z" style="fill:#809d9e;"/><path d="M335.63,92.05c-.08,0-.16-.08-.25-.12,0-.21-.04-.46.04-.66,0-.46-.08-.87,0-1.33.04-.46.04-.75.04-1.91,0-.12.16-.29.25-.29.08-.04.16-.08.25-.08.62-.04,2.99-.04,3.61-.08.7,0,.87,0,1.08-.04.12,0,.29-.16.29-.25s.04-.16.04-.29c.04-.79.04-1.7,0-2.53-.04-.33-.04-.58-.04-1.5,0-2.82,0-3.57-.04-4.49.04-2.04-.04-4.11,0-6.15,0-.87,0-1.08.04-1.37.04-.42-.08-.83-.04-1.24,0-.46-.04-.91,0-1.37,0-.33-.04-.62.04-.96.04-.08.04-.12.04-.25-.08-1-.12-2.41-.04-2.99.08-.38,0-.83-.04-1.25-.42,0-1.29-.04-1.66,0-1.91.08-2.74.08-3.45,0l-.12-.08c-.12-.16-.29-.33-.38-.62,0-1.28-.04-1.83,0-3.11.04-.16.08-.29.12-.38.29-.21.58-.29.91-.21.08.04.21.04.54.04l3.33.04c.16,0,.38-.04.54-.04,1.33.08,2.24.04,3.57.04h.54c1.33,0,2.24.04,2.66.12.21.04.38.04.54.04s.29.04.42.12c.16.08.33.21.42.33.83.79,1.66,1.41,2.49,2.29.38.46.87.79,1.37,1.2l2.41,2.12c.12.08.12.12.16.21.58.42,1.04.91,1.54,1.29.7.7,1.08,1.08,1.5,1.41.46.38.83.75,1.24,1.12.46.42.87,1.29,1.25,1.33.21.21.42.5.7.58.54.38.96.79,1.87,1.83.16.16.33.25.5.38.87.75,1.78,1.29,2.66,2.29.42.38.66.58.83.79.33.38.75.75,1.16,1.04,1.41,1.41,1.24,1.54,2.24,1.95.29.21.5.46.79.71.42.46.87.87,1.83,1.62,1.04,1,1.62,1.58,2.45,2.24.58.66,1.45,1.41,1.83,1.99.08-.46,0-1.7,0-1.83l.04-.21c0-.46.04-.91.04-1.37,0-2.53,0-3.61-.04-4.57,0-.38.04-.62.12-.79.04-.12,0-.29,0-.42s-.04-.29,0-.42c.08-.38.04-.83-.08-1.33.08-.25.12-.46.12-.7-.04-.66,0-1.37,0-2.04.08-1.87.08-2.78,0-3.7v-1.37c.08-1.04.04-1.66-.04-2.33-.08-.29.04-.54,0-.83v-.42c0-.08-.12-.25-.25-.29-.12,0-.21-.04-.29-.04-2.66,0-3.49,0-3.86.04h-.66c-.25,0-.5-.25-.5-.54v-.16c.12-.42.08-.87.12-1.33,0-.79-.04-1.16-.16-1.5-.04-.08,0-.21-.04-.29,0-.21.16-.46.38-.5.21-.04.38-.04.96-.04.62.04,2.87,0,3.45,0,.5,0,.75,0,.96.04h.7c1.08-.08,2.2,0,3.28-.04.75,0,1.45.04,2.2-.04.29-.04.62,0,.96.04.96.08,1.79.04,2.57-.16.16-.04.38-.04.54-.08.33,0,.66.21.75.5.04.12.08.21.12.42-.04.16-.04.38-.08.54.12.29.16.5.04.66-.08.12-.08.16-.08.54,0,.83,0,1.08-.04,1.37,0,.12-.08.25-.21.29-.33.21-.62.25-.91.12-.29-.12-.54-.12-.91,0-1.04-.08-2.04-.16-3.03-.08-.16,0-.25,0-.42.08-.04.04-.08.12-.16.21-.04.12-.08.16-.08.25v.42c-.04,1-.04,1.79-.04,4.82v.54c-.08.79-.04,1.54,0,2.33,0,1.79,0,2.29-.08,2.87-.04.66-.08,1.29-.08,2.62,0,.29-.04.62-.04.96-.04,1.5-.08,2.24-.04,2.99v4.11c0,1.2,0,1.54.04,1.91,0,1.66-.04,2.95-.08,4.28,0,.21-.04.38-.16.5l-.29.29c-.08.08-.16.12-.25.12-.08.04-.12.04-.38.04-.46.04-.79.04-2.08.04-.62-.04-1.2.08-1.83-.08-.21.04-.7.16-.83,0-.5-.5-1.2-1.16-1.45-1.37-.46-.33-.75-.75-1.12-1.08-.54-.54-1.04-1.08-1.66-1.58-.54-.42-.87-.7-1.12-1-.33-.46-.79-.87-1.25-1.28-.83-.66-1.58-1.37-2.24-2.08-.33-.33-.7-.54-1-.91-.79-.66-1.45-1.45-2.24-2.08-.58-.58-1.29-.96-1.5-1.29-.29-.33-.66-.66-1.08-.96-.12-.08-.21-.16-.29-.29-.16-.25-.42-.5-.83-.79-.25-.16-.42-.38-.58-.54-.25-.21-.54-.46-1.08-.87-.21-.21-.42-.38-.62-.54-1.58-1.58-1.2-1.24-1.7-1.58-.46-.38-.87-.75-1.29-1.12-.5-.46-.91-1-1.5-1.41-.38-.42-.83-.33-1.24-1.12l-1.83-1.66c-.62-.54-1.2-1.12-1.83-1.66-.87-.79-1.29-1.2-1.74-1.58-.54-.5-1.25-1.08-1.83-1.74-.04.25.08,1.33.04,1.62.12.7.08,1.45.08,2.16v5.23c0,.42.04.83-.04,1.2-.04.08-.04.12-.04.29.16.46,0,.91,0,1.37,0,.75-.04,1.54-.04,2.33,0,.62-.04,1.29-.04,1.91.04.46,0,.91,0,1.37v2.99c0,.25.08.54.12.79,0,.29-.04.54-.04.83v.12c0,.25.08.46.08.7-.04.29-.08.5-.04.66,0,.08.04.21.08.25s.08.12.16.21c.16.08.29.08.54.04.25,0,.46-.04.7-.04.21,0,.46.04.66.04.83.04,3.03,0,3.57-.08.29-.04.62.21.75.5.08.21.12.38.12.58,0,.79,0,1-.04,1.2v.58c0,.12.08.25.04.38-.08.33-.04.66-.04.96-.04.16-.25.33-.42.33h-3.41c-.62,0-1.2.04-1.78.04-.33,0-.66-.04-.96.04-.08.04-.21,0-.29,0-.42,0-.83-.08-1.2-.04-.46.04-.91,0-1.37,0-.33,0-.62,0-.83.04-.66,0-.87,0-1.08-.04-.5,0-1.04,0-1.54.04-2.91,0-3.82,0-4.15-.04h.02Z" style="fill:#809d9e;"/><path d="M404.16,92.05c-.08,0-.16-.08-.25-.12,0-.21-.04-.46.04-.66,0-.46-.08-.87,0-1.33.04-.46.04-.75.04-1.91,0-.12.16-.29.25-.29.08-.04.16-.08.25-.08.62-.04,2.99-.04,3.61-.08.7,0,.87,0,1.08-.04.12,0,.29-.16.29-.25s.04-.16.04-.29c.04-.79.04-1.7,0-2.53-.04-.33-.04-.58-.04-1.5,0-2.82,0-3.57-.04-4.49.04-2.04-.04-4.11,0-6.15,0-.87,0-1.08.04-1.37.04-.42-.08-.83-.04-1.24,0-.46-.04-.91,0-1.37,0-.33-.04-.62.04-.96.04-.08.04-.12.04-.25-.08-1-.12-2.41-.04-2.99.08-.38,0-.83-.04-1.25-.42,0-1.29-.04-1.66,0-1.91.08-2.74.08-3.45,0l-.12-.08c-.12-.16-.29-.33-.38-.62,0-1.28-.04-1.83,0-3.11.04-.16.08-.29.12-.38.29-.21.58-.29.91-.21.08.04.21.04.54.04l3.33.04c.16,0,.38-.04.54-.04,1.33.08,2.24.04,3.57.04h.54c1.33,0,2.24.04,2.66.12.21.04.38.04.54.04s.29.04.42.12c.16.08.33.21.42.33.83.79,1.66,1.41,2.49,2.29.38.46.87.79,1.37,1.2l2.41,2.12c.12.08.12.12.16.21.58.42,1.04.91,1.54,1.29.7.7,1.08,1.08,1.5,1.41.46.38.83.75,1.24,1.12.46.42.87,1.29,1.25,1.33.21.21.42.5.7.58.54.38.96.79,1.87,1.83.16.16.33.25.5.38.87.75,1.78,1.29,2.66,2.29.42.38.66.58.83.79.33.38.75.75,1.16,1.04,1.41,1.41,1.24,1.54,2.24,1.95.29.21.5.46.79.71.42.46.87.87,1.83,1.62,1.04,1,1.62,1.58,2.45,2.24.58.66,1.45,1.41,1.83,1.99.08-.46,0-1.7,0-1.83l.04-.21c0-.46.04-.91.04-1.37,0-2.53,0-3.61-.04-4.57,0-.38.04-.62.12-.79.04-.12,0-.29,0-.42s-.04-.29,0-.42c.08-.38.04-.83-.08-1.33.08-.25.12-.46.12-.7-.04-.66,0-1.37,0-2.04.08-1.87.08-2.78,0-3.7v-1.37c.08-1.04.04-1.66-.04-2.33-.08-.29.04-.54,0-.83v-.42c0-.08-.12-.25-.25-.29-.12,0-.21-.04-.29-.04-2.66,0-3.49,0-3.86.04h-.66c-.25,0-.5-.25-.5-.54v-.16c.12-.42.08-.87.12-1.33,0-.79-.04-1.16-.16-1.5-.04-.08,0-.21-.04-.29,0-.21.16-.46.38-.5.21-.04.38-.04.96-.04.62.04,2.87,0,3.45,0,.5,0,.75,0,.96.04h.7c1.08-.08,2.2,0,3.28-.04.75,0,1.45.04,2.2-.04.29-.04.62,0,.96.04.96.08,1.79.04,2.57-.16.16-.04.38-.04.54-.08.33,0,.66.21.75.5.04.12.08.21.12.42-.04.16-.04.38-.08.54.12.29.16.5.04.66-.08.12-.08.16-.08.54,0,.83,0,1.08-.04,1.37,0,.12-.08.25-.21.29-.33.21-.62.25-.91.12-.29-.12-.54-.12-.91,0-1.04-.08-2.04-.16-3.03-.08-.16,0-.25,0-.42.08-.04.04-.08.12-.16.21-.04.12-.08.16-.08.25v.42c-.04,1-.04,1.79-.04,4.82v.54c-.08.79-.04,1.54,0,2.33,0,1.79,0,2.29-.08,2.87-.04.66-.08,1.29-.08,2.62,0,.29-.04.62-.04.96-.04,1.5-.08,2.24-.04,2.99v4.11c0,1.2,0,1.54.04,1.91,0,1.66-.04,2.95-.08,4.28,0,.21-.04.38-.16.5l-.29.29c-.08.08-.16.12-.25.12-.08.04-.12.04-.38.04-.46.04-.79.04-2.08.04-.62-.04-1.2.08-1.83-.08-.21.04-.7.16-.83,0-.5-.5-1.2-1.16-1.45-1.37-.46-.33-.75-.75-1.12-1.08-.54-.54-1.04-1.08-1.66-1.58-.54-.42-.87-.7-1.12-1-.33-.46-.79-.87-1.25-1.28-.83-.66-1.58-1.37-2.24-2.08-.33-.33-.7-.54-1-.91-.79-.66-1.45-1.45-2.24-2.08-.58-.58-1.29-.96-1.5-1.29-.29-.33-.66-.66-1.08-.96-.12-.08-.21-.16-.29-.29-.16-.25-.42-.5-.83-.79-.25-.16-.42-.38-.58-.54-.25-.21-.54-.46-1.08-.87-.21-.21-.42-.38-.62-.54-1.58-1.58-1.2-1.24-1.7-1.58-.46-.38-.87-.75-1.29-1.12-.5-.46-.91-1-1.5-1.41-.38-.42-.83-.33-1.24-1.12l-1.83-1.66c-.62-.54-1.2-1.12-1.83-1.66-.87-.79-1.29-1.2-1.74-1.58-.54-.5-1.25-1.08-1.83-1.74-.04.25.08,1.33.04,1.62.12.7.08,1.45.08,2.16v5.23c0,.42.04.83-.04,1.2-.04.08-.04.12-.04.29.16.46,0,.91,0,1.37,0,.75-.04,1.54-.04,2.33,0,.62-.04,1.29-.04,1.91.04.46,0,.91,0,1.37v2.99c0,.25.08.54.12.79,0,.29-.04.54-.04.83v.12c0,.25.08.46.08.7-.04.29-.08.5-.04.66,0,.08.04.21.08.25s.08.12.16.21c.16.08.29.08.54.04.25,0,.46-.04.7-.04.21,0,.46.04.66.04.83.04,3.03,0,3.57-.08.29-.04.62.21.75.5.08.21.12.38.12.58,0,.79,0,1-.04,1.2v.58c0,.12.08.25.04.38-.08.33-.04.66-.04.96-.04.16-.25.33-.42.33h-3.41c-.62,0-1.2.04-1.78.04-.33,0-.66-.04-.96.04-.08.04-.21,0-.29,0-.42,0-.83-.08-1.2-.04-.46.04-.91,0-1.37,0-.33,0-.62,0-.83.04-.66,0-.87,0-1.08-.04-.5,0-1.04,0-1.54.04-2.91,0-3.82,0-4.15-.04h.02Z" style="fill:#809d9e;"/><path d="M518.17,90.72c0,.33-.04.75-.25,1-.25.21-.5.33-.79.29-.16-.04-.33,0-.46,0-.7.04-1.33.08-1.95.04-1.08-.08-2.2.21-3.24,0-.12,0-.25.04-.38.04-.7.04-1.33.04-1.99,0-.5-.04-3.11,0-4.07-.08h-.25c-.16,0-.38,0-.54.04-.79,0-1.58.04-2.41.04-1.2,0-2.33-.04-3.49-.08h-2.37c-.58.04-1.12.16-1.66.04-.12-.04-.29-.04-.42,0-1,.16-1.99.04-2.95.04-1.2.04-2.41,0-3.61,0-.79,0-1.54-.04-2.29-.04-.66.04-1.29.08-1.91.04h-.87c-.33,0-.66-.04-1-.04-1.16,0-2.37.04-3.57,0-1.24.04-2.08.08-2.91.04-.54.04-1.08.04-1.62,0-.38,0-.54-.08-.83-.38,0-.08.04-.16.04-.25.12-.42.12-.83.04-1.24-.16-.83.04-2.08,0-2.87.38-.21.66-.04,1-.21.38.21.83.08,1.28.12.62,0,1.83.04,2.91.04.42,0,.91-.04,1.37-.04,0-.16.04-.25.04-.38,0-1.12,0-2.12.04-3.28.08-1.04.04-2.12.04-3.2-.04-1.74,0-3.45-.04-5.19,0-.91-.04-1.87-.04-2.79v-2.53c0-.66-.04-1.29-.08-1.99-.04-1-.04-2.41.04-3.41,0-.38-.04-.7-.08-1.04-.42-.12-.83-.12-1.21-.04-.33.04-2.78.04-3.11.04-.25.04-.46.04-.62.04-.79.04-.87,0-1.54-.62-.08-1.29.12-2.45.12-3.78,0-.08.04-.21.16-.33,1.2-.16,3.7-.16,5.32-.12.83,0,1.7.08,2.53.04.21,0,.42-.04.62,0,1.37.08,2.74-.04,4.07-.08.38-.04.75-.04,1.12,0,1.08.12,2.2.04,3.28.08.16,0,.38-.04.54,0,1.16.08,2.33-.04,3.49,0,1.16.04,2.33,0,3.49.04,1.2,0,2.45,0,3.61.04.42,0,.83,0,1.2-.04,1.2,0,2.45-.04,3.61-.04.16-.04.33,0,.5.08.58-.12,1.16-.08,1.75-.12.66-.04,1.29-.04,1.99,0,.12,0,.25.04.38.04,1.04-.21,2.16.08,3.24,0,.62-.04,1.24,0,1.95.04.12,0,.29.04.46,0,.29-.04.54.08.79.29.21.25.25.66.25,1,.04,1,.08,2.04-.04,3.07-.12.83,0,1.7-.04,2.53,0,1.08-.12,2.08-.08,3.16,0,.29.08.62.16.91-.25.21-.5.29-1.29.25-.58,0-1.08.04-1.66.04-.25,0-.5,0-.79.08-.54.12-1.04-.12-1.5-.16-.25-.25-.16-.46-.21-.66.08-1.28.08-2.95.12-4.23-.04-.46-.04-1-.04-1.45-.16-.08-.21-.16-.29-.16-1.04,0-2.12.04-3.2.04h-.04c-.62-.16-1.16,0-1.74.04h-.58c-.83-.04-1.7-.08-2.53-.12-.42-.04-.83-.04-1.2-.04-1.08-.04-2.2-.12-3.37-.08-1.16,0-2.33-.08-3.53-.08-.25,0-.5.04-.75.04-1.04.04-2.04-.04-3.07.04-.79.04-1.62-.12-2.45.04-.25.04-.58.04-.83,0,.29-.04-.25-.04-.83,0-.62.08-1.25.08-1.91.08-.16,0-.42,0-.54.12-.04.04-.04.12-.04.16.04.66.04,1.37,0,2.08-.04,1.16-.04,2.74-.04,3.91v2.45c0,.21-.04.46.16.7.12.04.25.08.42.08,1.12,0,2.16.08,2.45-.04h.42c1.12,0,2.29,0,3.41-.04,1.12,0,2.2-.08,3.37-.08,1.37.08,2.79,0,4.15-.04.79,0,1.54.04,2.33.04.58,0,1.16-.04,1.75-.04.38,0,.5.12.62.46.16.5.16,1.04.12,1.58-.04.75-.12,1.12.12,1.91-.16.25-.08.66-.46.87-.46-.16-.96-.12-1.41-.12-.7.04-1.45,0-2.16,0h-.62c-.58,0-1.16-.04-1.75-.04-.66,0-1.29.04-1.95.04-.42,0-.83,0-1.24-.04-.83-.04-1.58-.08-2.41.04-.42.04-.83.04-1.29,0-.96-.12-1.83-.04-2.79,0,.12.04-.58,0-1.24.04-.46,0-.96,0-1.41.04-.14,0-.33.08-.58.25,0,.21,0,.42.04.58.04.33.04.71,0,1.08-.04.75-.04,2.66-.08,3.41,0,.25-.04.5-.08.75,0,.21-.04.42,0,.62.08.62.12,1.12.08,1.79-.04.46,0,.91.04,1.41.21.04.33.08.5.08h1.83c1.87.04,2.87.08,4.73.08,1.37,0,2.7-.08,4.07-.08,1.83,0,3.7-.12,5.52-.12,1.2,0,2.41-.04,3.65,0,.5,0,.83.04,1.24.04v-.04h1.37c.58.04,1.12.21,1.74.04l3.24.04c.08,0,.12-.08.29-.16,0-.46,0-1,.04-1.45-.04-1.29-.04-2.95-.12-4.23.04-.21-.04-.42.21-.66.46-.04.96-.29,1.5-.16.29.08.54.08.79.08.58,0,1.08.04,1.66.04.79-.04,1.04.04,1.29.25-.08.29-.16.62-.16.91-.04,1.08.08,2.08.08,3.16.04.83-.08,1.7.04,2.53.12,1.04.08,2.08.04,3.07h0Z" style="fill:#809d9e;"/><path d="M536.69,92.14c-.12,0-.29-.16-.29-.25-.04-.16-.08-.33-.08-.54-.04-.21.08-.46.04-.66,0-.16,0-.33-.04-.5.08-.29.04-.5.04-.79,0-.38.12-.75.12-1.12-.04-.12-.04-.25,0-.42.08-1.29.04-2.2.04-3.11.04-.38.04-1.45-.08-1.87-.12-1-.08-1.2-.04-1.37.12-.08.25-.21.5-.08,0-.04.25-.04.33,0s.16-.04.25-.04c.16.04.29.04.42,0,.25-.08.54-.04.83-.04.58.04,1.16-.04,1.75.04.16.04.29,0,.42,0,.29.04.29.12.46.46.12,1.58.7,2.74.83,2.95.08.08.33.33.38.46.25.58.62.75,1.12,1.12l.42.29c.33.12.7.25,1.04.38.12.08.25.08.38.08l.79.16.75.04c1,.08,2.29.12,3.28.08.96-.04,1.91,0,2.87.04.96.12,1.91.08,2.91.04,1.2,0,2.45.08,3.7.08,1.12,0,2.29.04,3.41,0h1.24c.33.04.62.04.96-.08,0-.04.08-.04.16,0,.16,0,.38,0,.54-.04.25-.08.54-.12.83-.12.7,0,1.33-.04,2.04-.04.46,0,.91-.04,1.37-.16.21-.04.46-.08.66-.08.42-.04.83-.21,1.2-.33.25-.21.5-.46.79-.66.16-.21.29-.46.42-.7.04-.04.04-.08.04-.12.08-.33.12-.7.21-1.08-.08-.33.04-.62.04-.96.04-.5.04-1.37-.08-1.87-.04-.12.08-.25.04-.38,0-.33.12-.7-.04-1-.16-.75-.25-1.2-.42-1.45-.21-.16-.5-.33-.75-.5-.16-.04-.29-.04-.42-.08-.38-.08-.7-.21-1.08-.25-.42-.04-.83-.04-1.24-.04-.21,0-.46,0-.66.08-.33.04-.62.04-.96-.08-.12,0-.25-.04-.38,0-.38.08-.75,0-1.08.08-.08,0-.21-.04-.29-.08-.7-.08-1.78.12-2.53.12-.75-.04-1.54-.04-2.33-.08-.75-.04-1.54-.04-2.33-.04-.46-.04-.91-.04-1.37,0h-.66c-.87-.12-1.74-.04-2.62.04-.42,0-.83-.04-1.2-.04-.66-.08-1.29-.08-1.91-.12-.83,0-1.66.04-2.49,0-.25,0-.54,0-.83.08-.38.08-.79.08-1.2.04-.71,0-1.37,0-2.04.04-.75,0-1.5-.08-2.2-.12-.5-.25-1-.16-1.5-.25-.33-.04-.62-.29-.91-.42-.42-.25-.87-.46-1.24-.79-.21-.21-.42-.38-.66-.5-.16-.12-.25-.25-.38-.42-.08-.16-.12-.33-.25-.5-.54-.75-.75-1.66-1-2.53-.12-.75-.12-1.54-.21-1.58v-.25c.04-1.66.16-2.99.12-4.65.08-.58.33-1.12.33-1.66,0-.08,0-.21.04-.29.16-.25.25-.5.29-.75,0-.04.04-.08.04-.12.5-.75,1.04-1.45,1.7-1.99.42-.33.79-.62,1.25-.91.33-.25.75-.42,1.12-.5.54-.12,1.08-.29,1.62-.33.16,0,.33-.08.5-.16.33-.16.71-.16,1.08-.25.46.12.91-.08,1.37-.08h2.57c.96,0,1.95,0,2.91-.04h2.33c.79,0,1.2-.04,2.04,0,.58.04,1.16.12,1.74,0,.16-.04.33-.04.54,0,.58.08,1.16.08,1.75,0,.29-.04.54,0,.83.08.38-.04.54-.08.75-.08h.29l2.87.04c.38.04.75.12,1.12,0,.16.04.33,0,.5.04.46.12.96,0,1.5,0,.29,0,.62.04.96.08s.7.08,1.04.29c.12.08.25.12.38.16.21.04.42.12.62.25.33.25.75.46,1.04.75.56.36,1.09.76,1.62,1.2h.08c.16-.04.21-.08.25-.16,0-.16.04-.29,0-.42-.12-.42-.04-.83,0-1.25-.04-.16-.08-.33-.16-.5-.04-.29.16-.46.38-.5.38,0,.75.08,1.12.04.38-.04.75-.04,1.16-.04h1.12c.08,0,.16.04.25.04.12,0,.29.16.29.25.04.16.08.33.08.54.04.21,0,.46.04.66-.04.16.04.33.08.5-.08.29-.16.5-.16.79v1.12c.04.12.04.25,0,.42-.08.91,0,1.83-.04,2.74,0,.38-.12,1.45-.04,1.87.08.16.04.42,0,.58l-.25.79s-.25.21-.33.16c-.08,0-.16-.04-.25-.04-.16-.04-.29-.04-.42,0-.25.08-.54.12-.83.08-.54-.04-1.12,0-1.7-.08-.16-.04-.29,0-.42,0-.29-.04-.29-.38-.46-.62-.29-.33-.25-1.08-.54-1.41-.08-.25-.16-.58-.33-.79-.08-.08-.33-.33-.38-.46-.21-.58-1.04-.75-1.45-1.12-.12-.08-.29-.16-.46-.25-.33-.12-.7-.25-1.04-.42-.12-.08-.25-.08-.38-.08-.38-.04-.75,0-1.12-.04-.46-.04-.91-.04-1.37-.12-.12.12-.29,0-.5.04-.46.04-.87-.12-1.33-.08-2.7-.04-2.95-.04-3.28,0s-.7.08-1.08,0c-.21,0-.46-.04-.66,0-.46.16-.91.12-1.37,0-1.54-.04-2.74,0-4.32,0-.87-.08-1.33-.04-2.2-.04h-3.7c-.58-.08-1.33-.04-1.91-.04-.33.08-.66.08-.96.12-.21.08-.42.21-.62.29-.12.04-.29.08-.38.16-.25.21-.5.29-.79.5-.25.29-.46.58-.5.96-.04.25-.04.46-.12.66-.16.29-.16.62-.29,1,0,.21.04.5.04,1v2.08c0,.29.04.58.08.83.08.38.25.7.62.91.58.54,1,.33,1.41.5.12.04.29.04.42.08.54-.04,1.12,0,1.66,0,.83.04,1.78-.04,2.62-.04h5.23c.08,0,.16.04.25.04.7-.12,1.37-.04,2.08-.04.71.04,1.45.08,2.16.04.7.04,1.37,0,2.08-.04.38-.04.7-.04,1.08,0,1.7,0,3.57,0,5.23.04,1.12,0,2.2,0,3.28-.04.21,0,.38.04.62.08.38,0,.83-.08,1.29-.12.25.08.54.16.79.21.33,0,.66.08.96.16.46.08,1.04.29,1.5.33.12.04.25.08.38.16.42.25.83.46,1.2.66.33.21.66.46.91.7.21.16.25.42.38.58.12.25.25.46.38.62.21.38.33.75.46,1.12,0,.21.04.38.04.54.04.21.04.38.08.54.16.46.12.91.08,1.37.04.91.04,1.66-.04,2.41-.04.62.04,1.24-.12,1.91.08.62,0,1.24,0,1.91-.04,2.24-1.7,4.19-2.53,4.86-.42.25-.87.5-1.33.75-.12.08-.25.12-.38.08-.08,0-.16,0-.29.04l-.38.12c-.33.25-.96.25-1.33.38-.08.04-.16,0-.25-.04-.25-.08-.46-.08-.66-.04-.29.04-.54.16-.83.12s-.54,0-.83,0c-.25.04-.54,0-.79,0-.25.04-.46,0-.7-.04-.38-.12-.79-.12-1.2-.08-.08,0-.16,0-.29.04-.29.04-.62.12-.91.04-.5.08-1,.04-1.37.04-.21,0-.42.04-.66.04l-.42.04c-1.2-.08-2.45,0-3.28-.08-.21,0-.46,0-.66-.04-.16-.04-.29,0-.42.04-.16.04-.38.04-.54.04-1.37-.08-2.74.04-4.11-.04-1.04.08-2.12,0-3.2-.04h-.25c-1.5.08-2.24,0-3.74.04l-1.2.04c-.33-.04-1.54-.08-1.87-.29-.12-.08-.25-.12-.38-.16-.21-.04-.42-.12-.62-.25-.38-.25-.75-.46-1.08-.75-.56-.36-1.09-.79-1.62-1.29-.08.05-.14.11-.16.16,0,.16-.04.29,0,.42.12.42.08.83,0,1.24l.12.5c.04.29-.12.46-.33.5-.38,0-.75-.08-1.24-.04-.38.04-.79.04-1.2.04h-1.29c-.08,0-.16-.04-.25-.04h-.01Z" style="fill:#809d9e;"/><path d="M597.86,92.14c-.12,0-.29-.16-.29-.25-.04-.16-.08-.33-.08-.54-.04-.21.08-.46.04-.66,0-.16,0-.33-.04-.5.08-.29.04-.5.04-.79,0-.38.12-.75.12-1.12-.04-.12-.04-.25,0-.42.08-1.29.04-2.2.04-3.11.04-.38.04-1.45-.08-1.87-.12-1-.08-1.2-.04-1.37.12-.08.25-.21.5-.08,0-.04.25-.04.33,0s.16-.04.25-.04c.16.04.29.04.42,0,.25-.08.54-.04.83-.04.58.04,1.16-.04,1.75.04.16.04.29,0,.42,0,.29.04.29.12.46.46.12,1.58.7,2.74.83,2.95.08.08.33.33.38.46.25.58.62.75,1.12,1.12l.42.29c.33.12.7.25,1.04.38.12.08.25.08.38.08l.79.16.75.04c1,.08,2.29.12,3.28.08.96-.04,1.91,0,2.87.04.96.12,1.91.08,2.91.04,1.2,0,2.45.08,3.7.08,1.12,0,2.29.04,3.41,0h1.24c.33.04.62.04.96-.08,0-.04.08-.04.16,0,.16,0,.38,0,.54-.04.25-.08.54-.12.83-.12.7,0,1.33-.04,2.04-.04.46,0,.91-.04,1.37-.16.21-.04.46-.08.66-.08.42-.04.83-.21,1.2-.33.25-.21.5-.46.79-.66.16-.21.29-.46.42-.7.04-.04.04-.08.04-.12.08-.33.12-.7.21-1.08-.08-.33.04-.62.04-.96.04-.5.04-1.37-.08-1.87-.04-.12.08-.25.04-.38,0-.33.12-.7-.04-1-.16-.75-.25-1.2-.42-1.45-.21-.16-.5-.33-.75-.5-.16-.04-.29-.04-.42-.08-.38-.08-.7-.21-1.08-.25-.42-.04-.83-.04-1.24-.04-.21,0-.46,0-.66.08-.33.04-.62.04-.96-.08-.12,0-.25-.04-.38,0-.38.08-.75,0-1.08.08-.08,0-.21-.04-.29-.08-.7-.08-1.78.12-2.53.12-.75-.04-1.54-.04-2.33-.08-.75-.04-1.54-.04-2.33-.04-.46-.04-.91-.04-1.37,0h-.66c-.87-.12-1.74-.04-2.62.04-.42,0-.83-.04-1.2-.04-.66-.08-1.29-.08-1.91-.12-.83,0-1.66.04-2.49,0-.25,0-.54,0-.83.08-.38.08-.79.08-1.2.04-.71,0-1.37,0-2.04.04-.75,0-1.5-.08-2.2-.12-.5-.25-1-.16-1.5-.25-.33-.04-.62-.29-.91-.42-.42-.25-.87-.46-1.24-.79-.21-.21-.42-.38-.66-.5-.16-.12-.25-.25-.38-.42-.08-.16-.12-.33-.25-.5-.54-.75-.75-1.66-1-2.53-.12-.75-.12-1.54-.21-1.58v-.25c.04-1.66.16-2.99.12-4.65.08-.58.33-1.12.33-1.66,0-.08,0-.21.04-.29.16-.25.25-.5.29-.75,0-.04.04-.08.04-.12.5-.75,1.04-1.45,1.7-1.99.42-.33.79-.62,1.25-.91.33-.25.75-.42,1.12-.5.54-.12,1.08-.29,1.62-.33.16,0,.33-.08.5-.16.33-.16.71-.16,1.08-.25.46.12.91-.08,1.37-.08h2.57c.96,0,1.95,0,2.91-.04h2.33c.79,0,1.2-.04,2.04,0,.58.04,1.16.12,1.74,0,.16-.04.33-.04.54,0,.58.08,1.16.08,1.75,0,.29-.04.54,0,.83.08.38-.04.54-.08.75-.08h.29l2.87.04c.38.04.75.12,1.12,0,.16.04.33,0,.5.04.46.12.96,0,1.5,0,.29,0,.62.04.96.08s.7.08,1.04.29c.12.08.25.12.38.16.21.04.42.12.62.25.33.25.75.46,1.04.75.56.36,1.09.76,1.62,1.2h.08c.16-.04.21-.08.25-.16,0-.16.04-.29,0-.42-.12-.42-.04-.83,0-1.25-.04-.16-.08-.33-.16-.5-.04-.29.16-.46.38-.5.38,0,.75.08,1.12.04.38-.04.75-.04,1.16-.04h1.12c.08,0,.16.04.25.04.12,0,.29.16.29.25.04.16.08.33.08.54.04.21,0,.46.04.66-.04.16.04.33.08.5-.08.29-.16.5-.16.79v1.12c.04.12.04.25,0,.42-.08.91,0,1.83-.04,2.74,0,.38-.12,1.45-.04,1.87.08.16.04.42,0,.58l-.25.79s-.25.21-.33.16c-.08,0-.16-.04-.25-.04-.16-.04-.29-.04-.42,0-.25.08-.54.12-.83.08-.54-.04-1.12,0-1.7-.08-.16-.04-.29,0-.42,0-.29-.04-.29-.38-.46-.62-.29-.33-.25-1.08-.54-1.41-.08-.25-.16-.58-.33-.79-.08-.08-.33-.33-.38-.46-.21-.58-1.04-.75-1.45-1.12-.12-.08-.29-.16-.46-.25-.33-.12-.7-.25-1.04-.42-.12-.08-.25-.08-.38-.08-.38-.04-.75,0-1.12-.04-.46-.04-.91-.04-1.37-.12-.12.12-.29,0-.5.04-.46.04-.87-.12-1.33-.08-2.7-.04-2.95-.04-3.28,0s-.7.08-1.08,0c-.21,0-.46-.04-.66,0-.46.16-.91.12-1.37,0-1.54-.04-2.74,0-4.32,0-.87-.08-1.33-.04-2.2-.04h-3.7c-.58-.08-1.33-.04-1.91-.04-.33.08-.66.08-.96.12-.21.08-.42.21-.62.29-.12.04-.29.08-.38.16-.25.21-.5.29-.79.5-.25.29-.46.58-.5.96-.04.25-.04.46-.12.66-.16.29-.16.62-.29,1,0,.21.04.5.04,1v2.08c0,.29.04.58.08.83.08.38.25.7.62.91.58.54,1,.33,1.41.5.12.04.29.04.42.08.54-.04,1.12,0,1.66,0,.83.04,1.78-.04,2.62-.04h5.23c.08,0,.16.04.25.04.7-.12,1.37-.04,2.08-.04.71.04,1.45.08,2.16.04.7.04,1.37,0,2.08-.04.38-.04.7-.04,1.08,0,1.7,0,3.57,0,5.23.04,1.12,0,2.2,0,3.28-.04.21,0,.38.04.62.08.38,0,.83-.08,1.29-.12.25.08.54.16.79.21.33,0,.66.08.96.16.46.08,1.04.29,1.5.33.12.04.25.08.38.16.42.25.83.46,1.2.66.33.21.66.46.91.7.21.16.25.42.38.58.12.25.25.46.38.62.21.38.33.75.46,1.12,0,.21.04.38.04.54.04.21.04.38.08.54.16.46.12.91.08,1.37.04.91.04,1.66-.04,2.41-.04.62.04,1.24-.12,1.91.08.62,0,1.24,0,1.91-.04,2.24-1.7,4.19-2.53,4.86-.42.25-.87.5-1.33.75-.12.08-.25.12-.38.08-.08,0-.16,0-.29.04l-.38.12c-.33.25-.96.25-1.33.38-.08.04-.16,0-.25-.04-.25-.08-.46-.08-.66-.04-.29.04-.54.16-.83.12s-.54,0-.83,0c-.25.04-.54,0-.79,0-.25.04-.46,0-.7-.04-.38-.12-.79-.12-1.2-.08-.08,0-.16,0-.29.04-.29.04-.62.12-.91.04-.5.08-1,.04-1.37.04-.21,0-.42.04-.66.04l-.42.04c-1.2-.08-2.45,0-3.28-.08-.21,0-.46,0-.66-.04-.16-.04-.29,0-.42.04-.16.04-.38.04-.54.04-1.37-.08-2.74.04-4.11-.04-1.04.08-2.12,0-3.2-.04h-.25c-1.5.08-2.24,0-3.74.04l-1.2.04c-.33-.04-1.54-.08-1.87-.29-.12-.08-.25-.12-.38-.16-.21-.04-.42-.12-.62-.25-.38-.25-.75-.46-1.08-.75-.56-.36-1.09-.79-1.62-1.29-.08.05-.14.11-.16.16,0,.16-.04.29,0,.42.12.42.08.83,0,1.24l.12.5c.04.29-.12.46-.33.5-.38,0-.75-.08-1.24-.04-.38.04-.79.04-1.2.04h-1.29c-.08,0-.16-.04-.25-.04h-.01Z" style="fill:#809d9e;"/><path d="M703.45,90.72c0,.33-.04.75-.25,1-.25.21-.5.33-.79.29-.16-.04-.33,0-.46,0-.7.04-1.33.08-1.95.04-1.08-.08-2.2.21-3.24,0-.12,0-.25.04-.38.04-.7.04-1.33.04-1.99,0-.5-.04-3.11,0-4.07-.08h-.25c-.16,0-.38,0-.54.04-.79,0-1.58.04-2.41.04-1.2,0-2.33-.04-3.49-.08h-2.37c-.58.04-1.12.16-1.66.04-.12-.04-.29-.04-.42,0-1,.16-1.99.04-2.95.04-1.2.04-2.41,0-3.61,0-.79,0-1.54-.04-2.29-.04-.66.04-1.29.08-1.91.04h-.87c-.33,0-.66-.04-1-.04-1.16,0-2.37.04-3.57,0-1.24.04-2.08.08-2.91.04-.54.04-1.08.04-1.62,0-.38,0-.54-.08-.83-.38,0-.08.04-.16.04-.25.12-.42.12-.83.04-1.24-.16-.83.04-2.08,0-2.87.38-.21.66-.04,1-.21.38.21.83.08,1.28.12.62,0,1.83.04,2.91.04.42,0,.91-.04,1.37-.04,0-.16.04-.25.04-.38,0-1.12,0-2.12.04-3.28.08-1.04.04-2.12.04-3.2-.04-1.74,0-3.45-.04-5.19,0-.91-.04-1.87-.04-2.79v-2.53c0-.66-.04-1.29-.08-1.99-.04-1-.04-2.41.04-3.41,0-.38-.04-.7-.08-1.04-.42-.12-.83-.12-1.2-.04-.33.04-2.78.04-3.11.04-.25.04-.46.04-.62.04-.79.04-.87,0-1.54-.62-.08-1.29.12-2.45.12-3.78,0-.08.04-.21.16-.33,1.2-.16,3.7-.16,5.31-.12.83,0,1.7.08,2.53.04.21,0,.42-.04.62,0,1.37.08,2.74-.04,4.07-.08.38-.04.75-.04,1.12,0,1.08.12,2.2.04,3.28.08.16,0,.38-.04.54,0,1.16.08,2.33-.04,3.49,0s2.33,0,3.49.04c1.2,0,2.45,0,3.61.04.42,0,.83,0,1.2-.04,1.2,0,2.45-.04,3.61-.04.16-.04.33,0,.5.08.58-.12,1.16-.08,1.75-.12.66-.04,1.29-.04,1.99,0,.12,0,.25.04.38.04,1.04-.21,2.16.08,3.24,0,.62-.04,1.24,0,1.95.04.12,0,.29.04.46,0,.29-.04.54.08.79.29.21.25.25.66.25,1,.04,1,.08,2.04-.04,3.07-.12.83,0,1.7-.04,2.53,0,1.08-.12,2.08-.08,3.16,0,.29.08.62.16.91-.25.21-.5.29-1.29.25-.58,0-1.08.04-1.66.04-.25,0-.5,0-.79.08-.54.12-1.04-.12-1.5-.16-.25-.25-.16-.46-.21-.66.08-1.28.08-2.95.12-4.23-.04-.46-.04-1-.04-1.45-.16-.08-.21-.16-.29-.16-1.04,0-2.12.04-3.2.04h-.04c-.62-.16-1.16,0-1.74.04h-.58c-.83-.04-1.7-.08-2.53-.12-.42-.04-.83-.04-1.2-.04-1.08-.04-2.2-.12-3.37-.08-1.16,0-2.33-.08-3.53-.08-.25,0-.5.04-.75.04-1.04.04-2.04-.04-3.07.04-.79.04-1.62-.12-2.45.04-.25.04-.58.04-.83,0,.29-.04-.25-.04-.83,0-.62.08-1.25.08-1.91.08-.16,0-.42,0-.54.12-.04.04-.04.12-.04.16.04.66.04,1.37,0,2.08-.04,1.16-.04,2.74-.04,3.91v2.45c0,.21-.04.46.16.7.12.04.25.08.42.08,1.12,0,2.16.08,2.45-.04h.42c1.12,0,2.29,0,3.41-.04,1.12,0,2.2-.08,3.37-.08,1.37.08,2.79,0,4.15-.04.79,0,1.54.04,2.33.04.58,0,1.16-.04,1.75-.04.38,0,.5.12.62.46.16.5.16,1.04.12,1.58-.04.75-.12,1.12.12,1.91-.16.25-.08.66-.46.87-.46-.16-.96-.12-1.41-.12-.7.04-1.45,0-2.16,0h-.62c-.58,0-1.16-.04-1.75-.04-.66,0-1.29.04-1.95.04-.42,0-.83,0-1.24-.04-.83-.04-1.58-.08-2.41.04-.42.04-.83.04-1.29,0-.96-.12-1.83-.04-2.79,0,.12.04-.58,0-1.24.04-.46,0-.96,0-1.41.04-.14,0-.33.08-.58.25,0,.21,0,.42.04.58.04.33.04.71,0,1.08-.04.75-.04,2.66-.08,3.41,0,.25-.04.5-.08.75,0,.21-.04.42,0,.62.08.62.12,1.12.08,1.79-.04.46,0,.91.04,1.41.21.04.33.08.5.08h1.83c1.87.04,2.87.08,4.73.08,1.37,0,2.7-.08,4.07-.08,1.83,0,3.7-.12,5.52-.12,1.2,0,2.41-.04,3.65,0,.5,0,.83.04,1.25.04v-.04h1.37c.58.04,1.12.21,1.74.04l3.24.04c.08,0,.12-.08.29-.16,0-.46,0-1,.04-1.45-.04-1.29-.04-2.95-.12-4.23.04-.21-.04-.42.21-.66.46-.04.96-.29,1.5-.16.29.08.54.08.79.08.58,0,1.08.04,1.66.04.79-.04,1.04.04,1.29.25-.08.29-.16.62-.16.91-.04,1.08.08,2.08.08,3.16.04.83-.08,1.7.04,2.53.12,1.04.08,2.08.04,3.07h0Z" style="fill:#809d9e;"/><path d="M766.5,90.72c0,.33-.04.75-.25,1-.25.21-.5.33-.79.29-.16-.04-.33,0-.46,0-.7.04-1.33.08-1.95.04-1.08-.08-2.2.21-3.24,0-.12,0-.25.04-.38.04-.7.04-1.33.04-1.99,0-.5-.04-3.11,0-4.07-.08h-.25c-.16,0-.38,0-.54.04-.79,0-1.58.04-2.41.04-1.2,0-2.33-.04-3.49-.08h-2.37c-.58.04-1.12.16-1.66.04-.12-.04-.29-.04-.42,0-1,.16-1.99.04-2.95.04-1.2.04-2.41,0-3.61,0-.79,0-1.54-.04-2.29-.04-.66.04-1.29.08-1.91.04h-.87c-.33,0-.66-.04-1-.04-1.16,0-2.37.04-3.57,0-1.24.04-2.08.08-2.91.04-.54.04-1.08.04-1.62,0-.38,0-.54-.08-.83-.38,0-.08.04-.16.04-.25.12-.42.12-.83.04-1.24-.16-.83.04-2.08,0-2.87.38-.21.66-.04,1-.21.38.21.83.08,1.28.12.62,0,1.83.04,2.91.04.42,0,.91-.04,1.37-.04,0-.16.04-.25.04-.38,0-1.12,0-2.12.04-3.28.08-1.04.04-2.12.04-3.2-.04-1.74,0-3.45-.04-5.19,0-.91-.04-1.87-.04-2.79v-2.53c0-.66-.04-1.29-.08-1.99-.04-1-.04-2.41.04-3.41,0-.38-.04-.7-.08-1.04-.42-.12-.83-.12-1.2-.04-.33.04-2.78.04-3.11.04-.25.04-.46.04-.62.04-.79.04-.87,0-1.54-.62-.08-1.29.12-2.45.12-3.78,0-.08.04-.21.16-.33,1.2-.16,3.7-.16,5.31-.12.83,0,1.7.08,2.53.04.21,0,.42-.04.62,0,1.37.08,2.74-.04,4.07-.08.38-.04.75-.04,1.12,0,1.08.12,2.2.04,3.28.08.16,0,.38-.04.54,0,1.16.08,2.33-.04,3.49,0s2.33,0,3.49.04c1.2,0,2.45,0,3.61.04.42,0,.83,0,1.2-.04,1.2,0,2.45-.04,3.61-.04.16-.04.33,0,.5.08.58-.12,1.16-.08,1.75-.12.66-.04,1.29-.04,1.99,0,.12,0,.25.04.38.04,1.04-.21,2.16.08,3.24,0,.62-.04,1.24,0,1.95.04.12,0,.29.04.46,0,.29-.04.54.08.79.29.21.25.25.66.25,1,.04,1,.08,2.04-.04,3.07-.12.83,0,1.7-.04,2.53,0,1.08-.12,2.08-.08,3.16,0,.29.08.62.16.91-.25.21-.5.29-1.29.25-.58,0-1.08.04-1.66.04-.25,0-.5,0-.79.08-.54.12-1.04-.12-1.5-.16-.25-.25-.16-.46-.21-.66.08-1.28.08-2.95.12-4.23-.04-.46-.04-1-.04-1.45-.16-.08-.21-.16-.29-.16-1.04,0-2.12.04-3.2.04h-.04c-.62-.16-1.16,0-1.74.04h-.58c-.83-.04-1.7-.08-2.53-.12-.42-.04-.83-.04-1.2-.04-1.08-.04-2.2-.12-3.37-.08-1.16,0-2.33-.08-3.53-.08-.25,0-.5.04-.75.04-1.04.04-2.04-.04-3.07.04-.79.04-1.62-.12-2.45.04-.25.04-.58.04-.83,0,.29-.04-.25-.04-.83,0-.62.08-1.25.08-1.91.08-.16,0-.42,0-.54.12-.04.04-.04.12-.04.16.04.66.04,1.37,0,2.08-.04,1.16-.04,2.74-.04,3.91v2.45c0,.21-.04.46.16.7.12.04.25.08.42.08,1.12,0,2.16.08,2.45-.04h.42c1.12,0,2.29,0,3.41-.04,1.12,0,2.2-.08,3.37-.08,1.37.08,2.79,0,4.15-.04.79,0,1.54.04,2.33.04.58,0,1.16-.04,1.75-.04.38,0,.5.12.62.46.16.5.16,1.04.12,1.58-.04.75-.12,1.12.12,1.91-.16.25-.08.66-.46.87-.46-.16-.96-.12-1.41-.12-.7.04-1.45,0-2.16,0h-.62c-.58,0-1.16-.04-1.75-.04-.66,0-1.29.04-1.95.04-.42,0-.83,0-1.24-.04-.83-.04-1.58-.08-2.41.04-.42.04-.83.04-1.29,0-.96-.12-1.83-.04-2.79,0,.12.04-.58,0-1.24.04-.46,0-.96,0-1.41.04-.14,0-.33.08-.58.25,0,.21,0,.42.04.58.04.33.04.71,0,1.08-.04.75-.04,2.66-.08,3.41,0,.25-.04.5-.08.75,0,.21-.04.42,0,.62.08.62.12,1.12.08,1.79-.04.46,0,.91.04,1.41.21.04.33.08.5.08h1.83c1.87.04,2.87.08,4.73.08,1.37,0,2.7-.08,4.07-.08,1.83,0,3.7-.12,5.52-.12,1.2,0,2.41-.04,3.65,0,.5,0,.83.04,1.24.04v-.04h1.37c.58.04,1.12.21,1.74.04l3.24.04c.08,0,.12-.08.29-.16,0-.46,0-1,.04-1.45-.04-1.29-.04-2.95-.12-4.23.04-.21-.04-.42.21-.66.46-.04.96-.29,1.5-.16.29.08.54.08.79.08.58,0,1.08.04,1.66.04.79-.04,1.04.04,1.29.25-.08.29-.16.62-.16.91-.04,1.08.08,2.08.08,3.16.04.83-.08,1.7.04,2.53.12,1.04.08,2.08.04,3.07h0Z" style="fill:#809d9e;"/><path d="M92.22,3C43.02,3,3,43.02,3,92.22s40.03,89.22,89.22,89.22,89.22-40.03,89.22-89.22S141.42,3,92.22,3ZM92.22,175.28c-45.8,0-83.06-37.26-83.06-83.06S46.42,9.16,92.22,9.16s83.06,37.26,83.06,83.06-37.26,83.06-83.06,83.06h0Z" style="fill:#809d9e;"/><path d="M92.22,0C41.37,0,0,41.37,0,92.22s41.37,92.22,92.22,92.22,92.22-41.37,92.22-92.22S143.07,0,92.22,0ZM92.22,181.45c-49.2,0-89.22-40.03-89.22-89.22S43.02,3,92.22,3s89.22,40.03,89.22,89.22-40.03,89.22-89.22,89.22h0Z" style="fill:#1c4656;"/><path d="M92.22,9.16C46.42,9.16,9.16,46.42,9.16,92.22s37.26,83.06,83.06,83.06,83.06-37.26,83.06-83.06S138.02,9.16,92.22,9.16ZM92.22,12.15c43.46,0,78.93,34.83,80.01,78.03-11.02-4.03-17.47-11.69-22.71-15.79-7.22-5.66-7.01-3.83-12.15-.61-2.34,1.46-3.7,2.74-5.44,3.99-2.15,1.54-4.21,1.8-6.11.77-4.47-2.42-8.94-5.87-13-8.98-3.19-2.44-6.15-5.08-8.78-7.35,4.5-5.5,6.94-12.32,6.94-19.53,0-14.92-10.63-27.41-24.71-30.29,1.96-.14,3.94-.24,5.95-.24h0ZM108.58,42.69c0,6.62-2.25,12.9-6.37,17.96-2.79-2.33-5.14-4-6.89-4.17-3.43.33-9.15,6.43-16.05,11.94v-8.93l9.24-3-9.24-3v-9.72l-5.72,7.86-9.24-3,5.71,7.86-5.71,7.86,9.24-3,5.35,7.36c-.06.04-.11.09-.16.13-.8.63-1.68,1.34-2.62,2.08-14.03-1.94-24.56-14-24.56-28.23,0-15.72,12.79-28.51,28.51-28.51s28.51,12.79,28.51,28.51v-.02ZM60.67,18.65c-7.02,5.67-11.51,14.34-11.51,24.04,0,14.67,10.32,27.21,24.4,30.23-3.33,2.54-6.99,5.06-10.16,6.13-1.42.48-3.09-.11-4.71-1.26-1.75-1.25-3.1-2.53-5.44-3.99-5.14-3.22-4.94-5.05-12.15.61-5.24,4.12-16.73,13.85-28.91,16.57.5-32.41,20.34-60.2,48.48-72.32h0ZM159.75,135.15c-15.49,10-37.83,14.86-49.51,15.69,13.18.97,24.27,1.14,37.06-.59-14.36,13.64-33.75,22.03-55.07,22.03s-40.74-8.41-55.1-22.06c12.88,1.75,24.03,1.59,37.29.62-11.77-.83-34.36-5.76-49.86-15.91-7.23-11.42-11.67-24.78-12.3-39.11,9.5,10.98,22.51,18.7,35.96,24.02,17.49,6.78,36.56,9.08,55.22,7.85,3.27-.45,8-.77,11.18-1.49l5.53-1.09c3.07-.71,6.12-1.55,9.12-2.52l1.49-4.83,2.99-.03.47,1.44.47,1.52c7.52-2.85,14.72-6.52,21.38-10.98,5.93-4.07,11.57-8.61,16.16-14.08-.61,14.49-5.1,27.99-12.45,39.51h0ZM172.2,95.44c-5.74,4.26-11.82,7.84-18.13,10.9-14.29,7.06-30.06,11.49-45.93,13.01l-5.28.48-5.3.16c-4.1.22-9.17-.1-13.3-.17-25.52-1.7-51.19-9.01-72.03-24.27,0-.11,0-.22-.01-.32,12.14-3.18,28.49-14.92,33.21-17.9,2.28-1.44,4.54,4.3,4.31,6.49-.99,9.32-8.17,14.27,1.62,10.12,3.36-1.42,17-11.18,20.21-13.59,8.9-6.68,16.93-13.46,22.67-16.1.56-.25,1.62-.34,2.12,0,1.3.9,2.47,1.82,3.54,2.73,6.95,5.99-8.25,13.49-4.09,19.65,2.1,3.11,6.14,5.66,10.14,7.09,2.16.77,4.49.89,11.16.89h22.01c7.66,0,4.47-1.07-.03-4.34-3.28-2.39-5.57-7.05-1.83-10.41,2.64-2.37,4.89-3.96,6.12-3.38,5.05,2.4,17.05,13.84,28.82,18.63,0,.11,0,.23-.01.34h.01Z" style="fill:#1c4656;"/><polygon points="80.82 42.37 90.49 43.4 92.49 52.91 96.46 44.05 106.12 45.08 98.92 38.56 102.89 29.69 94.46 34.53 87.25 28.01 89.25 37.52 80.82 42.37" style="fill:#1c4656;"/><polygon points="65.14 33.89 63.13 43.4 70.34 36.89 78.77 41.73 74.81 32.86 82.02 26.35 72.35 27.38 68.39 18.5 66.38 28.02 56.71 29.04 65.14 33.89" style="fill:#1c4656;"/><path d="M138.44,128.53c-2.38-.73-4.25-2.6-4.98-4.98l-1.17-3.78s-.07-.04-.08,0l-1.17,3.78c-.73,2.38-2.6,4.25-4.98,4.98l-3.78,1.17s-.04.07,0,.08l3.78,1.17c2.38.73,4.25,2.6,4.98,4.98l1.17,3.78s.07.04.08,0l1.17-3.78c.73-2.38,2.6-4.25,4.98-4.98l3.78-1.17s.04-.07,0-.08l-3.78-1.17Z" style="fill:#809d9e;"/></svg>