<?xml version="1.0" encoding="UTF-8"?><svg id="Layer_1" xmlns="http://www.w3.org/2000/svg" viewBox="0 0 611.1 372.96"><path d="M69.2,314.86v-41.3H26.51v41.3H0v-102.8h26.51v38.38h42.69v-38.38h26.51v102.8h-26.51Z" style="fill:#00a6ce;"/><path d="M185.26,314.86l-5.24-15.57h-42.69l-5.24,15.57h-28.82l38.68-102.8h33.29l38.84,102.8h-28.82ZM158.59,235.18l-14.33,41.77h28.82l-14.49-41.77Z" style="fill:#00a6ce;"/><path d="M242.59,314.86l-38.68-102.8h30.05l25.28,74.13,25.43-74.13h30.05l-38.84,102.8h-33.29Z" style="fill:#00a6ce;"/><path d="M386.54,314.86l-5.24-15.57h-42.69l-5.24,15.57h-28.82l38.68-102.8h33.29l38.84,102.8h-28.82ZM359.88,235.18l-14.33,41.77h28.82l-14.49-41.77Z" style="fill:#00a6ce;"/><path d="M428.92,280.49c7.4,7.4,18.8,13.56,32.83,13.56,9.09,0,14.64-3.85,14.64-8.79,0-5.86-6.63-8.17-17.57-10.48-16.95-3.39-40.69-7.71-40.69-32.06,0-17.26,14.64-32.21,41-32.21,16.49,0,30.82,4.93,41.77,14.33l-14.49,18.96c-8.63-7.09-19.88-10.64-28.97-10.64s-12.18,3.54-12.18,8.01c0,5.39,6.32,7.24,17.72,9.4,16.95,3.54,40.38,8.48,40.38,31.75,0,20.65-15.26,34.37-42.85,34.37-20.81,0-35.29-6.47-45.62-16.34l14.03-19.88Z" style="fill:#00a6ce;"/><path d="M515.69,212.06h26.97v60.26c0,12.18,6.47,20.96,20.81,20.96s20.65-8.79,20.65-20.96v-60.26h26.97v61.03c0,25.58-14.64,43.62-47.62,43.62s-47.78-18.19-47.78-43.46v-61.19Z" style="fill:#00a6ce;"/><path d="M50.72,342.3c8.98,0,15.51,6.4,15.51,15.33s-6.53,15.33-15.51,15.33-15.46-6.4-15.46-15.33,6.53-15.33,15.46-15.33ZM50.72,347.9c-5.47,0-8.98,4.18-8.98,9.73s3.51,9.73,8.98,9.73,9.02-4.22,9.02-9.73-3.55-9.73-9.02-9.73Z" style="fill:#353535;"/><path d="M105.2,372.43l-5.82-10.62h-4.62v10.62h-6.31v-29.64h13.86c6.18,0,9.95,4.04,9.95,9.55s-3.29,8.04-6.49,8.8l6.66,11.29h-7.24ZM101.38,348.21h-6.62v8.18h6.62c2.53,0,4.44-1.6,4.44-4.09s-1.91-4.09-4.44-4.09Z" style="fill:#353535;"/><path d="M141.2,372.43v-24.08h-8.66v-5.55h23.64v5.55h-8.62v24.08h-6.35Z" style="fill:#353535;"/><path d="M198.3,372.43v-12.44h-14v12.44h-6.31v-29.64h6.31v11.64h14v-11.64h6.35v29.64h-6.35Z" style="fill:#353535;"/><path d="M242.29,342.3c8.98,0,15.51,6.4,15.51,15.33s-6.53,15.33-15.51,15.33-15.46-6.4-15.46-15.33,6.53-15.33,15.46-15.33ZM242.29,347.9c-5.47,0-8.98,4.18-8.98,9.73s3.51,9.73,8.98,9.73,9.02-4.22,9.02-9.73-3.55-9.73-9.02-9.73Z" style="fill:#353535;"/><path d="M280.02,372.43v-29.64h11.69c9.29,0,15.73,5.91,15.73,14.84s-6.44,14.8-15.73,14.8h-11.69ZM286.33,366.87h5.38c5.87,0,9.29-4.22,9.29-9.24s-3.2-9.29-9.29-9.29h-5.38v18.53Z" style="fill:#353535;"/><path d="M343.74,342.3c8.98,0,15.51,6.4,15.51,15.33s-6.53,15.33-15.51,15.33-15.46-6.4-15.46-15.33,6.53-15.33,15.46-15.33ZM343.74,347.9c-5.47,0-8.98,4.18-8.98,9.73s3.51,9.73,8.98,9.73,9.02-4.22,9.02-9.73-3.55-9.73-9.02-9.73Z" style="fill:#353535;"/><path d="M401.91,372.43l-14.13-19.91v19.91h-6.31v-29.64h6.49l13.73,19.2v-19.2h6.31v29.64h-6.09Z" style="fill:#353535;"/><path d="M438.48,372.43v-24.08h-8.66v-5.55h23.64v5.55h-8.62v24.08h-6.35Z" style="fill:#353535;"/><path d="M475.28,372.43v-29.64h6.31v29.64h-6.31Z" style="fill:#353535;"/><path d="M503.81,357.63c0-9.11,6.89-15.33,15.55-15.33,6.75,0,10.53,3.55,12.62,7.24l-5.42,2.67c-1.24-2.4-3.91-4.31-7.2-4.31-5.15,0-9.06,4.13-9.06,9.73s3.91,9.73,9.06,9.73c3.29,0,5.95-1.87,7.2-4.31l5.42,2.62c-2.13,3.69-5.87,7.29-12.62,7.29-8.66,0-15.55-6.22-15.55-15.33Z" style="fill:#353535;"/><path d="M554.95,363.45c2.09,2.18,5.33,4,9.42,4,3.47,0,5.15-1.64,5.15-3.33,0-2.22-2.58-2.98-6-3.78-4.84-1.11-11.06-2.44-11.06-9.06,0-4.93,4.27-8.93,11.24-8.93,4.71,0,8.62,1.42,11.55,4.13l-3.51,4.62c-2.4-2.22-5.6-3.24-8.49-3.24s-4.35,1.24-4.35,3.02c0,2,2.49,2.62,5.91,3.42,4.89,1.11,11.11,2.58,11.11,9.15,0,5.42-3.87,9.51-11.86,9.51-5.69,0-9.78-1.91-12.57-4.71l3.47-4.8Z" style="fill:#353535;"/><path d="M221.77,52.06c7.92,4.16,16.32,7.75,25.2,10.76.76.26,1.53.5,2.29.75V25.38h35.22v45.81c8.25.94,16.64,1.35,25.17,1.19,5.64-.1,11.17-.44,16.58-.99V25.32h35.22v38.84c2.56-.82,5.09-1.69,7.58-2.63,7.1-2.68,13.73-5.78,19.91-9.29V0h-167.17v52.06Z" style="fill:#00a6ce;"/><path d="M380.32,93.43c-6.1,2.2-12.4,4.12-18.87,5.78v42.52h-35.22v-36.46c-5.27.49-10.6.81-15.98.94-8.67.08-17.25-.32-25.77-1.18v36.76h-35.22v-43.12c-3.87-1.01-7.73-2.12-11.57-3.34-5.45-1.75-10.75-3.7-15.92-5.84v77.67h167.17v-77.26c-2.82,1.23-5.69,2.4-8.62,3.52Z" style="fill:#00a6ce;"/></svg>