<?xml version="1.0" encoding="UTF-8"?><svg id="Layer_1" xmlns="http://www.w3.org/2000/svg" xmlns:xlink="http://www.w3.org/1999/xlink" viewBox="0 0 765.77 220.23"><defs><clipPath id="clippath"><rect width="765.77" height="220.23" style="fill:none;"/></clipPath></defs><path d="M195.49,190.86v14H18.76V15.37h176.73v111.12" style="fill:none; stroke:#fff; stroke-miterlimit:10; stroke-width:1.02px;"/><g style="clip-path:url(#clippath);"><path d="M205.4,220.23H0V0h205.4v220.23Z" style="fill:#d9322a;"/><path d="M191.52,191.26v14.07H13.9V14.9h177.61v111.68" style="fill:none; stroke:#fff; stroke-miterlimit:10; stroke-width:1.02px;"/><path d="M244.1,118.52c1.99-.21,3.23-.55,3.71-1.01.48-.48.73-1.13.71-1.8v-58.6h-27.1c-.84,0-1.47.29-1.89.86-.42.57-.73,1.75-.94,3.53h-1.89v-27.89h1.89c.21,1.78.52,2.96.94,3.53.42.57,1.05.86,1.89.86h77.85c.84,0,1.47-.29,1.89-.86s.73-1.75.94-3.53h1.89v27.89h-1.89c-.21-1.77-.52-2.95-.94-3.53-.42-.57-1.05-.86-1.89-.86h-27.1v58.6c-.02.67.23,1.32.71,1.8.47.47,1.7.81,3.71,1.02v1.88h-32.46v-1.88h-.02ZM375.52,90.32c-.17-.98-.64-1.88-1.34-2.58-.68-.68-1.81-1.02-3.39-1.02h-29.31v14.57h50.58c.84,0,1.47-.29,1.89-.86.42-.57.73-1.85.94-3.84h1.89v26.79h-1.89c-.21-1.35-.52-2.19-.94-2.5-.42-.31-1.05-.47-1.89-.47h-78.63v-1.88c2-.21,3.23-.55,3.71-1.02.47-.48.73-1.13.71-1.8V42.69c.02-.67-.23-1.32-.71-1.8-.47-.47-1.7-.81-3.71-1.02v-1.88h78.63c.84,0,1.47-.29,1.89-.86.42-.57.73-1.75.94-3.53h1.89v27.27h-1.89c-.21-1.77-.52-2.95-.94-3.53-.42-.57-1.05-.86-1.89-.86h-50.58v13h29.31c1.57,0,2.7-.34,3.39-1.02.68-.68,1.13-1.54,1.34-2.59h1.89v24.45h-1.89ZM429.4,116.95c0,.52.18.91.55,1.17.37.26,1.13.39,2.28.39v1.88h-27.89v-1.88c1.15-.21,1.99-.54,2.52-1.01s1.05-1.33,1.57-2.58c.21-.52.73-1.93,1.57-4.24.84-2.3,1.94-5.19,3.31-8.69,1.36-3.49,2.89-7.39,4.57-11.67,1.68-4.28,3.36-8.65,5.04-13.08,1.68-4.44,3.33-8.77,4.97-13,1.62-4.23,3.07-8.02,4.33-11.36,1.26-3.35,2.28-6.06,3.08-8.15.79-2.09,1.18-3.18,1.18-3.28,0-.52-.34-.89-1.02-1.1-.7-.21-1.41-.37-2.13-.47v-1.88h41.13v1.88c-.7.07-1.39.23-2.05.47-.52.21-.79.73-.79,1.56,0,.21.5,1.57,1.49,4.08,1,2.51,2.29,5.77,3.87,9.8,1.57,4.02,3.38,8.57,5.43,13.63,2.05,5.07,4.18,10.24,6.38,15.51,2.15,5.14,4.28,10.28,6.38,15.44,1.83,4.5,3.7,8.99,5.59,13.47.84,1.88,1.55,3.14,2.13,3.76.58.63,1.34.94,2.28.94v1.88h-31.04v-1.88c1.99-.1,2.99-.73,2.99-1.88,0-.11-.26-.81-.79-2.11-.52-1.3-1.1-2.77-1.73-4.39-.63-1.62-1.23-3.16-1.81-4.62-.57-1.46-.91-2.45-1.02-2.98h-37.35c-1.38,3.69-2.72,7.4-4.01,11.13-.27.75-.53,1.51-.79,2.27-.16.47-.24.81-.24,1.02h0ZM467.7,90.01l-15.29-37.29-14.02,37.29h29.31ZM591.25,118.52c1.99-.21,3.23-.55,3.71-1.02.47-.48.73-1.13.71-1.8v-57.66l-.32-.31-28.05,60.8-27.74-61.42h-.32v58.6c0,.73.24,1.33.71,1.8.47.47,1.71.81,3.71,1.01v1.88h-27.74v-1.88c1.99-.21,3.23-.54,3.71-1.01.47-.48.73-1.13.71-1.8V42.69c.02-.67-.23-1.32-.71-1.8-.48-.47-1.71-.81-3.71-1.02v-1.88h41.13v1.88c-2.52.1-3.78,1.04-3.78,2.82,0,.11.31.94.94,2.5.63,1.57,1.44,3.5,2.44,5.8.99,2.3,2.1,4.78,3.3,7.44l3.47,7.68,2.92,6.5c.84,1.88,1.42,3.13,1.73,3.77,1.76-3.91,3.59-7.77,5.52-11.6,1.89-3.76,3.59-7.21,5.12-10.34,1.52-3.13,2.76-5.74,3.71-7.83.94-2.08,1.41-3.39,1.42-3.92,0-1.77-1.26-2.71-3.79-2.81v-1.88h42.7v1.88c-1.99.21-3.22.54-3.7,1.01-.48.48-.73,1.13-.71,1.8v73.01c0,.73.24,1.33.71,1.8s1.71.81,3.7,1.01v1.88h-31.51v-1.88h0ZM121.12,153.45c-5.77,8.62-11.52,14.34-21.61,17.21-10.08,2.87-21.61,0-27.39-10.03-5.75-14.34-3.94-28.6-1.43-44.43,4.34-27.23,11.53-57.3,37.48-68.75,12.96-5.75,27.38,1.42,31.7,15.74,5.76,32.97-4.32,63.04-18.73,90.26h-.01ZM142.73,38.84c-50.43-20.06-102.63,20.26-108.07,71.66-2.87,27.22,5.78,58.74,33.14,68.76,12.98,4.28,27.38,4.28,40.35,2.84,30.25-4.28,53.3-28.66,63.4-57.3,10.08-31.53,4.33-71.63-28.82-85.96M195.3,162.81v14.44c0,.63.15,1.13.46,1.48.31.35.84.62,1.59.82v1.01h-13.66v-1.01c.77-.21,1.31-.49,1.6-.83.3-.34.45-.83.45-1.47v-36.86c0-.66-.15-1.16-.45-1.5-.3-.34-.83-.61-1.6-.83v-1.01h27.38c3.33,0,5.98.19,7.94.57,1.96.38,3.66,1.05,5.11,2.01,1.69,1.11,2.95,2.6,3.79,4.5.79,1.82,1.19,3.78,1.19,5.87,0,7.1-3.97,11.26-11.9,12.47l8.5,12.02c1.49,2.1,2.59,3.46,3.29,4.07.69.61,1.54.94,2.55,1.01v1.02h-15.81v-1.01c1.09-.18,1.63-.56,1.63-1.15,0-.39-.5-1.31-1.5-2.77l-8.86-12.82h-11.69ZM195.3,155.63h14.75c2.17,0,3.71-.06,4.61-.19.86-.12,1.7-.38,2.47-.8,1.63-.87,2.44-2.44,2.44-4.72,0-2.28-.81-3.85-2.44-4.72-.76-.42-1.59-.7-2.45-.81-.87-.12-2.41-.17-4.63-.17h-14.75v11.41h.01ZM256.99,144.21v33c0,.66.15,1.16.45,1.5.3.34.83.61,1.6.83v1.01h-13.66v-1.01c.77-.21,1.31-.49,1.6-.83.3-.34.45-.84.45-1.5v-33h-13.59c-.64,0-1.13.14-1.48.43-.34.29-.62.82-.83,1.6h-1.02v-11.26h1.02c.24.78.52,1.31.85,1.6.33.29.81.43,1.46.43h36.7c.66,0,1.17-.14,1.51-.43.34-.29.62-.83.83-1.6h1.02v11.26h-1.02c-.21-.78-.49-1.31-.83-1.6-.34-.29-.84-.43-1.5-.43h-13.55ZM311.84,161.56h-25.23v15.68c0,.63.15,1.13.46,1.48.31.35.84.62,1.59.82v1.01h-13.66v-1.01c.77-.21,1.3-.49,1.6-.83.3-.34.45-.83.45-1.47v-36.89c0-.63-.15-1.12-.45-1.47-.3-.34-.83-.61-1.6-.83v-1.01h13.65v1.01c-.77.19-1.3.46-1.6.81-.3.35-.45.84-.45,1.48v14.03h25.23v-14.03c0-.64-.15-1.13-.45-1.48-.3-.35-.83-.62-1.6-.81v-1.01h13.65v1.01c-.77.21-1.3.49-1.6.83-.3.34-.45.83-.45,1.47v36.89c0,.63.15,1.12.45,1.47.3.34.83.62,1.6.83v1.01h-13.65v-1.01c.75-.19,1.28-.46,1.59-.82.31-.35.46-.84.46-1.48v-15.68h-.02ZM352.11,136.27c7.63,0,13.69,2.05,18.16,6.15,4.73,4.3,7.09,9.84,7.09,16.64,0,4.17-1.13,8.05-3.4,11.67-4.43,7.06-11.69,10.59-21.78,10.59-7.57,0-13.59-2.05-18.06-6.15-2.39-2.18-4.25-4.87-5.45-7.87-1.09-2.7-1.65-5.59-1.64-8.51,0-4.36,1.12-8.35,3.37-11.95,4.3-6.91,11.54-10.43,21.72-10.55M352.15,143.68c-4.17,0-7.65,1.23-10.43,3.69-3.29,2.91-4.94,6.72-4.94,11.43s1.65,8.52,4.94,11.43c2.78,2.46,6.28,3.69,10.49,3.69,4.21,0,7.7-1.23,10.47-3.69,1.66-1.48,2.95-3.32,3.78-5.38.76-1.86,1.15-3.85,1.15-5.86,0-4.92-1.65-8.8-4.95-11.62-2.8-2.42-6.31-3.65-10.52-3.69h.01ZM382.99,177.2v-36.82c0-.66-.15-1.16-.45-1.5-.3-.34-.83-.61-1.6-.83v-1.01h24.41c5.35,0,9.45.6,12.32,1.81,4.11,1.76,7.14,4.68,9.11,8.74,1.56,3.19,2.34,6.92,2.34,11.19,0,7.5-2.32,13.22-6.95,17.15-1.98,1.68-4.32,2.9-6.84,3.56-2.61.71-5.93,1.07-9.97,1.07h-24.41v-1.02c.77-.21,1.3-.49,1.6-.83.3-.34.45-.84.45-1.5v-.02ZM392.54,173.38h12.01c3.83,0,6.71-.52,8.64-1.56,4.13-2.24,6.2-6.58,6.2-13.04,0-4.67-1.11-8.25-3.34-10.74-1.21-1.36-2.76-2.38-4.49-2.95-1.76-.58-4.09-.87-6.99-.88h-12.01v29.17h0ZM456.76,136.27c7.63,0,13.69,2.05,18.16,6.15,4.73,4.3,7.09,9.84,7.09,16.64,0,4.17-1.13,8.05-3.4,11.67-4.43,7.06-11.69,10.59-21.78,10.59-7.57,0-13.59-2.05-18.06-6.15-2.39-2.18-4.26-4.87-5.46-7.87-1.09-2.7-1.65-5.59-1.64-8.51,0-4.36,1.13-8.35,3.37-11.95,4.3-6.91,11.54-10.43,21.72-10.55h0ZM456.8,143.68c-4.17,0-7.65,1.23-10.43,3.69-3.29,2.91-4.94,6.72-4.94,11.43s1.65,8.52,4.94,11.43c2.78,2.46,6.28,3.69,10.49,3.69,4.21,0,7.7-1.23,10.46-3.69,1.65-1.46,2.91-3.26,3.78-5.38.77-1.86,1.16-3.85,1.15-5.86,0-4.92-1.65-8.8-4.94-11.62-2.8-2.42-6.31-3.65-10.52-3.69M496.4,150.75v26.46c0,.66.15,1.16.45,1.5.3.34.83.61,1.6.83v1.01h-12.86v-1.01c.77-.21,1.31-.49,1.6-.83.3-.34.45-.84.45-1.5v-36.86c0-.63-.15-1.12-.45-1.47-.3-.34-.83-.61-1.6-.83v-1.01h14.88v1.01c-.92.23-1.38.72-1.38,1.47,0,.51.3,1.07.9,1.69l24.15,24.96v-25.82c0-.63-.15-1.12-.45-1.47-.3-.34-.83-.61-1.6-.83v-1.01h12.86v1.01c-.77.21-1.3.49-1.6.83-.3.34-.45.83-.45,1.47v36.86c0,.66.15,1.16.45,1.5.3.34.83.61,1.6.83v1.01h-13.78v-1.01c.9-.19,1.35-.65,1.35-1.38,0-.42-.52-1.16-1.57-2.23l-24.53-25.18h0ZM562.52,144.21v33c0,.66.15,1.16.45,1.5.3.34.83.61,1.6.83v1.01h-13.66v-1.01c.77-.21,1.31-.49,1.6-.83.3-.34.45-.84.45-1.5v-33h-13.59c-.64,0-1.14.14-1.48.43-.35.29-.62.82-.83,1.6h-1.02v-11.26h1.02c.23.78.52,1.31.85,1.6.33.29.82.43,1.46.43h36.7c.66,0,1.16-.14,1.5-.43.35-.29.62-.83.83-1.6h1.02v11.26h-1.02c-.21-.78-.49-1.31-.83-1.6-.34-.29-.84-.43-1.5-.43h-13.56.01ZM582.58,177.21v-36.86c0-.63-.15-1.12-.45-1.47-.3-.34-.83-.61-1.6-.83v-1.01h13.65v1.01c-.77.19-1.3.46-1.6.81-.3.35-.45.84-.45,1.48v36.86c0,.66.16,1.16.46,1.51.31.35.84.62,1.58.82v1.01h-13.65v-1.01c.77-.21,1.3-.49,1.6-.83.3-.34.45-.84.45-1.5M641.18,165.6l6.09,9.07-.83.58c-.6-.56-1.09-.83-1.48-.83s-1.47.51-3.24,1.53c-3.67,2.11-6.77,3.53-9.28,4.27-2.51.73-5.5,1.1-8.96,1.1-6.91,0-12.57-1.63-16.99-4.88-2.56-1.85-4.67-4.26-6.15-7.05-1.73-3.21-2.6-6.75-2.6-10.62,0-5.27,1.55-9.85,4.65-13.74,4.66-5.84,11.7-8.76,21.13-8.76,3.46,0,6.43.36,8.91,1.09,2.48.72,5.58,2.15,9.3,4.27,1.77,1,2.86,1.49,3.24,1.49.39,0,.88-.28,1.48-.83l.83.58-6.09,9.08-.87-.58c.04-.34.06-.63.06-.86,0-.62-.27-1.19-.81-1.73-.53-.54-1.48-1.19-2.85-1.96-3.66-2.08-7.81-3.18-12.02-3.18-5,0-8.99,1.24-11.96,3.73-3.51,2.91-5.26,6.71-5.26,11.4,0,4.69,1.75,8.5,5.26,11.4,2.97,2.49,6.96,3.73,11.96,3.73,4.22,0,8.36-1.09,12.02-3.19,1.37-.77,2.32-1.42,2.85-1.96.54-.54.81-1.12.81-1.74,0-.24-.03-.51-.06-.83l.87-.61ZM691.27,140.73l-5.23,10.25-.9-.51c.02-.21.03-.38.03-.51,0-.72-.62-1.5-1.86-2.33-3.8-2.63-8.27-3.95-13.4-3.95-2.26,0-4.26.28-6,.83-1.26.42-2.28,1.06-3.06,1.91-.78.85-1.17,1.77-1.17,2.77,0,1.63.99,2.75,2.98,3.35,1.02.29,3.22.61,6.6.96l5.04.51c2.99.33,5.41.76,7.26,1.3,1.84.56,3.48,1.33,4.92,2.33,1.46,1.04,2.6,2.41,3.45,4.11.84,1.69,1.27,3.51,1.27,5.45.03,2.99-1.03,5.89-2.98,8.15-1.79,2.17-4.58,3.77-8.36,4.8-2.96.8-6.01,1.2-9.07,1.18-5.8,0-11.51-1.38-17.15-4.15-1.2-.55-1.91-.82-2.15-.83-.28,0-.72.23-1.31.7l-.93-.48,4.75-10.67.93.44v.42c0,.96.46,1.84,1.38,2.64,1.39,1.23,3.53,2.3,6.44,3.19,2.91.9,5.66,1.34,8.27,1.34,2.84,0,5.27-.48,7.27-1.43,1.12-.53,2-1.23,2.66-2.11.66-.88,1-1.8,1-2.76,0-1.44-.78-2.47-2.34-3.09-1.09-.42-3.29-.81-6.6-1.17l-4.94-.51c-3.31-.34-5.65-.66-7.02-.98-1.42-.33-2.8-.83-4.11-1.48-1.93-.94-3.53-2.44-4.58-4.31-1-1.72-1.5-3.7-1.5-5.94,0-3.68,1.27-6.72,3.81-9.13,3.33-3.17,8.34-4.76,15.01-4.76,2.8,0,5.41.28,7.82.85,2.42.56,5.43,1.61,9.04,3.12,1.24.49,2,.74,2.28.74.45,0,.97-.25,1.57-.74l.9.48h-.01ZM710.23,173.2v5.98c0,.27.06.47.19.62.13.15.35.26.67.34v.43h-5.69v-.43c.32-.08.54-.2.66-.35.12-.14.18-.34.18-.61v-15.36c0-.28-.06-.49-.18-.63-.19-.17-.42-.29-.66-.35v-.43h11.38c1.33,0,2.38.09,3.16.27.78.17,1.47.49,2.06.91.61.45,1.09,1.04,1.44,1.78.35.76.52,1.57.52,2.41,0,1.23-.33,2.3-.99,3.22-.56.78-1.35,1.37-2.26,1.68-.94.33-2.25.5-3.94.5h-6.56ZM710.23,170.21h6.08c1.21,0,2.06-.13,2.55-.38.33-.19.59-.47.75-.81.19-.36.29-.77.29-1.22,0-.42-.1-.83-.29-1.2-.16-.34-.43-.62-.75-.8-.48-.26-1.33-.39-2.55-.38h-6.08v4.8h0ZM724.78,176.52c.58-.01,1.15.22,1.55.63.43.42.64.94.64,1.56,0,.62-.22,1.1-.65,1.53-.41.41-.97.64-1.55.63-.58.01-1.14-.22-1.55-.64-.42-.41-.65-.97-.64-1.55,0-.6.21-1.11.64-1.52.41-.41.97-.65,1.56-.64h0ZM746.59,174.33l2.55,3.78-.35.24c-.25-.23-.45-.35-.61-.35-.16,0-.61.21-1.34.64-1.53.87-2.82,1.47-3.87,1.78-1.22.33-2.47.48-3.73.46-2.87,0-5.23-.68-7.08-2.03-1.07-.77-1.95-1.77-2.56-2.94-.72-1.36-1.1-2.88-1.08-4.42,0-2.2.65-4.11,1.94-5.73,1.94-2.43,4.88-3.65,8.8-3.65,1.45,0,2.68.15,3.71.45,1.03.3,2.32.9,3.87,1.78.74.42,1.19.63,1.35.63s.36-.12.61-.35l.35.24-2.54,3.79-.36-.24c.01-.12.02-.24.03-.36,0-.28-.13-.54-.33-.72-.36-.32-.76-.59-1.19-.81-1.53-.87-3.25-1.32-5.01-1.32-2.08,0-3.74.52-4.98,1.56-1.46,1.22-2.19,2.8-2.19,4.75,0,1.96.73,3.54,2.19,4.74,1.24,1.04,2.9,1.56,4.98,1.56,1.77,0,3.44-.44,5.01-1.33.56-.32.96-.59,1.19-.82.2-.18.32-.45.33-.72,0-.12-.01-.23-.03-.35l.36-.25v-.03ZM752.73,176.52c.62,0,1.13.21,1.56.63.42.41.65.97.64,1.56,0,.62-.22,1.1-.64,1.53-.41.41-.97.64-1.55.63-.58,0-1.14-.22-1.55-.64-.42-.41-.65-.97-.64-1.55,0-.6.21-1.11.64-1.52.41-.41.97-.65,1.56-.64h-.01ZM763.95,170.77c-1.15,1.19-2.74,1.84-4.39,1.82-1.71,0-3.17-.61-4.38-1.82-1.17-1.15-1.83-2.73-1.8-4.37,0-1.71.6-3.15,1.82-4.34,1.15-1.17,2.72-1.83,4.36-1.8,1.71,0,3.18.6,4.39,1.8,1.21,1.2,1.81,2.65,1.82,4.34,0,1.71-.6,3.17-1.82,4.38M755.81,162.66c-1.04,1.03-1.55,2.28-1.56,3.75,0,1.47.51,2.74,1.55,3.77,1.03,1.04,2.29,1.56,3.78,1.56s2.74-.52,3.78-1.56c1.04-1.04,1.55-2.3,1.56-3.77,0-1.47-.52-2.72-1.56-3.75-.99-1.02-2.36-1.59-3.78-1.56-1.47,0-2.73.52-3.77,1.56M759.45,163c.85,0,1.47.08,1.85.24.7.29,1.05.86,1.06,1.71,0,.61-.22,1.05-.66,1.34-.3.17-.63.29-.98.33.46.05.89.29,1.17.66.23.3.36.67.37,1.05v.5c0,.15,0,.32.01.5,0,.12.02.24.06.35l.04.09h-1.12l-.02-.07s0-.04-.01-.07l-.03-.22v-.54c0-.78-.21-1.3-.64-1.55-.25-.14-.7-.22-1.34-.22h-.94v2.66h-1.2v-6.76h2.38-.01ZM760.75,164.07c-.3-.17-.79-.25-1.45-.25h-1.02v2.45h1.08c.51,0,.89-.05,1.14-.14.47-.19.7-.54.7-1.06,0-.49-.15-.83-.45-.99" style="fill:#fff;"/></g></svg>