<?xml version="1.0" encoding="UTF-8"?><svg id="Layer_1" xmlns="http://www.w3.org/2000/svg" xmlns:xlink="http://www.w3.org/1999/xlink" viewBox="0 0 767.96 220.37"><defs><linearGradient id="linear-gradient" x1="523.08" y1="110.19" x2="767.96" y2="110.19" gradientUnits="userSpaceOnUse"><stop offset="0" stop-color="#0f79b1"/><stop offset="1" stop-color="#2dabdb"/></linearGradient></defs><path d="M767.96,47.99c-10.68-11.41-35.82,22.45-40.8,16.81,1.48-13.89-7.94-50.87-17.97-59.59-20.65-17.94-60.3,15.1-76.26,28.9-20.73-4.64-53.25-23.24-70.62-2.84-12.27,14.41-3.36,63.14,4.98,80.62l-44.21,6.76h47.62c-.57,11.94,24.7,54.22,32.99,56.7,9.46,2.83,26.87-2.25,24.4-13.9l-26.79-46.15c39.27-1.82,76.34-15.89,112.22-30.3,3.25,39.83-6.49,73.23-25.41,107.75-2.38,4.33-26.11,33.67-7.24,26.49,10.98-4.18,34.99-52.56,39.55-65.19,9.68-26.79,11.11-50.21,10.84-78.48l36.71-20.86v-6.73ZM704.66,77.92c-10.25,7.8-97.93,33.01-107.94,30.3-9.2-4.33-21.81-54.27-19.2-56.84,4.03-3.98,38.84,9.4,46.29,10.01,22.39,1.83,49.36-28.74,67.64-40.25,3.15.04,26.28,46.85,13.22,56.79Z" style="fill:url(#linear-gradient);"/><path d="M60.12,69.4c-.41,2.17-.93,4.55-1.45,6.51h-.21c-.52-11.89-10.03-17.58-22.44-17.58-14.79,0-26.67,10.34-26.16,31.22.52,22.23,13.75,31.43,28.85,31.43,13.96,0,19.75-6.82,21.19-16.75h.21c.52,11.27-1.24,15.1-4.76,16.65-2.28,1.03-6.62,2.59-16.96,2.59-22.75,0-36.81-13.03-36.81-32.78s12.41-34.43,34.84-34.43c11.48,0,16.65,1.96,20.16,3.83,3.41,1.86,4.34,5.17,3.51,9.31Z" style="fill:#212121;"/><path d="M104.48,123.37c-19.75,0-34.22-9.62-35.05-32.05-.72-20.26,14.79-35.05,35.98-35.05s32.88,15.51,32.88,31.95c0,19.95-14.48,35.15-33.81,35.15ZM78.01,89.67c0,18.2,10.13,31.53,26.47,31.53s25.54-11.99,25.54-28.02c0-16.96-8.69-34.95-28.43-34.43-15.92.41-23.57,13.23-23.57,30.91Z" style="fill:#212121;"/><path d="M207.46,69.4c-.41,2.17-.93,4.55-1.45,6.51h-.21c-.52-11.89-10.03-17.58-22.44-17.58-14.79,0-26.67,10.34-26.16,31.22.52,22.23,13.75,31.43,28.85,31.43,13.96,0,19.75-6.82,21.19-16.75h.21c.52,11.27-1.24,15.1-4.76,16.65-2.28,1.03-6.62,2.59-16.96,2.59-22.75,0-36.81-13.03-36.81-32.78s12.41-34.43,34.84-34.43c11.48,0,16.65,1.96,20.16,3.83,3.41,1.86,4.34,5.17,3.51,9.31Z" style="fill:#212121;"/><path d="M219.15,122.03c8.06-1.76,7.44-3.93,7.65-11.68.1-3.52.21-15.1.21-18.61,0-8.06-.1-18.71-.21-22.23-.31-9.82-1.14-11.06-6.93-11.58v-.21c3.41.21,7.55.31,11.58.31,2.69,0,5.58-.31,8.27-.31v.21c-5.07.72-4.96,3.52-5.27,11.58-.21,6-.21,10.55-.21,17.58,4.24.1,12.61.31,17.27.31,10.65,0,16.75-.21,19.33-.41,0-7.34-.1-14.37-.21-17.47-.31-9.82-.72-10.96-6.31-11.58v-.21c3.62,0,7.13.52,11.37.52,2.69,0,5.79-.52,8.17-.52v.21c-5.79.72-4.96,2.28-5.48,11.58-.31,6-.31,14.89-.31,19.23,0,4.96.21,18.82.31,23.37.21,7.24,1.45,8.89,8.37,9.62v.21c-2.89-.1-5.79-.52-9.2-.52-5.17,0-10.86.41-14.68.62v-.21c7.13-.93,7.55-2.17,7.76-11.79.1-3.41.21-17.27.21-21.3-2.58.83-6.1,1.55-16.75,1.96-6.82.21-15.4.21-19.85,0,0,4.14.21,17.58.31,20.99.31,7.75.41,9.62,7.86,10.03v.21c-6.1,0-10.13-.62-14.89-.52-2.48,0-5.07.31-8.37.83v-.21Z" style="fill:#212121;"/><path d="M306.21,87.29c0-7.44-.1-14.99-.31-22.75-.1-4.34-1.86-6.1-7.24-6.62v-.21c1.65,0,6.72.31,9.3.31,3.31,0,9.62-.52,13.96-.41,18.09.41,20.99,10.75,20.99,16.96,0,7.34-4.55,13.34-11.99,17.68,1.55,2.48,5.27,7.96,9.82,13.65,4.96,6.2,8.48,10.34,12.1,13.13,2.58,1.96,4.86,2.27,6.93,2.69v.21c-2.17.21-7.13.1-9.51-.31-7.34-1.24-10.34-4.14-18.51-16.13-3.1-4.55-5.27-7.96-7.24-11.37-1.03.21-3.21.41-5.69.41-2.07,0-4.24-.21-5.48-.41,0,6.93.21,13.85.31,16.23.21,9.72.93,10.75,7.75,11.37v.21c-3.93,0-9.92-.62-11.99-.62-2.48,0-6.93.62-10.55.62v-.21c5.38-.72,6.82-1.55,7.03-11.68.31-7.65.31-15.2.31-22.75ZM321.41,59.99c-2.69-.1-6.62-.21-8.69-.1.41.62.62,2.38.62,4.45v26.99c4.03.62,8.89.83,13.03.41,6.62-.62,9.51-8.17,9.51-14.68,0-9.31-4.76-16.65-14.48-17.06Z" style="fill:#212121;"/><path d="M385.93,62.99c2.28-5.38,3-6.72,3.72-6.72.41,0,.21,1.03,2.38,7.03,3.21,8.99,6.41,17.78,9.82,26.78,2.9,7.65,6,16.23,9.41,23.68,2.58,5.69,3.83,7.24,9.72,7.96v.21c-4.14-.21-6.41.21-10.34.21-5.07,0-6.2-2.79-7.44-6.31-1.65-4.76-4.76-13.54-7.24-20.16-2.58.52-6.31,1.14-10.65,1.24-3.41.1-6.41,0-9.31-.21-1.55,4.14-4.45,12.61-6,18.09-1.76,6.2,1.24,6.51,4.65,6.93v.21c-2.79.1-7.44-.52-8.69-.52-2.79,0-6.82.52-10.13.52v-.21c2.59-.41,4.86-.31,8.06-6.2,3-5.48,6.72-14.89,10.13-23.26,3.72-8.99,7.44-18.61,11.89-29.26ZM386.75,68.99l-4.96,12.72c-2.07,5.27-3.93,9.62-4.76,11.89,2.58.21,5.38.31,8.68.31,3.83,0,7.86-.1,9.51-.21-4.14-12.1-8.69-23.47-8.48-24.71Z" style="fill:#212121;"/><path d="M486.84,114.07c0,5.17.21,8.27.21,10.03-1.55-2.07-4.65-5.79-5.69-6.82-5.58-6-12.51-12.82-23.26-23.68-9.92-10.03-17.89-17.89-22.23-21.92.1,7.96.31,29.16.93,43.63.21,3.62,2.07,5.69,8.27,6.41v.21c-4.14,0-8.99-.62-10.96-.62-1.76,0-5.38.62-8.17.62v-.21c3.72-.72,5.07-1.34,5.48-6.62.83-11.48,1.03-29.16,1.03-37.63v-13.44c0-3-.41-5.48-.83-6.93,1.86.31,3.21,2.48,5.89,5.17,4.86,4.86,14.78,14.99,23.78,23.99,9,8.99,16.65,16.34,22.23,21.5,0-12.2.21-25.54-.52-39.91-.41-7.55-1.65-9.2-7.55-9.93v-.21c2.79,0,8.06.52,9.92.52,1.55,0,4.45-.52,7.24-.52v.21c-3.62.62-4.45,3.62-4.65,8.38-.21,5.48-.62,16.96-.83,30.81-.1,5.48-.31,8.79-.31,16.96Z" style="fill:#212121;"/><path d="M24.9,196.33c-14.02,0-24.29-6.83-24.88-22.75-.51-14.38,10.49-24.88,25.54-24.88s23.34,11.01,23.34,22.68c0,14.16-10.27,24.95-24,24.95ZM6.11,172.4c0,12.92,7.19,22.38,18.79,22.38s18.13-8.51,18.13-19.89c0-12.04-6.17-24.81-20.18-24.44-11.3.29-16.73,9.39-16.73,21.94Z" style="fill:#212121;"/><path d="M62.17,170.72c0-5.28-.07-10.64-.22-16.15-.07-3.08-1.32-4.33-5.14-4.7v-.15c1.17,0,4.77.22,6.61.22,2.35,0,6.82-.37,9.91-.29,12.84.29,14.9,7.63,14.9,12.04,0,5.21-3.23,9.47-8.51,12.55,1.1,1.76,3.74,5.65,6.97,9.69,3.52,4.4,6.02,7.34,8.59,9.32,1.83,1.39,3.45,1.61,4.92,1.91v.15c-1.54.15-5.06.07-6.75-.22-5.21-.88-7.34-2.94-13.14-11.45-2.2-3.23-3.74-5.65-5.14-8.07-.73.15-2.28.29-4.04.29-1.47,0-3.01-.15-3.89-.29,0,4.92.15,9.83.22,11.52.15,6.9.66,7.63,5.5,8.07v.15c-2.79,0-7.05-.44-8.51-.44-1.76,0-4.92.44-7.49.44v-.15c3.82-.51,4.84-1.1,4.99-8.29.22-5.43.22-10.79.22-16.15ZM72.96,151.34c-1.91-.07-4.7-.15-6.17-.07.29.44.44,1.69.44,3.16v19.15c2.86.44,6.31.59,9.25.29,4.7-.44,6.75-5.8,6.75-10.42,0-6.61-3.37-11.82-10.27-12.11Z" style="fill:#212121;"/><path d="M138.27,159.56h-.15c.22-5.28-1.84-6.97-4.48-7.12-4.48-.22-8.15-.29-12.4-.22-.15.88-.22,4.04-.22,5.87-.07,10.57-.07,22.53,0,28.7.07,6.68,1.4,7.85,6.39,8.37v.15c-4.84,0-7.19-.37-9.61-.37-.81,0-4.55.37-6.53.37v-.15c2.79-.51,4.33-.59,4.4-7.34.07-6.6,0-22.24-.07-29.94,0-1.54-.07-4.77-.22-5.65-3.52-.07-8.81.07-11.08.22-5.8.29-6.09,1.69-6.68,7.05h-.15c-.07-1.32-.15-6.09-.07-7.12.15-2.57.37-2.64,2.86-2.64s7.92.51,18.35.51c8.59,0,16.22-.51,19.01-.51,1.4,0,1.54.51,1.54,1.61,0,3.45-.59,6.46-.88,8.22Z" style="fill:#212121;"/><path d="M143.47,195.38c5.72-1.25,5.28-2.79,5.43-8.29.07-2.5.15-10.71.15-13.21,0-5.72-.07-13.28-.15-15.78-.22-6.97-.81-7.85-4.92-8.22v-.15c2.42.15,5.36.22,8.22.22,1.91,0,3.96-.22,5.87-.22v.15c-3.6.51-3.52,2.5-3.74,8.22-.15,4.26-.15,7.49-.15,12.48,3.01.07,8.95.22,12.26.22,7.56,0,11.89-.15,13.72-.29,0-5.21-.07-10.2-.15-12.4-.22-6.97-.51-7.78-4.48-8.22v-.15c2.57,0,5.06.37,8.07.37,1.91,0,4.11-.37,5.8-.37v.15c-4.11.51-3.52,1.61-3.89,8.22-.22,4.26-.22,10.57-.22,13.65,0,3.52.15,13.36.22,16.59.15,5.14,1.03,6.31,5.94,6.83v.15c-2.06-.07-4.11-.37-6.53-.37-3.67,0-7.71.29-10.42.44v-.15c5.06-.66,5.36-1.54,5.5-8.37.07-2.42.15-12.26.15-15.12-1.84.59-4.33,1.1-11.89,1.39-4.84.15-10.93.15-14.09,0,0,2.94.15,12.48.22,14.9.22,5.5.29,6.82,5.58,7.12v.15c-4.33,0-7.19-.44-10.57-.37-1.76,0-3.6.22-5.94.59v-.15Z" style="fill:#212121;"/><path d="M223.53,196.33c-14.02,0-24.29-6.83-24.88-22.75-.51-14.38,10.49-24.88,25.54-24.88s23.34,11.01,23.34,22.68c0,14.16-10.27,24.95-24,24.95ZM204.74,172.4c0,12.92,7.19,22.38,18.79,22.38s18.13-8.51,18.13-19.89c0-12.04-6.17-24.81-20.18-24.44-11.3.29-16.73,9.39-16.73,21.94Z" style="fill:#212121;"/><path d="M276.36,195.89c-5.87,0-10.57-1.03-13.21-1.03-1.1,0-5.65.37-8.59.44v-.15c5.87-.59,5.8-2.42,6.02-9.98.07-2.5.15-11.08.15-13.58,0-5.72-.07-12.18-.15-14.68-.15-5.43-1.47-6.68-5.36-7.05v-.15c1.83.15,5.87.37,7.7.37,2.57,0,9.91-.37,12.62-.37,16.44,0,25.61,8.44,25.61,22.75,0,13.28-9.76,23.41-24.81,23.41ZM275.77,151.49c-5.14-.44-9.39-.15-10.64-.07,1.03,2.42.73,8.29.73,23.93,0,7.41.22,12.77.29,15.26.07,1.83.15,1.91,1.47,2.42,1.98.73,4.84,1.39,8.88,1.39,12.92,0,18.93-9.91,18.93-21.5,0-13.36-8.73-20.55-19.67-21.43Z" style="fill:#212121;"/><path d="M334.4,196.33c-14.02,0-24.29-6.83-24.88-22.75-.51-14.38,10.49-24.88,25.54-24.88s23.34,11.01,23.34,22.68c0,14.16-10.27,24.95-24,24.95ZM315.62,172.4c0,12.92,7.19,22.38,18.79,22.38s18.13-8.51,18.13-19.89c0-12.04-6.16-24.81-20.18-24.44-11.3.29-16.73,9.39-16.73,21.94Z" style="fill:#212121;"/><path d="M410.35,189.72c0,3.67.15,5.87.15,7.12-1.1-1.47-3.3-4.11-4.04-4.84-3.96-4.26-8.88-9.1-16.51-16.81-7.05-7.12-12.7-12.7-15.78-15.56.07,5.65.22,20.7.66,30.97.15,2.57,1.47,4.04,5.87,4.55v.15c-2.93,0-6.38-.44-7.78-.44-1.25,0-3.82.44-5.8.44v-.15c2.64-.51,3.6-.95,3.89-4.7.59-8.15.73-20.7.73-26.71v-9.54c0-2.13-.29-3.89-.59-4.92,1.32.22,2.28,1.76,4.18,3.67,3.45,3.45,10.49,10.64,16.88,17.03,6.38,6.38,11.82,11.6,15.78,15.26,0-8.66.15-18.13-.37-28.33-.29-5.36-1.17-6.53-5.36-7.05v-.15c1.98,0,5.72.37,7.05.37,1.1,0,3.15-.37,5.14-.37v.15c-2.57.44-3.16,2.57-3.3,5.94-.15,3.89-.44,12.04-.59,21.87-.07,3.89-.22,6.24-.22,12.04Z" style="fill:#212121;"/><path d="M461.2,159.56h-.15c.22-5.28-1.84-6.97-4.48-7.12-4.48-.22-8.15-.29-12.4-.22-.15.88-.22,4.04-.22,5.87-.07,10.57-.07,22.53,0,28.7.07,6.68,1.4,7.85,6.39,8.37v.15c-4.84,0-7.19-.37-9.61-.37-.81,0-4.55.37-6.53.37v-.15c2.79-.51,4.33-.59,4.4-7.34.07-6.6,0-22.24-.07-29.94,0-1.54-.07-4.77-.22-5.65-3.52-.07-8.81.07-11.08.22-5.8.29-6.09,1.69-6.68,7.05h-.15c-.07-1.32-.15-6.09-.07-7.12.15-2.57.37-2.64,2.86-2.64s7.92.51,18.35.51c8.59,0,16.22-.51,19.01-.51,1.4,0,1.54.51,1.54,1.61,0,3.45-.59,6.46-.88,8.22Z" style="fill:#212121;"/><path d="M477.34,187.45c.22,7.34,1.39,7.05,5.28,7.71v.15c-2.64,0-6.02-.44-8.15-.44s-4.99.44-7.34.44v-.15c3.01-.66,4.55-.44,4.7-7.71.07-2.5.15-11.08.15-13.58,0-5.72-.07-13.28-.15-15.78-.22-7.63-1.47-7.63-4.7-8.22v-.15c1.47,0,5.5.44,7.63.44,1.1,0,4.4-.37,6.6-.44v.15c-2.93.66-4.04.81-4.18,8.22-.07,2.2-.15,10.64-.15,15.7,0,2.57.22,11.16.29,13.65Z" style="fill:#212121;"/><path d="M532.16,158.02c-.29,1.54-.66,3.23-1.03,4.62h-.15c-.37-8.44-7.12-12.48-15.92-12.48-10.49,0-18.93,7.34-18.57,22.16.37,15.78,9.76,22.31,20.47,22.31,9.91,0,14.02-4.84,15.05-11.89h.15c.37,8-.88,10.71-3.37,11.82-1.62.73-4.7,1.83-12.04,1.83-16.14,0-26.13-9.25-26.13-23.26s8.81-24.44,24.73-24.44c8.15,0,11.82,1.39,14.31,2.71,2.42,1.32,3.08,3.67,2.5,6.6Z" style="fill:#212121;"/><path d="M542.79,183.27h.15c-.44,6.82,3.67,11.74,10.49,11.74,5.94,0,10.2-3.74,10.2-8.95,0-6.09-4.04-8.66-10.71-11.96-5.43-2.72-9.83-6.83-9.69-14.09.15-6.75,5.5-11.3,13.5-11.3,7.34,0,8.95,2.35,8.95,5.87,0,1.03-.37,3.52-.66,4.7h-.15c-.44-4.26-3.38-9.17-9.1-9.17-4.84,0-8.59,3.01-8.59,8.29s3.6,8.22,8.07,10.49c9.1,4.62,12.84,8.51,12.62,15.48-.22,7.34-6.75,12.04-14.97,12.04-7.7,0-11.08-2.5-11.3-5.94-.15-2.42.44-5.06,1.17-7.19Z" style="fill:#212121;"/></svg>