<?xml version="1.0" encoding="UTF-8"?>
<svg id="Layer_1" data-name="Layer 1" xmlns="http://www.w3.org/2000/svg" viewBox="0 0 716.7 232.75">
  <defs>
    <style>
      .cls-1 {
        fill: #023047;
      }
    </style>
  </defs>
  <g>
    <path class="cls-1" d="M111.08,145.68c-.28-3.84,1.79-8.75.82-12.43l-8.55,3.01c-1.45,5.63-3.32,11.08-7.64,15.38-.27-4.72,1.23-8.4.59-13.03-10.53,3.14-20.79,5.8-31.57,7.5-.62.1-1.03.64-1.12.93-.1.32.17.97.54,1.51,10.83,15.79,19.17,32.71,24.29,51.21,2.25,8.14,4.95,20.45.3,27.67-1.2,1.87-3,2.95-4.83,3.12-2.11.2-3.83-.77-5.4-2.45-5.84-6.24.77-17.28-5.47-38.22-2.44-8.2-5.64-15.89-10.39-23.02l-12.44-18.67c-13.27-.25-20.58.16-33.4-3.6-3.2-.94-6.56-1.82-8.88-4.59,13.85,4.13,24.88,6.36,39.77,4.45-6.15-10.8-12.83-21.84-13.66-33.62-.54-7.79,4.12-13.69,11.44-15.81,5.37-1.56,10.74-1.86,16.31-2.17l13.38-.74c6.08-.33,11.91-1.57,17.5-3.96s8.85-6.37,10.65-11.63c1.55,14.72-12.41,20.96-23.95,23.5l-13.11,2.88c-6.89,1.51-15.14,3.91-17.49,11.3s6.23,20.25,10.16,26.65c1,1.62,1.83,2.49,4.06,2.06,11.08-2.1,21.6-4.94,32.56-8.79-.27-5.35-3.93-9.23-8.51-11.68,2.39-1.12,4.63.04,6.91.59,4.41,1.07,7.22,4.07,9.25,8.09,3.22-.96,5.55-1.95,8.31-3.24-.27-4.99-3.39-8.94-7.95-11.88,2.15-1.17,4.2.05,6.37.63,4.12,1.11,7.09,3.81,8.91,8,10.27-4.29,19.73-9.26,29.49-14.77.88-2.09-.38-4.57-1-6.7-1.8-6.13-6.23-11.05-12.69-12.1-10.71-1.73-22.97,2.97-32.4,8.04-2.8,1.5-5.38,2.99-8.22,4.31-4.23,1.97-7.78,4.83-12.77,5.64,4.23-3.88,9.28-5.72,13.73-9.16,11.21-8.68,23.07-17.48,37.34-19.98,1.57-.28,3.13.06,4.67-.26l27.53-5.84c8.73-1.85,17.01-4.12,25.19-7.5,5.42-2.24,9.99-5.16,14.76-8.49l23.43-16.41c10.68-7.48,20.58-15.23,29.89-24.34,2.22-2.18,4.77-3.68,6.85-5.94,1.2-1.3,2.72-1.67,4.25-.67l6.18,4.06c5.24-2.8,7.67-9.58,13.37-12.06,4.05-1.76,7.93,4.83,10.79,7.23,1.92,1.61,4.97,1.67,6.68,3.52,5.87,6.37,9.52,14.63,15.73,19.35,1.52,1.16,2.43,3.01,4.28,3.87,14.75,6.9,13.8,11.91,24.33,20.12l14.79,11.53c15.94,12.43,11.82,24.18,42.89,29.37,1.16.61.28,1.93-1.11.98-13.71-.41-21.03-.68-30.19-10.91-13.31-14.86-21.74-17.72-36.94-28.45-12.49-8.82-18.5-19.13-28.72-25.57-11.42-7.2-15.68-10.13-30.06-8.49-3.27.37-14.42,3.45-17.42,5.66-2.81,2.07-5.48,4.04-8.16,6.23-2.49,2.04-4.63,4.27-7.4,6.02-8.49,5.38-17.05,10-25.94,14.73l-20.77,11.05c-8.71,4.63-17.3,9.08-26.94,11.3l-15.64,3.61c-2.9.67-5.67.6-8.37,2.2,4.58,5.35,6.5,10.78,8.28,18.05,13.1-8.5,25.84-15.44,39.12-22.56,10.63-5.7,16-11.74,30.1-18.49,5.04-2.42,9.64-5.34,15.01-7.13,2.56-.85,4.67-2.71,7.65-2.45l-44.89,27.75-20.69,12.09-25.57,16.19c.54,8.94.35,17.26-.48,26.15l-2.13,23.02-1.67,26.09c-.58,9.09-.8,24.62-4.96,32.32-1.38,2.54-3.6,3.47-6.49,3.19-7.67-.72-9.37-7.79-10.11-14.52l-1.66-15.14c-.8-7.29-2.33-14.06-6.19-20.96-1.48,4.83-4.71,8.42-8.55,10.24-7.5,3.54-17.12,1.01-20.52-7.51,10.42,5.46,23,3.52,28.77-7.42,9.34,1.48,11.79,29.87,17.25,37.52,1.88-3.19,2.18-6.19,2.58-9.5,2.27-19.16,3.66-37.94,4.12-57.23.16-6.75.95-12.83.06-20.07-10.2,5.8-19.84,10.38-30.19,14.9-1.75,5.57-3.76,11.16-8,15.33Z"/>
    <path class="cls-1" d="M619.5,70.87l-13.55,3.59c-5.15,1.36-10.27,2.04-15.67,2.56-5.64.54-18.68-3.33-23.81-5.53-10.24-4.39-18.71-11.93-24.92-21.03-2.06-3.02-4.8-5.04-8.74-4.31-3.41.63-6.56,2.25-9.27,4.38l-9.39,7.36c-5.18,4.06-10.83,7.08-16.48,10.54-19.99,12.27-21.14,19.59-35.63,30.54-.66.5-1.53.71-2,.63-.61-.1-1.86-1.48-1.14-2.12,4.15-3.68,8.11-7.11,12.05-11.03l16.69-16.62c1.26-1.25,2.89-1.86,3.75-3.38-5.65-2.55-12.15-1.74-17.64-5.06-11.96-7.25-18.84-26.88-37.31-22.12-8.27,2.13-16.22-1.03-24.42,5.07l-10.49,7.8c-3.07,2.28-29.27,18.18-31.29,12-1.73-5.28,14.37-7.86,18.98-10.43,7.28-4.06,14.4-12.55,22.41-18.38s15.44-11.14,23.87-16.05c3.06-1.78,12,7.13,14.47,9.38,1.86,1.7,4.01,2.83,6.57,3.14,4.85.57,8.44,3.75,9.38,8.64,2.09,10.87,10.64,14.66,20.91,16.84l14.05,2.99c7.64-4,13.44-9.48,19.31-15.31,8.28-8.23,21.4-6.55,27.9,2.77,7.49,10.75,13.47,19.58,27.28,23.09,5.7,1.45,14.64,3.82,20.1,2.35,4.8-1.3,14.12-6.97,17.87-6.72,2.56.17,4.77.65,7.38.31,14.21-1.87,11.86.5,23.48,4.64,11.1,3.95,22.88-3.37,31.96,9.34,5.98,8.37,4.24,10.11,13.5,17.05,6.07,4.55,12.44,8.17,18.82,12.13.53.43.26.73,0,.74-4.3.26-13.49-5.68-17.68-8.76-12.99-9.54-11.21-12.61-19.97-22.15-1.71-1.87-3.77-3.04-6.39-3.16l-11.64-.54c-13.8-.64-17.69-9.29-33.3-5.15Z"/>
    <path class="cls-1" d="M312.08,58.31c-2.24,1.37-4.7.55-7.39.7-1.92-3.91-13.53-15.51-13.33-17.8.14-1.68,4.51-1.72,7.39.68s5.01,5.01,7.16,7.86l6.18,8.56ZM534.21,54.85c-8.1,6.62-16.16,12.48-24.74,18.29-.6.41-.67,1.07-.52,1.36s3.49.88,5.94,1.47c3.67-2.56,22.4-16.49,19.33-21.12ZM270.93,56.5c2.63-2.77,3.83-6.42,5.01-9.86-4.96.34-16.16,7.81-20.04,10.68.16,2.68,4.86.99,8.3,2.67,2.19-1.78,5.05-1.7,6.73-3.48ZM597.48,88.62c4.5,1.48,8.36.4,12.61.63,1.36-6.51,6.95-8.49,12.71-10.35-6.62-2.73-20.27,3.64-25.32,9.72ZM634.13,77.31c-6.87,1.07,7.79,13.36,10.51,15.15.91.6,6.14-.8,6.42-1.97.4-1.67-4.13-3.68-8.57-7.07-2.75-2.09-5.24-4.35-8.35-6.12ZM418.19,55.99c2.74,1.25,5.05.48,7.9.8,4.07-3.35,6.56-6.36,7.89-12.35-3.42.48-13.26,8.13-15.79,11.55ZM314.14,48.86c-.98-.43-1.84.32-1.32,1.3,2.73,4.74,4.03,4.86,4.71,10.26l7.26.75c5.79.59-9.92-12.22-10.65-12.31Z"/>
  </g>
  <g>
    <path class="cls-1" d="M189.26,137.21c0,10.85,1.3,12.69,8.57,12.69v2.17h-21.15v-2.17c7.27,0,8.57-1.84,8.57-12.69v-17.35c0-10.84-1.3-12.58-8.57-12.58v-2.17h16.27l16.16,36.22,16.05-36.22h15.18v2.17c-7.27,0-8.68,1.74-8.68,12.58v17.35c0,10.85,1.41,12.69,8.68,12.69v2.17h-24.84v-2.17c7.27,0,8.57-1.84,8.57-12.69v-20.28l-16.38,36.98h-1.52l-16.92-38.39v21.69Z"/>
    <g>
      <path class="cls-1" d="M252.63,144.41c-2.06,4.85-2.06,6.25,4.44,6.25v1.73h-15.54v-1.73c5.02,0,5.76-.99,8.47-7.15l12.09-28.12h1.15l12.08,28.12c2.71,6.17,3.7,7.15,8.06,7.15v1.73h-18.42v-1.73c5.92,0,6.5-1.4,4.44-6.25l-1.64-3.78h-13.48l-1.64,3.78ZM261.01,125.01l-5.43,12.58h10.85l-5.43-12.58Z"/>
      <path class="cls-1" d="M306.15,150.74v1.64h-18.83v-1.64c5.51,0,6.5-1.4,6.5-9.62v-13.15c0-8.22-.99-9.54-6.5-9.54v-1.64h17.02c8.47,0,13.15,4.36,13.15,10.19s-4.69,10.11-13.15,10.11h-4.69v4.03c0,8.22.99,9.62,6.49,9.62ZM304.34,119.75h-4.69v14.3h4.69c4.6,0,6.74-3.21,6.74-7.07s-2.14-7.23-6.74-7.23Z"/>
      <path class="cls-1" d="M323.82,118.43v-1.64h18.83v1.64c-5.51,0-6.49,1.32-6.49,9.54v11.84c0,8.22.99,9.54,6.49,9.54h2.88c7.56,0,8.55-1.4,9.54-5.26l.41-1.64h1.73l-.58,9.95h-32.8v-1.64c5.51,0,6.5-1.4,6.5-9.62v-13.15c0-8.22-.99-9.54-6.5-9.54Z"/>
      <path class="cls-1" d="M389.59,144.08l.41-1.64h1.64l-.66,9.95h-30.75v-1.64c5.51,0,6.5-1.4,6.5-9.62v-13.15c0-8.22-.99-9.54-6.5-9.54v-1.64h28.77l.66,9.87h-1.73l-.41-1.64c-.9-3.78-1.97-5.26-9.45-5.26h-5.51v12.25h.49c8.22,0,8.88-.99,8.88-6.49h1.64v16.03h-1.64c0-5.43-.66-6.5-8.88-6.5h-.49v4.77c0,8.22.99,9.54,6.49,9.54h.99c7.48,0,8.55-1.4,9.54-5.26Z"/>
    </g>
    <path class="cls-1" d="M451.67,140.05c4.37,5.13,9.39,9.39,14.63,10.16v2.18h-13.98l-14.85-20.31h-3.06v5.35c0,10.92,1.31,12.78,8.62,12.78v2.18h-25v-2.18c7.32,0,8.63-1.86,8.63-12.78v-17.47c0-10.92-1.31-12.67-8.63-12.67v-2.18h22.6c11.25,0,17.47,5.79,17.47,13.54,0,6.66-5.02,12.12-13.21,13.21l6.77,8.19ZM440.65,109.04h-6.22v19h6.22c6.11,0,8.95-4.26,8.95-9.39s-2.84-9.61-8.95-9.61Z"/>
    <g>
      <path class="cls-1" d="M470.16,152.5v-1.66c5.57,0,6.57-1.41,6.57-9.73v-13.3c0-8.31-1-9.64-6.57-9.64v-1.66h19.04v1.66c-5.57,0-6.57,1.33-6.57,9.64v13.3c0,8.31,1,9.73,6.57,9.73v1.66h-19.04Z"/>
      <path class="cls-1" d="M496.93,150.83c5.57,0,6.57-1.41,6.57-9.73v-13.3c0-8.31-1-9.64-6.57-9.64v-1.66h17.62c14.13,0,20.28,8.15,20.28,17.96s-6.15,18.04-20.28,18.04h-17.62v-1.66ZM514.81,119.49h-5.4v23.61c0,5.4.58,6.32,4.74,6.32h.66c10.97,0,13.13-8.31,13.13-14.96s-2.16-14.96-13.13-14.96Z"/>
      <path class="cls-1" d="M563.02,153.91c-10.39,0-18.79-8.73-18.79-19.45s8.4-19.37,18.79-19.37c3.99,0,8.48,2.33,10.97,5.49.58-.67,1.16-2.74,1.5-4.07h1.58v14.38h-1.66c-1.58-7.73-5.98-12.64-12.39-12.64-9.31,0-12.22,9.23-12.22,16.21s2.91,16.21,12.22,16.21c4.16,0,10.56-2.58,10.56-7.07,0-3.33-3.08-5.07-7.15-5.07v-1.66h18.37v1.66c-5.57,0-6.57,1.41-6.57,9.73v2.49c-5.24,0-10.39,3.16-15.21,3.16Z"/>
      <path class="cls-1" d="M619.39,144.1l.42-1.66h1.66l-.66,10.06h-31.09v-1.66c5.57,0,6.57-1.41,6.57-9.73v-13.3c0-8.31-1-9.64-6.57-9.64v-1.66h29.1l.67,9.98h-1.75l-.42-1.66c-.91-3.82-1.99-5.32-9.56-5.32h-5.57v12.39h.5c8.31,0,8.98-1,8.98-6.57h1.66v16.21h-1.66c0-5.49-.67-6.57-8.98-6.57h-.5v4.82c0,8.31,1,9.64,6.57,9.64h1c7.56,0,8.65-1.41,9.64-5.32Z"/>
    </g>
  </g>
  <g>
    <path class="cls-1" d="M270.55,187.87c0,11.55-9.03,20.63-20.69,20.63s-20.74-9.47-20.74-20.47c0-11.71,9.09-20.8,20.41-20.8,11.93,0,21.02,8.92,21.02,20.63ZM233.22,188.03c0,9.69,7.66,16.64,16.53,16.64s16.69-7.01,16.69-16.86-7.99-16.75-16.69-16.75-16.53,6.9-16.53,16.97Z"/>
    <path class="cls-1" d="M280.23,182.67c2.19-3.17,4.54-4.98,7.5-4.98,1.7,0,2.57.55,3.34.98l-1.97,3.17c-.44-.22-1.15-.55-1.97-.55-2.74,0-5.2,2.35-6.29,6.35-.49,1.86-.6,4.87-.6,8.81v11.06h-3.94v-29.06h3.94v4.21Z"/>
    <path class="cls-1" d="M297.58,167.62h3.72v10.84h5.97v3.28h-5.97v25.78h-3.72v-25.78h-5.14v-3.28h5.14v-10.84Z"/>
    <path class="cls-1" d="M312.79,167.23h3.72v16.42c3.01-3.94,6.57-5.97,10.89-5.97,6.29,0,10.73,4.43,10.73,13.14v16.69h-3.72v-15.82c0-6.84-2.08-10.62-7.72-10.62-3.12,0-5.69,1.37-7.66,3.94-2.13,2.79-2.52,5.64-2.52,10.29v12.21h-3.72v-40.28Z"/>
    <path class="cls-1" d="M375.13,193.07c0,8.26-6.4,15.21-15.16,15.21s-15.16-6.95-15.16-15.21,6.46-15.38,15.16-15.38,15.16,7.06,15.16,15.38ZM348.64,193.12c0,6.35,4.76,11.55,11.33,11.55s11.33-5.2,11.33-11.55-5.15-11.82-11.33-11.82-11.33,5.36-11.33,11.82Z"/>
    <path class="cls-1" d="M407.36,202.54c-3.17,3.83-7.17,5.69-11.71,5.69-8.48,0-14.89-7.06-14.89-15.32s6.57-15.22,15-15.22c4.71,0,8.7,2.02,11.6,6.07v-16.53h3.72v40.28h-3.72v-4.98ZM384.6,193.01c0,6.29,4.93,11.82,11.44,11.82,5.97,0,11.55-4.49,11.55-11.71,0-6.73-4.98-11.82-11.49-11.82s-11.49,5.47-11.49,11.71Z"/>
    <path class="cls-1" d="M448.46,193.07c0,8.26-6.4,15.21-15.16,15.21s-15.16-6.95-15.16-15.21,6.46-15.38,15.16-15.38,15.16,7.06,15.16,15.38ZM421.97,193.12c0,6.35,4.76,11.55,11.33,11.55s11.33-5.2,11.33-11.55-5.15-11.82-11.33-11.82-11.33,5.36-11.33,11.82Z"/>
    <path class="cls-1" d="M459.08,183.65c3.01-3.94,6.62-5.97,10.89-5.97,6.35,0,10.78,4.38,10.78,13.52v16.31h-3.72v-15.82c0-6.84-2.13-10.62-7.77-10.62-3.12,0-5.69,1.37-7.66,3.94-2.19,2.85-2.52,5.69-2.52,10.29v12.21h-3.72v-29.06h3.72v5.2Z"/>
    <path class="cls-1" d="M492.08,167.62h3.72v10.84h5.97v3.28h-5.97v25.78h-3.72v-25.78h-5.14v-3.28h5.14v-10.84Z"/>
    <path class="cls-1" d="M511.72,169.53c0,1.7-1.42,3.12-3.12,3.12s-3.07-1.42-3.07-3.12,1.42-3.06,3.07-3.06,3.12,1.37,3.12,3.06ZM506.8,178.45h3.72v29.06h-3.72v-29.06Z"/>
    <path class="cls-1" d="M546.48,201.66c-2.85,4.32-7.77,6.57-13.63,6.57-9.58,0-15.98-6.9-15.98-15,0-8.54,6.68-15.54,16.25-15.54,5.58,0,10.67,2.3,13.36,6.79l-3.01,1.86c-2.57-3.39-6.13-5.04-10.51-5.04-7.39,0-12.26,5.42-12.26,11.66s4.82,11.88,12.31,11.88c4.21,0,7.72-1.7,10.45-5.09l3.01,1.92Z"/>
    <path class="cls-1" d="M553.26,201.44c1.86,2.08,3.89,3.23,6.07,3.23,2.85,0,5.36-2.08,5.36-4.82,0-1.7-.98-3.28-2.41-4.05-6.68-3.72-10.07-5.31-10.07-10.4,0-4.6,3.56-7.72,7.99-7.72,3.17,0,5.58,1.53,8.05,3.94l-2.41,2.46c-1.75-1.7-3.5-2.79-5.86-2.79s-4.38,1.7-4.38,3.89c0,1.48.93,3.12,2.24,3.89,6.68,3.89,10.4,5.36,10.4,10.62,0,4.54-3.5,8.59-8.76,8.59-3.23,0-6.51-1.48-8.59-4.16l2.35-2.68Z"/>
  </g>
</svg>