<?xml version="1.0" encoding="UTF-8"?><svg id="Layer_1" xmlns="http://www.w3.org/2000/svg" viewBox="0 0 4151.15 1172.87"><path d="M1479.36,659.84l-138.45-407.75h156.18l50.65,167.15c7.6,23.64,13.51,47.28,17.73,68.38,4.22-20.26,9.29-42.21,16.88-68.38l48.96-167.15h159.55l-137.61,407.75h-173.91Z" style="fill:#009abf;"/><path d="M1979.95,659.84h-157.87V252.09h157.87v407.75Z" style="fill:#009abf;"/><path d="M2054.22,96.76h157.87v192.48c40.52-35.46,70.91-48.12,115.66-48.12,102.99,0,173.08,86.11,173.08,211.9s-75.16,217.8-176.46,217.8c-48.96,0-84.42-16.88-120.72-58.25v47.28h-149.42V96.76ZM2206.17,454.7c0,60.78,25.33,95.4,68.38,95.4s68.38-34.61,68.38-94.55-25.33-93.71-68.38-93.71-68.38,35.46-68.38,92.86Z" style="fill:#009abf;"/><path d="M2705.08,252.09v56.56c36.3-46.43,73.45-67.54,120.72-67.54,16.04,0,27.01,1.69,48.96,8.44v140.98c-31.24-11.82-43.05-14.35-63.32-14.35-59.94,0-97.93,37.99-97.93,97.93v185.73h-157.87V252.09h149.42Z" style="fill:#009abf;"/><path d="M2918.66,398.98c4.22-48.96,16.04-77.67,41.37-103.84,35.46-34.61,93.71-54.03,167.15-54.03,63.32,0,113.97,13.51,151.96,41.37,36.3,27.01,52.34,65,52.34,124.94v191.63c0,30.39,2.53,43.05,12.66,60.78h-152.8c-6.75-14.35-10.13-23.64-13.51-41.37-52.34,39.68-85.26,52.34-135.92,52.34-84.42,0-141.83-48.12-141.83-119.03s37.15-106.37,113.97-121.57l118.19-22.79c31.24-5.91,44.74-15.2,44.74-30.39,0-21.11-21.11-34.61-53.18-34.61-37.99,0-60.78,18.57-60.78,50.65v5.91h-144.36ZM3111.98,500.29q-36.3,11.82-45.59,16.88c-10.13,5.91-15.2,15.2-15.2,26.17,0,21.11,17.73,34.61,44.74,34.61,48.96,0,83.58-32.92,83.58-79.36v-21.95l-67.54,23.64Z" style="fill:#009abf;"/><path d="M3555.17,252.09v48.12c34.61-42.21,69.22-59.09,120.72-59.09,43.9,0,81.04,13.51,108.9,40.52,30.39,28.7,43.9,68.38,43.9,124.94v253.26h-157.87v-222.03c0-41.37-18.57-63.32-53.18-63.32s-54.03,22.79-54.03,63.32v222.03h-157.87V252.09h149.42Z" style="fill:#009abf;"/><path d="M4151.15,350.86h-73.45v151.11c0,34.61,12.66,48.96,42.21,48.96,12.66,0,21.95-1.69,31.24-5.07v107.21c-33.77,8.44-60.78,12.66-86.95,12.66-46.43,0-83.58-14.35-109.75-41.37-24.48-25.33-34.61-60.78-34.61-116.5v-157.02h-59.94v-98.77h59.94v-121.57h157.87v121.57h73.45v98.77Z" style="fill:#009abf;"/><path d="M1630.3,881.37c0,46.55-31.81,80.45-75.32,80.45s-75.29-33.91-75.29-81.61,31.33-81.39,75.07-81.39,75.54,33.68,75.54,82.55ZM1502.37,880.2c0,36.94,21.29,62.2,52.61,62.2s52.61-25.26,52.61-61.26c0-37.9-21.04-62.93-52.61-62.93s-52.61,25.26-52.61,61.99Z" style="fill:#e81f76;"/><path d="M1761.31,958.3h-22.2v-156h63.61c20.33,0,31.1,2.81,40.68,10.54,9.35,7.48,14.26,18.94,14.26,32.97,0,17.77-7.48,29.71-24.07,38.13,12.39,5.61,17.29,14.49,18.46,32.97l.94,13.1c1.19,14.97,3.06,21.74,7.73,28.29h-27.13c-1.87-6.55-2.35-10.06-3.51-28.29l-1.16-11.45c-1.41-15.9-10.29-24.57-25.03-24.57h-42.58v64.32ZM1798.51,875.75c11.93,0,20.12-2.1,26.19-6.55,6.32-4.68,10.29-12.87,10.29-21.74,0-16.15-11-25.74-29.23-25.74h-44.45v54.03h37.19Z" style="fill:#e81f76;"/><path d="M2040.41,958.3h-22.22v-136.58h-48.64v-19.42h119.51v19.42h-48.64v136.58Z" style="fill:#e81f76;"/><path d="M2220.06,886.75v71.55h-22.2v-156h22.2v65.03h78.35v-65.03h22.22v156h-22.22v-71.55h-78.35Z" style="fill:#e81f76;"/><path d="M2580.06,881.37c0,46.55-31.81,80.45-75.29,80.45s-75.32-33.91-75.32-81.61,31.35-81.39,75.07-81.39,75.54,33.68,75.54,82.55ZM2452.13,880.2c0,36.94,21.29,62.2,52.64,62.2s52.61-25.26,52.61-61.26c0-37.9-21.06-62.93-52.61-62.93s-52.64,25.26-52.64,61.99Z" style="fill:#e81f76;"/><path d="M2688.87,802.31h56.13c25.49,0,43.26,7.96,54.94,25.03,9.35,13.58,14.05,30.64,14.05,51.45,0,49.12-26.9,79.51-70.64,79.51h-54.49v-156ZM2738.91,938.89c35.32,0,52.39-19.17,52.39-59.39,0-18-3.26-30.87-10.06-40.93-7.94-11.68-20.58-16.84-40.91-16.84h-29.23v117.16h27.81Z" style="fill:#e81f76;"/><path d="M3073.42,881.37c0,46.55-31.81,80.45-75.32,80.45s-75.29-33.91-75.29-81.61,31.33-81.39,75.07-81.39,75.54,33.68,75.54,82.55ZM2945.49,880.2c0,36.94,21.29,62.2,52.61,62.2s52.61-25.26,52.61-61.26c0-37.9-21.04-62.93-52.61-62.93s-52.61,25.26-52.61,61.99Z" style="fill:#e81f76;"/><path d="M3282.55,958.3l-63.84-98.45c-7.71-12.16-12.41-19.87-16.15-26.9.48,7.03.71,21.74.71,29.48v95.87h-21.04v-156h22.68l61.26,94.96c5.86,8.88,13.8,22.91,18.48,32.26-.46-8.65-.68-18.23-.68-29.23v-97.06h21.04v155.06h-22.45Z" style="fill:#e81f76;"/><path d="M3484.69,958.3h-22.22v-136.58h-48.64v-19.42h119.51v19.42h-48.64v136.58Z" style="fill:#e81f76;"/><path d="M3664.37,958.3h-22.22v-156h22.22v156Z" style="fill:#e81f76;"/><path d="M3887.99,851.2c-4.65-20.58-20.33-32.99-41.85-32.99-29.94,0-49.58,24.32-49.58,61.06s19.64,63.13,48.87,63.13c24.32,0,41.16-16.36,44.67-43.49h22.45c-1.87,15.42-5.38,25.26-13.35,36.23-12.85,17.77-30.85,26.67-54.26,26.67s-41.62-8.9-54.71-26.67c-11.23-15.2-17.07-34.13-17.07-55.42,0-47.48,30.16-80.91,72.97-80.91,33.2,0,56.81,18.71,63.61,50.26l-21.77,2.12Z" style="fill:#e81f76;"/><path d="M4122.86,850.5c-2.33-21.52-15.2-32.03-38.81-32.03-20.83,0-34.16,8.88-34.16,22.45,0,11.45,8.19,18.23,28.06,22.68l25.26,5.61c18.48,4.2,27.84,8.19,35.32,14.97,8.19,7.26,12.62,17.77,12.62,29.94,0,29.46-23.84,47.71-61.74,47.71-40.45,0-64.78-20.58-68.04-58h23.14c2.35,24.78,18.71,38.58,45.61,38.58,22.45,0,38.35-11,38.35-26.65,0-11.7-8.42-19.42-24.78-23.39l-35.09-8.42c-28.52-6.8-41.39-19.42-41.39-40.48,0-27.36,22.68-44.65,58.46-44.65s54.96,16.59,59.87,51.68h-22.68Z" style="fill:#e81f76;"/><path d="M1990.12,79.27l-47.08-1.12,24.25-39.88c7.23-11.88,3.45-27.37-8.43-34.6-11.88-7.23-27.37-3.45-34.6,8.43l-28.35,46.62-31.82-40.09c-8.65-10.89-24.49-12.72-35.38-4.07-10.89,8.65-12.72,24.49-4.07,35.38l20.53,25.87-32.05-.77c-13.9-.33-25.44,10.67-25.78,24.57-.33,13.9,10.67,25.44,24.57,25.78l42.82,1.02-22.47,36.96c-7.23,11.88-3.45,27.37,8.43,34.6,11.88,7.23,27.38,3.45,34.6-8.43l26.09-42.9,33.31,41.97c8.65,10.89,24.49,12.72,35.38,4.07,10.89-8.65,12.72-24.49,4.07-35.38l-22.68-28.58,37.45.89c13.9.33,25.45-10.67,25.78-24.57.33-13.9-10.67-25.45-24.57-25.78Z" style="fill:#ff9e18;"/><path d="M850.12,661.84l236.65-299.23c-16.39-39.66-37.39-76.91-62.31-111.15l-282.45,357.14c38.09,14,74.24,31.93,108.11,53.25Z" style="fill:#ff9e18;"/><path d="M851.19,662.51c46.57,29.45,88.82,65.14,125.19,106.24l117.11-11.34c14.4-38.52,24.42-79.13,29.69-121.24l-272,26.35Z" style="fill:#ff9e18;"/><path d="M543.06,573.08c46.34,0,91.3,5.78,134.51,16.11l209.15-469.99c-32.61-21.73-67.75-39.93-104.84-54.22l-205.65,462.14L389.01,66.97c-37.06,14.71-72.14,33.31-104.63,55.47l185.3,455.43c24.05-3.06,48.52-4.78,73.39-4.78Z" style="fill:#009abf;"/><path d="M374.12,598.39L164.9,233.81c-27.8,35.1-51.32,73.71-69.79,115.1l169.67,295.67c34.46-18.98,71.08-34.48,109.34-46.19Z" style="fill:#ff9e18;"/><path d="M252.02,651.99l-202.56-50.58c2.65,44.02,10.48,86.65,23.06,127.2l60.73,15.16c35.34-35.49,75.27-66.35,118.77-91.78Z" style="fill:#ff9e18;"/><path d="M543.06,651.63c-168.02,0-316.61,83.52-407.39,210.93,96.26,147.76,262.79,245.56,452.29,245.56,159.78,0,303.12-69.63,401.91-179.99-82.33-163.68-251.44-276.5-446.81-276.5Z" style="fill:#e81f76;"/><path d="M586.33,1172.87C263.03,1172.87,0,909.85,0,586.56S263.03.23,586.33.23s586.31,263.03,586.31,586.33-263.03,586.31-586.31,586.31ZM586.33,93.68c-271.77,0-492.88,221.11-492.88,492.88s221.11,492.86,492.88,492.86,492.86-221.09,492.86-492.86S858.1,93.68,586.33,93.68Z" style="fill:#7e57c5;"/></svg>