<?xml version="1.0" encoding="UTF-8"?><svg id="Layer_1" xmlns="http://www.w3.org/2000/svg" viewBox="0 0 766.98 335.95"><path d="M54.7,290.27c-2.32-2.43-5.08-4.39-8.14-5.77-3.2-1.42-6.68-2.12-10.18-2.07-3.45-.03-6.86.67-10.01,2.07-3.08,1.37-5.86,3.33-8.18,5.77-4.86,5.1-7.52,11.89-7.43,18.93-.05,3.57.61,7.11,1.93,10.42,1.35,3.16,3.26,6.04,5.63,8.52,2.33,2.43,5.11,4.39,8.18,5.77,3.21,1.4,6.68,2.08,10.18,2,3.5.04,6.96-.64,10.18-2,3.09-1.33,5.86-3.3,8.14-5.77,2.36-2.47,4.24-5.36,5.53-8.52,1.34-3.31,2.02-6.85,2-10.42.03-3.56-.65-7.09-2-10.38-1.36-3.21-3.34-6.12-5.84-8.55ZM49.58,317.99c-1.17,2.46-3.01,4.55-5.29,6.04-2.28,1.48-4.95,2.23-7.67,2.17-2.73.07-5.41-.69-7.7-2.17-2.22-1.52-4-3.61-5.16-6.04-1.29-2.75-1.95-5.75-1.93-8.79-.07-3.03.59-6.04,1.93-8.75,1.17-2.47,3-4.57,5.29-6.07,2.3-1.47,4.98-2.22,7.7-2.17,2.71-.05,5.38.71,7.67,2.17,2.29,1.5,4.12,3.6,5.29,6.07,1.31,2.73,1.97,5.73,1.93,8.75-.04,3.05-.75,6.04-2.07,8.79Z" style="fill:#fff;"/><path d="M117.17,308.8c3.7-5.43,4.06-12.47.95-18.26-1.45-2.36-3.6-4.22-6.14-5.33-2.82-1.3-5.89-1.94-8.99-1.87h-17.2v51.58h10.18v-19.34h2.44l14.66,19.44h12.49l-16.73-20.6c3.35-.86,6.3-2.85,8.35-5.63ZM107.23,305.03c-2.13,1.44-4.66,2.14-7.23,2h-4.28v-15.61h4.28c2.57-.15,5.11.57,7.23,2.04,1.75,1.37,2.71,3.52,2.58,5.73.13,2.25-.83,4.42-2.58,5.84Z" style="fill:#fff;"/><path d="M143.06,292.27h13.03v42.65h10.01v-42.65h12.93v-8.92h-35.97v8.92Z" style="fill:#fff;"/><path d="M235.3,304.62h-19.04v-21.28h-10.01v51.58h10.01v-21.38h19.04v21.38h9.94v-51.58h-9.94v21.28Z" style="fill:#fff;"/><path d="M312.7,290.27c-2.32-2.43-5.08-4.39-8.14-5.77-3.21-1.41-6.68-2.12-10.18-2.07-3.5-.06-6.98.65-10.18,2.07-3.08,1.37-5.86,3.33-8.18,5.77-4.85,5.1-7.53,11.89-7.47,18.93-.04,3.57.63,7.11,1.97,10.42,1.31,3.15,3.17,6.03,5.5,8.52,2.33,2.43,5.11,4.39,8.18,5.77,3.21,1.4,6.68,2.08,10.18,2,3.49.04,6.96-.64,10.18-2,3.08-1.35,5.85-3.32,8.14-5.77,2.36-2.47,4.24-5.36,5.53-8.52,1.34-3.31,2.02-6.85,2-10.42.03-3.56-.65-7.09-2-10.38-1.3-3.17-3.18-6.06-5.53-8.55ZM307.51,317.99c-1.21,2.44-3.03,4.52-5.29,6.04-4.73,2.89-10.68,2.89-15.41,0-2.22-1.53-3.99-3.61-5.16-6.04-1.35-2.73-2.02-5.74-1.97-8.79-.06-3.03.62-6.04,1.97-8.75,1.16-2.47,2.98-4.57,5.26-6.07,4.73-2.89,10.68-2.89,15.41,0,2.26,1.53,4.09,3.62,5.29,6.07,1.29,2.74,1.96,5.73,1.93,8.75-.01,3.04-.71,6.05-2.04,8.79Z" style="fill:#fff;"/><path d="M378.97,290.81c-4.8-4.9-11.4-7.6-18.26-7.47h-13.98v51.58h13.98c3.49.05,6.96-.62,10.18-1.97,3.04-1.26,5.81-3.1,8.14-5.43,2.36-2.31,4.22-5.09,5.46-8.14,1.33-3.23,1.99-6.69,1.93-10.18,0-3.49-.65-6.94-1.93-10.18-1.27-3.08-3.15-5.88-5.53-8.21ZM373.61,317.75c-1.34,2.45-3.29,4.51-5.67,5.97-2.52,1.4-5.36,2.11-8.25,2.04h-2.85v-33.32h2.85c2.9-.08,5.76.68,8.25,2.17,2.41,1.42,4.37,3.49,5.67,5.97,2.81,5.38,2.81,11.79,0,17.17Z" style="fill:#fff;"/><path d="M453.12,290.27c-2.32-2.43-5.08-4.39-8.14-5.77-3.21-1.41-6.68-2.12-10.18-2.07-3.45-.03-6.86.67-10.01,2.07-3.08,1.37-5.86,3.33-8.18,5.77-4.85,5.1-7.53,11.89-7.47,18.93-.04,3.57.63,7.11,1.97,10.42,1.31,3.15,3.17,6.03,5.5,8.52,2.33,2.43,5.11,4.39,8.18,5.77,3.16,1.37,6.57,2.06,10.01,2,3.49.04,6.96-.64,10.18-2,3.08-1.35,5.85-3.32,8.14-5.77,2.36-2.47,4.24-5.36,5.53-8.52,1.34-3.31,2.02-6.85,2-10.42.03-3.56-.65-7.09-2-10.38-1.27-3.19-3.15-6.09-5.53-8.55ZM447.92,317.99c-1.18,2.46-3.01,4.54-5.29,6.04-4.73,2.89-10.68,2.89-15.41,0-2.25-1.52-4.07-3.6-5.26-6.04-1.32-2.74-1.99-5.75-1.97-8.79-.06-3.03.62-6.04,1.97-8.75,1.16-2.47,2.98-4.57,5.26-6.07,4.73-2.89,10.68-2.89,15.41,0,2.28,1.51,4.11,3.61,5.29,6.07,1.29,2.74,1.96,5.73,1.93,8.75.05,3.04-.61,6.05-1.93,8.79Z" style="fill:#fff;"/><path d="M516.06,318.06l-21.92-34.71h-10.18v51.58h10.18v-34.65l21.92,34.65h9.91v-51.58h-10.01l.1,34.71Z" style="fill:#fff;"/><path d="M553.29,292.27h12.89v42.65h10.18v-42.65h12.89v-8.92h-35.97v8.92Z" style="fill:#fff;"/><path d="M626.48,283.35h-10.18v51.58h10.18v-51.58Z" style="fill:#fff;"/><path d="M670.94,294.61c2.76-1.52,5.87-2.29,9.03-2.24,2.07-.01,4.13.3,6.11.92,1.83.53,3.55,1.41,5.06,2.58l4.51-8.62c-2.2-1.53-4.64-2.68-7.23-3.39-2.9-.92-5.92-1.37-8.96-1.32-3.7-.03-7.37.67-10.79,2.07-3.29,1.35-6.29,3.31-8.86,5.77-2.57,2.39-4.61,5.31-5.97,8.55-1.47,3.26-2.22,6.8-2.21,10.38-.04,3.59.72,7.15,2.21,10.42,1.47,3.17,3.49,6.06,5.97,8.52,2.52,2.4,5.47,4.33,8.69,5.67,6.35,2.44,13.33,2.66,19.82.61,2.55-.76,4.96-1.9,7.16-3.39l-4.24-8.75c-1.53,1.13-3.24,2-5.06,2.58-1.99.61-4.06.92-6.14.92-3.14.03-6.24-.72-9.03-2.17-5.33-2.91-8.64-8.51-8.62-14.59-.05-3.02.76-5.98,2.34-8.55,1.5-2.5,3.64-4.55,6.21-5.94Z" style="fill:#fff;"/><path d="M752.75,312.87c-1.38-2.08-3.24-3.79-5.43-4.99-2.69-1.54-5.46-2.91-8.31-4.11-1.49-.61-2.82-1.15-3.9-1.7-.99-.44-1.88-1.08-2.61-1.87-.66-.81-1-1.84-.95-2.88-.01-1.54.64-3.02,1.8-4.04,1.42-1.21,3.26-1.82,5.12-1.7,1.95,0,3.89.41,5.67,1.22,1.7.75,3.3,1.72,4.75,2.88l4.17-7.91c-1.23-1.05-2.59-1.94-4.04-2.65-1.64-.86-3.39-1.51-5.19-1.93-1.83-.49-3.71-.75-5.6-.78-3.02-.09-6,.67-8.62,2.17-2.37,1.32-4.36,3.24-5.77,5.57-1.3,2.25-1.99,4.8-2,7.4-.06,2.04.45,4.06,1.46,5.84.98,1.64,2.29,3.06,3.83,4.17,1.59,1.19,3.31,2.2,5.12,3.02,2.48,1.09,4.58,2.04,6.28,2.95,1.5.68,2.85,1.66,3.97,2.88.95,1.1,1.45,2.52,1.39,3.97.12,1.78-.67,3.51-2.1,4.58-1.55,1.06-3.39,1.59-5.26,1.53-1.95,0-3.89-.36-5.7-1.09-1.65-.68-3.21-1.56-4.65-2.61l-3.39-2.71-5.12,8.38c1.22,1.13,2.52,2.16,3.9,3.09,1.94,1.33,4.05,2.38,6.28,3.12,2.75.89,5.63,1.31,8.52,1.26,3.33.07,6.64-.57,9.71-1.87,5.54-2.32,9.04-7.85,8.79-13.84.02-2.61-.71-5.16-2.1-7.36Z" style="fill:#fff;"/><path d="M86.8,132.34c-5.24-2.79-10.83-4.85-16.63-6.14-5.9-1.32-11.5-2.65-16.63-3.87-4.44-.93-8.75-2.4-12.83-4.38-3.24-1.58-5.23-4.95-5.06-8.55-.24-4.38,2.18-8.48,6.14-10.38,3.84-2.06,8.13-3.15,12.49-3.19,10-.22,19.41,4.7,24.94,13.03l21.21-19.17c-4.99-6.96-12.01-12.2-20.09-15.03-8.06-2.86-16.56-4.33-25.11-4.34-6.37-.01-12.71.8-18.87,2.41-5.9,1.49-11.48,4.02-16.49,7.47-4.76,3.38-8.71,7.77-11.57,12.86-3.03,5.68-4.53,12.06-4.34,18.49-.38,6.76,1.39,13.48,5.06,19.17,3.27,4.61,7.65,8.32,12.73,10.79,5.26,2.63,10.85,4.51,16.63,5.6,5.9,1.15,11.44,2.41,16.63,3.73,4.54,1.06,8.88,2.83,12.86,5.26,5.3,3.73,6.64,11.01,3.02,16.39-1.36,1.92-3.13,3.51-5.19,4.65-2.11,1.24-4.4,2.13-6.79,2.65-2.35.52-4.75.78-7.16.78-5.96.17-11.85-1.36-16.97-4.41-4.9-3.13-9.32-6.95-13.13-11.33L0,184.8c5.94,7.01,13.63,12.33,22.29,15.41,8.82,2.92,18.06,4.35,27.35,4.24,6.61,0,13.21-.7,19.68-2.07,6.22-1.27,12.18-3.56,17.65-6.79,5.19-3.15,9.55-7.49,12.73-12.66,3.43-5.85,5.13-12.56,4.89-19.34.37-6.93-1.39-13.82-5.06-19.72-3.23-4.83-7.6-8.79-12.73-11.54Z" style="fill:#3bd3cc;"/><path d="M322.95,86.26c-3.7-4.97-8.56-8.95-14.15-11.61-6.75-3.06-14.11-4.52-21.51-4.28-8.59-.22-17.09,1.75-24.7,5.73-7.36,4.24-13.35,10.49-17.27,18.02-6.52-15.85-19.82-23.75-39.77-23.75-8.99-.48-17.9,2-25.35,7.06-5.74,4.2-10.4,9.72-13.57,16.08h-.54v-20.02h-30.34v127.76h31.86v-69.8c0-4.13.52-8.25,1.56-12.25,1.01-3.79,2.77-7.33,5.19-10.42,2.39-3.04,5.43-5.51,8.89-7.23,4.26-1.92,8.9-2.83,13.57-2.65,7.77,0,13.37,2.34,16.73,7.09,3.61,5.66,5.36,12.3,5.02,19v76.18h31.86v-69.26c-.01-4.08.49-8.16,1.49-12.11.87-3.83,2.49-7.45,4.75-10.66,2.19-3.07,5.06-5.59,8.38-7.36,3.89-1.98,8.22-2.95,12.59-2.82,4.03-.18,8.04.64,11.67,2.41,2.89,1.53,5.35,3.77,7.13,6.52,1.86,2.92,3.12,6.17,3.73,9.57.73,3.73,1.09,7.53,1.09,11.33v72.38h31.86v-76.18c.06-7.21-.75-14.4-2.41-21.41-1.4-6.24-4.04-12.14-7.77-17.34Z" style="fill:#3bd3cc;"/><path d="M402.76,16.32c-4.02-3.68-9.32-5.64-14.76-5.46-5.41-.16-10.64,1.93-14.46,5.77-3.69,3.54-5.75,8.46-5.67,13.57-.09,5.12,1.97,10.04,5.67,13.57,3.81,3.84,9.05,5.93,14.46,5.77,5.43.15,10.72-1.79,14.76-5.43,3.9-3.49,6.08-8.51,5.97-13.74.21-5.34-1.98-10.5-5.97-14.05Z" style="fill:#3bd3cc;"/><path d="M404.25,73.47h-31.86v127.79h31.86v-127.79Z" style="fill:#3bd3cc;"/><path d="M480.94,0h-31.86v201.36h31.86V0Z" style="fill:#3bd3cc;"/><path d="M761.91,143.81c-3.26-4.79-7.63-8.72-12.73-11.47-5.24-2.79-10.83-4.85-16.63-6.14-5.9-1.32-11.5-2.65-16.63-3.87-4.42-.98-8.71-2.49-12.76-4.51-3.24-1.58-5.23-4.95-5.06-8.55-.24-4.38,2.18-8.48,6.14-10.38,3.85-2.06,8.15-3.16,12.52-3.19,10-.22,19.41,4.7,24.94,13.03l21.21-19.17c-5.06-7.01-12.17-12.28-20.36-15.07-14.17-5.09-29.54-5.79-44.11-2-5.86,1.54-11.41,4.1-16.39,7.57-4.77,3.39-8.74,7.79-11.61,12.89-3.03,5.68-4.53,12.06-4.34,18.49-.37,6.76,1.4,13.47,5.06,19.17,3.29,4.6,7.68,8.31,12.76,10.79,5.26,2.62,10.86,4.5,16.63,5.6,5.9,1.15,11.4,2.41,16.63,3.73,4.53,1.08,8.85,2.89,12.79,5.36,3.37,2.12,5.31,5.91,5.06,9.87.04,2.33-.66,4.61-2,6.52-1.38,1.91-3.17,3.5-5.23,4.65-2.11,1.24-4.4,2.14-6.79,2.65-2.34.52-4.73.78-7.13.78-5.96.17-11.85-1.37-16.97-4.45-4.92-3.1-9.35-6.92-13.13-11.33l-21.21,19.95c5.86,7,13.45,12.33,22.02,15.47,8.82,2.93,18.06,4.38,27.35,4.28,6.6-.02,13.19-.72,19.65-2.1,6.23-1.24,12.19-3.53,17.65-6.79,5.21-3.14,9.58-7.48,12.76-12.66,3.43-5.85,5.13-12.56,4.89-19.34.47-6.96-1.27-13.88-4.99-19.78Z" style="fill:#3bd3cc;"/><path d="M576.19,70.75c-32.32.35-58.85,25.66-60.74,57.92-.11.8-.17,1.6-.17,2.41v10.93h122.16v-8.69c.32-34.17-27.08-62.16-61.25-62.57ZM603.78,119.21h-55.24c-.27-6.95,2.67-13.63,7.97-18.12,5.33-5.13,12.42-8.02,19.82-8.08,7.41-.03,14.54,2.87,19.82,8.08,5.14,4.59,7.94,11.24,7.64,18.12h0Z" style="fill:#3bd3cc;"/><path d="M626.72,156.09c-4.99-1.78-10.49.77-12.35,5.73-.41,1.09-10.18,26.94-37.94,26.94s-37.33-25.69-37.9-26.94c-1.78-5-7.28-7.62-12.28-5.84-5,1.78-7.62,7.28-5.84,12.28.54,1.63,14.63,39.7,56.02,39.7s55.48-38.07,56.02-39.7c1.8-4.91-.72-10.35-5.63-12.15-.03-.01-.07-.02-.1-.04Z" style="fill:#fff;"/></svg>