<?xml version="1.0" encoding="UTF-8"?><svg id="Layer_1" xmlns="http://www.w3.org/2000/svg" xmlns:xlink="http://www.w3.org/1999/xlink" viewBox="0 0 846.06 216.08"><defs><linearGradient id="linear-gradient" x1="0" y1="121.79" x2="846.06" y2="121.79" gradientUnits="userSpaceOnUse"><stop offset="0" stop-color="#d3a955"/><stop offset=".58" stop-color="#f0d586"/><stop offset=".75" stop-color="#d6a753"/><stop offset=".87" stop-color="#f1d687"/><stop offset="1" stop-color="#d09c49"/></linearGradient><linearGradient id="linear-gradient-2" x1="654.02" y1="30.33" x2="719.68" y2="68.24" gradientUnits="userSpaceOnUse"><stop offset="0" stop-color="#93b4a0"/><stop offset=".26" stop-color="#a1c1ac"/><stop offset=".73" stop-color="#5c756f"/><stop offset="1" stop-color="#657c76"/></linearGradient><linearGradient id="linear-gradient-3" x1="30.83" y1="67.38" x2="664.45" y2="67.38" gradientUnits="userSpaceOnUse"><stop offset="0" stop-color="#57706a"/><stop offset=".36" stop-color="#769590"/><stop offset=".62" stop-color="#7c9c97"/><stop offset=".85" stop-color="#5c756f"/><stop offset="1" stop-color="#6c807b"/></linearGradient></defs><path d="M37.75,52.63c2.29-.18,11.03-.69,12.17,1.56.4.78.17,1.58-.28,2.28-1.1,1.71-10.71,5.57-13.21,7.11-10.82,6.62-19.94,15.91-24.62,27.87-1.19,3.04-1.67,6.95-3.26,9.86-2.76,5.05-4.43.11-5.79-2.95-10.83-24.36,12.22-43.94,35-45.74ZM92.08,124.05,44.07,87.31c180.87,181.11,501.94,165.37,680.48-10.68-164.93,140.47-411.46,173.84-603.18,66.52-24.62-14.1-47.94-31.44-68.31-51.07-.98-.94-6.7-6.45-7.25-7.57l-1.75,2.79ZM743.9,64c-3.53,2.6-11.11,8.51-13.63,11.77-2.24,2.92-.12,3.65,2.14,5.5,20.2,16.52,43.78,7.22,62.82-5.74,13.07-8.89,23.89-21.93,38.27-28.61,4.1-1.9,8.6-2.82,12.56-4.79,0-1.23-21.22-6.78-23.52-7.37-27.9-7.22-76.35-16.54-93.82,13.65-3.95,6.83-5.77,14.68-6.68,22.46l.97.63c13.12-9.24,26.39-18.69,42.1-23.11,4.93-1.39,10.39-2.66,15.54-2.23.51.04,2.26.16,2.33.84-14.42,1.83-27.55,8.49-39.09,17.01Z" style="fill:url(#linear-gradient);"/><path d="M719.01,69.38c-.27.18-1.24.15-1.56-.04s-3.26-5.04-3.97-5.97c-6-7.77-14.15-16.25-24.05-18.49l7.16,4.48c7.43,5.87,13.24,13.85,16.48,22.76-4.64,4.43-12.62,4.74-18.65,3.53-16.99-3.39-22.41-21.44-30.9-33.45-2.81-3.97-7-6.39-9.45-9.6-.32-.42-.82-.53-.63-1.27,1.34-1.5,29.5.37,33.61.9,15.88,2.02,35.56,8.01,34.13,27.67-.08,1.15-1.73,9.19-2.16,9.48Z" style="fill:url(#linear-gradient-2);"/><path d="M172.84,148.86c0-2.96,0-3.5-.04-4.12-.04-.66-.19-.97-.84-1.11-.16-.04-.49-.06-.76-.06-.21,0-.33-.04-.33-.18s.14-.17.43-.17c1.03,0,2.26.06,2.8.06.6,0,1.83-.06,2.99-.06,2.43,0,5.68,0,7.8,2.22.97,1.01,1.89,2.62,1.89,4.94,0,2.45-1.03,4.32-2.12,5.42-.89.91-2.92,2.29-6.51,2.29-.7,0-1.5-.06-2.24-.12-.74-.06-1.42-.12-1.91-.12-.21,0-.64,0-1.11.02-.45,0-.95.04-1.34.04-.25,0-.39-.06-.39-.19,0-.1.08-.16.31-.16.29,0,.53-.04.7-.08.39-.08.49-.51.56-1.07.1-.82.1-2.35.1-4.14v-3.42ZM175.28,150.99c0,2.06.02,3.56.04,3.93.02.49.06,1.26.21,1.48.25.37,1.01.78,2.55.78,1.98,0,3.31-.39,4.47-1.4,1.24-1.07,1.63-2.84,1.63-4.84,0-2.47-1.03-4.06-1.87-4.86-1.79-1.71-4.01-1.94-5.52-1.94-.39,0-1.11.06-1.26.14-.17.08-.23.17-.23.39-.02.66-.02,2.35-.02,3.89v2.45Z" style="fill:#5a8697;"/><path d="M194.43,148.86c0-2.96,0-3.5-.04-4.12-.04-.66-.19-.97-.84-1.11-.16-.04-.49-.06-.76-.06-.21,0-.33-.04-.33-.18s.14-.17.43-.17c.89,0,1.79.06,2.8.06.62,0,4.49,0,4.86-.02.37-.04.68-.08.84-.12.1-.02.21-.08.31-.08s.12.08.12.17c0,.14-.1.37-.16,1.26-.02.19-.06,1.05-.1,1.28-.02.1-.06.21-.19.21s-.17-.12-.17-.35c0-.08-.02-.39-.12-.62-.14-.35-.33-.58-1.3-.7-.33-.04-2.37-.08-2.76-.08-.1,0-.14.06-.14.19v4.92c0,.14.02.21.14.21.43,0,2.66,0,3.11-.04.47-.04.76-.1.93-.29.14-.16.21-.25.31-.25.08,0,.14.04.14.16s-.08.43-.16,1.42c-.02.39-.08,1.17-.08,1.3,0,.16,0,.37-.17.37-.14,0-.17-.21-.17-.31-.02-.19-.02-.31-.08-.56-.1-.39-.37-.68-1.09-.76-.37-.04-2.29-.06-2.76-.06-.1,0-.12.08-.12.19v1.54c0,.66-.02,2.45,0,3.01.04,1.34.35,1.63,2.33,1.63.51,0,1.32,0,1.83-.23.51-.23.74-.64.87-1.44.04-.21.08-.29.21-.29.16,0,.16.16.16.35,0,.45-.16,1.77-.25,2.16-.14.51-.31.51-1.05.51-1.73,0-3.44-.12-5.39-.12-.78,0-1.57.06-2.45.06-.25,0-.39-.06-.39-.19,0-.1.08-.16.31-.16.29,0,.53-.04.7-.08.39-.08.49-.51.56-1.07.1-.82.1-2.35.1-4.14v-3.42Z" style="fill:#5a8697;"/><path d="M209.61,143.55c0-.39.06-.66.25-.66.21,0,.39.25.72.6.23.25,3.19,3.42,6.03,6.24,1.32,1.32,4.04,4.22,4.37,4.53l-.19-8.83c-.02-1.19-.19-1.56-.66-1.75-.29-.12-.76-.12-1.03-.12-.23,0-.31-.06-.31-.18,0-.16.21-.17.51-.17,1.01,0,1.94.06,2.35.06.21,0,.95-.06,1.91-.06.25,0,.45.02.45.17,0,.12-.12.18-.35.18-.19,0-.35,0-.58.06-.54.16-.7.56-.72,1.65-.08,4.1-.14,8.17-.21,12.27,0,.43-.08.6-.25.6-.21,0-.45-.21-.66-.43-1.22-1.17-3.71-3.71-5.74-5.72-2.12-2.1-4.34-4.59-4.69-4.96l.21,8.22c.04,1.52.29,2.02.68,2.16.33.12.7.14,1.01.14.21,0,.33.04.33.16,0,.16-.17.19-.45.19-1.26,0-2.04-.06-2.41-.06-.17,0-1.09.06-2.1.06-.25,0-.43-.02-.43-.19,0-.12.12-.16.31-.16.25,0,.6-.02.87-.1.51-.16.58-.72.6-2.41.06-4.12.14-8.92.17-11.51Z" style="fill:#5a8697;"/><path d="M236.93,152.28c0,1.79,0,3.32.1,4.16.06.54.17.97.76,1.05.27.04.7.08.99.08.21,0,.31.06.31.16,0,.14-.16.19-.37.19-1.28,0-2.51-.06-3.05-.06-.45,0-1.67.06-2.45.06-.25,0-.39-.06-.39-.19,0-.1.08-.16.31-.16.29,0,.53-.04.7-.08.39-.08.51-.51.56-1.07.1-.82.1-2.35.1-4.14v-7.97c-.74.02-1.94.06-2.9.08-1.13.04-1.59.14-1.89.56-.19.29-.29.52-.33.68-.04.16-.1.23-.21.23-.14,0-.17-.1-.17-.31,0-.31.37-2.08.41-2.24.06-.25.12-.37.23-.37.16,0,.35.19.84.23.56.06,1.3.1,1.94.1h7.7c.62,0,1.05-.06,1.34-.1.29-.06.45-.1.52-.1.14,0,.16.12.16.41,0,.41-.06,1.75-.06,2.26-.02.19-.06.31-.17.31-.16,0-.19-.1-.21-.39,0-.06-.02-.16-.02-.21-.04-.51-.56-1.05-2.29-1.09-.51-.02-1.3-.04-2.45-.06v7.97Z" style="fill:#5a8697;"/><path d="M249.25,152.84c-.1,0-.14.04-.17.16l-1.05,2.78c-.19.49-.29.95-.29,1.19,0,.35.17.6.78.6h.29c.23,0,.29.04.29.16,0,.16-.12.19-.33.19-.62,0-1.46-.06-2.06-.06-.21,0-1.28.06-2.29.06-.25,0-.37-.04-.37-.19,0-.12.12-.16.27-.16.17,0,.41-.02.56-.04.89-.12,1.26-.78,1.65-1.75l4.88-12.21c.23-.56.37-.78.54-.78.16,0,.29.18.49.62.47,1.07,3.58,9,4.82,11.96.74,1.75,1.3,2.02,1.71,2.12.29.06.58.08.82.08.16,0,.25.04.25.16,0,.16-.17.19-.89.19s-2.26,0-3.81-.04c-.35-.02-.45-.04-.45-.16,0-.1.08-.16.27-.17.14-.04.27-.21.17-.45l-1.56-4.12c-.04-.1-.1-.14-.19-.14h-4.34ZM253.22,151.87c.1,0,.12-.06.1-.12l-1.75-4.8c-.06-.18-.14-.23-.21,0l-1.79,4.78c-.02.08,0,.14.08.14h3.58Z" style="fill:#5a8697;"/><path d="M268.19,152.28c0,2.49,0,3.83.41,4.18.33.29.84.43,2.35.43,1.03,0,1.79-.02,2.27-.54.23-.25.47-.8.51-1.17.02-.17.06-.29.21-.29.14,0,.16.1.16.33,0,.21-.14,1.67-.29,2.24-.12.43-.21.52-1.22.52-1.79,0-3.58-.12-5.66-.12-.78,0-1.57.06-2.45.06-.25,0-.39-.06-.39-.19,0-.1.08-.16.31-.16.29,0,.53-.04.7-.08.39-.08.49-.51.56-1.07.1-.82.1-2.35.1-4.14v-3.42c0-2.96,0-3.5-.04-4.12-.04-.66-.19-.97-.84-1.11-.16-.04-.39-.06-.64-.06-.21,0-.33-.04-.33-.18s.14-.17.43-.17c.91,0,2.14.06,2.66.06.47,0,1.89-.06,2.64-.06.27,0,.41.04.41.17s-.12.18-.35.18c-.21,0-.52.02-.76.06-.52.1-.68.43-.72,1.11-.04.62-.04,1.17-.04,4.12v3.42Z" style="fill:#5a8697;"/><path d="M300.68,149.4c.06,0,.12-.04.12-.14v-.41c0-2.96,0-3.5-.04-4.12-.04-.66-.19-.97-.84-1.11-.16-.04-.49-.06-.76-.06-.21,0-.33-.04-.33-.18s.14-.17.41-.17c1.05,0,2.27.06,2.8.06.47,0,1.69-.06,2.45-.06.27,0,.41.04.41.17s-.12.18-.35.18c-.16,0-.33.02-.56.06-.52.1-.68.43-.72,1.11-.04.62-.04,1.17-.04,4.12v3.42c0,1.79,0,3.32.1,4.16.06.54.17.97.76,1.05.27.04.7.08.99.08.21,0,.31.06.31.16,0,.14-.16.19-.39.19-1.26,0-2.49-.06-3.03-.06-.45,0-1.67.06-2.43.06-.27,0-.41-.06-.41-.19,0-.1.08-.16.31-.16.29,0,.52-.04.7-.08.39-.08.49-.51.56-1.07.1-.82.1-2.35.1-4.14v-1.71c0-.08-.06-.12-.12-.12h-7.43c-.06,0-.12.02-.12.12v1.71c0,1.79,0,3.32.1,4.16.06.54.17.97.76,1.05.27.04.7.08.99.08.21,0,.31.06.31.16,0,.14-.16.19-.39.19-1.26,0-2.49-.06-3.03-.06-.45,0-1.67.06-2.45.06-.25,0-.39-.06-.39-.19,0-.1.08-.16.31-.16.29,0,.53-.04.7-.08.39-.08.49-.51.56-1.07.1-.82.1-2.35.1-4.14v-3.42c0-2.96,0-3.5-.04-4.12-.04-.66-.19-.97-.84-1.11-.16-.04-.49-.06-.76-.06-.21,0-.33-.04-.33-.18s.14-.17.41-.17c1.05,0,2.27.06,2.8.06.47,0,1.69-.06,2.45-.06.27,0,.41.04.41.17s-.17.18-.35.18c-.16,0-.41.02-.56.04-.52.08-.68.45-.72,1.13-.04.62-.04,1.17-.04,4.12v.41c0,.1.06.14.12.14h7.43Z" style="fill:#5a8697;"/><path d="M313.26,148.86c0-2.96,0-3.5-.04-4.12-.04-.66-.19-.97-.84-1.11-.16-.04-.49-.06-.76-.06-.21,0-.33-.04-.33-.18s.14-.17.43-.17c.89,0,1.79.06,2.8.06.62,0,4.49,0,4.86-.02.37-.04.68-.08.84-.12.1-.02.21-.08.31-.08s.12.08.12.17c0,.14-.1.37-.16,1.26-.02.19-.06,1.05-.1,1.28-.02.1-.06.21-.19.21s-.17-.12-.17-.35c0-.08-.02-.39-.12-.62-.14-.35-.33-.58-1.3-.7-.33-.04-2.37-.08-2.76-.08-.1,0-.14.06-.14.19v4.92c0,.14.02.21.14.21.43,0,2.66,0,3.11-.04.47-.04.76-.1.93-.29.14-.16.21-.25.31-.25.08,0,.14.04.14.16s-.08.43-.16,1.42c-.02.39-.08,1.17-.08,1.3,0,.16,0,.37-.17.37-.14,0-.17-.21-.17-.31-.02-.19-.02-.31-.08-.56-.1-.39-.37-.68-1.09-.76-.37-.04-2.29-.06-2.76-.06-.1,0-.12.08-.12.19v1.54c0,.66-.02,2.45,0,3.01.04,1.34.35,1.63,2.33,1.63.51,0,1.32,0,1.83-.23.51-.23.74-.64.87-1.44.04-.21.08-.29.21-.29.16,0,.16.16.16.35,0,.45-.16,1.77-.25,2.16-.14.51-.31.51-1.05.51-1.73,0-3.44-.12-5.39-.12-.78,0-1.57.06-2.45.06-.25,0-.39-.06-.39-.19,0-.1.08-.16.31-.16.29,0,.53-.04.7-.08.39-.08.49-.51.56-1.07.1-.82.1-2.35.1-4.14v-3.42Z" style="fill:#5a8697;"/><path d="M330.7,152.84c-.1,0-.14.04-.17.16l-1.05,2.78c-.19.49-.29.95-.29,1.19,0,.35.17.6.78.6h.29c.23,0,.29.04.29.16,0,.16-.12.19-.33.19-.62,0-1.46-.06-2.06-.06-.21,0-1.28.06-2.29.06-.25,0-.37-.04-.37-.19,0-.12.12-.16.27-.16.17,0,.41-.02.56-.04.89-.12,1.26-.78,1.65-1.75l4.88-12.21c.23-.56.37-.78.54-.78.16,0,.29.18.49.62.47,1.07,3.58,9,4.82,11.96.74,1.75,1.3,2.02,1.71,2.12.29.06.58.08.82.08.16,0,.25.04.25.16,0,.16-.17.19-.89.19s-2.26,0-3.81-.04c-.35-.02-.45-.04-.45-.16,0-.1.08-.16.27-.17.14-.04.27-.21.17-.45l-1.56-4.12c-.04-.1-.1-.14-.19-.14h-4.34ZM334.66,151.87c.1,0,.12-.06.1-.12l-1.75-4.8c-.06-.18-.14-.23-.21,0l-1.79,4.78c-.02.08,0,.14.08.14h3.58Z" style="fill:#5a8697;"/><path d="M349.63,152.28c0,2.49,0,3.83.41,4.18.33.29.84.43,2.35.43,1.03,0,1.79-.02,2.27-.54.23-.25.47-.8.51-1.17.02-.17.06-.29.21-.29.14,0,.16.1.16.33,0,.21-.14,1.67-.29,2.24-.12.43-.21.52-1.22.52-1.79,0-3.58-.12-5.66-.12-.78,0-1.57.06-2.45.06-.25,0-.39-.06-.39-.19,0-.1.08-.16.31-.16.29,0,.53-.04.7-.08.39-.08.49-.51.56-1.07.1-.82.1-2.35.1-4.14v-3.42c0-2.96,0-3.5-.04-4.12-.04-.66-.19-.97-.84-1.11-.16-.04-.39-.06-.64-.06-.21,0-.33-.04-.33-.18s.14-.17.43-.17c.91,0,2.14.06,2.66.06.47,0,1.89-.06,2.64-.06.27,0,.41.04.41.17s-.12.18-.35.18c-.21,0-.52.02-.76.06-.52.1-.68.43-.72,1.11-.04.62-.04,1.17-.04,4.12v3.42Z" style="fill:#5a8697;"/><path d="M366.39,152.28c0,1.79,0,3.32.1,4.16.06.54.17.97.76,1.05.27.04.7.08.99.08.21,0,.31.06.31.16,0,.14-.16.19-.37.19-1.28,0-2.51-.06-3.05-.06-.45,0-1.67.06-2.45.06-.25,0-.39-.06-.39-.19,0-.1.08-.16.31-.16.29,0,.53-.04.7-.08.39-.08.51-.51.56-1.07.1-.82.1-2.35.1-4.14v-7.97c-.74.02-1.94.06-2.9.08-1.13.04-1.59.14-1.89.56-.19.29-.29.52-.33.68-.04.16-.1.23-.21.23-.14,0-.17-.1-.17-.31,0-.31.37-2.08.41-2.24.06-.25.12-.37.23-.37.16,0,.35.19.84.23.56.06,1.3.1,1.94.1h7.7c.62,0,1.05-.06,1.34-.1.29-.06.45-.1.52-.1.14,0,.16.12.16.41,0,.41-.06,1.75-.06,2.26-.02.19-.06.31-.17.31-.16,0-.19-.1-.21-.39,0-.06-.02-.16-.02-.21-.04-.51-.56-1.05-2.29-1.09-.51-.02-1.3-.04-2.45-.06v7.97Z" style="fill:#5a8697;"/><path d="M388.79,149.4c.06,0,.12-.04.12-.14v-.41c0-2.96,0-3.5-.04-4.12-.04-.66-.19-.97-.84-1.11-.16-.04-.49-.06-.76-.06-.21,0-.33-.04-.33-.18s.14-.17.41-.17c1.05,0,2.27.06,2.8.06.47,0,1.69-.06,2.45-.06.27,0,.41.04.41.17s-.12.18-.35.18c-.16,0-.33.02-.56.06-.52.1-.68.43-.72,1.11-.04.62-.04,1.17-.04,4.12v3.42c0,1.79,0,3.32.1,4.16.06.54.17.97.76,1.05.27.04.7.08.99.08.21,0,.31.06.31.16,0,.14-.16.19-.39.19-1.26,0-2.49-.06-3.03-.06-.45,0-1.67.06-2.43.06-.27,0-.41-.06-.41-.19,0-.1.08-.16.31-.16.29,0,.52-.04.7-.08.39-.08.49-.51.56-1.07.1-.82.1-2.35.1-4.14v-1.71c0-.08-.06-.12-.12-.12h-7.43c-.06,0-.12.02-.12.12v1.71c0,1.79,0,3.32.1,4.16.06.54.17.97.76,1.05.27.04.7.08.99.08.21,0,.31.06.31.16,0,.14-.16.19-.39.19-1.26,0-2.49-.06-3.03-.06-.45,0-1.67.06-2.45.06-.25,0-.39-.06-.39-.19,0-.1.08-.16.31-.16.29,0,.53-.04.7-.08.39-.08.49-.51.56-1.07.1-.82.1-2.35.1-4.14v-3.42c0-2.96,0-3.5-.04-4.12-.04-.66-.19-.97-.84-1.11-.16-.04-.49-.06-.76-.06-.21,0-.33-.04-.33-.18s.14-.17.41-.17c1.05,0,2.27.06,2.8.06.47,0,1.69-.06,2.45-.06.27,0,.41.04.41.17s-.17.18-.35.18c-.16,0-.41.02-.56.04-.52.08-.68.45-.72,1.13-.04.62-.04,1.17-.04,4.12v.41c0,.1.06.14.12.14h7.43Z" style="fill:#5a8697;"/><path d="M408.82,153.75c0-2.27,1.94-3.89,3.11-4.45-.82-1.09-.91-1.91-.93-2.78-.02-1.54,1.34-3.58,4.72-3.58.95,0,1.83.19,2.35.41.33.12.33.27.33.51,0,.64-.16,2.2-.21,2.49-.04.29-.12.33-.23.33s-.14-.08-.14-.37c0-.51-.14-1.13-.56-1.63-.39-.47-1.07-.87-2.16-.87-.82,0-2.08.56-2.08,2.22,0,1.83,1.67,3.38,3.23,5.11.66.76,3.05,2.92,3.42,3.25.39-.54.93-1.81.93-2.99,0-.29-.08-.64-.37-.89-.25-.23-.62-.27-.91-.29-.12,0-.31-.04-.31-.16,0-.16.19-.19.35-.19.47,0,1.24.04,2.33.14.47.04.66.16.66.39,0,1.5-.8,3.31-1.91,4.61,1.3,1.07,2.18,1.59,2.7,1.91.62.37,1.5.64,2.08.68.17.02.27.04.27.18,0,.12-.14.17-.56.17h-1.52c-2.22,0-2.99-.1-4.67-1.38-.64.58-1.87,1.65-4.53,1.65-4.16,0-5.41-2.62-5.41-4.43ZM417.99,155.91c-2.47-2.33-3.69-3.69-5.56-5.87-.66.49-1.28,1.38-1.28,2.94,0,2.43,1.73,3.97,3.81,3.97,1.5,0,2.62-.64,3.03-1.03Z" style="fill:#5a8697;"/><path d="M438.66,145.12c-.23-.72-.45-1.19-.72-1.38-.21-.14-.6-.17-.78-.17-.19,0-.31-.02-.31-.18,0-.14.16-.17.43-.17,1.01,0,2.08.06,2.26.06s1.03-.06,2.16-.06c.27,0,.41.06.41.17,0,.16-.16.18-.35.18-.16,0-.35,0-.49.08-.17.08-.21.21-.21.43,0,.25.19.91.43,1.79.33,1.28,2.14,7.17,2.51,8.34l3.81-10.21c.19-.54.33-.7.49-.7.21,0,.31.29.56.91l4.08,9.86c.37-1.38,1.92-6.51,2.61-8.79.14-.45.19-.86.19-1.13,0-.31-.17-.58-.93-.58-.19,0-.33-.06-.33-.18,0-.14.16-.17.45-.17,1.03,0,1.85.06,2.02.06.14,0,.97-.06,1.61-.06.21,0,.35.04.35.16,0,.14-.1.19-.27.19-.19,0-.47.02-.68.1-.47.17-.68.95-1.09,2.06-.89,2.45-2.94,8.63-3.89,11.55-.21.68-.31.91-.56.91-.19,0-.31-.23-.6-.95l-4.06-9.8c-.39,1.05-2.97,7.93-3.81,9.72-.37.8-.47,1.03-.7,1.03-.19,0-.27-.21-.45-.72l-4.12-12.35Z" style="fill:#5a8697;"/><path d="M465.16,148.86c0-2.96,0-3.5-.04-4.12-.04-.66-.19-.97-.84-1.11-.16-.04-.49-.06-.76-.06-.21,0-.33-.04-.33-.18s.14-.17.43-.17c.89,0,1.79.06,2.8.06.62,0,4.49,0,4.86-.02.37-.04.68-.08.84-.12.1-.02.21-.08.31-.08s.12.08.12.17c0,.14-.1.37-.16,1.26-.02.19-.06,1.05-.1,1.28-.02.1-.06.21-.19.21s-.17-.12-.17-.35c0-.08-.02-.39-.12-.62-.14-.35-.33-.58-1.3-.7-.33-.04-2.37-.08-2.76-.08-.1,0-.14.06-.14.19v4.92c0,.14.02.21.14.21.43,0,2.66,0,3.11-.04.47-.04.76-.1.93-.29.14-.16.21-.25.31-.25.08,0,.14.04.14.16s-.08.43-.16,1.42c-.02.39-.08,1.17-.08,1.3,0,.16,0,.37-.17.37-.14,0-.17-.21-.17-.31-.02-.19-.02-.31-.08-.56-.1-.39-.37-.68-1.09-.76-.37-.04-2.29-.06-2.76-.06-.1,0-.12.08-.12.19v1.54c0,.66-.02,2.45,0,3.01.04,1.34.35,1.63,2.33,1.63.51,0,1.32,0,1.83-.23.51-.23.74-.64.87-1.44.04-.21.08-.29.21-.29.16,0,.16.16.16.35,0,.45-.16,1.77-.25,2.16-.14.51-.31.51-1.05.51-1.73,0-3.44-.12-5.39-.12-.78,0-1.57.06-2.45.06-.25,0-.39-.06-.39-.19,0-.1.08-.16.31-.16.29,0,.53-.04.7-.08.39-.08.49-.51.56-1.07.1-.82.1-2.35.1-4.14v-3.42Z" style="fill:#5a8697;"/><path d="M483.36,152.28c0,2.49,0,3.83.41,4.18.33.29.84.43,2.35.43,1.03,0,1.79-.02,2.27-.54.23-.25.47-.8.51-1.17.02-.17.06-.29.21-.29.14,0,.16.1.16.33,0,.21-.14,1.67-.29,2.24-.12.43-.21.52-1.22.52-1.79,0-3.58-.12-5.66-.12-.78,0-1.57.06-2.45.06-.25,0-.39-.06-.39-.19,0-.1.08-.16.31-.16.29,0,.53-.04.7-.08.39-.08.49-.51.56-1.07.1-.82.1-2.35.1-4.14v-3.42c0-2.96,0-3.5-.04-4.12-.04-.66-.19-.97-.84-1.11-.16-.04-.39-.06-.64-.06-.21,0-.33-.04-.33-.18s.14-.17.43-.17c.91,0,2.14.06,2.66.06.47,0,1.89-.06,2.64-.06.27,0,.41.04.41.17s-.12.18-.35.18c-.21,0-.52.02-.76.06-.52.1-.68.43-.72,1.11-.04.62-.04,1.17-.04,4.12v3.42Z" style="fill:#5a8697;"/><path d="M498.39,152.28c0,2.49,0,3.83.41,4.18.33.29.84.43,2.35.43,1.03,0,1.79-.02,2.27-.54.23-.25.47-.8.51-1.17.02-.17.06-.29.21-.29.14,0,.16.1.16.33,0,.21-.14,1.67-.29,2.24-.12.43-.21.52-1.22.52-1.79,0-3.58-.12-5.66-.12-.78,0-1.57.06-2.45.06-.25,0-.39-.06-.39-.19,0-.1.08-.16.31-.16.29,0,.53-.04.7-.08.39-.08.49-.51.56-1.07.1-.82.1-2.35.1-4.14v-3.42c0-2.96,0-3.5-.04-4.12-.04-.66-.19-.97-.84-1.11-.16-.04-.39-.06-.64-.06-.21,0-.33-.04-.33-.18s.14-.17.43-.17c.91,0,2.14.06,2.66.06.47,0,1.89-.06,2.64-.06.27,0,.41.04.41.17s-.12.18-.35.18c-.21,0-.52.02-.76.06-.52.1-.68.43-.72,1.11-.04.62-.04,1.17-.04,4.12v3.42Z" style="fill:#5a8697;"/><path d="M511.08,143.55c0-.39.06-.66.25-.66.21,0,.39.25.72.6.23.25,3.19,3.42,6.03,6.24,1.32,1.32,4.04,4.22,4.37,4.53l-.19-8.83c-.02-1.19-.19-1.56-.66-1.75-.29-.12-.76-.12-1.03-.12-.23,0-.31-.06-.31-.18,0-.16.21-.17.51-.17,1.01,0,1.94.06,2.35.06.21,0,.95-.06,1.91-.06.25,0,.45.02.45.17,0,.12-.12.18-.35.18-.19,0-.35,0-.58.06-.54.16-.7.56-.72,1.65-.08,4.1-.14,8.17-.21,12.27,0,.43-.08.6-.25.6-.21,0-.45-.21-.66-.43-1.22-1.17-3.71-3.71-5.74-5.72-2.12-2.1-4.34-4.59-4.69-4.96l.21,8.22c.04,1.52.29,2.02.68,2.16.33.12.7.14,1.01.14.21,0,.33.04.33.16,0,.16-.17.19-.45.19-1.26,0-2.04-.06-2.41-.06-.17,0-1.09.06-2.1.06-.25,0-.43-.02-.43-.19,0-.12.12-.16.31-.16.25,0,.6-.02.87-.1.51-.16.58-.72.6-2.41.06-4.12.14-8.92.17-11.51Z" style="fill:#5a8697;"/><path d="M533.29,148.86c0-2.96,0-3.5-.04-4.12-.04-.66-.19-.97-.84-1.11-.16-.04-.49-.06-.76-.06-.21,0-.33-.04-.33-.18s.14-.17.43-.17c.89,0,1.79.06,2.8.06.62,0,4.49,0,4.86-.02.37-.04.68-.08.84-.12.1-.02.21-.08.31-.08s.12.08.12.17c0,.14-.1.37-.16,1.26-.02.19-.06,1.05-.1,1.28-.02.1-.06.21-.19.21s-.17-.12-.17-.35c0-.08-.02-.39-.12-.62-.14-.35-.33-.58-1.3-.7-.33-.04-2.37-.08-2.76-.08-.1,0-.14.06-.14.19v4.92c0,.14.02.21.14.21.43,0,2.66,0,3.11-.04.47-.04.76-.1.93-.29.14-.16.21-.25.31-.25.08,0,.14.04.14.16s-.08.43-.16,1.42c-.02.39-.08,1.17-.08,1.3,0,.16,0,.37-.17.37-.14,0-.17-.21-.17-.31-.02-.19-.02-.31-.08-.56-.1-.39-.37-.68-1.09-.76-.37-.04-2.29-.06-2.76-.06-.1,0-.12.08-.12.19v1.54c0,.66-.02,2.45,0,3.01.04,1.34.35,1.63,2.33,1.63.51,0,1.32,0,1.83-.23.51-.23.74-.64.87-1.44.04-.21.08-.29.21-.29.16,0,.16.16.16.35,0,.45-.16,1.77-.25,2.16-.14.51-.31.51-1.05.51-1.73,0-3.44-.12-5.39-.12-.78,0-1.57.06-2.45.06-.25,0-.39-.06-.39-.19,0-.1.08-.16.31-.16.29,0,.53-.04.7-.08.39-.08.49-.51.56-1.07.1-.82.1-2.35.1-4.14v-3.42Z" style="fill:#5a8697;"/><path d="M547.69,157.68c-.31-.14-.37-.23-.37-.66,0-1.07.08-2.24.1-2.55.02-.29.08-.51.23-.51.17,0,.19.17.19.33,0,.25.08.66.17.99.43,1.44,1.57,1.96,2.78,1.96,1.75,0,2.61-1.19,2.61-2.22,0-.95-.29-1.85-1.91-3.11l-.89-.7c-2.14-1.67-2.88-3.03-2.88-4.61,0-2.14,1.79-3.67,4.49-3.67.74,0,1.32.08,1.79.16.33.06.58.12.8.17.18.04.27.1.27.23,0,.25-.08.82-.08,2.33,0,.43-.06.58-.21.58-.14,0-.19-.12-.19-.35,0-.17-.1-.78-.51-1.28-.29-.37-.86-.95-2.12-.95-1.44,0-2.31.84-2.31,2,0,.89.45,1.57,2.06,2.8l.54.41c2.35,1.77,3.19,3.11,3.19,4.96,0,1.13-.43,2.47-1.83,3.38-.97.62-2.06.8-3.09.8-1.13,0-2-.14-2.84-.51Z" style="fill:#5a8697;"/><path d="M562.1,157.68c-.31-.14-.37-.23-.37-.66,0-1.07.08-2.24.1-2.55.02-.29.08-.51.23-.51.17,0,.19.17.19.33,0,.25.08.66.17.99.43,1.44,1.57,1.96,2.78,1.96,1.75,0,2.61-1.19,2.61-2.22,0-.95-.29-1.85-1.91-3.11l-.89-.7c-2.14-1.67-2.88-3.03-2.88-4.61,0-2.14,1.79-3.67,4.49-3.67.74,0,1.32.08,1.79.16.33.06.58.12.8.17.17.04.27.1.27.23,0,.25-.08.82-.08,2.33,0,.43-.06.58-.21.58-.14,0-.19-.12-.19-.35,0-.17-.1-.78-.51-1.28-.29-.37-.86-.95-2.12-.95-1.44,0-2.31.84-2.31,2,0,.89.45,1.57,2.06,2.8l.54.41c2.35,1.77,3.19,3.11,3.19,4.96,0,1.13-.43,2.47-1.83,3.38-.97.62-2.06.8-3.09.8-1.13,0-2-.14-2.84-.51Z" style="fill:#5a8697;"/><path d="M193.64,70.28h10.37c.52,0,2.08,2.25,1.4,3.07-3.78,10.96-9.86,21.67-13.67,32.49-1.62,4.59-3.94,12.81,3.77,11.81,5.95-.77,12.91-13.22,15.56-18.3,5.08-9.74,7.06-21.18,11.78-31.18h-7.83c-.94,0-1.67-2.86-.12-3.53,2.16-.93,8.4.37,9.66-.48,4.56-8.18,13.13-31.09,23.52-32.36,3.19-.39,5.6,1.2,6.06,4.45,1.33,9.34-5.95,19.93-9.7,28.11h6.56c.22,0,1.33.78,1.44,1.13,1.43,4.52-8.3,1.8-10.12,2.89-3.86,5.78-7.7,11.68-12.29,16.92-1.77,2.02-6.28,5.55-7.37,7.45s-4.1,16.51-4.02,18.74c.22,6.67,6.06,6.46,10.52,3.41,15.86-10.84,14.54-37.52,36.88-45.67,10.58-3.86,17.42,2.44,12.07,12.91-5.01,9.8-16.78,14.75-27.11,16.49-1.99,4.62-3.92,18.81,3,19.88,10.78,1.66,18.18-8.81,22.7-17.04,1.03-1.88,4.2-9.63,5.44-10.22.55-.27,1.1-.27,1.68-.22.07.74,0,1.41-.2,2.13-1.36,4.85-8.92,18.2-12.48,21.81-10.7,10.84-31.23,9.37-30.51-8.7l-4.86,6.78c-3.25,3.2-6.63,7.36-11.47,8-10.31,1.37-14.86-6.86-12.88-16.05-5.46,7.32-10.29,17.83-21.28,15.98-5.32-.89-7.53-7-7.09-11.75l-3.17,4.24c-7.61,10.02-26.71,13.25-26.47-4.01.14-10.43,8.33-31.59,12.51-41.7,4.01-9.71,14.26-33.25,23.2-38.18,12.36-6.81,10.87,7.86,8.11,15.3-4.42,11.89-14.2,28.44-22.43,38.11-2.18,2.56-8.12,7.56-9.44,9.61-2.98,4.63-5.13,16.21-3.37,21.38s7.09,5.1,11.04,2.37c7.46-5.16,16.88-26.58,20.07-35.38.57-1.57,2.25-5.3,2.24-6.67-.01-1.67-1.44-2.54-1.71-4.02ZM167.4,86.36c3.59-3.09,6.47-7.03,9.23-10.87,5.57-7.76,20.16-31.16,19.15-40.16-.38-3.39-3.62.93-4.66,2.16-6.68,7.9-12.79,22-17.03,31.65-2.47,5.62-4.85,11.35-6.69,17.22ZM233.86,64.35h6.99c3.08-5.13,6.55-11.3,8.38-17.02.49-1.53,2.94-9.77.52-9.96-3.73,1.66-6.36,6.26-8.33,9.76-3.06,5.44-5.27,11.42-7.55,17.22ZM238.52,68.16h-6.77l-7.19,18.62c3.06-2.5,5.13-6.02,7.79-8.92l6.18-9.7ZM252.49,95.67c8.81-1.14,17-5.67,21.24-13.68,3.65-6.9,3.43-14.92-5.58-7.7-6.45,5.17-12.16,13.97-15.66,21.38ZM207.71,60.43c6.58-2.43,6.39-13-1.91-11.64s-7.32,15.05,1.91,11.64ZM435.93,33.35c9.3-1.5,17.47-10.65,13.8-20.37-7.11-18.84-46.3-13.37-60.77-7.11-18.88,8.16-30.23,28.56-9.59,42.75,18.23,12.53,61.22,17.11,47.07,49.75-19.93,45.98-126.9,46.6-104.11-18.58,3.36-9.6,9.7-17.68,17.79-23.69-.26-1.74-3.01-.52-3.96-.15-5.63,2.17-12.63,9.52-16.03,14.45-22.29,32.34-1.26,59.61,33.81,63.75,28.1,3.31,60.38-6.54,78.24-29.19,17.5-22.19,7.11-37.08-14.84-48.17-11.98-6.05-47.05-16.55-36.16-35.83,8.01-14.2,38.72-20.69,52.93-14.79,7.9,3.28,15.19,13.05,8.7,20.95-2.98,3.63-8.36,2.79-9.84,4.34-2.03,2.13,1.55,2.13,2.95,1.9ZM593.8,98.28c-2.81,8.52-5,22.44,8.52,20.16,2.52-.43,10.12-5.76,11.1-7.95,1.51-3.38.72-8.78,6.18-10.01,5.22-9.04,8.91-19.07,14.14-28.08,1.89-3.25,5.49-8.72,9.23-9.82,2.69-.79,9.08-.94,8.77,3.05-3.72-.07-5.32-2.01-8.61.91-9.04,8.02,2.67,22.97,3.86,31.15.87,6-1.62,12.22-5.61,16.62-.56.62-4.62,3.7-4.02,4.23,14.1.51,18.43-16.53,24.96-26.04,1.12-.91,2.35-1.23,2.11.41-.26,1.82-4.27,9.49-5.41,11.52-3.79,6.74-10.23,15.63-18.54,16.6-2.75.32-5.27-.52-7.56-.4-1.76.09-3.91,1.32-5.94,1.33-5.77.02-10.23-2.42-12.7-7.64-9.55,11.2-31.46,10.31-31.33-7.63-5.42,8.8-11.68,16.36-23.18,14.71-5.4-.77-7.88-6.14-7.96-11.13-.01-.78.96-5.67.23-5.7-3.11,5.63-9.21,15.55-16.12,16.48-8.8,1.17-12.28-4.15-12.24-12.24-4.02,6.6-11.24,15.39-20.02,12.4-8.38-2.85-6.57-12.5-3.98-19.03,1.9-4.78,7.71-11.81,8.77-15.78.24-.91.34-1.78.14-2.71-.42-1.23-2.34-.64-3.21-.36-7.08,2.25-19.11,17.8-23.15,24.25-2.58,4.11-4.65,8.57-6.38,13.1-1.76,1.83-4.28-1.8-4.68-3.38-2.25-8.85,7.18-21.61,9.98-29.84.3-.89,1.74-4.92-.14-4.82-3.58.19-13.44,10.69-15.95,13.7-6.14,7.35-10.51,15.45-15.23,23.72-2.22,1.91-6.94.53-9.76,1.45,3.29-6.39,6.55-12.84,9.68-19.31,3.74-7.75,7.1-16.18,11.57-23.56,1.89-3.11,4.18-7.09,8.17-7.49.93-.09,7,.26,6.98,1.06-6.9,6.94-11.51,15.98-15.65,24.76,3.37-3.19,6.35-6.76,9.73-9.95,3.99-3.78,12.76-11.85,17.5-13.83,2.52-1.05,5.22-1.95,7.3.47,2.07,2.41-.44,6.5-1.57,9.07-2.21,5.04-5.46,9.57-7.56,14.66,4.88-5.39,9.39-10.64,15.36-14.91,6.31-4.52,14.96-9.97,22.74-10.49.57.54-2.7,5.42-3.18,6.34-4.2,7.97-13.94,25.75-14.59,34.09-.43,5.52,1.86,7.54,6.74,4.2,8.78-6.01,19.52-30.01,22.34-40.31.85-3.11-.02-3.12-.72-6.01,2.64.13,12.36-2.2,11.68,2.55-3.91,10.88-9.56,21.38-13.57,32.17-1.62,4.35-4.9,13.96,3.35,12.66,6.58-1.04,14.53-16.25,17.39-21.97,4.31-8.61,6.88-19.1,10.71-28.23,3.96-9.43,14.57-33.47,23.34-38.05,6.58-3.44,10.68-.54,10.18,6.79-.78,11.4-16.74,37.32-24.33,46.36-2.34,2.78-8.3,7.79-9.71,10.18-1.52,2.57-3.81,10.71-4.05,13.73-1.02,13.25,7.86,15.36,15.65,5.91,11.19-13.58,14.49-37.86,34.32-43.57,11.46-3.3,16.04,4.79,10.21,14.44s-16.03,13.58-26.26,15.02ZM594.12,34.34c-1.21-.82-3.42,1.88-4.18,2.72-2.55,2.84-4.99,7.13-6.86,10.5-6.85,12.33-12.29,25.64-17.28,38.8,1.09-.76,2.06-1.78,2.95-2.76,7.6-8.43,25.19-36.19,25.81-47.04.05-.81-.14-1.49-.44-2.22ZM595.01,95.67c8.41-1.16,16.22-5.16,20.66-12.57,1.49-2.49,5.78-12.33-.09-11.54-4.78.64-13.06,11.56-15.76,15.59-.53.8-5.17,8.18-4.81,8.52ZM622.52,101.17c3.66.51,2.25,3.51,2.59,6.09.38,2.81,2.8,9.39,6.12,9.58,1.67.1,4.59-5.04,5.2-6.62,4.12-10.61-1.27-24.3-.8-35.29l-13.12,26.24ZM628.45,118.95c-3.06-3.03-5.16-6.69-5.71-11-5.06,4.84-1.77,13.23,5.71,11ZM545.31,60.95c9.42.66,11.27-14.3.89-12.16-5.91,1.22-7.84,11.67-.89,12.16ZM92.59,128.34c-75.04,14.27-85.01-60.93-11.57-69.49.18-.96-.04-.68-.54-.94C25.04,29.97,126.13-13.93,149.61,9.11c19.09,14.03-16.72,36.67-26.25,30.48.37-1.54,7.92-2.49,9.85-3.28,8.74-3.6,18.75-18.33,9.21-25.93-20.87-11.46-71.14,4.5-66.71,33.25,3.28,11.96,20.98,10.09,28.89,14.72,4.01,2.34,2.5,6.23-1.81,6.82-7.85,1.07-17.83-.39-26.21.47-12.37,1.27-24.27,7.37-30.37,18.43l-2.03,3.35c-11.57,21.08,7.32,38.99,28.55,38.65,3.75.1,9.91-.35,14.16-.74.88-.08,1.75-.2,2.62-.37l2.3-.44c17.66-3.62,51.11-16.34,54.33-36.12-.63-3.97-4.9-2.92-7.1-5.19.01-2.03,5.79-.15,6.88.31,9.3,3.92,6.77,13.29,1.56,19.57-11.81,14.01-33.59,21.5-51.28,24.45l-3.61.82Z" style="fill:url(#linear-gradient-3);"/></svg>