<svg width="1080" height="1350" viewBox="0 0 1080 1350" fill="none" xmlns="http://www.w3.org/2000/svg" preserveAspectRatio="none">
<path d="M158 384C194 384 224 354 224 318C224 282 194 252 158 252C122 252 92 282 92 318C92 354 122 384 158 384Z" fill="#FBFDFD" stroke="#3BD3CC" stroke-width="3"/>
<path d="M128 284L131 290L138 291L133 296L134 304L128 301L122 304L123 296L118 291L125 290L128 284Z" fill="#128F88"/>
<path d="M143 284L146 290L153 291L148 296L149 304L143 301L137 304L138 296L133 291L140 290L143 284Z" fill="#128F88"/>
<path d="M158 284L161 290L168 291L163 296L164 304L158 301L152 304L153 296L148 291L155 290L158 284Z" fill="#128F88"/>
<path d="M173 284L176 290L183 291L178 296L179 304L173 301L167 304L168 296L163 291L170 290L173 284Z" fill="#128F88"/>
<path d="M188 284L191 290L198 291L193 296L194 304L188 301L182 304L183 296L178 291L185 290L188 284Z" fill="#128F88"/>
</svg>
