<svg width="1080" height="1350" viewBox="0 0 1080 1350" fill="none" xmlns="http://www.w3.org/2000/svg" preserveAspectRatio="none">
<g clip-path="url(#clip0_49_2)">
<path d="M1080 0H0V1350H1080V0Z" fill="#F4F8F8"/>
<path d="M150 186C278 186 382 82 382 -46C382 -174 278 -278 150 -278C22 -278 -82 -174 -82 -46C-82 82 22 186 150 186Z" fill="#0C2E36"/>
<path d="M486 78C594 78 682 -10 682 -118C682 -226 594 -314 486 -314C378 -314 290 -226 290 -118C290 -10 378 78 486 78Z" fill="#0C2E36"/>
<path d="M868 100C966 100 1046 20 1046 -78C1046 -176 966 -256 868 -256C770 -256 690 -176 690 -78C690 20 770 100 868 100Z" fill="#0C2E36"/>
<path d="M140 1748C275 1748 384 1639 384 1504C384 1369 275 1260 140 1260C5 1260 -104 1369 -104 1504C-104 1639 5 1748 140 1748Z" fill="#0C2E36"/>
<path d="M952 1714C1075 1714 1174 1615 1174 1492C1174 1369 1075 1270 952 1270C829 1270 730 1369 730 1492C730 1615 829 1714 952 1714Z" fill="#0C2E36"/>
<path d="M996 614C1060 614 1112 562 1112 498C1112 434 1060 382 996 382C932 382 880 434 880 498C880 562 932 614 996 614Z" fill="#E6F5F4"/>
<path d="M612 1050C651 1050 682 1019 682 980C682 941 651 910 612 910C573 910 542 941 542 980C542 1019 573 1050 612 1050Z" fill="#E6F5F4"/>
<path d="M840 487H557C554 487 552 489 552 492C552 494 554 496 557 496H840C842 496 844 494 844 492C844 489 842 487 840 487Z" fill="#3BD3CC"/>
<path d="M988 556H580C565 556 552 569 552 584V700C552 715 565 728 580 728H988C1003 728 1016 715 1016 700V584C1016 569 1003 556 988 556Z" fill="url(#paint1_linear_49_2)"/>
<path d="M952 846H590C569 846 552 863 552 884C552 905 569 922 590 922H952C973 922 990 905 990 884C990 863 973 846 952 846Z" fill="#3BD3CC"/>
<path d="M905 884H929M920 876L930 884L920 892" stroke="#07313A" stroke-width="3" stroke-linecap="round" stroke-linejoin="round"/>
<path d="M564 960L567 966L574 967L569 972L570 980L564 977L558 980L559 972L554 967L561 966L564 960Z" fill="#128F88"/>
<path d="M583 960L586 966L593 967L588 972L589 980L583 977L577 980L578 972L573 967L580 966L583 960Z" fill="#128F88"/>
<path d="M602 960L605 966L612 967L607 972L608 980L602 977L596 980L597 972L592 967L599 966L602 960Z" fill="#128F88"/>
<path d="M621 960L624 966L631 967L626 972L627 980L621 977L615 980L616 972L611 967L618 966L621 960Z" fill="#128F88"/>
<path d="M640 960L643 966L650 967L645 972L646 980L640 977L634 980L635 972L630 967L637 966L640 960Z" fill="#128F88"/>
</g>
<defs>
<linearGradient id="paint1_linear_49_2" x1="552" y1="556" x2="552" y2="728" gradientUnits="userSpaceOnUse">
<stop stop-color="#155F70"/>
<stop offset="1" stop-color="#0C2E36"/>
</linearGradient>
<clipPath id="clip0_49_2">
<rect width="1080" height="1350" fill="white"/>
</clipPath>
</defs>
</svg>
