<svg width="1080" height="1920" viewBox="0 0 1080 1920" fill="none" xmlns="http://www.w3.org/2000/svg" preserveAspectRatio="none">
<path d="M158 292C194 292 224 262 224 226C224 190 194 160 158 160C122 160 92 190 92 226C92 262 122 292 158 292Z" fill="#FBFDFD" stroke="#3BD3CC" stroke-width="3"/>
<path d="M128 192L131 198L138 199L133 204L134 212L128 209L122 212L123 204L118 199L125 198L128 192Z" fill="#128F88"/>
<path d="M143 192L146 198L153 199L148 204L149 212L143 209L137 212L138 204L133 199L140 198L143 192Z" fill="#128F88"/>
<path d="M158 192L161 198L168 199L163 204L164 212L158 209L152 212L153 204L148 199L155 198L158 192Z" fill="#128F88"/>
<path d="M173 192L176 198L183 199L178 204L179 212L173 209L167 212L168 204L163 199L170 198L173 192Z" fill="#128F88"/>
<path d="M188 192L191 198L198 199L193 204L194 212L188 209L182 212L183 204L178 199L185 198L188 192Z" fill="#128F88"/>
</svg>
