<svg width="1080" height="1920" viewBox="0 0 1080 1920" fill="none" xmlns="http://www.w3.org/2000/svg" preserveAspectRatio="none">
<g clip-path="url(#clip0_49_144)">
<path d="M1080 0H0V1920H1080V0Z" fill="#F4F8F8"/>
<path d="M150 186C278 186 382 82 382 -46C382 -174 278 -278 150 -278C22 -278 -82 -174 -82 -46C-82 82 22 186 150 186Z" fill="#0C2E36"/>
<path d="M486 78C594 78 682 -10 682 -118C682 -226 594 -314 486 -314C378 -314 290 -226 290 -118C290 -10 378 78 486 78Z" fill="#0C2E36"/>
<path d="M868 100C966 100 1046 20 1046 -78C1046 -176 966 -256 868 -256C770 -256 690 -176 690 -78C690 20 770 100 868 100Z" fill="#0C2E36"/>
<path d="M140 1748C275 1748 384 1639 384 1504C384 1369 275 1260 140 1260C5 1260 -104 1369 -104 1504C-104 1639 5 1748 140 1748Z" fill="#0C2E36"/>
<path d="M952 1714C1075 1714 1174 1615 1174 1492C1174 1369 1075 1270 952 1270C829 1270 730 1369 730 1492C730 1615 829 1714 952 1714Z" fill="#0C2E36"/>
<path d="M996 910C1060 910 1112 858 1112 794C1112 730 1060 678 996 678C932 678 880 730 880 794C880 858 932 910 996 910Z" fill="#E6F5F4"/>
<path d="M612 1346C651 1346 682 1315 682 1276C682 1237 651 1206 612 1206C573 1206 542 1237 542 1276C542 1315 573 1346 612 1346Z" fill="#E6F5F4"/>
<path d="M840 811H557C554 811 552 813 552 816C552 818 554 820 557 820H840C842 820 844 818 844 816C844 813 842 811 840 811Z" fill="#3BD3CC"/>
<path d="M988 852H580C565 852 552 865 552 880V996C552 1011 565 1024 580 1024H988C1003 1024 1016 1011 1016 996V880C1016 865 1003 852 988 852Z" fill="url(#paint1_linear_49_144)"/>
<path d="M952 1142H590C569 1142 552 1159 552 1180C552 1201 569 1218 590 1218H952C973 1218 990 1201 990 1180C990 1159 973 1142 952 1142Z" fill="#3BD3CC"/>
<path d="M905 1180H929M920 1172L930 1180L920 1188" stroke="#07313A" stroke-width="3" stroke-linecap="round" stroke-linejoin="round"/>
<path d="M564 1256L567 1262L574 1263L569 1268L570 1276L564 1273L558 1276L559 1268L554 1263L561 1262L564 1256Z" fill="#128F88"/>
<path d="M583 1256L586 1262L593 1263L588 1268L589 1276L583 1273L577 1276L578 1268L573 1263L580 1262L583 1256Z" fill="#128F88"/>
<path d="M602 1256L605 1262L612 1263L607 1268L608 1276L602 1273L596 1276L597 1268L592 1263L599 1262L602 1256Z" fill="#128F88"/>
<path d="M621 1256L624 1262L631 1263L626 1268L627 1276L621 1273L615 1276L616 1268L611 1263L618 1262L621 1256Z" fill="#128F88"/>
<path d="M640 1256L643 1262L650 1263L645 1268L646 1276L640 1273L634 1276L635 1268L630 1263L637 1262L640 1256Z" fill="#128F88"/>
</g>
<defs>
<linearGradient id="paint1_linear_49_144" x1="552" y1="852" x2="552" y2="1024" gradientUnits="userSpaceOnUse">
<stop stop-color="#155F70"/>
<stop offset="1" stop-color="#0C2E36"/>
</linearGradient>
<clipPath id="clip0_49_144">
<rect width="1080" height="1920" fill="white"/>
</clipPath>
</defs>
</svg>
