<?xml version="1.0" encoding="UTF-8"?><svg id="Layer_1" xmlns="http://www.w3.org/2000/svg" viewBox="0 0 768 232.75"><path d="M734.57,232.43c-2.74-.32-6.49-2.52-9.53-2.62l1.22-10.79c8.36,4.44,27.47,6.87,29.78-5.71,3.18-17.38-28.52-15.49-31.55-33.08-4.18-24.28,22.35-29.26,40.13-22.47l-1.26,10.17c-7.89-3.75-29.25-6.32-27.37,7.81,1.5,11.24,28.1,11.84,31.44,28.68,2.79,14.09-4.86,26.13-19.42,28.01-2.91.37-10.49.35-13.44,0Z"/><path d="M694.27,232.43c-14.16-1.75-27.22-13.75-30.27-27.57-7.84-35.47,21.83-58.76,54.91-46.51l-.33,10.86c-44.21-22.76-64.26,47.87-16.97,53.67l17.31-3.24.69,10.25c-.37.57-7.61,2.42-8.7,2.53-3.74.41-12.95.46-16.63,0Z"/><polygon points="16.44 70.24 37.88 126.43 59.94 70.24 75.62 70.24 75.62 71.19 75.62 139.2 65.38 139.2 65.38 81.09 43.53 139.2 32.81 139.2 11 81.73 11 139.2 10.04 139.2 .76 139.2 .76 71.19 .76 70.24 16.44 70.24" style="fill:#866aa7;"/><polygon points="236.84 139.2 223.08 139.2 192.69 106.63 192.69 139.2 182.46 139.2 182.46 70.87 192.69 70.87 192.69 100.25 221.16 70.87 233.32 70.87 202.98 103.03 236.84 139.2" style="fill:#866aa7;"/><path d="M128.08,139.2h-8.32s0-6.39,0-6.39c-10.89,13.12-36.76,9.24-33.84-11.12,1.05-7.34,11.32-13.79,18.17-13.79h14.39c.5-16.41-16.96-13.24-26.87-7.67l.1-7.23c10.49-8.94,36.36-6.36,36.36,10.75v35.44ZM118.4,115.65c-5.24-1.87-20.66-.21-22.17,6.13-3.26,13.69,17.91,13.94,21.44,2.89.94-2.95,1-5.96.73-9.01Z" style="fill:#866aa7;"/><path d="M250.27,116.21c1.32,18.04,19.14,19.55,31.98,11.5v8.94c-13.67,7.22-35,4.68-40.32-11.79-13.24-41.01,44.66-51.92,43.9-8.64h-35.56ZM275.86,109.19c-.89-18.19-23.9-17.61-25.59,0h25.59Z" style="fill:#866aa7;"/><path d="M463.95,116.21h-35.19c.37,17.6,19.09,19.82,31.35,11.49v9.58c-15.1,5.99-35.86,4.14-40.49-14.18-10.57-41.75,47.02-49.57,44.33-6.89ZM453.72,109.19c.58-18.28-24.5-17.66-24.95,0h24.95Z" style="fill:#866aa7;"/><path d="M339.2,139.2h-9.6v-32.25c0-4.56-3.87-10.39-8.68-11.13-10.27-1.58-16.91,8.2-16.91,17.51v25.86h-9.6v-49.81h9.6l.32,7.03c8.68-14.62,34.87-9.42,34.87,8.61v34.16Z" style="fill:#866aa7;"/><polygon points="387.82 89.39 387.82 97.93 359.03 131.54 388.46 131.54 388.46 139.2 347.87 139.2 347.87 130.93 376.31 97.06 349.43 97.06 349.43 89.39 387.82 89.39" style="fill:#866aa7;"/><path d="M172.86,97.69c-35.39-13.07-35.4,47.07,0,32.57v7.7c-48.05,15.9-49.58-61.94,0-48.26v7.99Z" style="fill:#866aa7;"/><rect x="398.7" y="89.39" width="9.6" height="49.81" style="fill:#866aa7;"/><rect x="398.7" y="67.68" width="10.24" height="10.22" style="fill:#866aa7;"/><path d="M750.56,0c-31.84,53.73-90.72,92.24-152.15,103.24-41.54,7.44-82.46,3.17-122.94-7.77-.16-1.1-.71-.05,0,0,11.34.85,25.08,3.05,36.76,3.53,75.98,3.14,142.79-22.21,201.8-68.1,12.61-9.8,24.17-20.83,36.53-30.9Z" style="fill:#866aa7;"/><path d="M523.15,109.01h0c42.38,10.21,90.12,16.64,132.25,1.93,26.29-9.18,46.56-26.97,68.93-42.62-12.37,19.31-26.83,38.6-46.75,50.71-47.43,28.82-106.93,7.93-154.43-10.02Z" style="fill:#dacee5;"/><path d="M39.89,232.43h-6.03c-4.32,0-8.67-.69-12.62-2.43-10.59-4.65-17.23-13.71-20.12-25.18-.61-2.43-.9-4.94-.92-7.45-.03-3.01-.37-6.18-.07-9,1.74-16.31,13.55-31.21,30.46-33.13,50.07-5.68,53.7,62.49,20.23,75.39-3.47,1.34-7.21,1.8-10.92,1.8ZM33.89,164.92c-27.66,2.33-28.97,50.27-4.83,56.83,40.17,10.9,42.82-60.02,4.83-56.83Z" style="fill:#231f20;"/><path d="M310.56,232.43h-4.96c-4.63,0-9.28-.81-13.47-2.78-37.78-17.73-22.87-86.42,26.74-73.03,32.07,8.66,32.97,61.12,3.73,73.6-3.78,1.61-7.92,2.2-12.04,2.2ZM305.16,164.94c-30.35,2.36-30.35,60.03,4.27,57.9,31.08-1.92,30.08-60.57-4.27-57.9Z" style="fill:#231f20;"/><path d="M469.07,232.43h-14.71c-47.6-11.22-34.18-90.08,18.69-75.8,34.68,9.37,32.82,69.87-3.97,75.8ZM459.34,164.94c-30.38,2.37-30.35,60.03,4.27,57.9,31.23-1.93,29.9-60.56-4.27-57.9Z" style="fill:#231f20;"/><polygon points="523.77 156.44 556.72 215.19 556.72 156.44 568.23 156.44 568.23 230.83 567.27 231.79 554.48 231.79 520.25 170.49 520.25 230.83 519.29 231.79 509.38 231.79 509.38 156.44 523.77 156.44" style="fill:#231f20;"/><path d="M354.55,231.79v-75.35h29.75c15.66,0,30.9,17.24,32.29,32.26,2.66,28.7-13.39,41.83-34.72,43.09-9.18.54-27.33,0-27.33,0ZM365.43,221.57h16.95c30.85,0,29.04-55.55-.64-55.55h-16.31v55.55Z" style="fill:#231f20;"/><path d="M112.4,156.44c20.42,0,26.24,31.42,4.16,37.35,10.21,9.34,14.26,25.64,20.47,38h-11.84c-5.6-7.99-8.14-21.63-13.63-29.18-.88-1.21-3.6-4.03-4.92-4.03h-11.84v33.2h-11.52v-75.35h29.11ZM94.81,188.37h12.48c15.31,0,16.13-22.35.64-22.35h-13.12v22.35c0,.14,0,0,0,0Z" style="fill:#231f20;"/><polygon points="212.53 156.44 212.53 187.73 247.71 187.73 247.71 156.44 259.23 156.44 259.23 230.83 259.23 231.79 247.71 231.79 247.71 230.83 247.71 197.31 212.53 197.31 212.53 230.83 212.53 231.79 201.65 231.79 201.65 156.44 212.53 156.44" style="fill:#231f20;"/><polygon points="193.97 156.44 193.97 166.02 170.94 166.02 170.94 230.83 170.94 231.79 159.43 231.79 159.43 230.83 159.43 166.02 136.39 166.02 136.39 156.44 193.97 156.44" style="fill:#231f20;"/><polygon points="632.85 156.44 632.85 166.02 609.18 166.02 609.18 231.79 599.26 231.79 598.3 230.83 598.3 166.02 575.27 166.02 575.27 156.44 632.85 156.44" style="fill:#231f20;"/><rect x="639.89" y="156.44" width="10.88" height="75.35" style="fill:#231f20;"/></svg>