<svg width="1080" height="1920" viewBox="0 0 1080 1920" fill="none" xmlns="http://www.w3.org/2000/svg" preserveAspectRatio="none"><path d="M806 479C840 479 868 451 868 417C868 383 840 355 806 355C772 355 744 383 744 417C744 451 772 479 806 479Z" fill="#FDFAF3"/><path d="M806 479C840 479 868 451 868 417C868 383 840 355 806 355C772 355 744 383 744 417C744 451 772 479 806 479Z" stroke="#AED6C1" stroke-width="4"/><path d="M737.2 482C738.46 489.35 740.77 491.66 747.7 492.5C740.77 493.34 738.46 495.65 737.2 503C735.94 495.65 733.63 493.34 726.7 492.5C733.63 491.66 735.94 489.35 737.2 482Z" stroke="#AED6C1" stroke-width="3.57" stroke-linejoin="round"/></svg>