<svg width="1080" height="1350" viewBox="0 0 1080 1350" fill="none" xmlns="http://www.w3.org/2000/svg" preserveAspectRatio="none">
<g clip-path="url(#clip0_38_2)">
<path d="M1080 0H0V1350H1080V0Z" fill="#FDFAF3"/>
<path d="M988 150H92C61 150 36 175 36 206V1258C36 1289 61 1314 92 1314H988C1019 1314 1044 1289 1044 1258V206C1044 175 1019 150 988 150Z" fill="url(#paint0_linear_38_2)"/>
<mask id="mask0_38_2" style="mask-type:luminance" maskUnits="userSpaceOnUse" x="36" y="150" width="1008" height="1164">
<path d="M988 150H92C61 150 36 175 36 206V1258C36 1289 61 1314 92 1314H988C1019 1314 1044 1289 1044 1258V206C1044 175 1019 150 988 150Z" fill="white"/>
</mask>
<g mask="url(#mask0_38_2)">
<path opacity="0.08" d="M1010 600C1176 600 1310 466 1310 300C1310 134 1176 0 1010 0C844 0 710 134 710 300C710 466 844 600 1010 600Z" fill="#AED6C1"/>
<path opacity="0.1" d="M110 1670C320 1670 490 1500 490 1290C490 1080 320 910 110 910C-100 910 -270 1080 -270 1290C-270 1500 -100 1670 110 1670Z" fill="#AED6C1"/>
</g>
<path opacity="0.85" d="M638 68H458C375 68 308 135 308 218V494C308 577 375 644 458 644H638C721 644 788 577 788 494V218C788 135 721 68 638 68Z" fill="#AED6C1"/>
<path d="M630 54H450C367 54 300 121 300 204V480C300 563 367 630 450 630H630C713 630 780 563 780 480V204C780 121 713 54 630 54Z" fill="#FDFAF3"/>
<path d="M350 122L147 140C131 141 119 155 120 171C122 187 136 199 152 198L355 180C371 179 383 164 381 148C380 133 366 121 350 122Z" fill="#FDFAF3"/>
<path d="M806 304C840 304 868 276 868 242C868 208 840 180 806 180C772 180 744 208 744 242C744 276 772 304 806 304Z" fill="#FDFAF3"/>
<path d="M806 304C840 304 868 276 868 242C868 208 840 180 806 180C772 180 744 208 744 242C744 276 772 304 806 304Z" stroke="#AED6C1" stroke-width="4"/>
<path d="M737.2 307.35C738.46 314.7 740.77 317.01 747.7 317.85C740.77 318.69 738.46 321 737.2 328.35C735.94 321 733.63 318.69 726.7 317.85C733.63 317.01 735.94 314.7 737.2 307.35Z" stroke="#AED6C1" stroke-width="3.57" stroke-linejoin="round"/>
<path d="M337 1000H89C73 1000 60 1013 60 1029C60 1045 73 1058 89 1058H337C353 1058 366 1045 366 1029C366 1013 353 1000 337 1000Z" fill="#AED6C1"/>
<path d="M664 1000H416C400 1000 387 1013 387 1029C387 1045 400 1058 416 1058H664C680 1058 693 1045 693 1029C693 1013 680 1000 664 1000Z" fill="#AED6C1"/>
<path d="M991 1000H743C727 1000 714 1013 714 1029C714 1045 727 1058 743 1058H991C1007 1058 1020 1045 1020 1029C1020 1013 1007 1000 991 1000Z" fill="#AED6C1"/>
<path d="M713 1095H367C344 1095 325 1114 325 1137C325 1160 344 1179 367 1179H713C736 1179 755 1160 755 1137C755 1114 736 1095 713 1095Z" fill="#FDFAF3"/>
<path d="M712 1161C725 1161 736 1150 736 1137C736 1124 725 1113 712 1113C699 1113 688 1124 688 1137C688 1150 699 1161 712 1161Z" fill="#243F86"/>
<path d="M703 1137H718M711 1129L719 1137L711 1145" stroke="#FDFAF3" stroke-width="3.5" stroke-linecap="round" stroke-linejoin="round"/>
<path opacity="0.35" d="M80 1205H1000" stroke="#AED6C1" stroke-width="2"/>
</g>
<defs>
<linearGradient id="paint0_linear_38_2" x1="36" y1="150" x2="36" y2="1314" gradientUnits="userSpaceOnUse">
<stop stop-color="#2A4793"/><stop offset="1" stop-color="#1B3168"/>
</linearGradient>
<clipPath id="clip0_38_2"><rect width="1080" height="1350" fill="white"/></clipPath>
</defs>
</svg>
