<svg width="1080" height="1350" viewBox="0 0 1080 1350" fill="none" xmlns="http://www.w3.org/2000/svg" preserveAspectRatio="none"><path d="M806 304C840 304 868 276 868 242C868 208 840 180 806 180C772 180 744 208 744 242C744 276 772 304 806 304Z" fill="#FDFAF3"/><path d="M806 304C840 304 868 276 868 242C868 208 840 180 806 180C772 180 744 208 744 242C744 276 772 304 806 304Z" stroke="#AED6C1" stroke-width="4"/><path d="M737.2 307.35C738.46 314.7 740.77 317.01 747.7 317.85C740.77 318.69 738.46 321 737.2 328.35C735.94 321 733.63 318.69 726.7 317.85C733.63 317.01 735.94 314.7 737.2 307.35Z" stroke="#AED6C1" stroke-width="3.57" stroke-linejoin="round"/></svg>