<svg width="1080" height="1920" viewBox="0 0 1080 1920" fill="none" xmlns="http://www.w3.org/2000/svg" preserveAspectRatio="none">
<g clip-path="url(#clip0_39_2)">
<path d="M1080 0H0V1920H1080V0Z" fill="#FDFAF3"/>
<path d="M988 190H92C61 190 36 223 36 263V1627C36 1667 61 1700 92 1700H988C1019 1700 1044 1667 1044 1627V263C1044 223 1019 190 988 190Z" fill="url(#paint0_linear_39_2)"/>
<mask id="mask0_39_2" style="mask-type:luminance" maskUnits="userSpaceOnUse" x="36" y="190" width="1008" height="1510">
<path d="M988 190H92C61 190 36 223 36 263V1627C36 1667 61 1700 92 1700H988C1019 1700 1044 1667 1044 1627V263C1044 223 1019 190 988 190Z" fill="white"/>
</mask>
<g mask="url(#mask0_39_2)">
<path opacity="0.08" d="M1010 774C1176 774 1310 600 1310 385C1310 170 1176 -5 1010 -5C844 -5 710 170 710 385C710 600 844 774 1010 774Z" fill="#AED6C1"/>
<path opacity="0.1" d="M110 2162C320 2162 490 1941 490 1669C490 1397 320 1176 110 1176C-100 1176 -270 1397 -270 1669C-270 1941 -100 2162 110 2162Z" fill="#AED6C1"/>
</g>
<path opacity="0.85" d="M638 216H458C375 216 308 300 308 403V747C308 850 375 934 458 934H638C721 934 788 850 788 747V403C788 300 721 216 638 216Z" fill="#AED6C1"/>
<path d="M630 210H450C367 210 300 295 300 400V750C300 855 367 940 450 940H630C713 940 780 855 780 750V400C780 295 713 210 630 210Z" fill="#FDFAF3"/>




<path d="M337 1335H89C73 1335 60 1348 60 1364C60 1380 73 1393 89 1393H337C353 1393 366 1380 366 1364C366 1348 353 1335 337 1335Z" fill="#AED6C1"/>
<path d="M664 1335H416C400 1335 387 1348 387 1364C387 1380 400 1393 416 1393H664C680 1393 693 1380 693 1364C693 1348 680 1335 664 1335Z" fill="#AED6C1"/>
<path d="M991 1335H743C727 1335 714 1348 714 1364C714 1380 727 1393 743 1393H991C1007 1393 1020 1380 1020 1364C1020 1348 1007 1335 991 1335Z" fill="#AED6C1"/>
<path d="M713 1440H367C344 1440 325 1459 325 1482C325 1505 344 1524 367 1524H713C736 1524 755 1505 755 1482C755 1459 736 1440 713 1440Z" fill="#FDFAF3"/>
<path d="M712 1506C725 1506 736 1495 736 1482C736 1469 725 1458 712 1458C699 1458 688 1469 688 1482C688 1495 699 1506 712 1506Z" fill="#243F86"/>
<path d="M703 1482H718M711 1474L719 1482L711 1490" stroke="#FDFAF3" stroke-width="3.5" stroke-linecap="round" stroke-linejoin="round"/>
<path opacity="0.35" d="M80 1560H1000" stroke="#AED6C1" stroke-width="2"/>
</g>
<defs>
<linearGradient id="paint0_linear_39_2" x1="36" y1="190" x2="36" y2="1700" gradientUnits="userSpaceOnUse">
<stop stop-color="#2A4793"/><stop offset="1" stop-color="#1B3168"/>
</linearGradient>
<clipPath id="clip0_39_2"><rect width="1080" height="1920" fill="white"/></clipPath>
</defs>
</svg>
