<?xml version="1.0" encoding="UTF-8"?>
<svg id="Layer_1" data-name="Layer 1" xmlns="http://www.w3.org/2000/svg" viewBox="0 0 705.32 497.09">
  <defs>
    <style>
      .cls-1 {
        fill: #fac04b;
      }

      .cls-2 {
        fill: #afbe5d;
      }

      .cls-3 {
        fill: #b5d2e0;
      }

      .cls-4 {
        fill: #fefefe;
      }

      .cls-5 {
        fill: #2b2a28;
      }

      .cls-6 {
        fill: #4aa1c9;
      }

      .cls-7 {
        fill: #e284a1;
      }
    </style>
  </defs>
  <path class="cls-4" d="M423.15,474.22c-1.27-.18-1.17-.41-.7-1,.51-.22.91-.51.7,1Z"/>
  <g>
    <path class="cls-5" d="M168.69,192.47c-1.37.77-2.92.11-3.71-.31-3.2-1.75-.04-8.56-.8-10.8-24.02-.16-43.73-19.31-50.68-40.81-2.36-7.31-2.58-15.05-1.36-22.5,3.67-22.34,23.33-37.45,46.22-35.52-2.82-13.96-2.14-26.95,2.63-39.03,9.62-24.36,36.05-35.51,59.84-24.72,15.48,7.02,25.28,21.32,25.98,38.84,1.11,27.51-16.61,50.11-42.1,59.19,1.86,4.05,4.53,7.34,3.02,10.86-.94,2.18-4.64,1.2-7.14,1.74.1,6.97-.41,13.43-1.25,20.09l-2.3,18.24c-1.4,11.15-2.12,22.1.12,33.37,2.55-2.03,4.79-4.22,8.28-4.68,2.59-.34,5.74,1.04,7.02,3.34,2.25,4.01.84,8.89-2.61,11.63s.28,6.56-.6,12.88l31.47,12.23-14.06-24.03c-4.67-9.44-8.8-18.49-11.47-28.68-3.62-11.54-4.38-23.07-3.78-35.26,1.26-25.44,18-48.31,42.62-55.81,10.41-3.17,21.95-2.87,32.27.17,18.44,5.42,31.63,17.23,48.89,25.14,5.39-1.94,10.71-3.4,15.69-5.99l28.95-15.02c24.36-12.64,54.67-13.15,75.59,7.22,11.09,10.8,17.15,24.86,18.63,40.36,2.76,28.9-6.14,51.47-19.82,76.05-2.69,4.84-6.04,9.02-7.92,15.02l30.6-13.82.5-10.41c-.15-2.16-2.75-3.62-3.65-5.53-1.69-3.62-1.27-7.81,1.98-10.31,3.06-2.35,7.06-2.13,10.91,1.17,1.56-4.15,2.33-8.73,1.25-13.21-3.28-13.54-5.08-26.92-7.44-40.6-1.3-7.58-3.41-14.59-2.33-22.5-2.7-.59-6.26.35-7.78-1.34-2.45-2.73.91-7.84,1.95-11.98-9.31-1.69-16.57-6.27-23.32-12.51-15.1-13.94-23.34-33.8-19.96-54.51,4.52-27.67,33.54-43.95,59.73-34.2,9.51,3.54,16.92,10.43,22.54,18.66,8.99,16.83,10.04,31.56,5.76,50.34,15.5-2.51,30.38,2.77,40.49,14.51,11.31,13.12,13.83,31.1,8.68,47.42-6.79,21.54-24.57,36.48-47.18,39.15,1.04,3.82,3.53,7.97.69,10.21-3.59,2.84-7.79-3.08-10.84-3.11l-6.25,14.74c2.08,1.33,5.11.98,5.89,2.79l2.72,6.3c3.42.37,5.79,2.31,6.71,4.95,1.11,3.19-.93,5.95-2.35,8.83.64,1.78,2.63,3.76,2,6.18-1.64,6.26-6.88,5.47-8.11,7.15-1.59,2.16-2.57,4.88-5.16,6.23-11.45,5.96-19.31-5.57-25.63-13.38-12.07,7.4-23.98,13.49-36.9,18.13-8.56,3.08-14.31,57.99-23.14,72.92l-7.17,12.13c5.21.89,26.26,2.82,26.51,8.66.07,1.58-.98,3.26-2.79,3.92-26.39,9.62-89.36,8.98-119.03,8.24-19.69-.49-38.63-2.46-57.65-6.73-3.17-.71-5.99-1.49-8.12-3.91-.83-.95-.54-2.65.55-3.49,6.81-5.24,16.49-4.69,25.52-6.89-6.59-9.11-11.32-18.35-13.74-29.04l-6.85-30.28c-1.77-7.84-4.75-14.97-8.26-22.1-1.22-2.48-3.44-3.65-6.06-4.34-9.61-2.51-24.51-9.85-34.08-15.04-4.26,7.47-11.6,16.17-20.24,16.01-3.16-.06-7.09-1.7-8.28-4.53-2.83-6.74-6.41-2.35-9.27-8.29-2.73-5.67,3.38-7.47.59-10.61-1.57-1.77-2.29-4.14-1.63-6.22.5-1.57,2.01-3.73,4.11-4.27,3.07-.79,2.78-3.04,4.42-5.24l3.76-5.02-6.4-11.74-5.9,3.33ZM488,102.37c2.02-6,4.22-10.69,8.56-15.03,12.45-12.46,16.01-7.74,17.93-17.9,2.6-13.82,1.81-28.41-5.37-40.96s-19.3-20.62-33.79-21.6c-12.87-.87-25.56,5.06-33.87,14.77-19.41,22.67-7.72,58.96,16.82,75.66,4.35,2.96,8.44,4.43,13.17,6.15,3.13,1.14,6.08,1.4,9.59.33,1.66-.5,6.18.93,6.97-1.43ZM193.32,113.19c13.3,2.36,23.11-5.03,32.1-12.87,18.11-15.78,25.15-47.89,7.94-67.84-8.52-9.87-20.97-14.8-34.09-14.24-18.14.77-33.36,16.35-37.23,33.74-1.7,1.82-1.12,4.03-1.43,6.28-1.2,8.83-.69,17.45,1.99,25.71,14.24,4.97,25.56,14.72,30.73,29.22ZM512.73,171.21c5.01.63,18.18.6,21.64-4.14,10.25-1.65,21.65-14.75,25.44-23.99,2.33-5.67,4.2-10.9,5.03-16.96,2.29-16.64-4.52-31.98-18.4-41.72-9.1-6.39-20.79-8.02-31.66-5.38-1.16,1.41-1.22,3.47-2.45,4.38-1.96,1.45-2.05,3.44-3.2,5.3-4.17,6.68-10.35,11.52-17.07,15.83.93,3.24,7.15,9.52,4.91,11.97-2.91,3.19-9.98-.8-13.19,1.77-2.1,2.82-1.58,8.24-1.26,12.14,1.33,16.57,12.04,38.54,30.22,40.82ZM195.33,126.57l-12.47,1.2c-.65-1.47-1.02-3.09-.76-4.81,2.18-3.02,4.44-5.57,7.53-7.69-12.13-6.02-20.92-15.65-26.52-27.99-16.82-4.31-33.97,2.97-42.71,18.23-5.87,10.25-7.38,22.17-3.7,33.64,4.06,12.64,11.66,24.34,23.12,30.86l2.46,1.4c12.72,7.24,23.76,9.49,37.08,1.99,12.92-7.28,19.86-32.19,15.98-46.82ZM406.44,98.45c-20.71,2.6-35.35,13.84-49.52,17.71l-15.76,4.3c6.23,3.19,13.1,4.01,20.25,4.7,9.49.92,17.83-2.92,27.62-5.51-9.28,9.19-22.96,11.89-35.58,10.58-36.58-3.81-54.73-30.55-84.24-30.14-14.24.2-26.48,7-35.34,17.79-22.13,26.96-12.39,67.02,3.39,95.07,7.63,13.55,15.38,26.3,21.47,40.68,6.7,15.83,7.27,35.88,16.67,59.05,3.6,8.89,9.59,15,16.49,20.23,7.88,5.97,18.2,6.81,25.8-1.88,7.68-8.79,8.58-21.08,13.73-33.04,3.57-8.31,9.83-15,18.65-17.62s20.24,2.69,20.74,10.89c-2.26-3.3-5.14-5.13-8.31-6.91-3.79-2.12-8.01-2.25-12.67.66,4.56,3.75,7.29,9.2,9.13,15.09l6.12,19.62c1.76,5.66,5.35,10.79,10.71,13.6,5.78,3.03,12.6,2.16,18.58-.54,8.4-3.8,14.08-11.09,17.63-19.66,10.95-26.42,8.6-46.62,22.99-73.8l18.47-34.88c5.61-10.59,8.71-21.41,10.7-33.22,2.31-13.64,2.14-27.01-2.34-40.04-6.12-17.81-20.8-30.42-39.11-33.77-6.18-1.13-10.9.38-16.23,1.05ZM481.66,107.42c-1.92-.12-4.94-.26-6.56,1.21-2.12,1.92-1.78,5.11-3.22,7.75,2.5.89,4.99.01,7.58-1.25,4.22-2.06,8.85-.03,13.67-.44,0-2.88-1.93-3.89-2.43-5.62-.27-.91-.22-1.8-1.08-2.4-1.27-.89-8.51.35-7.97.74ZM204.75,126.03c-.25-4.63-2.78-6.06-4.28-9.11-7.21-1.76-10.19,1.34-15.05,7.59,7.1-1.56,12.42-.29,19.33,1.52ZM504.65,182.8c-4.15-.35-7.05.29-8.58-2.32-3.09-5.27,6.79-8.03,2.94-11.34-5.09-4.37-8.96-9.07-12.96-15.06l5.55,32.36c.82,4.79-.84,8.82-1.14,14.12,2.49-.94,5.89-1.22,7.52-3.15,3.47-4.09,5.75-9.64,6.66-14.61ZM178.59,188.19c2.7,7.24,7.62,13.27,15.7,15.17-3.63-16.84-1.55-24.2-.63-40.49-3.22,4.56-6.01,8.91-10.76,12.44.78,2.58,6.17,4.44,5.59,8.34s-5.84,4-9.89,4.54ZM513.24,181.57c.94.62,2.33.46,3-.26s1.03-1.58.55-2.45c-1.9-3.49-4.77-4.1-8.21-4.87-3.88-.86-6.92-.9-9.31,2.88-3.6,5.68,6.17-.47,13.97,4.7ZM175.29,185.6c3.22-1.54,6.87-.4,10.13-1.98-.81-3.48-4.4-6.21-7.78-5.28-2.7.74-5.77,1.17-8.05,2.67-2.55,1.68-3.28,5.47-2.88,8.69l8.57-4.1ZM506.17,206.55c1.55-1.57-1.24-4.03-2.77-4.77-3.98-1.92-8.48-.09-10.98,3.17,1.09,2.32,1.87,4.02,2.46,6.26.85,3.23.1,7.76-4.11,8.01,2.59-8.95-2.09-19.02-10.6-21.96-2.19-.76-3.82,2.11-3.95,3.48-.48,5.09,5.52,6.52,5.19,9.96-.43,4.51-1.7,8.91.06,13.27,1.59,3.94,4.9,6.55,7.64,9.71,3.74,4.31,9.74,6.45,14.7,3.08.88-.6,1.69-2.22,1.32-2.86-.9-1.57-5.12.1-8.27-5.26-1.58-2.69,1.28-4.77,1.2-7.27-.07-2.06-3.41-3.72-2.35-6.46,3.03-7.82,7.81-5.68,10.45-8.36ZM181.08,237.09c.9,3.39,3.11,3.91,5.12,4.24,6.05,1.01,8.93-2.71,12.52-6.19,15.12-14.64.46-19.05,9.81-27.26,1.62-1.42,2.25-3.82,1.75-5.34-.56-1.68-2.08-3.36-4.15-3.09-7.24.95-13.77,14.95-10.42,23.38-3.28-.09-2.95-2.64-5.04-5.11-.04,2.96-.95,4.63-2.68,6.3.22,1.68,2.55,3.47,2.18,5.33-1.09,5.61-4,5.73-9.09,7.74ZM191.03,216.35c.71-3.21,1.24-5.53,2.38-8.79-2.38-1.56-5.28-3.43-8.2-3.25s-5.81,2.56-5.61,5.53c4.79,2.38,7.71.67,11.43,6.51ZM513.21,217.12c1.53-1.25,1.79-3.07,1.52-4.26-.88-4.01-9.7-3.77-14.38-.16-1.06.82-1.81,1.9-1.63,2.91.9,5.09,10.93,4.39,14.48,1.5ZM188.06,217.97c-.8-5.33-9.74-5.28-13.04-4.28-2.04.62-3.23,2.45-2.97,4.22.2,1.34,1.24,2.95,3,3.6,3.93,1.45,13.75,1.36,13.01-3.54ZM511.76,229.8c2.06-.81,2.95-2.54,2.61-4.14-.23-1.06-1.11-2.74-2.71-3.12-3.16-.76-11.65-1.31-12.22,3.12-.56,4.28,7.74,5.95,12.32,4.14ZM186.86,228.77c-.65-3.74-8.37-4.39-12.33-2.63-1.41.63-2.39,2.06-2.44,3.21-.05,1.1.65,2.95,2.06,3.56,5.35,2.31,13.43.05,12.71-4.15ZM359.97,327.37c-5.47-14.51-6.02-25.19-14.83-38.82-8.96,8.94-12.4,27.3-15.92,38.48l30.75.34Z"/>
    <g>
      <path class="cls-1" d="M488,102.37c-.79,2.36-5.32.93-6.97,1.43-3.51,1.06-6.46.8-9.59-.33-4.73-1.72-8.81-3.19-13.17-6.15-24.54-16.7-36.23-52.99-16.82-75.66,8.31-9.71,21-15.64,33.87-14.77,14.5.98,26.72,9.23,33.79,21.6s7.97,27.13,5.37,40.96c-1.91,10.16-5.48,5.44-17.93,17.9-4.34,4.34-6.54,9.03-8.56,15.03ZM449.9,77.85c-4.41-9.26-6.89-13.19-7.22-24.18-.23-7.65,1.11-14.3,5.35-20.69,3.92-5.91,8.11-11.66,15.19-14.41,2.01-.78,4.34-1.14,5.48-3.73-12.3.15-22.58,7.72-27.58,18.87-3.35,7.47-3.66,17.04-2.38,25.15.37,2.35,1.31,4.74,1.91,7.06.93,3.61,9.21,18.53,12.07,17.83l-2.81-5.91Z"/>
      <path class="cls-6" d="M512.73,171.21c-18.18-2.28-28.88-24.25-30.22-40.82-.31-3.9-.83-9.32,1.26-12.14,3.21-2.56,10.28,1.42,13.19-1.77,2.24-2.45-3.98-8.72-4.91-11.97,6.72-4.3,12.9-9.15,17.07-15.83,1.16-1.85,1.24-3.85,3.2-5.3,1.23-.91,1.3-2.97,2.45-4.38,10.87-2.63,22.56-1,31.66,5.38,13.88,9.74,20.7,25.08,18.4,41.72-.83,6.06-2.71,11.29-5.03,16.96-3.79,9.23-15.19,22.34-25.44,23.99-3.46,4.74-16.63,4.77-21.64,4.14Z"/>
      <path class="cls-4" d="M506.17,206.55c-2.65,2.68-7.42.54-10.45,8.36-1.07,2.75,2.28,4.4,2.35,6.46.08,2.51-2.78,4.58-1.2,7.27,3.15,5.36,7.37,3.7,8.27,5.26.37.64-.44,2.26-1.32,2.86-4.96,3.37-10.96,1.23-14.7-3.08-2.74-3.16-6.05-5.78-7.64-9.71-1.76-4.36-.49-8.76-.06-13.27.33-3.44-5.67-4.87-5.19-9.96.13-1.37,1.76-4.23,3.95-3.48,8.51,2.94,13.19,13,10.6,21.96,4.21-.24,4.96-4.78,4.11-8.01-.59-2.25-1.37-3.95-2.46-6.26,2.5-3.26,7-5.1,10.98-3.17,1.53.74,4.32,3.2,2.77,4.77Z"/>
      <path class="cls-4" d="M504.65,182.8c-.91,4.97-3.19,10.52-6.66,14.61-1.63,1.92-5.03,2.21-7.52,3.15.29-5.3,1.96-9.33,1.14-14.12l-5.55-32.36c4,5.99,7.87,10.7,12.96,15.06,3.85,3.31-6.03,6.07-2.94,11.34,1.53,2.62,4.44,1.98,8.58,2.32Z"/>
      <path class="cls-1" d="M481.66,107.42c7.22.46,2.5-1.33,9.05,1.66.5,1.73,2.43,2.74,2.43,5.62-4.82.41-9.45-1.62-13.67.44-2.59,1.26-5.08,2.14-7.58,1.25,1.43-2.64,1.1-5.83,3.22-7.75,1.62-1.47,4.64-1.33,6.56-1.21Z"/>
      <path class="cls-4" d="M513.21,217.12c-3.55,2.89-13.59,3.58-14.48-1.5-.18-1.01.57-2.1,1.63-2.91,4.68-3.61,13.5-3.85,14.38.16.26,1.19,0,3.01-1.52,4.26Z"/>
      <path class="cls-4" d="M511.76,229.8c-4.59,1.81-12.88.14-12.32-4.14.58-4.42,9.06-3.88,12.22-3.12,1.6.39,2.48,2.06,2.71,3.12.34,1.6-.55,3.32-2.61,4.14Z"/>
      <path class="cls-6" d="M513.24,181.57c-7.8-5.18-17.57.97-13.97-4.7,2.39-3.77,5.43-3.74,9.31-2.88,3.44.77,6.32,1.37,8.21,4.87.48.88.1,1.75-.55,2.45s-2.06.88-3,.26Z"/>
      <path class="cls-2" d="M490.71,109.07c-6.55-2.99-1.83-1.2-9.05-1.66-.54-.39,6.69-1.63,7.97-.74.86.6.82,1.49,1.08,2.4Z"/>
      <path class="cls-4" d="M449.9,77.85l2.81,5.91c-2.86.7-11.14-14.22-12.07-17.83-.6-2.33-1.54-4.71-1.91-7.06-1.28-8.1-.97-17.67,2.38-25.15,5-11.15,15.28-18.72,27.58-18.87-1.13,2.59-3.46,2.95-5.48,3.73-7.07,2.75-11.26,8.5-15.19,14.41-4.24,6.39-5.58,13.04-5.35,20.69.33,10.98,2.81,14.91,7.22,24.18Z"/>
    </g>
    <g>
      <path class="cls-2" d="M193.32,113.19c-5.16-14.5-16.49-24.25-30.73-29.22-2.67-8.27-3.19-16.88-1.99-25.71.31-2.25-.27-4.46,1.43-6.28,3.87-17.39,19.1-32.97,37.23-33.74,13.13-.56,25.57,4.37,34.09,14.24,17.21,19.94,10.17,52.06-7.94,67.84-8.99,7.83-18.8,15.22-32.1,12.87ZM199.61,30.44c5.75-.92,11.15.09,17.44.24-12.27-11.86-33.47-4.53-43.34,8.96-7.76,10.6-10.38,24.51-7.52,37.71.58-20.68,10-43.62,33.42-46.9Z"/>
      <path class="cls-7" d="M195.33,126.57c3.87,14.63-3.07,39.55-15.98,46.82-13.32,7.5-24.37,5.25-37.08-1.99l-2.46-1.4c-11.45-6.52-19.06-18.22-23.12-30.86-3.68-11.47-2.17-23.39,3.7-33.64,8.74-15.26,25.89-22.54,42.71-18.23,5.6,12.34,14.39,21.97,26.52,27.99-3.09,2.12-5.35,4.67-7.53,7.69-.26,1.72.12,3.34.76,4.81l12.47-1.2Z"/>
      <path class="cls-4" d="M181.08,237.09c5.09-2.01,8-2.13,9.09-7.74.36-1.86-1.96-3.65-2.18-5.33,1.72-1.67,2.63-3.35,2.68-6.3,2.09,2.48,1.77,5.02,5.04,5.11-3.35-8.43,3.18-22.43,10.42-23.38,2.06-.27,3.59,1.41,4.15,3.09.5,1.51-.13,3.92-1.75,5.34-9.35,8.21,5.31,12.62-9.81,27.26-3.59,3.48-6.47,7.19-12.52,6.19-2.02-.34-4.22-.86-5.12-4.24Z"/>
      <path class="cls-4" d="M178.59,188.19c4.06-.54,9.31-.63,9.89-4.54s-4.81-5.77-5.59-8.34c4.75-3.53,7.54-7.87,10.76-12.44-.92,16.29-2.99,23.64.63,40.49-8.08-1.9-13-7.94-15.7-15.17Z"/>
      <path class="cls-4" d="M188.06,217.97c.74,4.9-9.08,4.99-13.01,3.54-1.76-.65-2.81-2.26-3-3.6-.26-1.77.93-3.6,2.97-4.22,3.3-1,12.24-1.04,13.04,4.28Z"/>
      <path class="cls-7" d="M175.29,185.6l-8.57,4.1c-.41-3.22.33-7.01,2.88-8.69,2.28-1.5,5.35-1.93,8.05-2.67,3.38-.93,6.97,1.8,7.78,5.28-3.26,1.58-6.91.44-10.13,1.98Z"/>
      <path class="cls-2" d="M204.75,126.03c-6.91-1.8-12.23-3.07-19.33-1.52,4.86-6.25,7.84-9.35,15.05-7.59,1.5,3.04,4.03,4.48,4.28,9.11Z"/>
      <path class="cls-4" d="M186.86,228.77c.73,4.19-7.36,6.46-12.71,4.15-1.41-.61-2.12-2.47-2.06-3.56.06-1.16,1.03-2.58,2.44-3.21,3.96-1.77,11.68-1.11,12.33,2.63Z"/>
      <path class="cls-4" d="M191.03,216.35c-3.72-5.84-6.64-4.13-11.43-6.51-.19-2.97,2.56-5.34,5.61-5.53s5.81,1.69,8.2,3.25c-1.13,3.27-1.67,5.59-2.38,8.79Z"/>
      <path class="cls-4" d="M199.61,30.44c-23.42,3.29-32.84,26.23-33.42,46.9-2.87-13.2-.24-27.12,7.52-37.71,9.87-13.48,31.07-20.81,43.34-8.96-6.28-.14-11.69-1.16-17.44-.24Z"/>
    </g>
    <g>
      <path class="cls-4" d="M406.44,98.45c-.03,1.21,1.48,1.7,2.85,1.92,16.74,2.64,31.49,12.34,38.74,27.72,3.28,6.95,5.54,13.61,6.03,21.35,1.45,22.84-3.76,45.16-14.83,65.12l-15.17,27.35c-10.35,18.66-11.35,42.76-22.5,64.12-4.27,8.18-11.82,17.82-21.57,16.06-7.73-1.4-10.44-9.51-12.96-16.63-1.88-5.31-4.33-10.17-6.61-15.32-1.11-2.5.85-4.04,2.05-5.8,3.18,1.78,6.05,3.61,8.31,6.91.08,1.32.21,2.73,1.25,3.67,1.7-5.87.19-12.21-5.69-15.49-13.41-7.49-31.16-1.85-38.76,11.81-4.05,7.28-6.98,14.56-10.13,22.26-2.72,6.66-5.9,12.84-11.47,17.68-3.95,3.43-11.45,0-14.1,1.71-6.91-5.23-12.89-11.35-16.49-20.23-9.4-23.17-9.97-43.23-16.67-59.05-6.09-14.38-13.84-27.13-21.47-40.68-15.78-28.05-25.53-68.11-3.39-95.07,8.86-10.79,21.11-17.59,35.34-17.79,29.52-.41,47.67,26.33,84.24,30.14,12.62,1.31,26.3-1.38,35.58-10.58-9.79,2.58-18.13,6.42-27.62,5.51-7.14-.69-14.02-1.51-20.25-4.7l15.76-4.3c14.17-3.87,28.8-15.11,49.52-17.71ZM245.1,179.41c3.32-1.06.58-12.42,2.56-21.94,2.92-14.07,11.73-27.85,26.11-31.5,9.79-2.49,17.54,2.9,19.97-.57,4.21-6.01-12.67-9.82-15.9-10.73-2.84-.81-5-.55-7.94-.34-7.35.52-13.71,2.36-19.81,7.13-3.87,3.03-7.67,7.73-9.8,12.43l-3.08,6.8c-1.15,2.53-.47,5.87-1.34,8.54-2.12,6.58,2.7,32.26,9.23,30.18ZM328.51,146.11c-.52-3.74-3.8-6.64-7.2-7.59-5.37-1.51-12.2-.54-15.24,5.18,7.01-4.78,15.5-3.66,22.44,2.41ZM380.46,145.02c-2.71-5.43-8.74-7.17-13.6-6.12-4.35.94-9.26,3.8-9.84,9.53,6.85-7.66,15.31-7.98,23.44-3.41ZM326.56,198.65c10.95-10.27,11.11-32.24-.9-41.18-4.34-3.23-9.27-2.4-14.17-1.37-2.65-.31-2.75-5.04-3.06-7.52-3.59,2.41-2.5,6.76-.88,10.86-4.52-.36-6.55-3.73-8.29-7.05-1.45,4.33,1.47,7.47,4.64,10.49-7.15,11.74-5.97,26.52,3.48,36.03,5.54,5.57,13.38,5.18,19.18-.26ZM380.54,197.25c5.94-6.6,7.21-15.04,5.8-23.59-1.36-8.28-6.82-16.15-15.34-18.1-7.69-1.75-14.65,3.42-17.42,10.53-4.57,11.7-1.72,25.86,8.04,34.02,5.82,4.87,13.93,2.68,18.91-2.86ZM285.14,212.24c7.39,2.88,13.97,7.45,22.21,9.8,1.13,11.41,5.51,21.7,13.44,29.54,12.55,12.41,33.11,11.08,44.46-.89,7.47-7.88,12.08-17.37,14.14-28.36,7.42-2.96,13.84-6.72,21.18-10.12,5.48,6.51,14.54,8.04,22.99,6.52,5.2-.93,8.83-5.28,9.35-9.95.65-5.86-2.94-9.65-7.87-12.15-8.51-4.31-18.42-3.39-24.83,4.03-2.01,2.32-2.87,5.39-1.26,7.96-.33.76-.99,1.33-1.99,1.84-14.34,7.3-29.72,10.83-45.81,11.98-19.98,1.43-45.77-2.7-63.08-13.2,1.52-3.14.24-7.61-2.83-10.12-8.77-7.16-21.54-6.03-29.25,2.25-4.07,4.36-4.66,12.06,1.06,15.63,8.73,5.46,21.83,3.13,28.1-4.77Z"/>
      <path class="cls-3" d="M362.47,284.36c-1.2,1.76-3.16,3.3-2.05,5.8,2.28,5.15,4.73,10.01,6.61,15.32,2.52,7.11,5.24,15.23,12.96,16.63,9.74,1.76,17.3-7.88,21.57-16.06,11.15-21.36,12.15-45.46,22.5-64.12l15.17-27.35c11.07-19.96,16.28-42.28,14.83-65.12-.49-7.75-2.75-14.4-6.03-21.35-7.26-15.38-22.01-25.08-38.74-27.72-1.37-.22-2.88-.7-2.85-1.92,5.33-.67,10.05-2.18,16.23-1.05,18.31,3.36,32.99,15.96,39.11,33.77,4.48,13.03,4.65,26.4,2.34,40.04-2,11.82-5.1,22.63-10.7,33.22l-18.47,34.88c-14.39,27.18-12.04,47.38-22.99,73.8-3.55,8.57-9.23,15.86-17.63,19.66-5.98,2.7-12.8,3.58-18.58.54-5.36-2.81-8.95-7.94-10.71-13.6l-6.12-19.62c-1.84-5.9-4.57-11.34-9.13-15.09,4.66-2.91,8.88-2.78,12.67-.66Z"/>
      <path class="cls-3" d="M370.79,291.27c-.5-8.2-11.64-13.6-20.74-10.89s-15.07,9.32-18.65,17.62c-5.14,11.95-6.04,24.24-13.73,33.04-7.59,8.69-17.91,7.85-25.8,1.88,2.65-1.71,10.15,1.72,14.1-1.71,5.57-4.84,8.75-11.03,11.47-17.68,3.15-7.7,6.08-14.98,10.13-22.26,7.6-13.66,25.35-19.3,38.76-11.81,5.88,3.28,7.39,9.62,5.69,15.49-1.04-.95-1.17-2.36-1.25-3.67Z"/>
      <path class="cls-5" d="M288.06,209.25c17.31,10.49,43.1,14.63,63.08,13.2,16.09-1.16,31.46-4.69,45.81-11.98,1-.51,1.66-1.09,1.99-1.84,2.09-.43,5.02-1.88,5.32-4.15l-1.59-1c-.2-.13.23-1.21.49-1.02,1.04.78,4.45-.88,4.77,1.24.11.73.12,2.01-.7,2.72l-6.67,5.8c-7.34,3.41-13.76,7.17-21.18,10.12-2.06,10.99-6.67,20.48-14.14,28.36-11.35,11.97-31.91,13.3-44.46.89-7.93-7.84-12.31-18.13-13.44-29.54-8.25-2.35-14.82-6.92-22.21-9.8l-5.21-4.68c-1.26-1.07-1.95-2.85-.84-4.03.87-.92,2.55-.86,3.98-.35.24.83-.91,1.94-.31,2.79,1.37,1.94,3.68,2.3,5.3,3.28ZM375.85,223.58c-23.24,5.53-41.62,6.36-64.19-.15-.86,16.45,36.76,15.22,46.62,14.18,10.45-1.1,16.55-3.13,17.58-14.04ZM360.05,250.83c-6.64-4.28-14.13-4.04-20.42-.63-4.68-4.75-11.31-4.98-17.82-1.9,7.58,9.2,27.23,11.52,38.24,2.53Z"/>
      <path class="cls-1" d="M245.1,179.41c-6.53,2.08-11.35-23.6-9.23-30.18.86-2.67.19-6.01,1.34-8.54l3.08-6.8c2.13-4.7,5.92-9.41,9.8-12.43,6.1-4.76,12.46-6.61,19.81-7.13,2.94-.21,5.1-.46,7.94.34,3.23.92,20.11,4.73,15.9,10.73-2.43,3.46-10.18-1.92-19.97.57-14.38,3.65-23.19,17.43-26.11,31.5-1.98,9.52.76,20.88-2.56,21.94Z"/>
      <path class="cls-5" d="M326.56,198.65c-5.8,5.44-13.64,5.83-19.18.26-9.45-9.51-10.63-24.29-3.48-36.03-3.17-3.02-6.09-6.16-4.64-10.49,1.74,3.32,3.77,6.69,8.29,7.05-1.63-4.1-2.72-8.45.88-10.86.32,2.47.41,7.21,3.06,7.52,4.9-1.03,9.83-1.86,14.17,1.37,12.01,8.95,11.85,30.91.9,41.18ZM320.75,167.8c1.55.39,4.12,1.24,3.88,3.32-.16,1.36-1.78,2.11-2.25,3.19-1.19,2.78-.45,5.63,2.15,6.44s4.64-.5,5.64-3.15c1.57-4.13-.13-8.13-2.4-11.77-3.39-5.43-9.65-7.62-15.3-4.32-12.88,7.53-12.07,27.9-2.86,35.84,2.4,2.07,5.53,3.7,8.51,2.08-3.43-2.13-5.75-4.45-7.09-7.91-4.98-12.79,3.35-25.31,9.73-23.72Z"/>
      <path class="cls-5" d="M380.54,197.25c-4.99,5.54-13.09,7.73-18.91,2.86-9.76-8.17-12.61-22.33-8.04-34.02,2.77-7.11,9.73-12.28,17.42-10.53,8.52,1.94,13.98,9.81,15.34,18.1,1.41,8.56.14,16.99-5.8,23.59ZM368.32,199.54c4.55,1.18,8.56-1.68,11.25-5.27,6.11-8.17,5.43-26-6.32-32.76-5.55-3.19-11.98-1.53-15.1,3.95s-4.8,14.1,1.15,15.34c2.02.42,4.2-.31,5.02-2.32,1.34-3.28-1.46-5.24-3.21-7.58-.02-2.14,3.59-3.5,5.51-3.34,2.28.18,4.43,1.36,6.11,3.53,6.03,7.81,5.44,23.35-4.41,28.45Z"/>
      <path class="cls-7" d="M288.06,209.25c-1.62-.98-3.93-1.35-5.3-3.28-.6-.85.55-1.97.31-2.79-1.43-.51-3.11-.57-3.98.35-1.12,1.19-.42,2.97.84,4.03l5.21,4.68c-6.27,7.9-19.37,10.23-28.1,4.77-5.72-3.58-5.13-11.27-1.06-15.63,7.72-8.28,20.49-9.41,29.25-2.25,3.07,2.51,4.35,6.98,2.83,10.12Z"/>
      <path class="cls-7" d="M400.56,212.21l6.67-5.8c.82-.71.81-1.99.7-2.72-.32-2.13-3.73-.47-4.77-1.24-.26-.2-.69.89-.49,1.02l1.59,1c-.3,2.27-3.23,3.72-5.32,4.15-1.61-2.57-.74-5.64,1.26-7.96,6.42-7.41,16.33-8.34,24.83-4.03,4.93,2.5,8.52,6.29,7.87,12.15-.52,4.67-4.15,9.01-9.35,9.95-8.45,1.51-17.51-.01-22.99-6.52Z"/>
      <path class="cls-5" d="M380.46,145.02c-8.13-4.56-16.59-4.25-23.44,3.41.58-5.74,5.49-8.59,9.84-9.53,4.86-1.05,10.89.69,13.6,6.12Z"/>
      <path class="cls-5" d="M328.51,146.11c-6.95-6.07-15.43-7.19-22.44-2.41,3.03-5.72,9.87-6.68,15.24-5.18,3.41.95,6.68,3.85,7.2,7.59Z"/>
      <path class="cls-4" d="M375.85,223.58c-1.02,10.91-7.13,12.94-17.58,14.04-9.86,1.04-47.47,2.27-46.62-14.18,22.58,6.51,40.95,5.68,64.19.15Z"/>
      <path class="cls-7" d="M360.05,250.83c-11.01,8.99-30.66,6.67-38.24-2.53,6.51-3.08,13.14-2.84,17.82,1.9,6.29-3.41,13.78-3.65,20.42.63Z"/>
      <path class="cls-4" d="M320.75,167.8c-6.38-1.6-14.71,10.92-9.73,23.72,1.35,3.46,3.67,5.78,7.09,7.91-2.97,1.63-6.1,0-8.51-2.08-9.2-7.94-10.02-28.31,2.86-35.84,5.64-3.3,11.9-1.1,15.3,4.32,2.27,3.63,3.97,7.64,2.4,11.77-1.01,2.65-3.17,3.92-5.64,3.15-2.6-.81-3.35-3.66-2.15-6.44.47-1.08,2.09-1.84,2.25-3.19.24-2.09-2.32-2.93-3.88-3.32Z"/>
      <path class="cls-4" d="M368.32,199.54c9.85-5.1,10.43-20.63,4.41-28.45-1.68-2.17-3.83-3.35-6.11-3.53-1.92-.15-5.53,1.2-5.51,3.34,1.75,2.34,4.55,4.3,3.21,7.58-.82,2.01-3,2.74-5.02,2.32-5.94-1.24-4.21-9.94-1.15-15.34s9.54-7.15,15.1-3.95c11.75,6.76,12.43,24.6,6.32,32.76-2.69,3.59-6.7,6.45-11.25,5.27Z"/>
    </g>
  </g>
  <g>
    <g>
      <g>
        <path class="cls-1" d="M113.2,413.37c4.56,19.44-7.22,32.96-24.77,36.3-8.22,1.57-16.85,1.49-24.63-1.73-4.74-1.96-9.82-5.12-11.94-9.58-1.82-3.84-1.82-8.66.39-12.18,3.05-4.85,12.45-6.82,16.5-2.3,5.06,5.66,11.24,8.12,18.57,4.11,1.96-1.07,3.46-2.72,3.62-5.19.53-8.01-15.57-6.02-24.02-7.71-4.19-.84-8.04-1.86-11.89-2.98-4.41-4.27-9.3-8.06-10.77-14.11-1.52-6.25-1.11-17.23,3.31-22.54,13-15.63,41.57-17.9,53.75-2.92,4.13,5.08,2.74,13.84-2.76,16.92-9.84,5.5-15.23-4.51-17.98-5.39-4.63-1.5-12.93-.4-14.42,3.78-.51,1.42-.59,4.02,1.14,4.85,3.65,1.75,7.4,2.33,11.31,1.86,2.41-.29,4.24.66,6.41,1.02,6.63,1.11,13.24,2.53,18.97,6.22,4.26,2.75,8.05,6.63,9.21,11.57Z"/>
        <path class="cls-1" d="M157.08,439.82c-3.49,3.32-8.08,3.12-12.42,3.28-7.25.27-14.04-1.5-19.28-6.76-10.18-10.22-11.05-20.67-9.99-34.3.4-5.1,2.35-10.24,5.02-14.6,6.9-11.29,25.47-14.84,35.28-8.32,2.09-5.54,6.16-8.02,11.87-7.7,4.28.24,8.56,2.81,9.17,7.73,1.52,12.43,1.79,21.78,3.14,34.42.67,6.22.42,12.41.73,18.54.22,4.21-2.48,7.34-6.3,8.52-11.85,3.66-11.12-6.61-17.22-.81ZM152.93,396.97c-2.42-2.02-5.93-2.64-8.62-1.89-9.89,2.75-10.21,18.91-3.77,26.28,2.66,3.05,8.01,3.01,11.32,1.42,8.07-3.86,7.53-20.42,1.07-25.81Z"/>
        <path class="cls-1" d="M231.23,426.8c-2.32,13.37-8.62,27.61-24.24,28.06-5.4.16-10.71-.26-15.04-2.95-5.25-3.27-7.87-9.34-5.43-14.75,2.02-4.48,6.07-7.11,10.83-5.69,2.27.68,4.26,2.82,6.96,3.07,2.61.25,4.98-4.57,3.78-7.1-4.54,3.11-11.93.18-14.03-4.37-2.05-4.46-4.15-9.26-5.18-14.24-2.96-14.32-14.39-27.79-4.5-36.55,3.15-2.66,12.83-3.03,14.8.69,4.9,9.3,6.28,18.83,9.39,28.09.84,2.49.63,5.22,3.24,6.9,2.04-2.05,2.06-5.07,2.26-8.12.24-3.51,2.58-6.53,2.6-10.08.02-2.79.82-4.96,1.37-7.61.86-4.08,1.34-9.03,5.7-11.02,3.88-1.77,8.71-1.33,12.39-.41,2.12,3.71,4.91,6.65,4.14,10.75-1.82,9.72-3.37,19.22-5.69,28.86-1.35,5.59-2.38,10.81-3.36,16.47Z"/>
      </g>
      <g>
        <path class="cls-6" d="M317.06,425.22c2.63-2.89,2.42-7.12,5.28-9.77,2.65-2.45,7.57-2.64,11.59-1.28,2.73.92,6.25,3.76,6.99,7.7,2.69,14.51-11.45,25.1-21.53,26.95-13.88,2.55-28.07,2.14-37.51-8.4-10.29-11.47-11.75-24.93-11.94-39.89-.04-3.53.49-6.25,1.11-9.61,2.04-11.2,7.72-20.55,18.26-25.87,5.25-2.65,11.68-3.16,17.68-4.17,2.69-.45,4.82.89,6.92,1.07,7.37.66,13.47,3.23,18.82,8.42,4.97,4.82,7.62,12.03,4.44,18.44-1.71,3.45-4.37,5.42-7.44,6.03-3.8.76-7.63-.2-10.05-3.16l-5.17-6.32c-3.73-4.57-12.95-2.76-16.87,1.63-9.44,10.58-5.36,37.21,5.55,41.29,4.07,1.52,10.48.67,13.87-3.05Z"/>
        <path class="cls-6" d="M386.48,427.31c-.19-3.9-1.49-7.09-1.16-10.93.42-4.96-.32-10.77-3.97-14.14-2.95-2.73-6.66-1.58-9.04-.04-12.73,8.23,11.32,47.64-15.29,45.47-5.37-.44-8.87-5.37-9.33-11.11l-1.61-20.13c-.49-6.17-1.62-28.34-3.31-32.71.17.44-.48-13.04-.4-14.94.19-4.43,2.77-7.29,6.8-8.8,3.75-1.41,7.4-1.25,10.79.97,2.99,1.96,3.81,5.66,4.4,9.51.58,3.74,1.82,7.08,1.04,11.12-.29,1.54-.22,3.2,1.05,4.6,7.18-6.09,14.65-6.66,23.51-4.78,6.55,1.39,14.3,8.87,15.77,15.41,2.92,13.07,1.32,16.81,3.62,30.25.52,3.06.32,6.69-.23,9.91-1.1,6.42-8.91,10.89-15.04,8.41-3.49-1.41-7-5.72-7.17-9.08l-.44-8.99Z"/>
        <path class="cls-6" d="M580.91,443.54c-10.76,3.46-28.37.87-35.57-7.42-3.52-4.05-4.02-10.58-1.53-15.32,1.69-3.21,5.56-4.45,8.6-4.12,3.46.38,5.94,1.94,7.98,5.2,2.45,3.93,6.98,6.24,11.31,4.3,1.62-.73,2.72-1.78,2.76-3.31.18-5.72-15.79-5.97-23.5-11.32-8.28-5.74-9.23-22.22-.62-31.05,3.6-3.69,8.34-4.8,13.01-7.02,9.51-1.34,19.53.94,27.19,6.77,5.78,4.4,5.25,12.37,1.95,16.05-1.83,2.04-3.61,2.53-6.87,2.65-9.93.37-8.88-7.32-16.71-6.13-1.15.17-2.29-.09-2.79.71-5.48,8.68,26.65,4.97,29.9,23.55,2.04,11.63-3.65,22.76-15.11,26.45Z"/>
        <path class="cls-6" d="M625.75,427.39c11.82,7.84,19.1-9.27,29.48-2.65,3.75,2.39,6.24,7.07,4.25,11.95-3.81,9.36-15.65,9.97-19.83,11.64-3.57,1.42-6.61.35-10.05.19-12.11-.59-21.79-6.91-27.45-17.54-2.72-5.11-3.44-10.64-3.92-16.5-.27-3.34-.82-6.18.16-9.65,2.19-7.7,4.92-16,11.46-20.8,3.92-2.88,8.22-5.57,12.94-6.13,7.87-.95,16.37-1.26,23.06,2.56,8.03,4.58,14.43,11.67,15.55,20.69.57,4.55.79,9.35-.36,13.56s-5.69,5.24-9.42,5.28l-30.31.31c-.13,2.97,1.87,5.42,4.43,7.12ZM640.54,403.12c-1.86-6.2-6.43-8.2-11.17-7.84-4.49.35-8.44,3.86-9.09,9.14l20.25-1.3Z"/>
        <path class="cls-7" d="M455.22,419.91c4.01-3.72,10.58-5.25,14.96-1.85,5.54,4.3,4.62,12.43-.57,16.7-14.64,12.02-44.29,13.2-55.18-8.92-7.46-15.15-5.63-36.93,9.7-47.84,6.34-4.51,14.1-5.84,21.63-5.3,15.63,1.11,26.78,12.68,28,28.14.36,4.56-.31,10.84-5.91,11.54l-34.16,4.28c1.59,4.86,5.76,6.63,9.07,7.19,4.94.83,8.75-.47,12.47-3.93ZM451.98,397.61c-2.29-5.67-7.23-7.11-11.97-6.38-4.39.68-7.89,4.24-8.42,9.27l20.39-2.89Z"/>
        <path class="cls-7" d="M504.7,422.17c4.83,2.3,9.99,1.85,14.84-.52,4.53-2.21,10.26-2.36,13.76,1.58,2.54,2.86,2.88,7.06,1.41,10.84-1.05,2.71-3.84,5.42-7.62,6.68-10.47,3.5-22.22,2.81-32.46-1.66-8.23-3.6-13.25-10.81-15.83-19.11-4.56-14.71.57-36.2,14.08-43.81,10.04-5.65,21.01-5.89,31.3-1.46,11.37,4.89,18.31,15.54,17.61,28.07-.24,4.33-.59,8.59-3.25,12.08-1.96,2.56-4.8,3.22-7.92,2.59-10.74-2.18-20.14-3.11-31.83-4.61-.09,3.89,2.22,7.58,5.9,9.33ZM520.69,399.12c1.8-5.85-6.46-9.91-11.94-9.11-3.12.46-6.67,2.63-7.61,6.84,6.61.83,12.97,2.4,19.56,2.26Z"/>
      </g>
    </g>
    <g>
      <path d="M92.67,471.79h3.43v10.59l10.62-10.59h4.08l-8.22,8.5,8.35,13.3h-3.83l-6.91-11.02-4.08,4.05v6.98h-3.43v-21.8Z"/>
      <path d="M114.04,471.79h3.43v21.8h-3.43v-21.8Z"/>
      <path d="M122.2,471.79h7.91c6.66,0,11.21,4.89,11.21,10.9s-4.55,10.9-11.21,10.9h-7.91v-21.8ZM129.61,490.61c5.05,0,8.28-3.49,8.28-7.91s-3.24-7.91-8.28-7.91h-4.02v15.82h4.02Z"/>
      <path d="M143.81,487.02h3.33c.56,2.49,2.43,4.27,5.64,4.27s4.92-1.65,4.92-3.92c0-1.74-1.15-2.9-3.43-3.33l-4.7-.97c-3.36-.72-5.14-2.43-5.14-5.54,0-3.61,3.24-6.17,8-6.17s7.6,2.49,8.04,6.51h-3.3c-.44-2.21-2.06-3.77-4.8-3.77s-4.61,1.18-4.61,3.24c0,1.56.75,2.37,2.8,2.77l4.86.97c3.64.72,5.61,2.74,5.61,6.01,0,4.11-3.52,6.95-8.28,6.95-5.05,0-8.25-2.8-8.94-7.01Z"/>
      <path d="M173.27,471.79h7.91c6.66,0,11.21,4.89,11.21,10.9s-4.55,10.9-11.21,10.9h-7.91v-21.8ZM180.68,490.61c5.05,0,8.28-3.49,8.28-7.91s-3.24-7.91-8.28-7.91h-4.02v15.82h4.02Z"/>
      <path d="M195.88,471.79h15.6v3.02h-12.18v6.1h11.77v3.02h-11.77v6.63h12.43v3.02h-15.85v-21.8Z"/>
      <path d="M215.47,471.79h3.24l12.24,16.63v-16.63h3.24v21.8h-3.24l-12.21-16.63v16.63h-3.27v-21.8Z"/>
      <path d="M244.37,474.82h-7.13v-3.02h17.72v3.02h-7.16v18.78h-3.43v-18.78Z"/>
      <path d="M262.69,471.79h3.64l8.69,21.8h-3.58l-1.96-5.26h-9.94l-1.96,5.26h-3.55l8.66-21.8ZM268.39,485.31l-3.86-10.22-3.86,10.22h7.72Z"/>
      <path d="M278.07,471.79h3.43v18.78h11.27v3.02h-14.7v-21.8Z"/>
      <path d="M312.17,471.79h3.64l8.69,21.8h-3.58l-1.96-5.26h-9.94l-1.96,5.26h-3.55l8.66-21.8ZM317.87,485.31l-3.86-10.22-3.86,10.22h7.72Z"/>
      <path d="M327.56,471.79h3.24l12.24,16.63v-16.63h3.24v21.8h-3.24l-12.21-16.63v16.63h-3.27v-21.8Z"/>
      <path d="M349.27,471.79h7.91c6.66,0,11.21,4.89,11.21,10.9s-4.55,10.9-11.21,10.9h-7.91v-21.8ZM356.68,490.61c5.05,0,8.28-3.49,8.28-7.91s-3.24-7.91-8.28-7.91h-4.02v15.82h4.02Z"/>
      <path d="M380.04,482.7c0-5.86,4.24-11.34,10.68-11.34s10.68,5.48,10.68,11.34-4.24,11.34-10.68,11.34-10.68-5.48-10.68-11.34ZM397.98,482.7c0-4.08-2.68-8.31-7.23-8.31s-7.29,4.24-7.29,8.31,2.71,8.32,7.29,8.32,7.23-4.24,7.23-8.32Z"/>
      <path d="M404.55,471.79h10.12c4.67,0,7.66,2.83,7.66,6.48,0,3.15-2.21,5.61-5.67,6.29l4.67,9.03h-3.83l-4.52-8.81h-5.01v8.81h-3.43v-21.8ZM414.39,481.92c2.83,0,4.52-1.59,4.52-3.64s-1.68-3.58-4.52-3.58h-6.42v7.23h6.42Z"/>
      <path d="M431.46,474.82h-7.13v-3.02h17.72v3.02h-7.16v18.78h-3.43v-18.78Z"/>
      <path d="M445.1,471.79h3.43v9.28h11.68v-9.28h3.43v21.8h-3.43v-9.47h-11.68v9.47h-3.43v-21.8Z"/>
      <path d="M465.71,482.7c0-5.86,4.24-11.34,10.68-11.34s10.68,5.48,10.68,11.34-4.24,11.34-10.68,11.34-10.68-5.48-10.68-11.34ZM483.65,482.7c0-4.08-2.68-8.31-7.23-8.31s-7.29,4.24-7.29,8.31,2.71,8.32,7.29,8.32,7.23-4.24,7.23-8.32Z"/>
      <path d="M488.67,471.79h7.91c6.66,0,11.21,4.89,11.21,10.9s-4.55,10.9-11.21,10.9h-7.91v-21.8ZM496.08,490.61c5.05,0,8.28-3.49,8.28-7.91s-3.24-7.91-8.28-7.91h-4.02v15.82h4.02Z"/>
      <path d="M510.31,482.7c0-5.86,4.24-11.34,10.68-11.34s10.68,5.48,10.68,11.34-4.24,11.34-10.68,11.34-10.68-5.48-10.68-11.34ZM528.25,482.7c0-4.08-2.68-8.31-7.23-8.31s-7.29,4.24-7.29,8.31,2.71,8.32,7.29,8.32,7.23-4.24,7.23-8.32Z"/>
      <path d="M533.79,471.79h3.24l12.24,16.63v-16.63h3.24v21.8h-3.24l-12.21-16.63v16.63h-3.27v-21.8Z"/>
      <path d="M562.7,474.82h-7.13v-3.02h17.72v3.02h-7.16v18.78h-3.43v-18.78Z"/>
      <path d="M576.49,471.79h3.43v21.8h-3.43v-21.8Z"/>
      <path d="M583.69,482.7c0-5.92,3.96-11.34,10.5-11.34,5.17,0,8.5,3.02,9.53,7.16h-3.49c-.93-2.3-2.71-4.14-6.01-4.14-4.58,0-7.1,4.08-7.1,8.31s2.52,8.32,7.1,8.32c3.3,0,5.08-1.84,6.01-4.14h3.49c-1.03,4.14-4.36,7.16-9.53,7.16-6.54,0-10.5-5.42-10.5-11.34Z"/>
      <path d="M604.27,487.02h3.33c.56,2.49,2.43,4.27,5.64,4.27s4.92-1.65,4.92-3.92c0-1.74-1.15-2.9-3.43-3.33l-4.7-.97c-3.36-.72-5.14-2.43-5.14-5.54,0-3.61,3.24-6.17,8-6.17s7.6,2.49,8.04,6.51h-3.3c-.44-2.21-2.06-3.77-4.8-3.77s-4.61,1.18-4.61,3.24c0,1.56.75,2.37,2.8,2.77l4.86.97c3.64.72,5.61,2.74,5.61,6.01,0,4.11-3.52,6.95-8.28,6.95-5.05,0-8.25-2.8-8.94-7.01Z"/>
    </g>
  </g>
</svg>