<?xml version="1.0" encoding="UTF-8"?>
<svg id="Layer_2" data-name="Layer 2" xmlns="http://www.w3.org/2000/svg" viewBox="0 0 251.2 96.71">
  <defs>
    <style>
      .cls-1 {
        letter-spacing: -.05em;
      }

      .cls-1, .cls-2, .cls-3, .cls-4, .cls-5, .cls-6 {
        isolation: isolate;
      }

      .cls-1, .cls-2, .cls-4, .cls-5, .cls-6 {
        font-family: JuliusSansOne-Regular, 'Julius Sans One';
        font-size: 17.86px;
      }

      .cls-2 {
        letter-spacing: 0em;
      }

      .cls-5 {
        letter-spacing: -.04em;
      }

      .cls-6 {
        letter-spacing: -.08em;
      }
    </style>
  </defs>
  <path d="M191.03,12.47v7.09c-.74,10.75-4.91,23.12-15.71,26.88-9.65,3.36-20.12-.87-24.97-9.86-1.54-2.87-2.47-5.88-3.29-9.16-1.46,5.37-3.19,9.68-6.72,13.68-4.03,4.56-9.74,6.81-15.84,6.45-7.15-.42-13.31-4.46-16.83-10.67-1.67-2.95-2.61-6.04-3.47-9.48-1.46,5.41-3.27,9.95-6.96,13.98-7.72,8.44-21.2,8.13-29.1,0-5-5.15-6.95-12.6-7.63-19.67-.36-3.73-.43-7.35-.2-11.08.36-5.95,3.8-10.99,10.17-10.59,1.89.12,3.69-.03,5.51.52,3.01.9,5.79,2.02,8.63,3.49l3.41-1.53c2.09-.94,4.14-1.83,6.43-2.05,4.2-.41,7.94,1.76,9.56,5.81,1.28-2.99,3.42-5.53,6.63-6.05,2.17-.35,4.38-.1,6.59-.07,3.65.86,6.98,2.2,10.31,3.89l4.49-2.05c6.1-2.79,11.98-2.16,14.9,4.3,1.24-3.27,3.66-5.76,7.03-6.15,1.67-.19,3.33-.03,5.03-.1l2.94.56c2.98.85,5.67,2.02,8.46,3.42l3.53-1.6c1.98-.9,3.98-1.72,6.13-1.96,4.19-.47,7.87,1.59,9.55,5.43.89,2.03,1.43,4.23,1.43,6.57h0ZM102.5,23.7c.66-5.32.99-11.5-.55-16.33-1.1-3.08-3.97-4.95-7.28-4.59-1.69.19-3.3.82-4.86,1.52l-4.4,1.98c-6.17,2.77-12.79.15-11.37-1.79.5-.68,1.17-.67,1.82-.28,1.58.93,3.36,1.19,5.26.72l-3.48-1.38c-3.7-1.47-9.44-2.32-12.28.5-3.3,3.27-2.97,9.69-2.71,14.52.59,10.93,3.65,22.4,15.04,25.87,6.03,1.84,12.44.52,17.03-3.85,2.74-2.61,4.55-5.87,5.9-9.4l1.49-5.13h-10.51c-.67,4.82-4.88,8.1-9.59,7.73-4.62-.36-8.28-4.37-8.22-8.99.06-4.75,3.72-8.58,8.43-8.86s8.74,3.02,9.4,7.77h10.89,0ZM144.42,6.52c-1.35-2.8-4.23-4.21-7.34-3.68-4.52.76-8.51,4.26-13.52,4.61-4.28.3-7.84-1.47-6.64-3.02.37-.48,1.02-.64,1.59-.3,1.63.97,3.44,1.32,5.42.79-5.75-2.59-14.14-5.01-17.15,1.08-1.6,3.24-1.49,7.49-1.36,11.21l.6,6.5,10.7-.02c.68-4.63,4.57-7.84,9.04-7.78,4.37.07,8.1,3.37,8.74,7.79h10.86l.48-3.86c-.07-4.49.5-9.37-1.41-13.33h0ZM187.79,26.01c1.07-5.49,1.36-10.99.47-16.47-.36-2.19-1.29-4.2-3.03-5.52-3.97-3-8.9-.1-13.11,1.82-8.04,3.66-13.95.27-12.26-1.51.5-.52,1.14-.46,1.73-.12,1.59.94,3.4,1.13,5.24.74-5.64-2.58-13.91-5.05-17.08.82-.8,1.48-1.1,3.13-1.38,4.84-.21,4.35-.12,8.57.48,13.07l10.75.02c.66-4.83,4.82-8.11,9.55-7.76,4.73.35,8.3,4.3,8.25,9.01s-3.72,8.58-8.43,8.84-8.72-3.01-9.37-7.76h-10.37c.48,2.53,1.22,4.86,2.12,7.23,1,2.2,2.2,4.1,3.73,5.98,6.54,7,17.77,8.16,24.86,1.76,4.21-3.8,6.78-9.49,7.86-15.01v.02ZM82.77,23.72l6.46-.04c-.77-3.64-3.95-5.77-7.36-5.35-3.22.4-5.8,3.32-5.74,6.63s2.65,6.14,5.93,6.47,6.53-1.93,7.13-5.38h-6.51c-.68,0-1.18-.67-1.15-1.26.04-.55.52-1.08,1.23-1.08h.01ZM132.09,23.7c-.71-3.4-3.54-5.51-6.69-5.42s-5.69,2.23-6.3,5.42h12.99ZM168.39,26.05h-6.41c.66,3.49,3.85,5.8,7.29,5.37s5.84-3.3,5.79-6.64-2.62-6.15-5.94-6.47-6.53,1.94-7.12,5.39h6.47c.7.01,1.2.66,1.17,1.26-.03.53-.54,1.09-1.25,1.09h0ZM142.36,33.9c1.08-2.62,1.98-5.12,2.56-7.85h-10.44c-.74,4.66-4.59,7.85-9.09,7.76s-8.04-3.37-8.69-7.78l-10.31.04c.67,3.57,1.66,6.62,3.29,9.57,2.5,4.53,6.56,7.69,11.57,8.98,7.22,1.97,14.69-.86,18.89-7.03l2.23-3.7h0ZM132.06,26.05h-12.96c.64,3.26,3.41,5.41,6.48,5.42,3.07.01,5.89-2.23,6.47-5.42h0Z"/>
  <g class="cls-3">
    <text class="cls-4" transform="translate(5.02 67.18)"><tspan x="0" y="0">PL</tspan></text>
    <text class="cls-6" transform="translate(24.88 67.18)"><tspan x="0" y="0">A</tspan></text>
    <text class="cls-4" transform="translate(35.36 67.18)"><tspan x="0" y="0">TTSBURGH &amp; P</tspan></text>
    <text class="cls-5" transform="translate(167.99 67.18)"><tspan x="0" y="0">O</tspan></text>
    <text class="cls-4" transform="translate(183.12 67.18)"><tspan x="0" y="0">TS</tspan></text>
    <text class="cls-2" transform="translate(203.17 67.18)"><tspan x="0" y="0">D</tspan></text>
    <text class="cls-4" transform="translate(217.55 67.18)"><tspan x="0" y="0">AM</tspan></text>
    <text class="cls-4" transform="translate(49.19 88.61)"><tspan x="0" y="0">O</tspan></text>
    <text class="cls-1" transform="translate(64.96 88.61)"><tspan x="0" y="0">R</tspan></text>
    <text class="cls-4" transform="translate(75.87 88.61)"><tspan x="0" y="0">THODONTICS</tspan></text>
  </g>
</svg>