<svg xmlns="http://www.w3.org/2000/svg" viewBox="0 0 392 60" role="img" aria-label="EveryDay Orthodontics">
  <path transform="translate(2 6)" d="M14 2 C5 2 0 9 0 18 c0 11 4 20 8 31 2 5 5 5 7 0 l3 -12 c1 -3 3 -3 4 0 l3 12 c2 5 5 5 7 0 4 -11 8 -20 8 -31 0 -9 -5 -16 -14 -16 -4 0 -7 2 -9 2 -2 0 -5 -2 -9 -2 Z" fill="#ffffff"/>
  <text x="52" y="40" font-family="Inter, 'Segoe UI', Arial, sans-serif" font-size="30" font-weight="800" letter-spacing="-0.5" fill="#ffffff">EveryDay Orthodontics</text>
</svg>
