<?xml version="1.0" encoding="UTF-8"?><svg id="Layer_1" xmlns="http://www.w3.org/2000/svg" viewBox="0 0 766.25 314.69"><path d="M677.99,252.63c11.31-4.87,20.97-10.26,28.96-15.36,9.78-4.31,52.81-40.47,56.17-51.38.24-.78,1.1-1.24,1.83-.87,3.41,1.71-.78,9.09-2,11.31l-.11.17c-144.79,182.38-424.96,61.29-618.07,74.56-.89.06-1.58-.74-1.41-1.61,1.68-8.89-10.09,2.22-15.13,3.27-18.62,3.87-37.83,2.21-53.01,4.33-2.25.31-8.84,9.92-9.44,10.28-2.79,1.65-2.21-2.07-2.9-4.18-.43-1.33-2.37-1.12-2.6.26-1.89,11.47-9.65,2.48-16.63,4.49-1.51.44-26.59,12.7-28.25,13.85-1.56,1.09-6.59,8.21-10.94,12.53-1.24,1.23-3.12-.62-1.92-1.89,115.59-122.84,350.8-15.16,499.99-24.92,14.56-.17,113.27-7.13,148.81-24.72,1.62-.8,3.27-1.52,4.97-2.15l21.71-7.97Z" style="fill:#8d3477;"/><path d="M651.91,251.42c-11.89-35.21,4.33-81.9-12.4-111.95-3.22-5.78-22.03-20.92-19.48-25.08,11.26-18.39,36.51,36.05,37.78,47.33,2.1,18.76-11.55,107.11,24.25,86.31,41.11-23.88,53.87-167.52,33.94-206.68-32.91-64.64-86.8,17.13-134.36,15.62-4-.13-23.77-2.61-21.09-10.18,14.97.09,24.44,4.51,40.05.83,34.68-8.19,52.64-55.65,99.21-36.04,62.32,26.25,34.39,176.64,6.74,224.43-2.55,4.09-10,14.85-24.35,20.83-6.45,2.68-12.65,3.72-17.58,4.03-5.95.38-11.3-3.65-12.71-9.45h0Z"/><path d="M625.4,198.18C537.19,416.45,438.97-19.81,589.07.7c2.89.26,11.89.21,11.96,4.17.11,5.99-24.97,3.59-30.37,4.71-85.31,2.12-44.16,291.16,23.51,231.68,4.97-6.6,18.67-54.13,31.23-43.08Z"/><path d="M0,130.67V48.8h23.63c28.02,0,43.42,14.94,43.42,40.65s-16.33,41.23-43.42,41.23H0ZM15.87,116.66h7.06c18.53,0,27.79-8.57,27.79-27.44s-9.03-26.29-27.79-26.29h-7.06v53.73Z"/><path d="M127.74,105.77h-36.13c.46,9.38,5.56,14.94,13.66,14.94,5.68,0,12.27-1.85,17.25-6.37h.58l1.74,12.16c-5.68,3.82-13.32,6.37-21.08,6.37-17.72,0-27.56-12.39-27.56-30.57s10.31-30.92,26.63-30.92,25.01,11.7,25.01,30.11c0,1.74,0,2.66-.12,4.28ZM113.62,96.51c-.35-9.03-4.17-13.9-10.42-13.9s-10.65,5.1-11.46,13.9h21.89Z"/><path d="M141.18,48.8h15.87v67.51h32.66l-1.85,14.36h-46.67V48.8Z"/><path d="M196.43,117.7c0-12.39,8.57-19.11,30.69-22.12v-3.36c-.12-6.37-2.32-8.69-7.64-8.69s-12.51,2.9-17.25,6.83h-.7l-1.74-12.27c6.37-4.05,15.52-6.72,22.7-6.72,13.2,0,19.57,6.6,19.57,20.15v39.14h-12.16l-1.16-6.37c-5.79,6.14-11,8.57-17.48,8.57-9.27,0-14.82-5.56-14.82-15.17ZM227.24,116.77v-12.16c-13.32,2.2-16.67,5.44-16.67,11.46,0,4.05,1.85,6.25,5.56,6.25s6.95-1.85,11.12-5.56Z"/><path d="M290.36,73.58h15.05v57.09h-13.43l-.7-8.92c-5.44,7.06-11.7,11.12-18.87,11.12-9.96,0-15.98-7.3-15.98-21.08v-38.21h15.05v36.25c0,7.06,2.32,9.96,6.6,9.96,3.94,0,8.22-2.78,12.27-7.76v-38.45Z"/><path d="M353.48,71.96l-1.04,15.28-.7.35c-1.16-.23-1.97-.35-3.24-.35-4.75,0-9.38,2.55-13.2,8.45v34.97h-15.05v-57.09h13.43l.81,10.07c4.86-7.76,10.19-11.93,16.91-11.93.81,0,1.39.12,2.09.23Z"/><path d="M356.61,117.7c0-12.39,8.57-19.11,30.69-22.12v-3.36c-.12-6.37-2.32-8.69-7.64-8.69s-12.51,2.9-17.25,6.83h-.7l-1.74-12.27c6.37-4.05,15.52-6.72,22.7-6.72,13.2,0,19.57,6.6,19.57,20.15v39.14h-12.16l-1.16-6.37c-5.79,6.14-11,8.57-17.49,8.57-9.26,0-14.82-5.56-14.82-15.17ZM387.41,116.77v-12.16c-13.32,2.2-16.67,5.44-16.67,11.46,0,4.05,1.85,6.25,5.56,6.25s6.95-1.85,11.12-5.56Z"/><path d="M110.63,243.97v-81.87h23.63c28.02,0,43.42,14.94,43.42,40.65s-16.33,41.23-43.42,41.23h-23.63ZM126.5,229.96h7.06c18.53,0,27.79-8.57,27.79-27.44s-9.03-26.29-27.79-26.29h-7.06v53.73Z"/><path d="M238.37,219.07h-36.13c.46,9.38,5.56,14.94,13.66,14.94,5.68,0,12.27-1.85,17.25-6.37h.58l1.74,12.16c-5.68,3.82-13.32,6.37-21.08,6.37-17.72,0-27.56-12.39-27.56-30.57s10.31-30.92,26.63-30.92,25.01,11.7,25.01,30.11c0,1.74,0,2.66-.12,4.28ZM224.25,209.81c-.35-9.03-4.17-13.9-10.42-13.9s-10.65,5.1-11.46,13.9h21.89Z"/><path d="M300.45,205.41v38.56h-15.05v-36.13c0-7.18-2.32-10.19-7.18-10.19-4.28,0-8.8,2.78-12.62,6.95v39.37h-15.05v-57.09h13.43l.69,7.99c5.33-6.25,11.58-10.19,19.23-10.19,10.42,0,16.56,7.3,16.56,20.73Z"/><path d="M317.83,226.83v-28.26h-8.69v-11.7h8.92v-11.58l11.58-6.95h3.13v18.53h14.13v11.7h-14.13v26.17c0,6.48,1.97,8.34,6.72,8.34,2.2,0,4.28-.46,6.37-1.51l.92.46.46,12.04c-3.01,1.27-7.53,2.08-11.35,2.08-12.27,0-18.07-6.37-18.07-19.34Z"/><path d="M354.9,231c0-12.39,8.57-19.11,30.69-22.12v-3.36c-.12-6.37-2.32-8.69-7.64-8.69s-12.51,2.9-17.25,6.83h-.7l-1.74-12.27c6.37-4.05,15.52-6.72,22.7-6.72,13.2,0,19.57,6.6,19.57,20.15v39.14h-12.16l-1.16-6.37c-5.79,6.14-11,8.57-17.48,8.57-9.27,0-14.82-5.56-14.82-15.17ZM385.7,230.08v-12.16c-13.32,2.2-16.67,5.44-16.67,11.46,0,4.05,1.85,6.25,5.56,6.25s6.95-1.85,11.12-5.56Z"/><path d="M415.35,243.97v-85h15.05v85h-15.05Z"/></svg>