<?xml version="1.0" encoding="UTF-8"?><svg id="Layer_2" xmlns="http://www.w3.org/2000/svg" viewBox="0 0 767.54 269"><g id="Layer_1-2"><path d="M584.81,239.87l-1.38-17.47c63.65-13.92,152.1-35.73,178.95-102.43l3.68-14.58c4.57,86.07-113.84,122.26-181.25,134.48Z" style="fill:#5e5e5e;"/><path d="M136.06,184.31c40.09,15.17,99.33,30.55,137.24,38.71l-5.14,10.86c-67.09-15.39-91.42-27.83-132.1-49.57Z" style="fill:#5e5e5e;"/><polygon points="443.72 253.91 407.18 253.91 409.37 234.91 443.72 234.91 443.72 253.91" style="fill:#5e5e5e;"/><polygon points="527.35 231.24 528.52 250.1 499.27 251.56 499.27 233.19 527.35 231.24" style="fill:#5e5e5e;"/><polygon points="353.81 248.59 324.62 245.71 328.25 231.12 355.8 234.92 353.81 248.59" style="fill:#5e5e5e;"/><polygon points="387.68 221.28 386.19 235.16 378.3 234.31 379.8 220.43 361.79 218.49 356.86 264.27 374.87 266.21 376.36 252.32 384.25 253.17 382.75 267.06 400.76 269 405.69 223.22 387.68 221.28" style="fill:#5e5e5e;"/><polygon points="472.96 217.45 473.02 231.98 465.65 232.02 465.59 217.37 446.65 217.45 446.87 264.14 465.65 264.06 465.59 249.53 472.96 249.49 473.02 264.14 491.96 264.06 491.74 217.37 472.96 217.45" style="fill:#5e5e5e;"/><polygon points="550.47 212.86 551.62 226.78 559.52 226.13 558.37 212.21 576.43 210.73 580.2 256.62 562.15 258.1 561 244.18 553.1 244.83 554.25 258.75 536.19 260.24 532.42 214.35 550.47 212.86" style="fill:#5e5e5e;"/><polygon points="306.89 212.15 304.04 225.82 296.28 224.21 299.13 210.53 281.4 206.83 272 251.91 289.73 255.61 292.58 241.94 300.34 243.56 297.49 257.23 315.22 260.93 324.62 215.85 306.89 212.15" style="fill:#5e5e5e;"/><path d="M279.22,105.31v-3.85c14.98-.41,15.39-3.57,15.39-30.09v-30.09c0-26.52-.41-29.68-15.39-30.23v-3.85h45.48v3.85c-14.98.55-15.39,3.71-15.39,30.23v30.09c0,26.52.41,29.68,15.39,30.09v3.85h-45.48Z" style="fill:#174d6f;"/><path d="M333.77,105.31v-3.85c14.98-.41,15.39-3.57,15.39-30.09v-30.09c0-26.52-.41-29.68-15.39-30.23v-3.85h46.85v3.85c-15.25.55-16.9,3.71-16.9,30.23v30.09c0,27.34,1.65,29.81,24.18,29.81h.41c24.32,0,33.8-15.94,38.75-30.91l3.16.69-6.6,34.35h-89.86Z" style="fill:#174d6f;"/><path d="M484.22,108.06c-18.14,0-25.01-7.01-29.54-7.01-2.47,0-5.36,1.1-5.91,5.91h-3.98v-39.16h3.57c4.95,22.95,18.14,35.58,33.66,35.58,13.19,0,20.75-7.97,20.75-18.82,0-30.09-54.55-15.39-54.55-52.48,0-16.08,13.33-27.89,32.15-27.89,15.25,0,20.47,6.18,23.5,6.18,2.75,0,4.26-1.24,5.22-5.63h3.57v36.14h-3.57c-4.26-22.12-14.29-32.43-27.89-32.43-11.4,0-19.24,7.01-19.24,18.82,0,27.62,56.47,14.02,56.47,51.25,0,20.88-18.96,29.54-34.21,29.54Z" style="fill:#174d6f;"/><path d="M588.51,108.06c-27.89,0-53.45-19.24-53.45-51.8s25.56-52.07,53.45-52.07,53.45,19.37,53.45,52.07-25.69,51.8-53.45,51.8ZM588.51,103.94c21.71,0,36.14-18.82,36.14-47.68s-14.43-47.95-36.14-47.95-36.13,18.96-36.13,47.95,14.43,47.68,36.13,47.68Z" style="fill:#174d6f;"/><path d="M652.41,105.31v-3.85c15.11-.55,19.37-3.71,19.37-30.23V15.32c-3.3-2.06-6.73-3.3-10.44-3.57l-7.83-.69v-3.85h35.45l53.58,69.38v-35.31c0-26.52-4.26-29.68-19.37-30.23v-3.85h44.38v3.85c-14.98.55-19.65,3.71-19.65,30.23v65.81h-1.65l-58.12-75.16c-3.71-4.81-7.28-9.07-10.99-12.5v51.8c0,26.52,4.67,29.68,19.65,30.23v3.85h-44.38Z" style="fill:#174d6f;"/><path d="M80.2,167.27L37.35,54.3C21.77,13.29,22.91,7.33,0,6.41V0h74.24v6.41c-26.58.69-26.35,4.59-11.23,45.6l28.18,76.99,34.6-93.26c-8.25-24.74-10.54-28.64-30.7-29.33V0h77.22v6.41c-27.73.69-29.79,4.35-14.89,46.06l26.35,76.53,25.89-72.86c14.89-41.47,14.43-49.04-10.77-49.72V0h61.41v6.41c-23.14.69-27.96,7.1-43.31,50.18l-39.41,110.67h-6.42l-38.95-112.27c-1.15-3.21-2.06-6.19-2.98-8.94l-43.54,121.21h-5.5Z" style="fill:#174d6f;"/><path d="M245.78,147.24c0,10.68-9.54,18.54-18.98,18.54-10.14,0-18.78-8.94-18.78-19.03,0-8.4,6.01-19.73,18.98-19.73,11.53,0,18.78,10.93,18.78,20.23ZM213.78,145.75c0,11.18,5.81,18.54,13.22,18.54,7.85,0,13.02-8.3,13.02-18.69,0-9.74-4.22-17.09-13.47-17.09-7.7,0-12.77,6.86-12.77,17.24Z" style="fill:#5e5e5e;"/><path d="M267.8,147h-2.09v8.15c0,7.31,1.19,9.29,5.42,9.09.55-.05.75.8,0,.8-5.52-.1-10.14-.05-15.55.1-.6,0-.6-.8,0-.8,4.08,0,5.22-1.99,5.22-9.09v-18.04c0-6.71-1.14-8.6-5.32-8.65-.35,0-.35-.8,0-.8,4.57.2,9.94.1,14.61.05,7.65-.1,12.47,3.98,12.47,9.34,0,5.07-4.12,8-8.2,8.7-.4.05-.55.5-.1.6,3.33.8,5.52,2.44,7.65,5.42l5.96,8.4c2.04,2.88,4.82,4.22,7.75,4.08.45,0,.55.75,0,.8-3.08-.05-6.31-.1-9.89,0-.25,0-.4-.05-.55-.25l-9.04-12.28c-3.48-4.72-5.12-5.62-8.35-5.62ZM265.71,142.42c0,2.44,1.39,3.48,3.73,3.48,4.47,0,7.7-3.03,7.7-8.3,0-4.77-2.44-8.45-8.7-8.45h-2.73v13.27Z" style="fill:#5e5e5e;"/><path d="M325.55,125.93c.15,3.33.45,7.55.94,10.58.1.5-.75.65-.85.05-.75-4.42-3.88-6.91-8.3-6.91h-3.98v25c0,6.96.25,9.69,5.12,9.69.65,0,.65.84,0,.8-4.92-.3-10.34-.25-15.31,0-.65,0-.65-.8,0-.8,4.52,0,5.22-2.73,5.22-9.84v-24.9h-4.12c-4.92,0-7.85,3.48-8.15,7.75-.05.7-.89.6-.8-.1.5-3.63.75-8.05.7-11.73,0-.6.85-.6.8,0-.15,1.79.15,2.44,1.69,2.44,8.2.2,16.45.15,24.65.05,1.49,0,1.74-.55,1.59-2.04-.05-.45.75-.5.8-.05Z" style="fill:#5e5e5e;"/><path d="M372.71,165.14c-4.77-.15-9.84-.15-14.51,0-.55,0-.55-.8,0-.8,2.58,0,3.83-.8,3.83-6.61v-12.87c-5.62-.2-11.28-.2-16.9,0v13.32c0,6.46,2.29,6.11,4.77,6.16.35,0,.35.8,0,.8-4.82,0-9.99-.1-14.76,0-.65,0-.65-.8,0-.8,3.43,0,5.07-.9,5.07-6.71v-23.11c0-5.37-2.93-6.06-6.11-6.06-.5,0-.5-.8,0-.8,4.67.1,10.29.2,15.46,0,.65,0,.65.8,0,.8-2.98,0-4.42,1.74-4.42,5.76v9.04c5.62.15,11.28.15,16.9,0v-8.7c0-5.32-2.24-6.21-4.67-6.26-.35,0-.35-.65,0-.65,4.07.25,11.03.2,15.16,0,.65,0,.65.8,0,.8-3.78,0-5.57,1.74-5.57,5.71v24c0,6.46,2.78,6.11,5.76,6.16.35,0,.35.8,0,.8Z" style="fill:#5e5e5e;"/><path d="M419.73,147.24c0,10.68-9.54,18.54-18.98,18.54-10.14,0-18.78-8.94-18.78-19.03,0-8.4,6.01-19.73,18.98-19.73,11.53,0,18.78,10.93,18.78,20.23ZM387.73,145.75c0,11.18,5.81,18.54,13.22,18.54,7.85,0,13.02-8.3,13.02-18.69,0-9.74-4.22-17.09-13.47-17.09-7.7,0-12.77,6.86-12.77,17.24Z" style="fill:#5e5e5e;"/><path d="M429.52,165.14c-.55,0-.55-.8,0-.8,3.88,0,5.22-1.94,5.22-7.6v-21.07c0-5.32-1.74-7.11-6.81-7.11-.45,0-.45-.8,0-.8,5.37.1,11.13,0,15.01,0,14.01,0,23.01,7.65,23.01,19.58,0,10.78-7.7,17.69-19.73,17.69-7.75,0-12.03.1-16.7.1ZM439.66,158.23c0,4.12,1.69,5.57,6.56,5.57,8.7,0,13.92-6.16,13.92-16.45,0-11.38-6.76-18.19-18.04-18.19h-2.44v29.07Z" style="fill:#5e5e5e;"/><path d="M513.46,147.24c0,10.68-9.54,18.54-18.98,18.54-10.14,0-18.78-8.94-18.78-19.03,0-8.4,6.01-19.73,18.98-19.73,11.53,0,18.78,10.93,18.78,20.23ZM481.46,145.75c0,11.18,5.81,18.54,13.22,18.54,7.85,0,13.02-8.3,13.02-18.69,0-9.74-4.22-17.09-13.47-17.09-7.7,0-12.77,6.86-12.77,17.24Z" style="fill:#5e5e5e;"/><path d="M530.71,127.67c.35,0,.55.2.65.6.2.6.8,2.14,2.24,3.93l19.18,23.8v-21.52c0-4.07-2.04-6.16-5.81-6.01-.45,0-.5-.8-.05-.8,4.37.2,9.04.15,13.17.05.6,0,.6.85,0,.8-3.73-.2-5.71,1.89-5.71,6.01l-.15,30.21c0,.45-.45.5-.7.1l-23.46-29.12-.1,22.61c0,4.08,2.04,6.21,5.81,6.01.45,0,.5.8.05.8-4.42-.2-9.09-.15-13.17-.05-.6,0-.6-.8,0-.8,3.73,0,5.67-2.09,5.71-6.01l.15-24.4c-3.13-3.88-4.72-5.32-9.04-5.32-.45,0-.45-.8,0-.8,3.88.15,8.15.1,11.23-.1Z" style="fill:#5e5e5e;"/><path d="M597.26,125.93c.15,3.33.45,7.55.94,10.58.1.5-.75.65-.84.05-.75-4.42-3.88-6.91-8.3-6.91h-3.98v25c0,6.96.25,9.69,5.12,9.69.65,0,.65.84,0,.8-4.92-.3-10.34-.25-15.31,0-.65,0-.65-.8,0-.8,4.52,0,5.22-2.73,5.22-9.84v-24.9h-4.12c-4.92,0-7.85,3.48-8.15,7.75-.05.7-.89.6-.8-.1.5-3.63.75-8.05.7-11.73,0-.6.85-.6.8,0-.15,1.79.15,2.44,1.69,2.44,8.2.2,16.45.15,24.65.05,1.49,0,1.74-.55,1.59-2.04-.05-.45.75-.5.8-.05Z" style="fill:#5e5e5e;"/><path d="M622.55,128.56c-3.88,0-5.71,1.59-5.71,6.11v23.01c0,7.01,3.28,6.56,6.81,6.66.5,0,.5.8,0,.8-5.52,0-11.98-.1-17.44,0-.65,0-.65-.8,0-.8,3.88,0,5.71-.85,5.71-7.11v-23.01c0-4.92-3.28-5.62-6.81-5.66-.35,0-.35-.8,0-.8,4.57.3,12.82.2,17.44,0,.65,0,.65.8,0,.8Z" style="fill:#5e5e5e;"/><path d="M631.85,146.2c0-10.98,9.24-18.93,20.37-18.93,3.33,0,6.26.6,8.2,1.29v-2.39c0-.65.8-.65.8,0-.2,3.03-.2,7.6-.05,10.58.05.5-.8.45-.8-.05-.15-4.52-3.53-7.9-9.29-7.9-9.29,0-13.52,8.84-13.52,17.64,0,9.34,5.27,17.69,13.62,17.69,5.12,0,9.29-3.13,9.19-8.55,0-.6.84-.6.8.1-.15,3.28-.15,8.35-.1,11.58,0,.5-.84.45-.84-.05.05-.99.05-1.94.05-2.88-2.78.84-5.67,1.24-8.3,1.24-11.23,0-20.13-7.4-20.13-19.38Z" style="fill:#5e5e5e;"/><path d="M673.35,163.79c.05,1.29,0,2.58-.05,3.88,0,.5-.85.45-.8-.05.25-4.12.2-8.8-.2-12.92,0-.6.75-.6.8,0,.5,5.91,4.17,9.64,9.69,9.64,4.37,0,7.55-3.33,7.55-7.06,0-10.58-17.59-8.55-17.59-20.37,0-5.42,4.27-9.49,10.54-9.49,2.04,0,4.52.4,6.81,1.14-.05-1.04-.05-2.09,0-3.03.05-.65.8-.55.8,0-.1,3.38,0,7.35.3,9.94,0,.55-.75.55-.8.15-.5-4.03-3.48-6.66-7.7-6.66-3.38,0-6.21,1.74-6.21,5.62,0,8.85,17.59,7.35,17.59,20.23,0,6.71-5.22,11.13-12.72,11.13-2.98,0-5.96-.75-8-2.14Z" style="fill:#5e5e5e;"/></g></svg>