<?xml version="1.0" encoding="UTF-8"?><svg id="Layer_1" xmlns="http://www.w3.org/2000/svg" viewBox="0 0 766.74 198.36"><path d="M426.84,46.33c-106.16,44.74,3.16-49.35-88.21,3.99-.83.49-1.88-.11-1.88-1.07v-.03c0-.46.25-.88.64-1.09,98.48-55.16-14.66,39.83,88.62-3.75.51-.21,1.1,0,1.35.47h0c.29.55.04,1.24-.53,1.48Z" style="fill:#89888f;"/><path d="M382.12,89.16c-24.58,0-44.58-20-44.58-44.58S357.54,0,382.12,0s44.58,20,44.58,44.58-20,44.58-44.58,44.58ZM382.12,3.07c-22.89,0-41.52,18.62-41.52,41.52s18.62,41.52,41.52,41.52,41.52-18.62,41.52-41.52S405.02,3.07,382.12,3.07Z" style="fill:#89888f;"/><path d="M10.27,136.54c3.33-5.38,8.7-8.06,16.13-8.06,6.85,0,12.32,2.4,16.42,7.2,4.1,4.8,6.14,11.2,6.14,19.2s-2,14.06-6,18.77c-4,4.7-9.33,7.06-15.98,7.06-7.04,0-12.42-2.59-16.13-7.78v24.86H0v-67.87h10.27v6.62ZM14.11,141.91c-2.43,3.07-3.65,7.33-3.65,12.77s1.23,9.6,3.7,12.67c2.46,3.07,5.87,4.61,10.22,4.61s7.46-1.54,9.89-4.61c2.43-3.07,3.65-7.23,3.65-12.48s-1.23-9.65-3.7-12.82c-2.46-3.17-5.81-4.75-10.03-4.75s-7.65,1.54-10.08,4.61Z" style="fill:#89888f;"/><path d="M76.03,128.38c6.21,0,11.15,1.22,14.83,3.65,3.68,2.43,5.52,6.21,5.52,11.33v25.15c0,1.41.18,2.37.53,2.88s1.04.77,2.06.77c.77,0,1.6-.06,2.5-.19v7.68c-2.82.7-5.18,1.06-7.1,1.06-4.67,0-7.36-1.98-8.06-5.95-4.16,3.97-9.95,5.95-17.37,5.95-5.12,0-9.18-1.33-12.19-3.98-3.01-2.66-4.51-6.26-4.51-10.8,0-1.41.16-2.72.48-3.94.32-1.22.69-2.27,1.1-3.17.42-.9,1.09-1.73,2.02-2.5.93-.77,1.7-1.41,2.3-1.92.61-.51,1.6-.99,2.98-1.44,1.38-.45,2.4-.78,3.07-1.01.67-.22,1.84-.46,3.5-.72,1.66-.26,2.77-.43,3.31-.53s1.68-.24,3.41-.43c3.9-.51,6.56-.94,7.97-1.3,1.41-.35,2.37-.88,2.88-1.58.45-.51.67-1.7.67-3.55,0-4.99-3.39-7.49-10.18-7.49-3.58,0-6.21.67-7.87,2.02-1.66,1.34-2.72,3.62-3.17,6.82h-10.37c1.15-11.2,8.38-16.8,21.69-16.8ZM82.94,155.78c-1.09.35-1.97.58-2.64.67-.67.1-1.73.24-3.17.43-1.44.19-2.38.32-2.83.38-1.34.19-2.4.37-3.17.53-.77.16-1.71.43-2.83.82-1.12.38-1.98.85-2.59,1.39s-1.14,1.28-1.58,2.21c-.45.93-.67,2.03-.67,3.31,0,2.37.78,4.19,2.35,5.47,1.57,1.28,3.76,1.92,6.58,1.92,4.86,0,8.61-1.31,11.23-3.94,1.47-1.47,2.21-4.32,2.21-8.54v-5.86c-.83.45-1.79.85-2.88,1.2Z" style="fill:#89888f;"/><path d="M129.89,178.49c-.19.45-.54,1.39-1.06,2.83-.51,1.44-.86,2.42-1.06,2.93s-.56,1.41-1.1,2.69c-.54,1.28-.98,2.18-1.3,2.69l-1.44,2.3c-.64,1.02-1.23,1.76-1.78,2.21-.54.45-1.22,1.01-2.02,1.68s-1.62,1.15-2.45,1.44-1.78.54-2.83.77c-1.06.22-2.19.34-3.41.34-2.05,0-4.58-.19-7.58-.58v-9.22c2.3.45,4.22.67,5.76.67.77,0,1.47-.11,2.11-.34.64-.22,1.22-.61,1.73-1.15.51-.54.96-1.06,1.34-1.54.38-.48.75-1.15,1.1-2.02.35-.86.62-1.54.82-2.02.19-.48.45-1.23.77-2.26.32-1.02.51-1.66.58-1.92l-19.01-48.09h12l13.25,36.48,12.48-36.48h11.42l-18.33,48.57Z" style="fill:#89888f;"/><path d="M161.18,137.21c3.97-5.76,9.44-8.64,16.42-8.64,5.63,0,9.84,1.54,12.62,4.61,2.78,3.07,4.18,7.49,4.18,13.25v33.02h-10.94v-28.8c0-1.98-.1-3.63-.29-4.94-.19-1.31-.59-2.64-1.2-3.98s-1.58-2.35-2.93-3.02c-1.34-.67-3.07-1.01-5.18-1.01-8.06,0-12.1,5.02-12.1,15.07v26.69h-10.94v-49.53h10.37v7.29Z" style="fill:#89888f;"/><path d="M238.6,176.57c-4.06,3.01-8.91,4.51-14.54,4.51-7.49,0-13.42-2.42-17.81-7.25-4.38-4.83-6.58-11.02-6.58-18.58s2.26-14.14,6.77-19.2,10.26-7.58,17.23-7.58,12.96,2.48,17.18,7.44c4.22,4.96,6.34,11.73,6.34,20.3v1.15h-36.57c.13,4.99,1.38,8.85,3.74,11.57,2.37,2.72,5.66,4.08,9.89,4.08,3.01,0,5.46-.72,7.34-2.16,1.89-1.44,3.38-3.73,4.46-6.86h10.46c-1.22,5.38-3.86,9.57-7.92,12.58ZM232.36,140.23c-2.27-2.4-5.2-3.6-8.78-3.6s-6.48,1.15-8.69,3.46c-2.21,2.3-3.57,5.63-4.08,9.98h25.44c-.32-4.16-1.62-7.44-3.89-9.84Z" style="fill:#89888f;"/><path d="M292.89,135.58c4.48,4.74,6.72,11.1,6.72,19.1s-2.22,14.46-6.67,19.2c-4.45,4.74-10.48,7.1-18.09,7.1s-13.89-2.37-18.43-7.1c-4.54-4.74-6.82-11.14-6.82-19.2s2.29-14.37,6.86-19.1c4.58-4.74,10.7-7.1,18.38-7.1s13.57,2.37,18.05,7.1ZM264.38,141.82c-2.5,3.14-3.74,7.42-3.74,12.86s1.25,9.92,3.74,13.06c2.5,3.14,5.95,4.7,10.37,4.7s7.66-1.58,10.13-4.75c2.46-3.17,3.7-7.54,3.7-13.1s-1.23-9.71-3.7-12.82c-2.46-3.1-5.87-4.66-10.22-4.66s-7.78,1.57-10.27,4.7Z" style="fill:#8dc540;"/><path d="M333.21,139.42c-1.92-.19-3.2-.29-3.84-.29-9.54,0-14.3,6.18-14.3,18.53v21.79h-10.85v-49.53h10.27v9.89c3.52-7.36,9.06-11.04,16.61-11.04l2.11.19v10.46Z" style="fill:#8dc540;"/><path d="M359.51,137.88h-9.98v26.11c0,1.54.03,2.61.1,3.22.06.61.26,1.28.58,2.02.32.74.88,1.23,1.68,1.49s1.9.38,3.31.38c1.79,0,3.23-.06,4.32-.19v8.64c-2.18.26-4.64.38-7.39.38-1.92,0-3.6-.14-5.04-.43s-2.64-.62-3.6-1.01-1.76-1.04-2.4-1.97c-.64-.93-1.14-1.7-1.49-2.3-.35-.61-.61-1.68-.77-3.22-.16-1.54-.24-2.69-.24-3.46v-29.66h-8.26v-7.97h8.26v-14.88h10.94v14.88h9.98v7.97Z" style="fill:#8dc540;"/><path d="M374.59,136.73c3.65-5.38,8.86-8.06,15.65-8.06,5.38,0,9.57,1.46,12.58,4.37,3.01,2.91,4.51,7.18,4.51,12.82v33.6h-11.04v-30.05c0-3.78-.66-6.66-1.97-8.64-1.31-1.98-3.86-2.98-7.63-2.98-4.22,0-7.3,1.38-9.22,4.13s-2.88,6.4-2.88,10.94v26.59h-10.85v-68.35h10.85v25.63Z" style="fill:#8dc540;"/><path d="M456.09,135.58c4.48,4.74,6.72,11.1,6.72,19.1s-2.22,14.46-6.67,19.2c-4.45,4.74-10.48,7.1-18.09,7.1s-13.89-2.37-18.43-7.1c-4.54-4.74-6.82-11.14-6.82-19.2s2.29-14.37,6.86-19.1c4.58-4.74,10.7-7.1,18.38-7.1s13.57,2.37,18.05,7.1ZM427.58,141.82c-2.5,3.14-3.74,7.42-3.74,12.86s1.25,9.92,3.74,13.06c2.5,3.14,5.95,4.7,10.37,4.7s7.66-1.58,10.13-4.75c2.46-3.17,3.7-7.54,3.7-13.1s-1.23-9.71-3.7-12.82c-2.46-3.1-5.87-4.66-10.22-4.66s-7.78,1.57-10.27,4.7Z" style="fill:#8dc540;"/><path d="M515.32,179.45h-10.27v-6.82c-3.14,5.44-8.42,8.16-15.84,8.16-6.98,0-12.53-2.37-16.65-7.1-4.13-4.74-6.19-11.1-6.19-19.1s2.03-14.25,6.1-18.96c4.06-4.7,9.52-7.05,16.37-7.05s12.22,2.59,15.74,7.78v-25.25h10.75v68.35ZM481,141.96c-2.4,3.04-3.6,7.18-3.6,12.43s1.23,9.73,3.7,12.86,5.84,4.7,10.13,4.7,7.63-1.54,10.03-4.61c2.4-3.07,3.6-7.33,3.6-12.77s-1.23-9.66-3.7-12.67-5.9-4.51-10.32-4.51c-4.16,0-7.44,1.52-9.84,4.56Z" style="fill:#8dc540;"/><path d="M564.37,135.58c4.48,4.74,6.72,11.1,6.72,19.1s-2.22,14.46-6.67,19.2c-4.45,4.74-10.48,7.1-18.09,7.1s-13.89-2.37-18.43-7.1c-4.54-4.74-6.82-11.14-6.82-19.2s2.29-14.37,6.86-19.1c4.58-4.74,10.7-7.1,18.38-7.1s13.57,2.37,18.05,7.1ZM535.86,141.82c-2.5,3.14-3.74,7.42-3.74,12.86s1.25,9.92,3.74,13.06c2.5,3.14,5.95,4.7,10.37,4.7s7.66-1.58,10.13-4.75c2.46-3.17,3.7-7.54,3.7-13.1s-1.23-9.71-3.7-12.82c-2.46-3.1-5.87-4.66-10.22-4.66s-7.78,1.57-10.27,4.7Z" style="fill:#8dc540;"/><path d="M587.13,137.21c3.97-5.76,9.44-8.64,16.42-8.64,5.63,0,9.84,1.54,12.62,4.61,2.78,3.07,4.18,7.49,4.18,13.25v33.02h-10.94v-28.8c0-1.98-.1-3.63-.29-4.94-.19-1.31-.59-2.64-1.2-3.98s-1.58-2.35-2.93-3.02c-1.34-.67-3.07-1.01-5.18-1.01-8.06,0-12.1,5.02-12.1,15.07v26.69h-10.94v-49.53h10.37v7.29Z" style="fill:#8dc540;"/><path d="M652.31,137.88h-9.98v26.11c0,1.54.03,2.61.1,3.22.06.61.26,1.28.58,2.02.32.74.88,1.23,1.68,1.49s1.9.38,3.31.38c1.79,0,3.23-.06,4.32-.19v8.64c-2.18.26-4.64.38-7.39.38-1.92,0-3.6-.14-5.04-.43s-2.64-.62-3.6-1.01-1.76-1.04-2.4-1.97c-.64-.93-1.14-1.7-1.49-2.3-.35-.61-.61-1.68-.77-3.22-.16-1.54-.24-2.69-.24-3.46v-29.66h-8.26v-7.97h8.26v-14.88h10.94v14.88h9.98v7.97Z" style="fill:#8dc540;"/><path d="M667.67,121.56h-10.94v-10.75h10.94v10.75ZM667.67,179.45h-10.94v-49.53h10.94v49.53Z" style="fill:#8dc540;"/><path d="M713.55,175.27c-4.1,3.62-9.25,5.42-15.45,5.42-7.42,0-13.34-2.35-17.76-7.06s-6.62-10.86-6.62-18.48c0-8.19,2.22-14.7,6.67-19.54,4.45-4.83,10.45-7.25,18-7.25,6.34,0,11.44,1.6,15.31,4.8,3.87,3.2,6.13,7.65,6.77,13.34h-10.85c-.64-3.14-1.92-5.54-3.84-7.2s-4.35-2.5-7.3-2.5c-4.22,0-7.55,1.58-9.98,4.75-2.43,3.17-3.65,7.5-3.65,13.01s1.17,9.79,3.5,12.86c2.34,3.07,5.58,4.61,9.74,4.61,3.26,0,5.94-.98,8.02-2.93,2.08-1.95,3.41-4.75,3.98-8.4h10.75c-.77,6.08-3.2,10.93-7.3,14.54Z" style="fill:#8dc540;"/><path d="M754.45,144.31c-.64-5.25-4.22-7.87-10.75-7.87-2.82,0-4.99.51-6.53,1.54-1.54,1.02-2.3,2.43-2.3,4.22,0,.58.05,1.09.14,1.54.1.45.29.85.58,1.2.29.35.54.66.77.91s.62.51,1.2.77c.58.26,1.04.46,1.39.62.35.16.94.35,1.78.58.83.22,1.49.4,1.97.53s1.26.3,2.35.53c1.09.22,1.92.4,2.5.53,2.5.58,4.3,1.01,5.42,1.3,1.12.29,2.75.86,4.9,1.73,2.14.86,3.73,1.76,4.75,2.69s1.97,2.21,2.83,3.84c.86,1.63,1.3,3.5,1.3,5.62,0,4.99-1.95,8.96-5.86,11.9-3.9,2.94-9.15,4.42-15.74,4.42-7.04,0-12.45-1.47-16.22-4.42-3.78-2.94-5.79-7.23-6.05-12.86h10.46c.58,6.21,4.58,9.31,12,9.31,3.2,0,5.78-.66,7.73-1.97,1.95-1.31,2.93-3.06,2.93-5.23,0-1.09-.24-2.02-.72-2.78s-1.26-1.42-2.35-1.97-2.13-.96-3.12-1.25-2.32-.62-3.98-1.01l-.58-.1c-.13-.06-.29-.11-.48-.14s-.38-.08-.58-.14c-7.04-1.73-11.52-3.07-13.44-4.03-4.54-2.18-6.82-5.79-6.82-10.85,0-4.67,1.79-8.34,5.38-10.99,3.58-2.66,8.54-3.98,14.88-3.98s11.06,1.31,14.93,3.94c3.87,2.62,5.81,6.59,5.81,11.9h-10.46Z" style="fill:#8dc540;"/></svg>