<?xml version="1.0" encoding="UTF-8"?><svg id="Layer_1" xmlns="http://www.w3.org/2000/svg" xmlns:xlink="http://www.w3.org/1999/xlink" viewBox="0 0 764.08 197.67"><defs><linearGradient id="linear-gradient" x1="125.64" y1="0" x2="125.64" y2="197.67" gradientUnits="userSpaceOnUse"><stop offset="0" stop-color="#2ad4d3"/><stop offset=".51" stop-color="#57c0e2"/><stop offset="1" stop-color="#a89bfc"/></linearGradient></defs><path d="M52.59,140.87C1.69,91.83,32.13-40.86,115.15,12.39c18.73,3.97,23.15-2.66,37.43-8.68,82.2-28.37,92.07,118.41,33.44,147.03-2.72-12.03-3.47-12.72,6.23-21.58,9.34-13.76-2.78-29.74-18.97-24.22-2.66.91-5.56,4.94-7.78,4.47-1.67-.35-7.19-6.69-8.33-8.83,18.4-13.9,33.4-11.96,47.78,5.34,17.51-27.02,1.64-108.46-45.46-91.75-16.61,6.85-19.28,13.47-41.14,11.16-21.35-2.25-30.61-23.61-53.78-8.72-25.21,17.62-30.24,60.53-20.15,87.57,1.88,2.75,2.26,1.81,3.64-.03,9.04-15.8,32.8-17.5,45.96-2.69-10.15,10.48-6.75,9.31-16.1,3.48-13.85-4.77-25.75,6.45-20.95,20.82,1.69,5.05,10.93,10.8,11.21,13.25-3.45,17.82-4.87,13.11-15.61,1.85ZM246.2,68.5c-9.47-2.75-7.28,17.16-8.05,22.05-18.88,129.9-211.27,126.09-225.1-3.58-.71-4.99,1.87-21.3-7.99-18.49C-1.33,70.29-.04,81.51.44,86.95c14.09,147.18,236.24,148,250.51.19.45-5.37,1.4-16.86-4.76-18.65ZM103.95,107.71c-12.27,7.16-45.34,54.51-17.12,55.58,4.82-41.84,26.68-43.98,54.99-64.55,23.43-19.93,10.72-56.02-21.5-51.82-20.67,2.7-31.47,32.33-14.58,46.1l9.93-5.91c-23.62-27.12,31.38-42.74,25.26-7.17-1.69,9.58-28.82,21.42-36.98,27.76ZM153.36,168.47c4.2-43.17-59.68-43.17-55.57.07l12.48,1.93c-4.85-30.31,35.53-30.29,30.66,0l12.42-2ZM175.07,149.95c-2.57-14.81-13.87-34.24-27.79-40.45-2.4-.06-9.94,4.78-9.94,6.3,18.36,15.36,25.24,22.55,27.93,49.28,8.15-5.77,11.52-3.71,9.8-15.12Z" style="fill:url(#linear-gradient);"/><path d="M307.83,33.77h25.68c13.73,0,21.88,5.67,21.88,15.23,0,6.46-3.1,11.07-8.32,12.49v.09c6.29,1.42,10.54,6.11,10.54,13.46,1.55,22.41-34.76,16.25-49.77,17v-58.27ZM334.48,57.95c11.31.56,10.83-14.61-1.06-13.64,0,0-11.07,0-11.07,0v13.64h12.13ZM335.37,81.51c10.78.55,11.68-15.54-.35-14.79,0,0-12.66,0-12.66,0v14.79h13.02Z" style="fill:#fff;"/><path d="M361.58,30.67h13.46v61.37h-13.46V30.67Z" style="fill:#fff;"/><path d="M380.18,32.98h13.46v10.72h-13.46v-10.72ZM380.18,48.3h13.46v43.75h-13.46v-43.75Z" style="fill:#fff;"/><path d="M397.8,77.35h12.04c-2.04,8.47,19.93,9.13,19.22,1.51-.16-6.74-23.19-3.22-27.1-7.97-11.39-10.86,1.86-24.4,17.71-23.29,14.35,0,20.9,5.49,20.9,15.67h-11.87c1.89-8.81-17.83-9.26-17.54-1.95.69,6.04,7.67,3.94,13.99,5.23,25.71-.18,22.17,27.79-5.49,26.21-15.41,0-21.87-6.55-21.87-15.41Z" style="fill:#fff;"/><path d="M445.53,77.35h12.04c-2.04,8.47,19.93,9.13,19.22,1.51-.16-6.74-23.19-3.22-27.1-7.97-11.39-10.86,1.86-24.4,17.71-23.29,14.35,0,20.9,5.49,20.9,15.67h-11.87c1.89-8.81-17.83-9.26-17.54-1.95.69,6.04,7.67,3.94,13.99,5.23,25.71-.18,22.17,27.79-5.49,26.21-15.41,0-21.87-6.55-21.87-15.41Z" style="fill:#fff;"/><path d="M512.93,33.77h40.3v11.42h-25.77v14.26h21.34v9.74h-21.34v22.85h-14.52v-58.27Z" style="fill:#fff;"/><path d="M553.13,79.47c-.54-14.43,19.44-12.49,31-12.4v-2.92c1.63-9.98-19.74-10.02-17.09.09h-12.4c-4.3-22.79,45.85-22.2,42.95,1.24,0,0,0,26.57,0,26.57h-13.46c.27-2.21.62-6.2.62-8.86h-.09c-2.36,14.89-33.19,11.56-31.53-3.72ZM584.13,75.22v-.89c-4.01.74-19.01-2.54-18.86,4.16.63,9,20.75,5.28,18.86-3.28Z" style="fill:#fff;"/><path d="M601.75,48.3h13.46l-.44,11.34h.09c2.27-15.71,28.29-15.94,29.76-.62h.09c3.45-17.19,31.6-14.59,29.93,4.87,0,0,0,28.16,0,28.16h-13.46v-25.06c0-5.14-2.66-8.24-7.26-8.24-13.23-.95-8.08,25.18-9.03,33.3h-13.46v-25.06c0-5.14-2.66-8.24-7.26-8.24-12.98-.91-8.05,25.2-8.94,33.3h-13.46v-43.75Z" style="fill:#fff;"/><path d="M679.15,32.98h13.46v10.72h-13.46v-10.72ZM679.15,48.3h13.46v43.75h-13.46v-43.75Z" style="fill:#fff;"/><path d="M697.75,30.67h13.46v61.37h-13.46V30.67Z" style="fill:#fff;"/><path d="M720.95,109.49v-10.01c6.24,1.6,11.76,1.26,14.26-7.44h-2.92l-18.16-43.75h15.41l11.25,30.11h.18l10.18-30.11h12.93l-15.85,44.81c-4.73,16.29-15.81,19.96-27.28,16.38Z" style="fill:#fff;"/><path d="M408.83,104.26c23.2-.63,54.31-3.01,53.58,29.05.67,33.45-30.43,29.54-53.58,29.22v-58.27ZM433.98,151.11c18.98,1.34,18.71-37.49-.89-35.42,0,0-9.74,0-9.74,0v35.42h10.63Z" style="fill:#fff;"/><path d="M510.14,143.23h-31.08c-.79,11.79,17.66,14.1,19.22,4.16h11.87c-1.34,24.48-47.66,19.42-44.63-6.29-1.41-30.77,49.45-31.42,44.63,2.13ZM498.27,135.35c.3-10.47-18.47-9.98-18.86.71h18.86v-.71Z" style="fill:#fff;"/><path d="M513.95,118.78h13.46l-.53,11.6h.18c2.21-8.32,7.35-12.31,17.27-12.31,24.03-1.06,16.12,29.52,17.36,44.46h-13.46v-24.35c0-6.2-3.54-8.94-9.48-8.94-16.08-1.15-10.37,23.54-11.34,33.3h-13.46v-43.75Z" style="fill:#fff;"/><path d="M569.56,147.48v-18.24h-6.46v-10.45c9.86.78,7.74-1.63,8.86-9.92h11.07v9.92h13.99v10.45h-13.99v17.54c-.83,7.11,8.56,6.31,13.55,5.31v10.18c-12.68,3.36-28.42-1.02-27.01-14.79Z" style="fill:#fff;"/><path d="M598.78,149.96c-.54-14.43,19.44-12.49,31-12.4v-2.92c1.63-9.98-19.74-10.02-17.09.09h-12.4c-4.3-22.79,45.85-22.2,42.95,1.24,0,0,0,26.57,0,26.57h-13.46c.27-2.21.62-6.2.62-8.86h-.09c-2.36,14.89-33.19,11.56-31.53-3.72ZM629.78,145.71v-.89c-4.01.74-19.01-2.54-18.86,4.16.63,9,20.75,5.28,18.86-3.28Z" style="fill:#fff;"/><path d="M647.58,101.16h13.46v61.37h-13.46v-61.37Z" style="fill:#fff;"/></svg>