<svg xmlns="http://www.w3.org/2000/svg" xmlns:xlink="http://www.w3.org/1999/xlink" width="1056" zoomAndPan="magnify" viewBox="0 0 792 230.249992" height="307" preserveAspectRatio="xMidYMid meet" version="1.0"><defs><clipPath id="8d9248bd73"><path d="M 52.410156 53.246094 L 175 53.246094 L 175 175.914062 L 52.410156 175.914062 Z M 52.410156 53.246094 " clip-rule="nonzero"/></clipPath><clipPath id="48daae4f2f"><path d="M 174.738281 114.664062 C 174.699219 148.34375 147.359375 175.613281 113.679688 175.574219 C 80 175.535156 52.71875 148.183594 52.757812 114.503906 C 52.796875 80.824219 80.136719 53.550781 113.828125 53.59375 C 147.519531 53.632812 174.777344 80.972656 174.738281 114.652344 " clip-rule="nonzero"/></clipPath><clipPath id="2f3160b370"><path d="M 0.480469 0.347656 L 122.960938 0.347656 L 122.960938 122.828125 L 0.480469 122.828125 Z M 0.480469 0.347656 " clip-rule="nonzero"/></clipPath><clipPath id="e5c249eef1"><path d="M 122.738281 61.664062 C 122.699219 95.34375 95.359375 122.613281 61.679688 122.574219 C 28 122.535156 0.71875 95.183594 0.757812 61.503906 C 0.796875 27.824219 28.136719 0.550781 61.828125 0.59375 C 95.519531 0.632812 122.777344 27.972656 122.738281 61.652344 " clip-rule="nonzero"/></clipPath><clipPath id="573d95de37"><rect x="0" width="123" y="0" height="123"/></clipPath><clipPath id="f36214a04c"><path d="M 73.542969 123.34375 L 154.980469 123.34375 L 154.980469 156.84375 L 73.542969 156.84375 Z M 73.542969 123.34375 " clip-rule="nonzero"/></clipPath><clipPath id="e91d8605b8"><path d="M 73.777344 123.394531 C 77.597656 142.304688 94.292969 156.554688 114.328125 156.578125 C 134.359375 156.597656 151.085938 142.394531 154.953125 123.496094 Z M 73.777344 123.394531 " clip-rule="nonzero"/></clipPath><clipPath id="57e36768c4"><path d="M 0.769531 0.34375 L 81.980469 0.34375 L 81.980469 33.691406 L 0.769531 33.691406 Z M 0.769531 0.34375 " clip-rule="nonzero"/></clipPath><clipPath id="a3c0edac7d"><path d="M 0.777344 0.394531 C 4.597656 19.304688 21.292969 33.554688 41.328125 33.578125 C 61.359375 33.597656 78.085938 19.394531 81.953125 0.496094 Z M 0.777344 0.394531 " clip-rule="nonzero"/></clipPath><clipPath id="21e5e5adb6"><rect x="0" width="82" y="0" height="34"/></clipPath><clipPath id="d876736f43"><path d="M 125.601562 90.355469 L 149.824219 90.355469 L 149.824219 100 L 125.601562 100 Z M 125.601562 90.355469 " clip-rule="nonzero"/></clipPath><clipPath id="bdb1654119"><path d="M 137.070312 90.851562 C 141.648438 90.949219 145.613281 92.386719 148.566406 96.074219 C 148.992188 96.601562 149.371094 97.148438 149.480469 97.847656 C 149.75 99.503906 149.054688 100.171875 147.449219 99.632812 C 146.382812 99.273438 145.394531 98.695312 144.347656 98.285156 C 139.265625 96.292969 134.082031 96.253906 128.820312 97.449219 C 127.8125 97.679688 126.535156 98.214844 126.007812 96.992188 C 125.550781 95.933594 126.535156 95.035156 127.324219 94.328125 C 130.09375 91.855469 133.363281 90.730469 137.070312 90.851562 " clip-rule="nonzero"/></clipPath><clipPath id="8af621fe68"><path d="M 0.601562 0.664062 L 24.824219 0.664062 L 24.824219 10 L 0.601562 10 Z M 0.601562 0.664062 " clip-rule="nonzero"/></clipPath><clipPath id="d868acbd5d"><path d="M 12.070312 0.851562 C 16.648438 0.949219 20.613281 2.386719 23.566406 6.074219 C 23.992188 6.601562 24.371094 7.148438 24.480469 7.847656 C 24.75 9.503906 24.054688 10.171875 22.449219 9.632812 C 21.382812 9.273438 20.394531 8.695312 19.347656 8.285156 C 14.265625 6.292969 9.082031 6.253906 3.820312 7.449219 C 2.8125 7.679688 1.535156 8.214844 1.007812 6.992188 C 0.550781 5.933594 1.535156 5.035156 2.324219 4.328125 C 5.09375 1.855469 8.363281 0.730469 12.070312 0.851562 " clip-rule="nonzero"/></clipPath><clipPath id="8c58772a6b"><rect x="0" width="25" y="0" height="10"/></clipPath><clipPath id="843328a7bf"><path d="M 78.699219 90.355469 L 102.921875 90.355469 L 102.921875 100 L 78.699219 100 Z M 78.699219 90.355469 " clip-rule="nonzero"/></clipPath><clipPath id="d5c5fe8709"><path d="M 93.214844 96.5625 C 89.308594 96.441406 85.621094 97.359375 82.089844 98.984375 C 81.09375 99.441406 79.859375 100.308594 79.050781 99.144531 C 78.304688 98.066406 79.0625 96.859375 79.839844 95.875 C 84.734375 89.695312 95.289062 88.90625 101.089844 94.300781 C 101.875 95.027344 102.832031 95.902344 102.316406 96.960938 C 101.738281 98.148438 100.480469 97.609375 99.472656 97.359375 C 97.421875 96.851562 95.328125 96.640625 93.214844 96.5625 " clip-rule="nonzero"/></clipPath><clipPath id="f9f95bf0df"><path d="M 0.699219 0.355469 L 24.921875 0.355469 L 24.921875 10 L 0.699219 10 Z M 0.699219 0.355469 " clip-rule="nonzero"/></clipPath><clipPath id="5e48e46e47"><path d="M 15.214844 6.5625 C 11.308594 6.441406 7.621094 7.359375 4.089844 8.984375 C 3.09375 9.441406 1.859375 10.308594 1.050781 9.144531 C 0.304688 8.066406 1.0625 6.859375 1.839844 5.875 C 6.734375 -0.304688 17.289062 -1.09375 23.089844 4.300781 C 23.875 5.027344 24.832031 5.902344 24.316406 6.960938 C 23.738281 8.148438 22.480469 7.609375 21.472656 7.359375 C 19.421875 6.851562 17.328125 6.640625 15.214844 6.5625 " clip-rule="nonzero"/></clipPath><clipPath id="9e67c50300"><rect x="0" width="25" y="0" height="10"/></clipPath><clipPath id="8dd3c57df8"><path d="M 194.40625 138.507812 L 226.25 138.507812 L 226.25 174.191406 L 194.40625 174.191406 Z M 194.40625 138.507812 " clip-rule="nonzero"/></clipPath><clipPath id="54a9a45d8c"><path d="M 198.777344 156.351562 C 198.765625 161.015625 199.761719 164.566406 201.746094 166.976562 C 203.730469 169.390625 206.621094 170.605469 210.40625 170.605469 C 214.226562 170.605469 217.117188 169.410156 219.070312 167.007812 C 221.023438 164.605469 222 161.058594 222.011719 156.371094 C 222.019531 151.738281 221.042969 148.21875 219.109375 145.816406 C 217.175781 143.414062 214.296875 142.21875 210.488281 142.21875 C 206.671875 142.21875 203.757812 143.414062 201.765625 145.828125 C 199.773438 148.238281 198.777344 151.746094 198.765625 156.351562 M 226.234375 156.394531 C 226.226562 161.90625 224.832031 166.25 222.03125 169.398438 C 219.230469 172.550781 215.351562 174.132812 210.386719 174.125 C 205.304688 174.113281 201.386719 172.558594 198.636719 169.449219 C 195.886719 166.339844 194.519531 161.953125 194.53125 156.292969 C 194.539062 150.679688 195.925781 146.335938 198.695312 143.253906 C 201.46875 140.175781 205.402344 138.621094 210.496094 138.628906 C 215.453125 138.640625 219.320312 140.214844 222.089844 143.363281 C 224.859375 146.515625 226.257812 150.851562 226.246094 156.394531 " clip-rule="nonzero"/></clipPath><clipPath id="769aab9d96"><path d="M 0.40625 0.507812 L 32.25 0.507812 L 32.25 36.152344 L 0.40625 36.152344 Z M 0.40625 0.507812 " clip-rule="nonzero"/></clipPath><clipPath id="8c4dbd414b"><path d="M 4.777344 18.351562 C 4.765625 23.015625 5.761719 26.566406 7.746094 28.976562 C 9.730469 31.390625 12.621094 32.605469 16.40625 32.605469 C 20.226562 32.605469 23.117188 31.410156 25.070312 29.007812 C 27.023438 26.605469 28 23.058594 28.011719 18.371094 C 28.019531 13.738281 27.042969 10.21875 25.109375 7.816406 C 23.175781 5.414062 20.296875 4.21875 16.488281 4.21875 C 12.671875 4.21875 9.757812 5.414062 7.765625 7.828125 C 5.773438 10.238281 4.777344 13.746094 4.765625 18.351562 M 32.234375 18.394531 C 32.226562 23.90625 30.832031 28.25 28.03125 31.398438 C 25.230469 34.550781 21.351562 36.132812 16.386719 36.125 C 11.304688 36.113281 7.386719 34.558594 4.636719 31.449219 C 1.886719 28.339844 0.519531 23.953125 0.53125 18.292969 C 0.539062 12.679688 1.925781 8.335938 4.695312 5.253906 C 7.46875 2.175781 11.402344 0.621094 16.496094 0.628906 C 21.453125 0.640625 25.320312 2.214844 28.089844 5.363281 C 30.859375 8.515625 32.257812 12.851562 32.246094 18.394531 " clip-rule="nonzero"/></clipPath><clipPath id="6283458656"><rect x="0" width="33" y="0" height="37"/></clipPath><clipPath id="603829f310"><path d="M 248.40625 139.21875 L 272.695312 139.21875 L 272.695312 173.757812 L 248.40625 173.757812 Z M 248.40625 139.21875 " clip-rule="nonzero"/></clipPath><clipPath id="483112f712"><path d="M 252.433594 155.925781 L 257.925781 155.933594 C 260.753906 155.933594 262.828125 155.375 264.15625 154.261719 C 265.480469 153.144531 266.136719 151.449219 266.136719 149.207031 C 266.136719 146.925781 265.46875 145.28125 264.125 144.273438 C 262.777344 143.265625 260.636719 142.75 257.664062 142.75 L 252.453125 142.738281 Z M 252.433594 159.363281 L 252.414062 173.707031 L 248.40625 173.695312 L 248.445312 139.21875 L 257.90625 139.230469 C 262.132812 139.238281 265.261719 140.046875 267.273438 141.671875 C 269.289062 143.296875 270.304688 145.726562 270.292969 148.988281 C 270.285156 153.542969 267.972656 156.621094 263.347656 158.21875 L 272.6875 173.726562 L 267.941406 173.71875 L 259.609375 159.363281 Z M 252.433594 159.363281 " clip-rule="nonzero"/></clipPath><clipPath id="aec81ac4a2"><path d="M 0.40625 0.21875 L 24.695312 0.21875 L 24.695312 34.757812 L 0.40625 34.757812 Z M 0.40625 0.21875 " clip-rule="nonzero"/></clipPath><clipPath id="32ae1cf745"><path d="M 4.433594 16.925781 L 9.925781 16.933594 C 12.753906 16.933594 14.828125 16.375 16.15625 15.261719 C 17.480469 14.144531 18.136719 12.449219 18.136719 10.207031 C 18.136719 7.925781 17.46875 6.28125 16.125 5.273438 C 14.777344 4.265625 12.636719 3.75 9.664062 3.75 L 4.453125 3.738281 Z M 4.433594 20.363281 L 4.414062 34.707031 L 0.40625 34.695312 L 0.445312 0.21875 L 9.90625 0.230469 C 14.132812 0.238281 17.261719 1.046875 19.273438 2.671875 C 21.289062 4.296875 22.304688 6.726562 22.292969 9.988281 C 22.285156 14.542969 19.972656 17.621094 15.347656 19.21875 L 24.6875 34.726562 L 19.941406 34.71875 L 11.609375 20.363281 Z M 4.433594 20.363281 " clip-rule="nonzero"/></clipPath><clipPath id="b8cef96f92"><rect x="0" width="25" y="0" height="35"/></clipPath><clipPath id="a199d94d15"><path d="M 288.472656 139.269531 L 314.425781 139.269531 L 314.425781 173.808594 L 288.472656 173.808594 Z M 288.472656 139.269531 " clip-rule="nonzero"/></clipPath><clipPath id="ff7ee515e1"><path d="M 303.367188 173.769531 L 299.359375 173.757812 L 299.398438 142.839844 L 288.472656 142.828125 L 288.472656 139.269531 L 314.328125 139.300781 L 314.320312 142.859375 L 303.40625 142.847656 Z M 303.367188 173.769531 " clip-rule="nonzero"/></clipPath><clipPath id="4f49b36814"><path d="M 0.472656 0.269531 L 26.425781 0.269531 L 26.425781 34.808594 L 0.472656 34.808594 Z M 0.472656 0.269531 " clip-rule="nonzero"/></clipPath><clipPath id="150f5a45c5"><path d="M 15.367188 34.769531 L 11.359375 34.757812 L 11.398438 3.839844 L 0.472656 3.828125 L 0.472656 0.269531 L 26.328125 0.300781 L 26.320312 3.859375 L 15.40625 3.847656 Z M 15.367188 34.769531 " clip-rule="nonzero"/></clipPath><clipPath id="a4b606b682"><rect x="0" width="27" y="0" height="35"/></clipPath><clipPath id="254fb46fe3"><path d="M 333.960938 139.328125 L 360.179688 139.328125 L 360.179688 173.847656 L 333.960938 173.847656 Z M 333.960938 139.328125 " clip-rule="nonzero"/></clipPath><clipPath id="cda27b27ca"><path d="M 360.132812 173.835938 L 356.128906 173.824219 L 356.148438 157.597656 L 337.988281 157.578125 L 337.964844 173.816406 L 333.960938 173.804688 L 334 139.328125 L 338.015625 139.339844 L 337.996094 154 L 356.15625 154.019531 L 356.167969 139.359375 L 360.175781 139.367188 Z M 360.132812 173.835938 " clip-rule="nonzero"/></clipPath><clipPath id="af5c948fa6"><path d="M 0.960938 0.328125 L 27.179688 0.328125 L 27.179688 34.847656 L 0.960938 34.847656 Z M 0.960938 0.328125 " clip-rule="nonzero"/></clipPath><clipPath id="52978f2d50"><path d="M 27.132812 34.835938 L 23.128906 34.824219 L 23.148438 18.597656 L 4.988281 18.578125 L 4.964844 34.816406 L 0.960938 34.804688 L 1 0.328125 L 5.015625 0.339844 L 4.996094 15 L 23.15625 15.019531 L 23.167969 0.359375 L 27.175781 0.367188 Z M 27.132812 34.835938 " clip-rule="nonzero"/></clipPath><clipPath id="ceed290dfd"><rect x="0" width="28" y="0" height="35"/></clipPath><clipPath id="dd9c0e68ac"><path d="M 382.1875 138.742188 L 414.03125 138.742188 L 414.03125 174.429688 L 382.1875 174.429688 Z M 382.1875 138.742188 " clip-rule="nonzero"/></clipPath><clipPath id="d9047eb8f5"><path d="M 386.558594 156.589844 C 386.546875 161.253906 387.542969 164.800781 389.527344 167.214844 C 391.511719 169.625 394.402344 170.84375 398.1875 170.84375 C 402.007812 170.84375 404.898438 169.644531 406.839844 167.246094 C 408.785156 164.84375 409.773438 161.292969 409.78125 156.609375 C 409.792969 151.972656 408.824219 148.457031 406.882812 146.054688 C 404.9375 143.652344 402.078125 142.457031 398.269531 142.457031 C 394.453125 142.457031 391.542969 143.652344 389.546875 146.0625 C 387.554688 148.476562 386.558594 151.984375 386.546875 156.589844 M 414.019531 156.628906 C 414.007812 162.140625 412.613281 166.488281 409.8125 169.636719 C 407.011719 172.785156 403.132812 174.371094 398.167969 174.359375 C 393.085938 174.351562 389.167969 172.796875 386.417969 169.6875 C 383.667969 166.578125 382.300781 162.191406 382.3125 156.527344 C 382.320312 150.917969 383.707031 146.570312 386.476562 143.492188 C 389.25 140.410156 393.1875 138.855469 398.277344 138.867188 C 403.234375 138.875 407.101562 140.453125 409.871094 143.601562 C 412.640625 146.75 414.039062 151.085938 414.027344 156.628906 " clip-rule="nonzero"/></clipPath><clipPath id="b546350ccf"><path d="M 0.1875 0.746094 L 32.03125 0.746094 L 32.03125 36.390625 L 0.1875 36.390625 Z M 0.1875 0.746094 " clip-rule="nonzero"/></clipPath><clipPath id="fb563f391e"><path d="M 4.558594 18.589844 C 4.546875 23.253906 5.542969 26.800781 7.527344 29.214844 C 9.511719 31.625 12.402344 32.84375 16.1875 32.84375 C 20.007812 32.84375 22.898438 31.644531 24.839844 29.246094 C 26.785156 26.84375 27.773438 23.292969 27.78125 18.609375 C 27.792969 13.972656 26.824219 10.457031 24.882812 8.054688 C 22.9375 5.652344 20.078125 4.457031 16.269531 4.457031 C 12.453125 4.457031 9.542969 5.652344 7.546875 8.0625 C 5.554688 10.476562 4.558594 13.984375 4.546875 18.589844 M 32.019531 18.628906 C 32.007812 24.140625 30.613281 28.488281 27.8125 31.636719 C 25.011719 34.785156 21.132812 36.371094 16.167969 36.359375 C 11.085938 36.351562 7.167969 34.796875 4.417969 31.6875 C 1.667969 28.578125 0.300781 24.191406 0.3125 18.527344 C 0.320312 12.917969 1.707031 8.570312 4.476562 5.492188 C 7.25 2.410156 11.1875 0.855469 16.277344 0.867188 C 21.234375 0.875 25.101562 2.453125 27.871094 5.601562 C 30.640625 8.75 32.039062 13.085938 32.027344 18.628906 " clip-rule="nonzero"/></clipPath><clipPath id="06f4f5ef73"><rect x="0" width="33" y="0" height="37"/></clipPath><clipPath id="43ddf5ce1f"><path d="M 436.1875 139.457031 L 463.730469 139.457031 L 463.730469 173.996094 L 436.1875 173.996094 Z M 436.1875 139.457031 " clip-rule="nonzero"/></clipPath><clipPath id="e5376ee897"><path d="M 459.480469 156.539062 C 459.488281 152.046875 458.363281 148.65625 456.109375 146.375 C 453.859375 144.089844 450.507812 142.945312 446.0625 142.933594 L 440.234375 142.925781 L 440.203125 170.476562 L 445.085938 170.484375 C 449.871094 170.496094 453.460938 169.320312 455.871094 166.976562 C 458.285156 164.632812 459.488281 161.15625 459.488281 156.539062 M 463.726562 156.402344 C 463.714844 162.09375 462.171875 166.4375 459.070312 169.449219 C 455.972656 172.457031 451.535156 173.953125 445.734375 173.945312 L 436.1875 173.933594 L 436.226562 139.457031 L 446.792969 139.464844 C 452.152344 139.476562 456.320312 140.960938 459.28125 143.941406 C 462.242188 146.921875 463.726562 151.070312 463.726562 156.402344 " clip-rule="nonzero"/></clipPath><clipPath id="1393e14cb1"><path d="M 0.1875 0.457031 L 27.730469 0.457031 L 27.730469 34.996094 L 0.1875 34.996094 Z M 0.1875 0.457031 " clip-rule="nonzero"/></clipPath><clipPath id="d683976e99"><path d="M 23.480469 17.539062 C 23.488281 13.046875 22.363281 9.65625 20.109375 7.375 C 17.859375 5.089844 14.507812 3.945312 10.0625 3.933594 L 4.234375 3.925781 L 4.203125 31.476562 L 9.085938 31.484375 C 13.871094 31.496094 17.460938 30.320312 19.871094 27.976562 C 22.285156 25.632812 23.488281 22.15625 23.488281 17.539062 M 27.726562 17.402344 C 27.714844 23.09375 26.171875 27.4375 23.070312 30.449219 C 19.972656 33.457031 15.535156 34.953125 9.734375 34.945312 L 0.1875 34.933594 L 0.226562 0.457031 L 10.792969 0.464844 C 16.152344 0.476562 20.320312 1.960938 23.28125 4.941406 C 26.242188 7.921875 27.726562 12.070312 27.726562 17.402344 " clip-rule="nonzero"/></clipPath><clipPath id="e124cc6b95"><rect x="0" width="28" y="0" height="35"/></clipPath><clipPath id="f3bb08b557"><path d="M 451.007812 58.210938 L 497 58.210938 L 497 126.488281 L 451.007812 126.488281 Z M 451.007812 58.210938 " clip-rule="nonzero"/></clipPath><clipPath id="5ed26f3687"><path d="M 451.148438 58.25 C 456.179688 58.257812 461.042969 58.257812 466.019531 58.269531 C 469.128906 65.875 472.226562 73.488281 475.359375 81.105469 C 478.476562 88.6875 481.617188 96.273438 485.085938 103.789062 C 485.105469 88.6875 485.125 73.589844 485.144531 58.367188 C 489.164062 58.378906 493 58.378906 496.988281 58.378906 C 496.957031 80.972656 496.929688 103.621094 496.898438 126.386719 C 491.984375 126.375 487.078125 126.375 482.015625 126.367188 C 475.785156 111.195312 469.535156 95.996094 463.289062 80.796875 C 463.15625 80.816406 463.039062 80.835938 462.910156 80.855469 C 462.890625 95.984375 462.867188 111.125 462.847656 126.355469 C 458.800781 126.347656 454.972656 126.347656 451.046875 126.347656 C 451.078125 103.640625 451.105469 81.035156 451.136719 58.257812 " clip-rule="nonzero"/></clipPath><clipPath id="4380457ffc"><path d="M 0.0195312 0.210938 L 46 0.210938 L 46 68.488281 L 0.0195312 68.488281 Z M 0.0195312 0.210938 " clip-rule="nonzero"/></clipPath><clipPath id="0a33aa5b81"><path d="M 0.148438 0.25 C 5.179688 0.257812 10.042969 0.257812 15.019531 0.269531 C 18.128906 7.875 21.226562 15.488281 24.359375 23.105469 C 27.476562 30.6875 30.617188 38.273438 34.085938 45.789062 C 34.105469 30.6875 34.125 15.589844 34.144531 0.367188 C 38.164062 0.378906 42 0.378906 45.988281 0.378906 C 45.957031 22.972656 45.929688 45.621094 45.898438 68.386719 C 40.984375 68.375 36.078125 68.375 31.015625 68.367188 C 24.785156 53.195312 18.535156 37.996094 12.289062 22.796875 C 12.15625 22.816406 12.039062 22.835938 11.910156 22.855469 C 11.890625 37.984375 11.867188 53.125 11.847656 68.355469 C 7.800781 68.347656 3.972656 68.347656 0.046875 68.347656 C 0.078125 45.640625 0.105469 23.035156 0.136719 0.257812 " clip-rule="nonzero"/></clipPath><clipPath id="3d4dd4ee36"><rect x="0" width="46" y="0" height="69"/></clipPath><clipPath id="f7615471ac"><path d="M 301.242188 58 L 345.921875 58 L 345.921875 126.171875 L 301.242188 126.171875 Z M 301.242188 58 " clip-rule="nonzero"/></clipPath><clipPath id="52d6b44684"><path d="M 313.40625 70.039062 C 313.394531 76.460938 313.386719 82.699219 313.386719 89.046875 C 317.34375 89.046875 321.191406 89.226562 325.019531 89.007812 C 328.425781 88.820312 331.097656 85.71875 331.175781 82.320312 C 331.21875 80.425781 331.226562 78.523438 331.175781 76.628906 C 331.089844 73.679688 328.566406 70.589844 325.695312 70.238281 C 321.640625 69.75 317.5625 70.078125 313.40625 70.039062 M 333.390625 98.816406 C 337.527344 107.917969 345.800781 126.148438 345.800781 126.148438 L 332.644531 126.128906 L 321.628906 101.269531 L 313.285156 101.257812 C 313.285156 101.257812 313.265625 117.746094 313.257812 126.066406 C 309.179688 126.066406 301.296875 126.058594 301.296875 126.058594 L 301.382812 58.027344 C 301.382812 58.027344 316.863281 57.980469 323.992188 58.050781 C 334.90625 58.148438 343.199219 66.511719 343.25 77.40625 C 343.269531 80.726562 343.488281 84.0625 342.511719 87.3125 C 341.125 91.898438 338.78125 94.898438 333.421875 98.816406 " clip-rule="nonzero"/></clipPath><clipPath id="c9f652124a"><path d="M 0.269531 0 L 44.921875 0 L 44.921875 68.171875 L 0.269531 68.171875 Z M 0.269531 0 " clip-rule="nonzero"/></clipPath><clipPath id="d44b246c7a"><path d="M 12.40625 12.039062 C 12.394531 18.460938 12.386719 24.699219 12.386719 31.046875 C 16.34375 31.046875 20.191406 31.226562 24.019531 31.007812 C 27.425781 30.820312 30.097656 27.71875 30.175781 24.320312 C 30.21875 22.425781 30.226562 20.523438 30.175781 18.628906 C 30.089844 15.679688 27.566406 12.589844 24.695312 12.238281 C 20.640625 11.75 16.5625 12.078125 12.40625 12.039062 M 32.390625 40.816406 C 36.527344 49.917969 44.800781 68.148438 44.800781 68.148438 L 31.644531 68.128906 L 20.628906 43.269531 L 12.285156 43.257812 C 12.285156 43.257812 12.265625 59.746094 12.257812 68.066406 C 8.179688 68.066406 0.296875 68.058594 0.296875 68.058594 L 0.382812 0.0273438 C 0.382812 0.0273438 15.863281 -0.0195312 22.992188 0.0507812 C 33.90625 0.148438 42.199219 8.511719 42.25 19.40625 C 42.269531 22.726562 42.488281 26.0625 41.511719 29.3125 C 40.125 33.898438 37.78125 36.898438 32.421875 40.816406 " clip-rule="nonzero"/></clipPath><clipPath id="3861e98338"><rect x="0" width="45" y="0" height="69"/></clipPath><clipPath id="fb45a89a86"><path d="M 242.09375 56.636719 L 296.523438 56.636719 L 296.523438 126.171875 L 242.09375 126.171875 Z M 242.09375 56.636719 " clip-rule="nonzero"/></clipPath><clipPath id="c8fd9d1f31"><path d="M 277.832031 100.339844 C 277.832031 100.339844 273.148438 80.605469 270.835938 70.828125 C 270.625 69.960938 270.523438 68.964844 269.300781 69.003906 C 268.171875 69.035156 268.132812 70.011719 267.945312 70.796875 C 266.328125 77.527344 264.722656 84.242188 263.121094 90.972656 C 262.382812 94.050781 260.90625 100.320312 260.90625 100.320312 Z M 296.210938 126.085938 L 283.992188 126.078125 L 280.773438 112.691406 L 257.917969 112.582031 L 254.648438 125.996094 L 242.40625 125.976562 C 242.40625 125.976562 252.804688 82.617188 256.429688 67.539062 C 258.015625 61 263.128906 56.832031 269.539062 56.902344 C 275.816406 56.972656 280.992188 61.429688 282.496094 67.828125 C 286.703125 85.75 296.222656 126.085938 296.222656 126.085938 " clip-rule="nonzero"/></clipPath><clipPath id="26d1c9a738"><path d="M 0.179688 0.695312 L 54.246094 0.695312 L 54.246094 70.171875 L 0.179688 70.171875 Z M 0.179688 0.695312 " clip-rule="nonzero"/></clipPath><clipPath id="64cdbb19d1"><path d="M 35.832031 44.339844 C 35.832031 44.339844 31.148438 24.605469 28.835938 14.828125 C 28.625 13.960938 28.523438 12.964844 27.300781 13.003906 C 26.171875 13.035156 26.132812 14.011719 25.945312 14.796875 C 24.328125 21.527344 22.722656 28.242188 21.121094 34.972656 C 20.382812 38.050781 18.90625 44.320312 18.90625 44.320312 Z M 54.210938 70.085938 L 41.992188 70.078125 L 38.773438 56.691406 L 15.917969 56.582031 L 12.648438 69.996094 L 0.40625 69.976562 C 0.40625 69.976562 10.804688 26.617188 14.429688 11.539062 C 16.015625 5 21.128906 0.832031 27.539062 0.902344 C 33.816406 0.972656 38.992188 5.429688 40.496094 11.828125 C 44.703125 29.75 54.222656 70.085938 54.222656 70.085938 " clip-rule="nonzero"/></clipPath><clipPath id="f1f95e52c2"><rect x="0" width="55" y="0" height="71"/></clipPath><clipPath id="ac7a0f8bab"><path d="M 399.09375 56.953125 L 442.511719 56.953125 L 442.511719 127.429688 L 399.09375 127.429688 Z M 399.09375 56.953125 " clip-rule="nonzero"/></clipPath><clipPath id="1d7ce11a61"><path d="M 430.292969 92.21875 C 430.304688 86.875 430.34375 81.523438 430.304688 76.179688 C 430.273438 72.382812 427.425781 69.390625 423.648438 69.183594 C 421.8125 69.082031 419.957031 69.082031 418.125 69.152344 C 414.1875 69.3125 411.226562 72.113281 411.1875 76.070312 C 411.078125 86.765625 411.066406 97.460938 411.136719 108.144531 C 411.167969 112.300781 414.335938 115.183594 418.511719 115.234375 C 419.9375 115.253906 421.363281 115.253906 422.789062 115.242188 C 427.234375 115.210938 430.253906 112.191406 430.273438 107.726562 C 430.292969 102.5625 430.292969 97.390625 430.292969 92.21875 M 442.304688 92.199219 C 442.296875 97.191406 442.316406 102.175781 442.285156 107.167969 C 442.214844 119.058594 433.941406 127.234375 422.050781 127.3125 C 417.175781 127.34375 412.414062 127.054688 408.1875 124.292969 C 402.59375 120.636719 399.335938 115.523438 399.265625 108.785156 C 399.144531 97.789062 399.304688 86.804688 399.246094 75.8125 C 399.195312 67.457031 405.835938 58.007812 417.007812 57.171875 C 420.488281 56.914062 424.046875 56.714844 427.464844 57.621094 C 436.742188 60.074219 442.246094 67.25 442.324219 76.867188 C 442.367188 81.980469 442.324219 87.085938 442.316406 92.199219 " clip-rule="nonzero"/></clipPath><clipPath id="fb1ca8f5fe"><path d="M 0.109375 0.953125 L 43.410156 0.953125 L 43.410156 71.429688 L 0.109375 71.429688 Z M 0.109375 0.953125 " clip-rule="nonzero"/></clipPath><clipPath id="33fe776a48"><path d="M 31.292969 36.21875 C 31.304688 30.875 31.34375 25.523438 31.304688 20.179688 C 31.273438 16.382812 28.425781 13.390625 24.648438 13.183594 C 22.8125 13.082031 20.957031 13.082031 19.125 13.152344 C 15.1875 13.3125 12.226562 16.113281 12.1875 20.070312 C 12.078125 30.765625 12.066406 41.460938 12.136719 52.144531 C 12.167969 56.300781 15.335938 59.183594 19.511719 59.234375 C 20.9375 59.253906 22.363281 59.253906 23.789062 59.242188 C 28.234375 59.210938 31.253906 56.191406 31.273438 51.726562 C 31.292969 46.5625 31.292969 41.390625 31.292969 36.21875 M 43.304688 36.199219 C 43.296875 41.191406 43.316406 46.175781 43.285156 51.167969 C 43.214844 63.058594 34.941406 71.234375 23.050781 71.3125 C 18.175781 71.34375 13.414062 71.054688 9.1875 68.292969 C 3.59375 64.636719 0.335938 59.523438 0.265625 52.785156 C 0.144531 41.789062 0.304688 30.804688 0.246094 19.8125 C 0.195312 11.457031 6.835938 2.007812 18.007812 1.171875 C 21.488281 0.914062 25.046875 0.714844 28.464844 1.621094 C 37.742188 4.074219 43.246094 11.25 43.324219 20.867188 C 43.367188 25.980469 43.324219 31.085938 43.316406 36.199219 " clip-rule="nonzero"/></clipPath><clipPath id="2cb6c55e8b"><rect x="0" width="44" y="0" height="72"/></clipPath><clipPath id="e89b60076c"><path d="M 348.4375 56.636719 L 393.429688 56.636719 L 393.429688 127.746094 L 348.4375 127.746094 Z M 348.4375 56.636719 " clip-rule="nonzero"/></clipPath><clipPath id="d85104dfc0"><path d="M 392.496094 71.566406 C 392.476562 71.566406 381.15625 74.785156 381.15625 74.785156 C 381.15625 74.785156 380.777344 73.835938 380.546875 73.371094 C 379.371094 70.867188 377.457031 69.3125 374.644531 69.132812 C 372.691406 69.011719 370.730469 69.023438 368.765625 69.113281 C 365.675781 69.253906 362.894531 71.347656 362.304688 74.304688 C 361.660156 77.527344 361.957031 79.757812 365.046875 81.953125 C 367.9375 84.003906 371.328125 85 374.578125 86.265625 C 378.84375 87.933594 383.097656 89.597656 386.488281 92.835938 C 392.417969 98.496094 394.550781 105.40625 392.347656 113.269531 C 390.335938 120.457031 385.390625 125.199219 378.023438 126.605469 C 371.835938 127.792969 365.464844 128.050781 359.457031 125.5 C 353.824219 123.105469 350.296875 118.75 348.511719 112.671875 C 352.300781 111.542969 356.015625 110.4375 359.882812 109.292969 C 360.792969 112.121094 362.40625 114.34375 365.355469 114.875 C 368.746094 115.480469 372.265625 115.613281 375.613281 114.882812 C 381.492188 113.597656 382.460938 106.96875 379.628906 102.941406 C 378.363281 101.136719 376.589844 99.953125 374.578125 99.136719 C 370.628906 97.53125 366.59375 96.113281 362.714844 94.359375 C 357.492188 91.988281 353.207031 88.488281 351.171875 82.878906 C 346.828125 70.855469 355.109375 58.007812 367.886719 57.113281 C 373.03125 56.753906 378.214844 56.671875 383 59.273438 C 387.734375 61.847656 391.292969 66.3125 392.496094 71.566406 " clip-rule="nonzero"/></clipPath><clipPath id="1f1b39c12c"><path d="M 0.4375 0.636719 L 45.429688 0.636719 L 45.429688 71.746094 L 0.4375 71.746094 Z M 0.4375 0.636719 " clip-rule="nonzero"/></clipPath><clipPath id="d225411baa"><path d="M 44.496094 15.566406 C 44.476562 15.566406 33.15625 18.785156 33.15625 18.785156 C 33.15625 18.785156 32.777344 17.835938 32.546875 17.371094 C 31.371094 14.867188 29.457031 13.3125 26.644531 13.132812 C 24.691406 13.011719 22.730469 13.023438 20.765625 13.113281 C 17.675781 13.253906 14.894531 15.347656 14.304688 18.304688 C 13.660156 21.527344 13.957031 23.757812 17.046875 25.953125 C 19.9375 28.003906 23.328125 29 26.578125 30.265625 C 30.84375 31.933594 35.097656 33.597656 38.488281 36.835938 C 44.417969 42.496094 46.550781 49.40625 44.347656 57.269531 C 42.335938 64.457031 37.390625 69.199219 30.023438 70.605469 C 23.835938 71.792969 17.464844 72.050781 11.457031 69.5 C 5.824219 67.105469 2.296875 62.75 0.511719 56.671875 C 4.300781 55.542969 8.015625 54.4375 11.882812 53.292969 C 12.792969 56.121094 14.40625 58.34375 17.355469 58.875 C 20.746094 59.480469 24.265625 59.613281 27.613281 58.882812 C 33.492188 57.597656 34.460938 50.96875 31.628906 46.941406 C 30.363281 45.136719 28.589844 43.953125 26.578125 43.136719 C 22.628906 41.53125 18.59375 40.113281 14.714844 38.359375 C 9.492188 35.988281 5.207031 32.488281 3.171875 26.878906 C -1.171875 14.855469 7.109375 2.007812 19.886719 1.113281 C 25.03125 0.753906 30.214844 0.671875 35 3.273438 C 39.734375 5.847656 43.292969 10.3125 44.496094 15.566406 " clip-rule="nonzero"/></clipPath><clipPath id="d682f57080"><rect x="0" width="46" y="0" height="72"/></clipPath><clipPath id="c5983a2d03"><path d="M 196.472656 57.898438 L 237.6875 57.898438 L 237.6875 126 L 196.472656 126 Z M 196.472656 57.898438 " clip-rule="nonzero"/></clipPath><clipPath id="f7c96bb205"><path d="M 196.824219 57.980469 L 208.667969 57.988281 L 208.597656 114.105469 L 237.53125 114.144531 L 237.523438 125.949219 L 196.734375 125.898438 Z M 196.824219 57.980469 " clip-rule="nonzero"/></clipPath><clipPath id="1c14bd95d3"><path d="M 0.730469 0.898438 L 41.636719 0.898438 L 41.636719 69 L 0.730469 69 Z M 0.730469 0.898438 " clip-rule="nonzero"/></clipPath><clipPath id="2f5ff094e3"><path d="M 0.824219 0.980469 L 12.667969 0.988281 L 12.597656 57.105469 L 41.53125 57.144531 L 41.523438 68.949219 L 0.734375 68.898438 Z M 0.824219 0.980469 " clip-rule="nonzero"/></clipPath><clipPath id="c89fcd8138"><rect x="0" width="42" y="0" height="69"/></clipPath><clipPath id="94067416c4"><path d="M 484 138.871094 L 515.835938 138.871094 L 515.835938 174.554688 L 484 174.554688 Z M 484 138.871094 " clip-rule="nonzero"/></clipPath><clipPath id="a02ab021fe"><path d="M 488.359375 156.71875 C 488.351562 161.382812 489.347656 164.929688 491.332031 167.34375 C 493.316406 169.753906 496.207031 170.972656 499.992188 170.972656 C 503.808594 170.972656 506.699219 169.773438 508.65625 167.371094 C 510.609375 164.96875 511.585938 161.421875 511.59375 156.738281 C 511.605469 152.101562 510.636719 148.585938 508.695312 146.183594 C 506.75 143.78125 503.878906 142.582031 500.074219 142.582031 C 496.253906 142.582031 493.34375 143.78125 491.351562 146.191406 C 489.359375 148.605469 488.359375 152.113281 488.351562 156.71875 M 515.820312 156.757812 C 515.8125 162.269531 514.414062 166.617188 511.613281 169.765625 C 508.8125 172.914062 504.9375 174.5 499.972656 174.488281 C 494.890625 174.480469 490.972656 172.925781 488.222656 169.816406 C 485.46875 166.703125 484.105469 162.320312 484.113281 156.65625 C 484.125 151.046875 485.511719 146.699219 488.28125 143.621094 C 491.050781 140.539062 494.988281 138.984375 500.082031 138.996094 C 505.035156 139.003906 508.902344 140.582031 511.675781 143.730469 C 514.445312 146.878906 515.839844 151.214844 515.832031 156.757812 " clip-rule="nonzero"/></clipPath><clipPath id="5dd36c51e8"><path d="M 0.0351562 0.988281 L 31.835938 0.988281 L 31.835938 36.554688 L 0.0351562 36.554688 Z M 0.0351562 0.988281 " clip-rule="nonzero"/></clipPath><clipPath id="1e48c0bfd2"><path d="M 4.359375 18.71875 C 4.351562 23.382812 5.347656 26.929688 7.332031 29.34375 C 9.316406 31.753906 12.207031 32.972656 15.992188 32.972656 C 19.808594 32.972656 22.699219 31.773438 24.65625 29.371094 C 26.609375 26.96875 27.585938 23.421875 27.59375 18.738281 C 27.605469 14.101562 26.636719 10.585938 24.695312 8.183594 C 22.75 5.78125 19.878906 4.582031 16.074219 4.582031 C 12.253906 4.582031 9.34375 5.78125 7.351562 8.191406 C 5.359375 10.605469 4.359375 14.113281 4.351562 18.71875 M 31.820312 18.757812 C 31.8125 24.269531 30.414062 28.617188 27.613281 31.765625 C 24.8125 34.914062 20.9375 36.5 15.972656 36.488281 C 10.890625 36.480469 6.972656 34.925781 4.222656 31.816406 C 1.46875 28.703125 0.105469 24.320312 0.113281 18.65625 C 0.125 13.046875 1.511719 8.699219 4.28125 5.621094 C 7.050781 2.539062 10.988281 0.984375 16.082031 0.996094 C 21.035156 1.003906 24.902344 2.582031 27.675781 5.730469 C 30.445312 8.878906 31.839844 13.214844 31.832031 18.757812 " clip-rule="nonzero"/></clipPath><clipPath id="758e1f33ca"><rect x="0" width="32" y="0" height="37"/></clipPath><clipPath id="2b59d6e9c9"><path d="M 537.988281 139.585938 L 564.964844 139.585938 L 564.964844 174.148438 L 537.988281 174.148438 Z M 537.988281 139.585938 " clip-rule="nonzero"/></clipPath><clipPath id="3a17f08d33"><path d="M 564.921875 174.09375 L 560.347656 174.082031 L 541.539062 145.128906 L 541.347656 145.128906 C 541.597656 148.527344 541.71875 151.636719 541.71875 154.46875 L 541.6875 174.074219 L 537.988281 174.0625 L 538.03125 139.585938 L 542.566406 139.59375 L 561.324219 168.429688 L 561.511719 168.429688 C 561.484375 168.011719 561.414062 166.648438 561.304688 164.34375 C 561.195312 162.042969 561.152344 160.398438 561.195312 159.402344 L 561.214844 139.613281 L 564.960938 139.625 Z M 564.921875 174.09375 " clip-rule="nonzero"/></clipPath><clipPath id="0fdfa1f9c0"><path d="M 0.988281 0.585938 L 27.964844 0.585938 L 27.964844 35.148438 L 0.988281 35.148438 Z M 0.988281 0.585938 " clip-rule="nonzero"/></clipPath><clipPath id="5599a20f3f"><path d="M 27.921875 35.09375 L 23.347656 35.082031 L 4.539062 6.128906 L 4.347656 6.128906 C 4.597656 9.527344 4.71875 12.636719 4.71875 15.46875 L 4.6875 35.074219 L 0.988281 35.0625 L 1.03125 0.585938 L 5.566406 0.59375 L 24.324219 29.429688 L 24.511719 29.429688 C 24.484375 29.011719 24.414062 27.648438 24.304688 25.34375 C 24.195312 23.042969 24.152344 21.398438 24.195312 20.402344 L 24.214844 0.613281 L 27.960938 0.625 Z M 27.921875 35.09375 " clip-rule="nonzero"/></clipPath><clipPath id="e63538604e"><rect x="0" width="28" y="0" height="36"/></clipPath><clipPath id="9c8c38df1e"><path d="M 584.613281 139.644531 L 610.566406 139.644531 L 610.566406 174.183594 L 584.613281 174.183594 Z M 584.613281 139.644531 " clip-rule="nonzero"/></clipPath><clipPath id="4b9762ac47"><path d="M 599.503906 174.140625 L 595.5 174.132812 L 595.539062 143.210938 L 584.613281 143.203125 L 584.625 139.644531 L 610.46875 139.671875 L 610.460938 143.230469 L 599.535156 143.222656 Z M 599.503906 174.140625 " clip-rule="nonzero"/></clipPath><clipPath id="304d8bbeb1"><path d="M 0.613281 0.644531 L 26.566406 0.644531 L 26.566406 35.152344 L 0.613281 35.152344 Z M 0.613281 0.644531 " clip-rule="nonzero"/></clipPath><clipPath id="85519b9977"><path d="M 15.503906 35.140625 L 11.5 35.132812 L 11.539062 4.210938 L 0.613281 4.203125 L 0.625 0.644531 L 26.46875 0.671875 L 26.460938 4.230469 L 15.535156 4.222656 Z M 15.503906 35.140625 " clip-rule="nonzero"/></clipPath><clipPath id="4065e606eb"><rect x="0" width="27" y="0" height="36"/></clipPath><clipPath id="c3cba1bf58"><path d="M 630.101562 139.703125 L 634.167969 139.703125 L 634.167969 174.195312 L 630.101562 174.195312 Z M 630.101562 139.703125 " clip-rule="nonzero"/></clipPath><clipPath id="0b57e7c227"><path d="M 630.101562 174.175781 L 630.140625 139.703125 L 634.15625 139.710938 L 634.105469 174.1875 Z M 630.101562 174.175781 " clip-rule="nonzero"/></clipPath><clipPath id="627f029fcd"><path d="M 0.101562 0.703125 L 4.167969 0.703125 L 4.167969 35.195312 L 0.101562 35.195312 Z M 0.101562 0.703125 " clip-rule="nonzero"/></clipPath><clipPath id="32e6c56f2b"><path d="M 0.101562 35.175781 L 0.140625 0.703125 L 4.15625 0.710938 L 4.105469 35.1875 Z M 0.101562 35.175781 " clip-rule="nonzero"/></clipPath><clipPath id="9066f603d9"><rect x="0" width="5" y="0" height="36"/></clipPath><clipPath id="e93eca12ae"><path d="M 656.144531 139.09375 L 682.628906 139.09375 L 682.628906 175 L 656.144531 175 Z M 656.144531 139.09375 " clip-rule="nonzero"/></clipPath><clipPath id="f84e690847"><path d="M 672.859375 142.851562 C 669.070312 142.851562 666.082031 144.105469 663.878906 146.628906 C 661.675781 149.148438 660.578125 152.597656 660.578125 156.984375 C 660.570312 161.5 661.625 164.988281 663.738281 167.449219 C 665.851562 169.910156 668.863281 171.148438 672.777344 171.148438 C 675.179688 171.148438 677.933594 170.71875 681.011719 169.863281 L 681.003906 173.378906 C 678.609375 174.277344 675.660156 174.714844 672.160156 174.714844 C 667.085938 174.707031 663.160156 173.160156 660.410156 170.082031 C 657.65625 167 656.28125 162.617188 656.28125 156.945312 C 656.28125 153.394531 656.960938 150.277344 658.285156 147.605469 C 659.613281 144.933594 661.535156 142.878906 664.046875 141.433594 C 666.558594 139.988281 669.507812 139.269531 672.898438 139.269531 C 676.515625 139.269531 679.675781 139.9375 682.378906 141.265625 L 680.671875 144.703125 C 678.0625 143.476562 675.460938 142.859375 672.847656 142.851562 " clip-rule="nonzero"/></clipPath><clipPath id="d0023d7a38"><path d="M 0.273438 0.226562 L 26.585938 0.226562 L 26.585938 35.871094 L 0.273438 35.871094 Z M 0.273438 0.226562 " clip-rule="nonzero"/></clipPath><clipPath id="4989a94422"><path d="M 16.859375 3.851562 C 13.070312 3.851562 10.082031 5.105469 7.878906 7.628906 C 5.675781 10.148438 4.578125 13.597656 4.578125 17.984375 C 4.570312 22.5 5.625 25.988281 7.738281 28.449219 C 9.851562 30.910156 12.863281 32.148438 16.777344 32.148438 C 19.179688 32.148438 21.933594 31.71875 25.011719 30.863281 L 25.003906 34.378906 C 22.609375 35.277344 19.660156 35.714844 16.160156 35.714844 C 11.085938 35.707031 7.160156 34.160156 4.410156 31.082031 C 1.65625 28 0.28125 23.617188 0.28125 17.945312 C 0.28125 14.394531 0.960938 11.277344 2.285156 8.605469 C 3.613281 5.933594 5.535156 3.878906 8.046875 2.433594 C 10.558594 0.988281 13.507812 0.269531 16.898438 0.269531 C 20.515625 0.269531 23.675781 0.9375 26.378906 2.265625 L 24.671875 5.703125 C 22.0625 4.476562 19.460938 3.859375 16.847656 3.851562 " clip-rule="nonzero"/></clipPath><clipPath id="823721c8e5"><rect x="0" width="27" y="0" height="36"/></clipPath><clipPath id="e27297971f"><path d="M 700.4375 139.09375 L 722.816406 139.09375 L 722.816406 175 L 700.4375 175 Z M 700.4375 139.09375 " clip-rule="nonzero"/></clipPath><clipPath id="008aa05063"><path d="M 722.488281 165.128906 C 722.488281 168.15625 721.378906 170.53125 719.175781 172.222656 C 716.976562 173.917969 713.984375 174.765625 710.21875 174.753906 C 706.128906 174.746094 702.980469 174.21875 700.789062 173.160156 L 700.796875 169.292969 C 702.210938 169.890625 703.746094 170.371094 705.421875 170.71875 C 707.097656 171.066406 708.742188 171.238281 710.375 171.246094 C 713.046875 171.246094 715.0625 170.75 716.417969 169.730469 C 717.773438 168.714844 718.449219 167.308594 718.449219 165.503906 C 718.449219 164.308594 718.210938 163.332031 717.730469 162.574219 C 717.253906 161.816406 716.457031 161.109375 715.332031 160.460938 C 714.203125 159.8125 712.5 159.085938 710.207031 158.257812 C 706.996094 157.113281 704.714844 155.746094 703.339844 154.171875 C 701.964844 152.597656 701.277344 150.542969 701.285156 148.011719 C 701.285156 145.351562 702.292969 143.238281 704.285156 141.671875 C 706.28125 140.109375 708.929688 139.320312 712.210938 139.332031 C 715.640625 139.332031 718.789062 139.96875 721.667969 141.226562 L 720.414062 144.714844 C 717.574219 143.515625 714.800781 142.917969 712.109375 142.910156 C 709.988281 142.910156 708.332031 143.359375 707.136719 144.273438 C 705.941406 145.191406 705.34375 146.449219 705.34375 148.074219 C 705.34375 149.269531 705.5625 150.246094 706 151.011719 C 706.4375 151.78125 707.175781 152.476562 708.222656 153.117188 C 709.269531 153.753906 710.863281 154.460938 713.019531 155.230469 C 716.636719 156.523438 719.117188 157.910156 720.472656 159.386719 C 721.828125 160.859375 722.507812 162.785156 722.507812 165.148438 " clip-rule="nonzero"/></clipPath><clipPath id="f82201ab96"><path d="M 0.765625 0.226562 L 22.535156 0.226562 L 22.535156 35.871094 L 0.765625 35.871094 Z M 0.765625 0.226562 " clip-rule="nonzero"/></clipPath><clipPath id="ee0a7dbef9"><path d="M 22.488281 26.128906 C 22.488281 29.15625 21.378906 31.53125 19.175781 33.222656 C 16.976562 34.917969 13.984375 35.765625 10.21875 35.753906 C 6.128906 35.746094 2.980469 35.21875 0.789062 34.160156 L 0.796875 30.292969 C 2.210938 30.890625 3.746094 31.371094 5.421875 31.71875 C 7.097656 32.066406 8.742188 32.238281 10.375 32.246094 C 13.046875 32.246094 15.0625 31.75 16.417969 30.730469 C 17.773438 29.714844 18.449219 28.308594 18.449219 26.503906 C 18.449219 25.308594 18.210938 24.332031 17.730469 23.574219 C 17.253906 22.816406 16.457031 22.109375 15.332031 21.460938 C 14.203125 20.8125 12.5 20.085938 10.207031 19.257812 C 6.996094 18.113281 4.714844 16.746094 3.339844 15.171875 C 1.964844 13.597656 1.277344 11.542969 1.285156 9.011719 C 1.285156 6.351562 2.292969 4.238281 4.285156 2.671875 C 6.28125 1.109375 8.929688 0.320312 12.210938 0.332031 C 15.640625 0.332031 18.789062 0.96875 21.667969 2.226562 L 20.414062 5.714844 C 17.574219 4.515625 14.800781 3.917969 12.109375 3.910156 C 9.988281 3.910156 8.332031 4.359375 7.136719 5.273438 C 5.941406 6.191406 5.34375 7.449219 5.34375 9.074219 C 5.34375 10.269531 5.5625 11.246094 6 12.011719 C 6.4375 12.78125 7.175781 13.476562 8.222656 14.117188 C 9.269531 14.753906 10.863281 15.460938 13.019531 16.230469 C 16.636719 17.523438 19.117188 18.910156 20.472656 20.386719 C 21.828125 21.859375 22.507812 23.785156 22.507812 26.148438 " clip-rule="nonzero"/></clipPath><clipPath id="239e1466fd"><rect x="0" width="23" y="0" height="36"/></clipPath><clipPath id="68c7983ec5"><path d="M 508 67.398438 L 535.585938 67.398438 L 535.585938 126.761719 L 508 126.761719 Z M 508 67.398438 " clip-rule="nonzero"/></clipPath><clipPath id="816ad0068a"><path d="M 520.902344 124.449219 C 521.371094 125.316406 522.089844 125.714844 527.0625 125.726562 C 527.382812 125.726562 527.460938 125.726562 527.460938 126.203125 C 527.460938 126.523438 527.382812 126.683594 527.0625 126.671875 C 525.878906 126.671875 520.035156 126.582031 517.425781 126.582031 C 515.292969 126.582031 510.945312 126.652344 508.972656 126.652344 C 508.652344 126.652344 508.574219 126.574219 508.574219 126.175781 C 508.574219 125.707031 508.734375 125.707031 508.972656 125.707031 C 512.53125 125.707031 513.707031 125.554688 514.183594 124.609375 C 514.664062 123.742188 514.742188 122.875 514.742188 120.582031 L 514.785156 90.640625 L 508.625 90.628906 C 508.226562 90.628906 508.144531 90.550781 508.144531 90.152344 C 508.144531 89.914062 508.226562 89.671875 508.851562 89.671875 C 511.613281 89.523438 513.039062 89.203125 513.828125 88.417969 C 514.613281 87.628906 514.773438 86.445312 515.101562 82.257812 C 515.910156 70.484375 521.363281 67.804688 527.761719 67.8125 C 534.320312 67.824219 535.574219 71.769531 535.574219 74.144531 C 535.574219 75.796875 534.628906 76.515625 533.363281 76.515625 C 531.867188 76.515625 531.148438 75.640625 531.160156 74.0625 C 531.089844 69.480469 528.878906 68.929688 526.664062 68.921875 C 524.769531 68.921875 523.027344 69.628906 522 71.203125 C 521.054688 72.628906 520.496094 74.992188 520.484375 80.523438 L 520.476562 89.375 L 528.609375 89.382812 C 529.007812 89.382812 529.167969 89.542969 529.15625 89.941406 C 529.15625 90.492188 528.996094 90.648438 528.597656 90.648438 L 520.464844 90.640625 L 520.425781 120.582031 C 520.425781 122.636719 520.496094 123.742188 520.894531 124.449219 " clip-rule="nonzero"/></clipPath><clipPath id="52072d96dd"><path d="M 0 0.699219 L 27.585938 0.699219 L 27.585938 59.761719 L 0 59.761719 Z M 0 0.699219 " clip-rule="nonzero"/></clipPath><clipPath id="95870c3ccc"><path d="M 12.902344 57.449219 C 13.371094 58.316406 14.089844 58.714844 19.0625 58.726562 C 19.382812 58.726562 19.460938 58.726562 19.460938 59.203125 C 19.460938 59.523438 19.382812 59.683594 19.0625 59.671875 C 17.878906 59.671875 12.035156 59.582031 9.425781 59.582031 C 7.292969 59.582031 2.945312 59.652344 0.972656 59.652344 C 0.652344 59.652344 0.574219 59.574219 0.574219 59.175781 C 0.574219 58.707031 0.734375 58.707031 0.972656 58.707031 C 4.53125 58.707031 5.707031 58.554688 6.183594 57.609375 C 6.664062 56.742188 6.742188 55.875 6.742188 53.582031 L 6.785156 23.640625 L 0.625 23.628906 C 0.226562 23.628906 0.144531 23.550781 0.144531 23.152344 C 0.144531 22.914062 0.226562 22.671875 0.851562 22.671875 C 3.613281 22.523438 5.039062 22.203125 5.828125 21.417969 C 6.613281 20.628906 6.773438 19.445312 7.101562 15.257812 C 7.910156 3.484375 13.363281 0.804688 19.761719 0.8125 C 26.320312 0.824219 27.574219 4.769531 27.574219 7.144531 C 27.574219 8.796875 26.628906 9.515625 25.363281 9.515625 C 23.867188 9.515625 23.148438 8.640625 23.160156 7.0625 C 23.089844 2.480469 20.878906 1.929688 18.664062 1.921875 C 16.769531 1.921875 15.027344 2.628906 14 4.203125 C 13.054688 5.628906 12.496094 7.992188 12.484375 13.523438 L 12.476562 22.375 L 20.609375 22.382812 C 21.007812 22.382812 21.167969 22.542969 21.15625 22.941406 C 21.15625 23.492188 20.996094 23.648438 20.597656 23.648438 L 12.464844 23.640625 L 12.425781 53.582031 C 12.425781 55.636719 12.496094 56.742188 12.894531 57.449219 " clip-rule="nonzero"/></clipPath><clipPath id="9e6d4ec942"><rect x="0" width="28" y="0" height="60"/></clipPath><clipPath id="1e392eaa68"><path d="M 533.757812 88 L 569.832031 88 L 569.832031 128 L 533.757812 128 Z M 533.757812 88 " clip-rule="nonzero"/></clipPath><clipPath id="91e29cff88"><path d="M 554.8125 108.53125 C 549.042969 108.523438 544.855469 109.070312 542.800781 110.175781 C 540.667969 111.28125 539.402344 113.335938 539.394531 117.28125 C 539.382812 123.125 542.0625 126.375 546.808594 126.375 C 552.101562 126.382812 554.714844 123.621094 556.136719 119.90625 C 556.695312 118.398438 556.9375 115.089844 556.9375 112.71875 L 556.945312 108.613281 C 556.398438 108.53125 555.601562 108.53125 554.8125 108.53125 M 546.171875 127.71875 C 537.640625 127.710938 533.769531 123.203125 533.78125 117.191406 C 533.792969 113.324219 535.527344 111.035156 538.535156 109.617188 C 541.308594 108.363281 546.441406 107.574219 556.945312 107.585938 L 556.957031 100.945312 C 556.964844 95.652344 556.566406 93.679688 556.019531 92.574219 C 554.761719 90.042969 552.390625 89.484375 549.3125 89.484375 C 546.628906 89.484375 544.175781 90.191406 542.832031 91.21875 C 540.777344 92.792969 540.539062 94.765625 540.53125 98.644531 C 540.53125 100.378906 539.503906 101.015625 538.15625 101.015625 C 536.890625 101.015625 535.945312 100.457031 535.953125 98.722656 C 535.964844 94.136719 540.152344 88.378906 550.1875 88.398438 C 556.117188 88.40625 559.667969 90.621094 561.320312 93.78125 C 562.109375 95.363281 562.585938 97.339844 562.578125 100.578125 C 562.566406 104.523438 562.398438 119.773438 562.386719 121.199219 C 562.386719 124.910156 563.175781 126.09375 565.386719 126.105469 C 566.734375 126.105469 567.523438 125.714844 568.308594 124.847656 C 568.546875 124.53125 568.789062 124.300781 569.097656 124.300781 C 569.335938 124.300781 569.65625 124.539062 569.65625 124.859375 C 569.65625 125.097656 569.414062 125.417969 569.015625 125.726562 C 567.832031 126.671875 566.015625 127.460938 563.882812 127.460938 C 558.511719 127.449219 557.09375 124.917969 556.855469 120.972656 C 555.191406 125.316406 551.003906 127.757812 546.179688 127.75 " clip-rule="nonzero"/></clipPath><clipPath id="1a7cb423a8"><path d="M 0.757812 0.273438 L 36.675781 0.273438 L 36.675781 39.984375 L 0.757812 39.984375 Z M 0.757812 0.273438 " clip-rule="nonzero"/></clipPath><clipPath id="c5f980cc1b"><path d="M 21.8125 20.53125 C 16.042969 20.523438 11.855469 21.070312 9.800781 22.175781 C 7.667969 23.28125 6.402344 25.335938 6.394531 29.28125 C 6.382812 35.125 9.0625 38.375 13.808594 38.375 C 19.101562 38.382812 21.714844 35.621094 23.136719 31.90625 C 23.695312 30.398438 23.9375 27.089844 23.9375 24.71875 L 23.945312 20.613281 C 23.398438 20.53125 22.601562 20.53125 21.8125 20.53125 M 13.171875 39.71875 C 4.640625 39.710938 0.769531 35.203125 0.78125 29.191406 C 0.792969 25.324219 2.527344 23.035156 5.535156 21.617188 C 8.308594 20.363281 13.441406 19.574219 23.945312 19.585938 L 23.957031 12.945312 C 23.964844 7.652344 23.566406 5.679688 23.019531 4.574219 C 21.761719 2.042969 19.390625 1.484375 16.3125 1.484375 C 13.628906 1.484375 11.175781 2.191406 9.832031 3.21875 C 7.777344 4.792969 7.539062 6.765625 7.53125 10.644531 C 7.53125 12.378906 6.503906 13.015625 5.15625 13.015625 C 3.890625 13.015625 2.945312 12.457031 2.953125 10.722656 C 2.964844 6.136719 7.152344 0.378906 17.1875 0.398438 C 23.117188 0.40625 26.667969 2.621094 28.320312 5.78125 C 29.109375 7.363281 29.585938 9.339844 29.578125 12.578125 C 29.566406 16.523438 29.398438 31.773438 29.386719 33.199219 C 29.386719 36.910156 30.175781 38.09375 32.386719 38.105469 C 33.734375 38.105469 34.523438 37.714844 35.308594 36.847656 C 35.546875 36.53125 35.789062 36.300781 36.097656 36.300781 C 36.335938 36.300781 36.65625 36.539062 36.65625 36.859375 C 36.65625 37.097656 36.414062 37.417969 36.015625 37.726562 C 34.832031 38.671875 33.015625 39.460938 30.882812 39.460938 C 25.511719 39.449219 24.09375 36.917969 23.855469 32.972656 C 22.191406 37.316406 18.003906 39.757812 13.179688 39.75 " clip-rule="nonzero"/></clipPath><clipPath id="ab16b6c592"><rect x="0" width="37" y="0" height="40"/></clipPath><clipPath id="a960f8f79e"><path d="M 572.117188 88.402344 L 637.875 88.402344 L 637.875 127 L 572.117188 127 Z M 572.117188 88.402344 " clip-rule="nonzero"/></clipPath><clipPath id="9c65d721fa"><path d="M 584.257812 124.6875 C 584.574219 125.316406 585.441406 125.796875 589.628906 125.804688 C 589.949219 125.804688 590.027344 125.886719 590.027344 126.285156 C 590.027344 126.601562 590.027344 126.753906 589.710938 126.753906 C 588.601562 126.753906 583.550781 126.664062 580.9375 126.664062 C 578.804688 126.664062 574.539062 126.730469 572.566406 126.730469 C 572.246094 126.730469 572.167969 126.652344 572.167969 126.253906 C 572.167969 125.855469 572.324219 125.785156 572.566406 125.785156 C 576.203125 125.785156 577.300781 125.636719 577.777344 124.6875 C 578.257812 123.820312 578.335938 122.953125 578.335938 120.660156 L 578.367188 96.09375 C 578.375 91.984375 578.214844 91.507812 577.589844 90.957031 C 577.03125 90.480469 575.933594 90.402344 572.765625 90.402344 C 572.445312 90.402344 572.367188 90.242188 572.367188 89.84375 C 572.367188 89.601562 572.445312 89.445312 572.683594 89.445312 C 578.296875 89.453125 582.800781 89.066406 583.589844 89.066406 C 583.90625 89.066406 584.066406 89.222656 584.066406 89.851562 C 584.066406 90.558594 583.90625 93.492188 583.738281 98.066406 C 585.003906 93.25 589.121094 88.4375 596.785156 88.445312 C 603.503906 88.457031 606.574219 91.777344 607.519531 98.335938 C 609.027344 93.519531 612.984375 88.46875 620.570312 88.476562 C 625.074219 88.488281 628.394531 90.300781 629.886719 93.539062 C 631.222656 96.3125 631.464844 98.992188 631.453125 102.789062 L 631.433594 120.722656 C 631.433594 123.015625 631.433594 123.882812 631.820312 124.75 C 632.140625 125.375 633.007812 125.855469 637.195312 125.863281 C 637.433594 125.863281 637.511719 125.945312 637.511719 126.34375 C 637.511719 126.664062 637.433594 126.8125 637.195312 126.8125 C 636.007812 126.8125 631.195312 126.722656 628.582031 126.722656 C 626.371094 126.722656 622.105469 126.792969 620.289062 126.792969 C 619.972656 126.792969 619.890625 126.710938 619.890625 126.3125 C 619.890625 125.914062 620.050781 125.84375 620.289062 125.84375 C 623.847656 125.84375 624.796875 125.695312 625.261719 124.75 C 625.742188 123.960938 625.820312 123.015625 625.820312 120.722656 L 625.839844 101.921875 C 625.851562 96.710938 625.53125 94.335938 624.824219 93.070312 C 623.71875 91.019531 621.90625 89.914062 618.746094 89.902344 C 614.558594 89.902344 611.707031 92.652344 610.042969 95.183594 C 608.539062 97.476562 607.660156 101.503906 607.660156 105.839844 L 607.640625 120.691406 C 607.640625 122.984375 607.640625 123.851562 608.03125 124.71875 C 608.347656 125.347656 609.214844 125.824219 613.324219 125.835938 C 613.640625 125.835938 613.722656 125.914062 613.710938 126.3125 C 613.699219 126.710938 613.632812 126.78125 613.3125 126.78125 C 612.285156 126.78125 607.382812 126.691406 604.78125 126.691406 C 602.566406 126.691406 598.300781 126.761719 596.40625 126.761719 C 596.167969 126.761719 596.089844 126.683594 596.089844 126.292969 C 596.089844 125.976562 596.167969 125.816406 596.40625 125.824219 C 599.964844 125.824219 600.992188 125.675781 601.460938 124.730469 C 601.859375 123.941406 602.019531 123.074219 602.019531 120.703125 L 602.039062 102.0625 C 602.050781 96.929688 601.808594 94.398438 601.023438 92.972656 C 599.847656 90.839844 598.261719 89.882812 595.101562 89.882812 C 590.914062 89.871094 587.753906 92.5625 586.25 95.003906 C 584.746094 97.449219 583.867188 100.21875 583.867188 105.113281 L 583.847656 120.671875 C 583.847656 122.964844 583.847656 123.910156 584.238281 124.699219 " clip-rule="nonzero"/></clipPath><clipPath id="8cf4e2ab0e"><path d="M 0.117188 0.402344 L 65.613281 0.402344 L 65.613281 39 L 0.117188 39 Z M 0.117188 0.402344 " clip-rule="nonzero"/></clipPath><clipPath id="cd88059d18"><path d="M 12.257812 36.6875 C 12.574219 37.316406 13.441406 37.796875 17.628906 37.804688 C 17.949219 37.804688 18.027344 37.886719 18.027344 38.285156 C 18.027344 38.601562 18.027344 38.753906 17.710938 38.753906 C 16.601562 38.753906 11.550781 38.664062 8.9375 38.664062 C 6.804688 38.664062 2.539062 38.730469 0.566406 38.730469 C 0.246094 38.730469 0.167969 38.652344 0.167969 38.253906 C 0.167969 37.855469 0.324219 37.785156 0.566406 37.785156 C 4.203125 37.785156 5.300781 37.636719 5.777344 36.6875 C 6.257812 35.820312 6.335938 34.953125 6.335938 32.660156 L 6.367188 8.09375 C 6.375 3.984375 6.214844 3.507812 5.589844 2.957031 C 5.03125 2.480469 3.933594 2.402344 0.765625 2.402344 C 0.445312 2.402344 0.367188 2.242188 0.367188 1.84375 C 0.367188 1.601562 0.445312 1.445312 0.683594 1.445312 C 6.296875 1.453125 10.800781 1.066406 11.589844 1.066406 C 11.90625 1.066406 12.066406 1.222656 12.066406 1.851562 C 12.066406 2.558594 11.90625 5.492188 11.738281 10.066406 C 13.003906 5.25 17.121094 0.4375 24.785156 0.445312 C 31.503906 0.457031 34.574219 3.777344 35.519531 10.335938 C 37.027344 5.519531 40.984375 0.46875 48.570312 0.476562 C 53.074219 0.488281 56.394531 2.300781 57.886719 5.539062 C 59.222656 8.3125 59.464844 10.992188 59.453125 14.789062 L 59.433594 32.722656 C 59.433594 35.015625 59.433594 35.882812 59.820312 36.75 C 60.140625 37.375 61.007812 37.855469 65.195312 37.863281 C 65.433594 37.863281 65.511719 37.945312 65.511719 38.34375 C 65.511719 38.664062 65.433594 38.8125 65.195312 38.8125 C 64.007812 38.8125 59.195312 38.722656 56.582031 38.722656 C 54.371094 38.722656 50.105469 38.792969 48.289062 38.792969 C 47.972656 38.792969 47.890625 38.710938 47.890625 38.3125 C 47.890625 37.914062 48.050781 37.84375 48.289062 37.84375 C 51.847656 37.84375 52.796875 37.695312 53.261719 36.75 C 53.742188 35.960938 53.820312 35.015625 53.820312 32.722656 L 53.839844 13.921875 C 53.851562 8.710938 53.53125 6.335938 52.824219 5.070312 C 51.71875 3.019531 49.90625 1.914062 46.746094 1.902344 C 42.558594 1.902344 39.707031 4.652344 38.042969 7.183594 C 36.539062 9.476562 35.660156 13.503906 35.660156 17.839844 L 35.640625 32.691406 C 35.640625 34.984375 35.640625 35.851562 36.03125 36.71875 C 36.347656 37.347656 37.214844 37.824219 41.324219 37.835938 C 41.640625 37.835938 41.722656 37.914062 41.710938 38.3125 C 41.699219 38.710938 41.632812 38.78125 41.3125 38.78125 C 40.285156 38.78125 35.382812 38.691406 32.78125 38.691406 C 30.566406 38.691406 26.300781 38.761719 24.40625 38.761719 C 24.167969 38.761719 24.089844 38.683594 24.089844 38.292969 C 24.089844 37.976562 24.167969 37.816406 24.40625 37.824219 C 27.964844 37.824219 28.992188 37.675781 29.460938 36.730469 C 29.859375 35.941406 30.019531 35.074219 30.019531 32.703125 L 30.039062 14.0625 C 30.050781 8.929688 29.808594 6.398438 29.023438 4.972656 C 27.847656 2.839844 26.261719 1.882812 23.101562 1.882812 C 18.914062 1.871094 15.753906 4.5625 14.25 7.003906 C 12.746094 9.449219 11.867188 12.21875 11.867188 17.113281 L 11.847656 32.671875 C 11.847656 34.964844 11.847656 35.910156 12.238281 36.699219 " clip-rule="nonzero"/></clipPath><clipPath id="496ea0b88c"><rect x="0" width="66" y="0" height="39"/></clipPath><clipPath id="331160c157"><path d="M 641.53125 70.59375 L 659.796875 70.59375 L 659.796875 127 L 641.53125 127 Z M 641.53125 70.59375 " clip-rule="nonzero"/></clipPath><clipPath id="cf33ca9ae8"><path d="M 650.203125 78.480469 C 648.148438 78.480469 646.496094 76.894531 646.496094 74.601562 C 646.496094 72.308594 648.238281 70.65625 650.292969 70.65625 C 652.585938 70.65625 654 72.398438 654 74.613281 C 654 76.90625 652.414062 78.480469 650.203125 78.480469 M 653.941406 124.777344 C 654.257812 125.417969 655.125 125.886719 659.3125 125.894531 C 659.632812 125.894531 659.710938 125.976562 659.710938 126.375 C 659.710938 126.691406 659.632812 126.84375 659.3125 126.84375 C 658.207031 126.84375 653.230469 126.753906 650.621094 126.753906 C 648.488281 126.753906 644.222656 126.820312 642.25 126.820312 C 641.929688 126.820312 641.847656 126.742188 641.847656 126.34375 C 641.847656 125.945312 642.007812 125.875 642.25 125.875 C 645.886719 125.875 646.984375 125.726562 647.460938 124.777344 C 647.941406 123.910156 648.019531 123.042969 648.019531 120.75 L 648.050781 96.183594 C 648.058594 92.074219 647.898438 91.597656 647.273438 91.046875 C 646.722656 90.570312 645.617188 90.492188 642.457031 90.492188 C 642.136719 90.492188 642.058594 90.410156 642.058594 90.011719 C 642.058594 89.691406 642.136719 89.542969 642.378906 89.542969 C 647.988281 89.554688 652.644531 89.164062 653.441406 89.164062 C 653.761719 89.164062 653.910156 89.324219 653.910156 89.792969 C 653.910156 90.191406 653.589844 94.058594 653.582031 98.722656 L 653.550781 120.761719 C 653.550781 123.054688 653.550781 123.921875 653.941406 124.789062 " clip-rule="nonzero"/></clipPath><clipPath id="74d677d89f"><path d="M 0.679688 0.59375 L 18.796875 0.59375 L 18.796875 57 L 0.679688 57 Z M 0.679688 0.59375 " clip-rule="nonzero"/></clipPath><clipPath id="3f3ae3b638"><path d="M 9.203125 8.480469 C 7.148438 8.480469 5.496094 6.894531 5.496094 4.601562 C 5.496094 2.308594 7.238281 0.65625 9.292969 0.65625 C 11.585938 0.65625 13 2.398438 13 4.613281 C 13 6.90625 11.414062 8.480469 9.203125 8.480469 M 12.941406 54.777344 C 13.257812 55.417969 14.125 55.886719 18.3125 55.894531 C 18.632812 55.894531 18.710938 55.976562 18.710938 56.375 C 18.710938 56.691406 18.632812 56.84375 18.3125 56.84375 C 17.207031 56.84375 12.230469 56.753906 9.621094 56.753906 C 7.488281 56.753906 3.222656 56.820312 1.25 56.820312 C 0.929688 56.820312 0.847656 56.742188 0.847656 56.34375 C 0.847656 55.945312 1.007812 55.875 1.25 55.875 C 4.886719 55.875 5.984375 55.726562 6.460938 54.777344 C 6.941406 53.910156 7.019531 53.042969 7.019531 50.75 L 7.050781 26.183594 C 7.058594 22.074219 6.898438 21.597656 6.273438 21.046875 C 5.722656 20.570312 4.617188 20.492188 1.457031 20.492188 C 1.136719 20.492188 1.058594 20.410156 1.058594 20.011719 C 1.058594 19.691406 1.136719 19.542969 1.378906 19.542969 C 6.988281 19.554688 11.644531 19.164062 12.441406 19.164062 C 12.761719 19.164062 12.910156 19.324219 12.910156 19.792969 C 12.910156 20.191406 12.589844 24.058594 12.582031 28.722656 L 12.550781 50.761719 C 12.550781 53.054688 12.550781 53.921875 12.941406 54.789062 " clip-rule="nonzero"/></clipPath><clipPath id="ff0622253c"><rect x="0" width="19" y="0" height="57"/></clipPath><clipPath id="6a748fbaf2"><path d="M 663.90625 68 L 682 68 L 682 127 L 663.90625 127 Z M 663.90625 68 " clip-rule="nonzero"/></clipPath><clipPath id="202d195b6d"><path d="M 676.046875 124.796875 C 676.367188 125.425781 677.3125 125.90625 681.5 125.914062 C 681.820312 125.914062 681.898438 125.996094 681.898438 126.394531 C 681.898438 126.792969 681.820312 126.863281 681.5 126.863281 C 680.394531 126.863281 675.339844 126.773438 672.730469 126.773438 C 670.597656 126.773438 666.328125 126.84375 664.355469 126.84375 C 664.039062 126.84375 663.957031 126.761719 663.957031 126.363281 C 663.957031 125.894531 664.117188 125.894531 664.355469 125.894531 C 667.984375 125.894531 669.171875 125.746094 669.648438 124.796875 C 670.046875 123.929688 670.128906 123.0625 670.128906 120.773438 L 670.1875 75.351562 C 670.195312 71.242188 670.039062 70.527344 669.398438 69.976562 C 668.851562 69.5 667.746094 69.417969 664.585938 69.417969 C 664.265625 69.417969 664.1875 69.339844 664.1875 68.941406 C 664.1875 68.621094 664.265625 68.460938 664.503906 68.460938 C 670.117188 68.472656 674.691406 68.082031 675.488281 68.082031 C 675.808594 68.082031 676.046875 68.242188 676.046875 68.710938 C 676.046875 69.03125 675.730469 73.058594 675.71875 77.722656 L 675.667969 120.773438 C 675.667969 123.0625 675.667969 123.929688 676.058594 124.796875 " clip-rule="nonzero"/></clipPath><clipPath id="54c712bb69"><path d="M 0.925781 0 L 19 0 L 19 59 L 0.925781 59 Z M 0.925781 0 " clip-rule="nonzero"/></clipPath><clipPath id="3e3de326e2"><path d="M 13.046875 56.796875 C 13.367188 57.425781 14.3125 57.90625 18.5 57.914062 C 18.820312 57.914062 18.898438 57.996094 18.898438 58.394531 C 18.898438 58.792969 18.820312 58.863281 18.5 58.863281 C 17.394531 58.863281 12.339844 58.773438 9.730469 58.773438 C 7.597656 58.773438 3.328125 58.84375 1.355469 58.84375 C 1.039062 58.84375 0.957031 58.761719 0.957031 58.363281 C 0.957031 57.894531 1.117188 57.894531 1.355469 57.894531 C 4.984375 57.894531 6.171875 57.746094 6.648438 56.796875 C 7.046875 55.929688 7.128906 55.0625 7.128906 52.773438 L 7.1875 7.351562 C 7.195312 3.242188 7.039062 2.527344 6.398438 1.976562 C 5.851562 1.5 4.746094 1.417969 1.585938 1.417969 C 1.265625 1.417969 1.1875 1.339844 1.1875 0.941406 C 1.1875 0.621094 1.265625 0.460938 1.503906 0.460938 C 7.117188 0.472656 11.691406 0.0820312 12.488281 0.0820312 C 12.808594 0.0820312 13.046875 0.242188 13.046875 0.710938 C 13.046875 1.03125 12.730469 5.058594 12.71875 9.722656 L 12.667969 52.773438 C 12.667969 55.0625 12.667969 55.929688 13.058594 56.796875 " clip-rule="nonzero"/></clipPath><clipPath id="f8329197f2"><rect x="0" width="19" y="0" height="59"/></clipPath><clipPath id="c172140a81"><path d="M 682.628906 89.316406 L 724 89.316406 L 724 146.398438 L 682.628906 146.398438 Z M 682.628906 89.316406 " clip-rule="nonzero"/></clipPath><clipPath id="838ef83a79"><path d="M 702.511719 126.890625 C 701.882812 126.890625 701.40625 126.8125 701.085938 126.023438 L 689.046875 95.902344 C 687.710938 92.582031 687.230469 91.714844 686.605469 91.238281 C 685.894531 90.757812 684.949219 90.53125 683.285156 90.519531 C 683.046875 90.519531 682.886719 90.519531 682.886719 90.042969 C 682.886719 89.644531 683.046875 89.574219 683.363281 89.574219 C 684.628906 89.574219 688.257812 89.664062 691.027344 89.664062 C 694.429688 89.664062 697.507812 89.59375 699.722656 89.59375 C 700.039062 89.59375 700.121094 89.671875 700.121094 90.070312 C 700.121094 90.46875 700.039062 90.550781 699.652344 90.550781 C 698.386719 90.550781 697.121094 90.621094 696.253906 90.699219 C 694.519531 90.859375 694.121094 91.40625 694.121094 92.355469 C 694.121094 92.980469 694.347656 93.699219 695.226562 95.992188 C 701.992188 113.148438 703.648438 117.414062 705.621094 122.785156 C 707.445312 117.8125 708.632812 114.890625 715.210938 97.277344 C 715.6875 95.933594 716.167969 94.359375 716.167969 93.171875 C 716.167969 92.304688 715.699219 91.667969 714.59375 91.199219 C 713.804688 90.878906 712.460938 90.640625 711.195312 90.558594 C 710.796875 90.558594 710.726562 90.402344 710.726562 90.082031 C 710.726562 89.683594 710.882812 89.601562 711.195312 89.613281 C 712.539062 89.613281 715.777344 89.691406 717.59375 89.703125 C 719.566406 89.703125 721.378906 89.632812 723.285156 89.632812 C 723.671875 89.632812 723.753906 89.714844 723.753906 90.113281 C 723.753906 90.589844 723.59375 90.589844 723.355469 90.589844 C 721.699219 90.828125 720.910156 91.136719 719.957031 91.925781 C 719.167969 92.554688 718.222656 93.980469 717.183594 96.820312 C 713.21875 107.085938 711.085938 112.769531 705.453125 126.742188 C 700.9375 138.035156 699.511719 141.273438 695.792969 144.34375 C 694.128906 145.679688 692.316406 146.160156 690.820312 146.160156 C 688.765625 146.160156 687.421875 145.28125 687.421875 143.546875 C 687.421875 142.121094 688.140625 141.175781 689.792969 141.175781 C 691.140625 141.175781 691.765625 142.050781 693.191406 142.050781 C 696.433594 142.050781 698.882812 139.449219 703.636719 126.902344 Z M 702.511719 126.890625 " clip-rule="nonzero"/></clipPath><clipPath id="2f19dc9f92"><path d="M 0.824219 0.46875 L 41.972656 0.46875 L 41.972656 57.164062 L 0.824219 57.164062 Z M 0.824219 0.46875 " clip-rule="nonzero"/></clipPath><clipPath id="c01d12a623"><path d="M 20.511719 37.890625 C 19.882812 37.890625 19.40625 37.8125 19.085938 37.023438 L 7.046875 6.902344 C 5.710938 3.582031 5.230469 2.714844 4.605469 2.238281 C 3.894531 1.757812 2.949219 1.53125 1.285156 1.519531 C 1.046875 1.519531 0.886719 1.519531 0.886719 1.042969 C 0.886719 0.644531 1.046875 0.574219 1.363281 0.574219 C 2.628906 0.574219 6.257812 0.664062 9.027344 0.664062 C 12.429688 0.664062 15.507812 0.59375 17.722656 0.59375 C 18.039062 0.59375 18.121094 0.671875 18.121094 1.070312 C 18.121094 1.46875 18.039062 1.550781 17.652344 1.550781 C 16.386719 1.550781 15.121094 1.621094 14.253906 1.699219 C 12.519531 1.859375 12.121094 2.40625 12.121094 3.355469 C 12.121094 3.980469 12.347656 4.699219 13.226562 6.992188 C 19.992188 24.148438 21.648438 28.414062 23.621094 33.785156 C 25.445312 28.8125 26.632812 25.890625 33.210938 8.277344 C 33.6875 6.933594 34.167969 5.359375 34.167969 4.171875 C 34.167969 3.304688 33.699219 2.667969 32.59375 2.199219 C 31.804688 1.878906 30.460938 1.640625 29.195312 1.558594 C 28.796875 1.558594 28.726562 1.402344 28.726562 1.082031 C 28.726562 0.683594 28.882812 0.601562 29.195312 0.613281 C 30.539062 0.613281 33.777344 0.691406 35.59375 0.703125 C 37.566406 0.703125 39.378906 0.632812 41.285156 0.632812 C 41.671875 0.632812 41.753906 0.714844 41.753906 1.113281 C 41.753906 1.589844 41.59375 1.589844 41.355469 1.589844 C 39.699219 1.828125 38.910156 2.136719 37.957031 2.925781 C 37.167969 3.554688 36.222656 4.980469 35.183594 7.820312 C 31.21875 18.085938 29.085938 23.769531 23.453125 37.742188 C 18.9375 49.035156 17.511719 52.273438 13.792969 55.34375 C 12.128906 56.679688 10.316406 57.160156 8.820312 57.160156 C 6.765625 57.160156 5.421875 56.28125 5.421875 54.546875 C 5.421875 53.121094 6.140625 52.175781 7.792969 52.175781 C 9.140625 52.175781 9.765625 53.050781 11.191406 53.050781 C 14.433594 53.050781 16.882812 50.449219 21.636719 37.902344 Z M 20.511719 37.890625 " clip-rule="nonzero"/></clipPath><clipPath id="e938901d71"><rect x="0" width="42" y="0" height="58"/></clipPath></defs><g clip-path="url(#8d9248bd73)"><g clip-path="url(#48daae4f2f)"><g transform="matrix(1, 0, 0, 1, 52, 53)"><g clip-path="url(#573d95de37)"><g clip-path="url(#2f3160b370)"><g clip-path="url(#e5c249eef1)"><rect x="-226.24" width="1140.48" fill="#231f20" height="331.559988" y="-103.654998" fill-opacity="1"/></g></g></g></g></g></g><g clip-path="url(#f36214a04c)"><g clip-path="url(#e91d8605b8)"><g transform="matrix(1, 0, 0, 1, 73, 123)"><g clip-path="url(#21e5e5adb6)"><g clip-path="url(#57e36768c4)"><g clip-path="url(#a3c0edac7d)"><rect x="-247.24" width="1140.48" fill="#ffffff" height="331.559988" y="-173.654998" fill-opacity="1"/></g></g></g></g></g></g><g clip-path="url(#d876736f43)"><g clip-path="url(#bdb1654119)"><g transform="matrix(1, 0, 0, 1, 125, 90)"><g clip-path="url(#8c58772a6b)"><g clip-path="url(#8af621fe68)"><g clip-path="url(#d868acbd5d)"><rect x="-299.24" width="1140.48" fill="#ffffff" height="331.559988" y="-140.654998" fill-opacity="1"/></g></g></g></g></g></g><g clip-path="url(#843328a7bf)"><g clip-path="url(#d5c5fe8709)"><g transform="matrix(1, 0, 0, 1, 78, 90)"><g clip-path="url(#9e67c50300)"><g clip-path="url(#f9f95bf0df)"><g clip-path="url(#5e48e46e47)"><rect x="-252.24" width="1140.48" fill="#ffffff" height="331.559988" y="-140.654998" fill-opacity="1"/></g></g></g></g></g></g><g clip-path="url(#8dd3c57df8)"><g clip-path="url(#54a9a45d8c)"><g transform="matrix(1, 0, 0, 1, 194, 138)"><g clip-path="url(#6283458656)"><g clip-path="url(#769aab9d96)"><g clip-path="url(#8c4dbd414b)"><path fill="#231f20" d="M 0.53125 0.628906 L 32.25 0.628906 L 32.25 36.066406 L 0.53125 36.066406 Z M 0.53125 0.628906 " fill-opacity="1" fill-rule="nonzero"/></g></g></g></g></g></g><g clip-path="url(#603829f310)"><g clip-path="url(#483112f712)"><g transform="matrix(1, 0, 0, 1, 248, 139)"><g clip-path="url(#b8cef96f92)"><g clip-path="url(#aec81ac4a2)"><g clip-path="url(#32ae1cf745)"><path fill="#231f20" d="M 0.40625 0.21875 L 24.695312 0.21875 L 24.695312 34.757812 L 0.40625 34.757812 Z M 0.40625 0.21875 " fill-opacity="1" fill-rule="nonzero"/></g></g></g></g></g></g><g clip-path="url(#a199d94d15)"><g clip-path="url(#ff7ee515e1)"><g transform="matrix(1, 0, 0, 1, 288, 139)"><g clip-path="url(#a4b606b682)"><g clip-path="url(#4f49b36814)"><g clip-path="url(#150f5a45c5)"><path fill="#231f20" d="M 0.472656 0.269531 L 26.324219 0.269531 L 26.324219 34.804688 L 0.472656 34.804688 Z M 0.472656 0.269531 " fill-opacity="1" fill-rule="nonzero"/></g></g></g></g></g></g><g clip-path="url(#254fb46fe3)"><g clip-path="url(#cda27b27ca)"><g transform="matrix(1, 0, 0, 1, 333, 139)"><g clip-path="url(#ceed290dfd)"><g clip-path="url(#af5c948fa6)"><g clip-path="url(#52978f2d50)"><path fill="#231f20" d="M 0.960938 0.328125 L 27.179688 0.328125 L 27.179688 34.847656 L 0.960938 34.847656 Z M 0.960938 0.328125 " fill-opacity="1" fill-rule="nonzero"/></g></g></g></g></g></g><g clip-path="url(#dd9c0e68ac)"><g clip-path="url(#d9047eb8f5)"><g transform="matrix(1, 0, 0, 1, 382, 138)"><g clip-path="url(#06f4f5ef73)"><g clip-path="url(#b546350ccf)"><g clip-path="url(#fb563f391e)"><path fill="#231f20" d="M 0.3125 0.867188 L 32.03125 0.867188 L 32.03125 36.304688 L 0.3125 36.304688 Z M 0.3125 0.867188 " fill-opacity="1" fill-rule="nonzero"/></g></g></g></g></g></g><g clip-path="url(#43ddf5ce1f)"><g clip-path="url(#e5376ee897)"><g transform="matrix(1, 0, 0, 1, 436, 139)"><g clip-path="url(#e124cc6b95)"><g clip-path="url(#1393e14cb1)"><g clip-path="url(#d683976e99)"><path fill="#231f20" d="M 0.1875 0.457031 L 27.730469 0.457031 L 27.730469 34.996094 L 0.1875 34.996094 Z M 0.1875 0.457031 " fill-opacity="1" fill-rule="nonzero"/></g></g></g></g></g></g><g clip-path="url(#f3bb08b557)"><g clip-path="url(#5ed26f3687)"><g transform="matrix(1, 0, 0, 1, 451, 58)"><g clip-path="url(#3d4dd4ee36)"><g clip-path="url(#4380457ffc)"><g clip-path="url(#0a33aa5b81)"><rect x="-625.24" width="1140.48" fill="#231f20" height="331.559988" y="-108.654998" fill-opacity="1"/></g></g></g></g></g></g><g clip-path="url(#f7615471ac)"><g clip-path="url(#52d6b44684)"><g transform="matrix(1, 0, 0, 1, 301, 58)"><g clip-path="url(#3861e98338)"><g clip-path="url(#c9f652124a)"><g clip-path="url(#d44b246c7a)"><rect x="-475.24" width="1140.48" fill="#231f20" height="331.559988" y="-108.654998" fill-opacity="1"/></g></g></g></g></g></g><g clip-path="url(#fb45a89a86)"><g clip-path="url(#c8fd9d1f31)"><g transform="matrix(1, 0, 0, 1, 242, 56)"><g clip-path="url(#f1f95e52c2)"><g clip-path="url(#26d1c9a738)"><g clip-path="url(#64cdbb19d1)"><rect x="-416.24" width="1140.48" fill="#231f20" height="331.559988" y="-106.654998" fill-opacity="1"/></g></g></g></g></g></g><g clip-path="url(#ac7a0f8bab)"><g clip-path="url(#1d7ce11a61)"><g transform="matrix(1, 0, 0, 1, 399, 56)"><g clip-path="url(#2cb6c55e8b)"><g clip-path="url(#fb1ca8f5fe)"><g clip-path="url(#33fe776a48)"><rect x="-573.24" width="1140.48" fill="#231f20" height="331.559988" y="-106.654998" fill-opacity="1"/></g></g></g></g></g></g><g clip-path="url(#e89b60076c)"><g clip-path="url(#d85104dfc0)"><g transform="matrix(1, 0, 0, 1, 348, 56)"><g clip-path="url(#d682f57080)"><g clip-path="url(#1f1b39c12c)"><g clip-path="url(#d225411baa)"><rect x="-522.24" width="1140.48" fill="#231f20" height="331.559988" y="-106.654998" fill-opacity="1"/></g></g></g></g></g></g><g clip-path="url(#c5983a2d03)"><g clip-path="url(#f7c96bb205)"><g transform="matrix(1, 0, 0, 1, 196, 57)"><g clip-path="url(#c89fcd8138)"><g clip-path="url(#1c14bd95d3)"><g clip-path="url(#2f5ff094e3)"><rect x="-370.24" width="1140.48" fill="#231f20" height="331.559988" y="-107.654998" fill-opacity="1"/></g></g></g></g></g></g><g clip-path="url(#94067416c4)"><g clip-path="url(#a02ab021fe)"><g transform="matrix(1, 0, 0, 1, 484, 138)"><g clip-path="url(#758e1f33ca)"><g clip-path="url(#5dd36c51e8)"><g clip-path="url(#1e48c0bfd2)"><path fill="#231f20" d="M 0.113281 0.996094 L 31.835938 0.996094 L 31.835938 36.433594 L 0.113281 36.433594 Z M 0.113281 0.996094 " fill-opacity="1" fill-rule="nonzero"/></g></g></g></g></g></g><g clip-path="url(#2b59d6e9c9)"><g clip-path="url(#3a17f08d33)"><g transform="matrix(1, 0, 0, 1, 537, 139)"><g clip-path="url(#e63538604e)"><g clip-path="url(#0fdfa1f9c0)"><g clip-path="url(#5599a20f3f)"><path fill="#231f20" d="M 0.988281 0.585938 L 27.964844 0.585938 L 27.964844 35.148438 L 0.988281 35.148438 Z M 0.988281 0.585938 " fill-opacity="1" fill-rule="nonzero"/></g></g></g></g></g></g><g clip-path="url(#9c8c38df1e)"><g clip-path="url(#4b9762ac47)"><g transform="matrix(1, 0, 0, 1, 584, 139)"><g clip-path="url(#4065e606eb)"><g clip-path="url(#304d8bbeb1)"><g clip-path="url(#85519b9977)"><path fill="#231f20" d="M 0.613281 0.644531 L 26.46875 0.644531 L 26.46875 35.183594 L 0.613281 35.183594 Z M 0.613281 0.644531 " fill-opacity="1" fill-rule="nonzero"/></g></g></g></g></g></g><g clip-path="url(#c3cba1bf58)"><g clip-path="url(#0b57e7c227)"><g transform="matrix(1, 0, 0, 1, 630, 139)"><g clip-path="url(#9066f603d9)"><g clip-path="url(#627f029fcd)"><g clip-path="url(#32e6c56f2b)"><path fill="#231f20" d="M 0.101562 0.703125 L 4.152344 0.703125 L 4.152344 35.179688 L 0.101562 35.179688 Z M 0.101562 0.703125 " fill-opacity="1" fill-rule="nonzero"/></g></g></g></g></g></g><g clip-path="url(#e93eca12ae)"><g clip-path="url(#f84e690847)"><g transform="matrix(1, 0, 0, 1, 656, 139)"><g clip-path="url(#823721c8e5)"><g clip-path="url(#d0023d7a38)"><g clip-path="url(#4989a94422)"><rect x="-830.24" width="1140.48" fill="#231f20" height="331.559988" y="-189.654998" fill-opacity="1"/></g></g></g></g></g></g><g clip-path="url(#e27297971f)"><g clip-path="url(#008aa05063)"><g transform="matrix(1, 0, 0, 1, 700, 139)"><g clip-path="url(#239e1466fd)"><g clip-path="url(#f82201ab96)"><g clip-path="url(#ee0a7dbef9)"><rect x="-874.24" width="1140.48" fill="#231f20" height="331.559988" y="-189.654998" fill-opacity="1"/></g></g></g></g></g></g><g clip-path="url(#68c7983ec5)"><g clip-path="url(#816ad0068a)"><g transform="matrix(1, 0, 0, 1, 508, 67)"><g clip-path="url(#9e6d4ec942)"><g clip-path="url(#52072d96dd)"><g clip-path="url(#95870c3ccc)"><rect x="-682.24" width="1140.48" fill="#231f20" height="331.559988" y="-117.654998" fill-opacity="1"/></g></g></g></g></g></g><g clip-path="url(#1e392eaa68)"><g clip-path="url(#91e29cff88)"><g transform="matrix(1, 0, 0, 1, 533, 88)"><g clip-path="url(#ab16b6c592)"><g clip-path="url(#1a7cb423a8)"><g clip-path="url(#c5f980cc1b)"><rect x="-707.24" width="1140.48" fill="#231f20" height="331.559988" y="-138.654998" fill-opacity="1"/></g></g></g></g></g></g><g clip-path="url(#a960f8f79e)"><g clip-path="url(#9c65d721fa)"><g transform="matrix(1, 0, 0, 1, 572, 88)"><g clip-path="url(#496ea0b88c)"><g clip-path="url(#8cf4e2ab0e)"><g clip-path="url(#cd88059d18)"><rect x="-746.24" width="1140.48" fill="#231f20" height="331.559988" y="-138.654998" fill-opacity="1"/></g></g></g></g></g></g><g clip-path="url(#331160c157)"><g clip-path="url(#cf33ca9ae8)"><g transform="matrix(1, 0, 0, 1, 641, 70)"><g clip-path="url(#ff0622253c)"><g clip-path="url(#74d677d89f)"><g clip-path="url(#3f3ae3b638)"><rect x="-815.24" width="1140.48" fill="#231f20" height="331.559988" y="-120.654998" fill-opacity="1"/></g></g></g></g></g></g><g clip-path="url(#6a748fbaf2)"><g clip-path="url(#202d195b6d)"><g transform="matrix(1, 0, 0, 1, 663, 68)"><g clip-path="url(#f8329197f2)"><g clip-path="url(#54c712bb69)"><g clip-path="url(#3e3de326e2)"><rect x="-837.24" width="1140.48" fill="#231f20" height="331.559988" y="-118.654998" fill-opacity="1"/></g></g></g></g></g></g><g clip-path="url(#c172140a81)"><g clip-path="url(#838ef83a79)"><g transform="matrix(1, 0, 0, 1, 682, 89)"><g clip-path="url(#e938901d71)"><g clip-path="url(#2f19dc9f92)"><g clip-path="url(#c01d12a623)"><rect x="-856.24" width="1140.48" fill="#231f20" height="331.559988" y="-139.654998" fill-opacity="1"/></g></g></g></g></g></g></svg>