<?xml version="1.0" encoding="UTF-8"?>
<svg xmlns="http://www.w3.org/2000/svg" viewBox="0 0 1124 720">
  <defs>
    <style>
      .cls-1 {
        fill: #bcd5d2;
      }

      .cls-2 {
        fill: #fff;
      }

      .cls-3 {
        fill: #e9bc6b;
      }

      .cls-4 {
        fill: #d18240;
      }

      .cls-5 {
        fill: #1f3b38;
      }

      .cls-6 {
        fill: #fadf6a;
      }
    </style>
  </defs>
  <g id="Layer_2" data-name="Layer 2">
    
  </g>
  <g id="Layer_1" data-name="Layer 1">
    <g>
      <path class="cls-5" d="M562,162.97c-108.65,0-197.04,88.39-197.04,197.04s88.39,197.04,197.04,197.04,197.04-88.39,197.04-197.04-88.39-197.04-197.04-197.04ZM755.18,360.01c0,106.52-86.66,193.18-193.18,193.18s-193.19-86.66-193.19-193.18,86.66-193.19,193.19-193.19,193.18,86.66,193.18,193.19Z"/>
      <g>
        <g>
          <path class="cls-5" d="M422.76,352.2c2.8,2.71,4.22,5.89,4.28,9.55.04,2.27-.38,4.4-1.26,6.41-.87,2-2.09,3.76-3.65,5.26-1.56,1.5-3.41,2.69-5.55,3.59-2.14.89-4.45,1.36-6.95,1.4-2.36.04-4.6-.35-6.7-1.18-2.1-.82-3.95-1.97-5.54-3.45-1.59-1.48-2.87-3.23-3.82-5.26-.96-2.03-1.45-4.24-1.49-6.63-.05-3.23.58-6.02,1.91-8.36,1.32-2.34,3.12-4.11,5.4-5.31l3.77,4.94c-1.7.9-2.99,2.15-3.88,3.73-.88,1.59-1.31,3.3-1.28,5.15.02,1.46.35,2.79.99,3.99.63,1.2,1.49,2.23,2.58,3.07,1.08.84,2.32,1.48,3.72,1.93,1.4.45,2.88.66,4.43.63,1.62-.03,3.13-.31,4.53-.85,1.4-.54,2.61-1.27,3.63-2.2,1.02-.92,1.82-2.01,2.4-3.27.58-1.25.85-2.62.83-4.07-.05-3.34-1.67-6.32-4.86-8.96l-2.43.04.11,6.94-4.9.08-.2-12.48,17.73-.29.09,5.54-3.88.06Z"/>
          <path class="cls-5" d="M427.68,339.92l-33.5-8.2,3.63-14.81c.37-1.54,1.05-2.89,2.01-4.04.96-1.15,2.09-2.06,3.37-2.75,1.29-.69,2.66-1.13,4.13-1.34,1.47-.21,2.88-.14,4.23.18,2.17.54,4.01,1.56,5.52,3.08,1.51,1.52,2.43,3.3,2.77,5.35l14.47-4.55-1.79,7.31-12.9,4.09-1.57,6.42,11.23,2.75-1.59,6.51ZM412.33,329.26l2-8.16c.15-.6.14-1.19-.01-1.78-.16-.59-.43-1.13-.83-1.63-.39-.49-.9-.94-1.5-1.32-.61-.38-1.29-.66-2.04-.85-.79-.19-1.54-.25-2.26-.16-.72.09-1.38.29-1.97.6-.59.3-1.09.7-1.49,1.18-.4.48-.67,1.01-.81,1.58l-1.93,7.88,10.85,2.66Z"/>
          <path class="cls-5" d="M442.65,283.63l5.22,2.7-11.03,21.26-30.61-15.88,10.83-20.86,5.22,2.7-7.74,14.92,7.37,3.83,6.69-12.89,4.83,2.51-6.69,12.89,7.98,4.13,7.94-15.3Z"/>
          <path class="cls-5" d="M462.87,258.79l4.48,3.81-15.51,18.24-26.27-22.34,15.23-17.91,4.48,3.81-10.89,12.8,6.33,5.38,9.41-11.06,4.14,3.53-9.41,11.06,6.85,5.82,11.17-13.13Z"/>
          <path class="cls-5" d="M464.59,236.2l12.75,18.05-5.47,3.87-19.9-28.16,4.24-3,27.74,8.11-13.03-18.45,5.47-3.87,19.87,28.12-4.44,3.14-27.23-7.82Z"/>
          <path class="cls-5" d="M517.46,231.55l-7.9-33.56,12.2-2.87c2.74-.64,5.25-.77,7.52-.38,2.27.4,4.28,1.19,6.02,2.38,1.74,1.19,3.2,2.72,4.37,4.59,1.17,1.87,2.03,3.96,2.57,6.25.6,2.55.76,4.95.47,7.2-.29,2.25-.98,4.27-2.09,6.08-1.1,1.81-2.58,3.36-4.42,4.63-1.84,1.29-4.03,2.22-6.55,2.81l-12.2,2.87ZM535.67,209.5c-.38-1.61-.95-3.04-1.71-4.29-.76-1.25-1.68-2.27-2.76-3.04-1.08-.77-2.31-1.29-3.68-1.53-1.37-.24-2.85-.18-4.42.19l-5.68,1.34,5.21,22.12,5.68-1.33c1.61-.38,2.97-1,4.08-1.86,1.11-.86,1.97-1.88,2.57-3.07.6-1.19.96-2.52,1.08-3.98.12-1.46,0-2.97-.37-4.55Z"/>
          <path class="cls-5" d="M576.73,219.15l-.09,5.88-23.94-.39.56-34.48,23.51.38-.1,5.88-16.8-.27-.13,8.3,14.51.24-.08,5.44-14.52-.24-.14,8.99,17.24.28Z"/>
          <path class="cls-5" d="M595.24,206l-5.77,21.33-6.47-1.75,9-33.29,5.01,1.36,11.44,26.54,5.9-21.8,6.47,1.75-9,33.24-5.25-1.42-11.34-25.96Z"/>
          <path class="cls-5" d="M655.89,224.99l-9.56-5.49-14.24,24.81-5.77-3.31,14.24-24.81-9.56-5.49,2.93-5.09,24.89,14.29-2.92,5.09Z"/>
          <path class="cls-5" d="M646.45,254.36l22.2-26.38,5.13,4.32-22.2,26.38-5.13-4.32Z"/>
          <path class="cls-5" d="M691.49,264.47c.03-.32,0-.83-.07-1.55-.09-.7-.26-1.51-.52-2.41-.26-.89-.61-1.81-1.06-2.75-.44-.93-1-1.8-1.66-2.6-1.17-1.42-2.32-2.26-3.42-2.53-1.1-.26-2.13,0-3.08.79-.54.46-.89.96-1.04,1.52-.14.56-.15,1.21,0,1.93.14.73.41,1.56.82,2.51.4.95.89,2.02,1.48,3.22.73,1.58,1.32,3.07,1.81,4.46.48,1.39.73,2.7.75,3.93,0,1.23-.23,2.39-.74,3.49-.5,1.09-1.36,2.14-2.58,3.16-1.42,1.18-2.85,1.92-4.31,2.23-1.46.3-2.87.26-4.25-.14-1.38-.39-2.7-1.06-3.97-2-1.27-.95-2.44-2.07-3.52-3.36-1.66-1.99-2.99-4.2-4.01-6.65-1.02-2.44-1.62-4.88-1.81-7.34l6.34-1.42c-.04.41,0,1.06.13,1.94.13.89.33,1.88.64,2.97.3,1.1.73,2.24,1.29,3.41.56,1.18,1.27,2.28,2.12,3.3,2.36,2.84,4.45,3.5,6.26,1.99.57-.48.92-1.04,1.05-1.7.13-.65.09-1.41-.1-2.25-.2-.85-.52-1.79-.98-2.85-.46-1.06-.97-2.23-1.54-3.52-.71-1.56-1.25-2.98-1.61-4.25-.36-1.28-.53-2.46-.48-3.55.05-1.09.3-2.09.77-3.02.48-.92,1.23-1.81,2.25-2.66,1.34-1.12,2.75-1.86,4.2-2.24,1.46-.37,2.91-.4,4.34-.1,1.43.3,2.81.89,4.15,1.76,1.33.87,2.56,1.98,3.68,3.32,1.55,1.87,2.68,3.83,3.4,5.89.72,2.05,1.16,4,1.34,5.83l-6.08,1.2Z"/>
          <path class="cls-5" d="M714.98,299.59l-4.93-9.86-25.59,12.81-2.97-5.95,25.58-12.81-4.94-9.86,5.26-2.63,12.85,25.66-5.26,2.63Z"/>
          <path class="cls-5" d="M691.08,317.73l33.63-7.62,3.37,14.87c.35,1.55.35,3.05,0,4.51-.35,1.46-.94,2.78-1.79,3.97-.84,1.19-1.87,2.2-3.09,3.04-1.22.84-2.51,1.42-3.87,1.72-2.18.49-4.29.4-6.32-.28-2.02-.69-3.64-1.87-4.86-3.55l-10.91,10.54-1.67-7.34,9.71-9.42-1.45-6.45-11.28,2.56-1.48-6.54ZM709.57,320.4l1.86,8.2c.13.6.4,1.13.81,1.58.4.46.89.82,1.46,1.09.57.27,1.22.44,1.93.51.72.07,1.45.02,2.21-.15.79-.18,1.48-.47,2.09-.88.61-.4,1.11-.87,1.5-1.41.39-.54.66-1.11.81-1.73.14-.61.14-1.2.02-1.77l-1.8-7.91-10.9,2.47Z"/>
          <path class="cls-5" d="M731.82,353.96l-16.75,8.23,16.47,8.91-.12,7.24-22.23-12.9-12.04-.2.1-6.65,12.15.2,22.54-12.12-.11,7.28Z"/>
        </g>
        <path class="cls-5" d="M712.13,409.4c0,3.04-2.47,5.51-5.51,5.51s-5.51-2.46-5.51-5.51,2.47-5.5,5.51-5.5,5.51,2.46,5.51,5.5Z"/>
        <g>
          <path class="cls-5" d="M421.18,447.19l21.61-15.61,6.9,9.55c.72.99,1.17,2.06,1.37,3.2.19,1.14.17,2.27-.07,3.37-.24,1.1-.66,2.13-1.28,3.1-.61.97-1.36,1.77-2.23,2.4-1.4,1.02-2.92,1.58-4.58,1.71-1.65.13-3.16-.22-4.53-1.05l-4.56,10.8-3.41-4.72,4.05-9.64-2.99-4.14-7.24,5.23-3.03-4.2ZM435.13,443.5l3.8,5.26c.28.38.63.68,1.06.88.42.2.88.31,1.37.33.49.02,1-.06,1.53-.22.53-.17,1.04-.42,1.52-.78.51-.37.91-.79,1.22-1.25.31-.48.52-.96.64-1.46.11-.5.13-.99.05-1.47-.09-.47-.26-.9-.52-1.26l-3.67-5.08-7,5.06Z"/>
          <path class="cls-5" d="M445.56,477.02c-1.4-1.37-2.4-2.87-3.01-4.53-.6-1.65-.87-3.33-.81-5.03.07-1.7.44-3.35,1.13-4.95.68-1.6,1.62-3.01,2.81-4.23,1.24-1.27,2.67-2.26,4.28-2.96,1.61-.7,3.27-1.1,4.98-1.18s3.39.17,5.05.76c1.66.59,3.16,1.54,4.51,2.85,1.38,1.34,2.36,2.85,2.95,4.53.59,1.68.84,3.36.75,5.06-.08,1.7-.47,3.35-1.16,4.95-.69,1.6-1.62,3.01-2.79,4.2-1.24,1.27-2.65,2.26-4.25,2.96-1.59.7-3.23,1.09-4.92,1.17-1.69.08-3.36-.17-5.02-.76-1.66-.59-3.17-1.54-4.51-2.85ZM449.46,461.95c-.8.83-1.46,1.74-1.95,2.76-.5,1.02-.8,2.05-.9,3.11-.1,1.05.02,2.09.36,3.12.34,1.03.95,1.98,1.83,2.83.9.87,1.87,1.46,2.91,1.77,1.05.31,2.11.39,3.18.24,1.07-.14,2.09-.48,3.08-1.01.99-.53,1.86-1.18,2.63-1.97.8-.83,1.45-1.75,1.94-2.77.49-1.02.79-2.06.89-3.11.1-1.06-.02-2.09-.37-3.12-.35-1.02-.95-1.95-1.81-2.79-.9-.87-1.87-1.46-2.93-1.78-1.06-.31-2.11-.4-3.16-.25-1.05.15-2.07.49-3.05,1.01-.98.53-1.86,1.18-2.63,1.97Z"/>
          <path class="cls-5" d="M469.49,496.41c-1.62-1.08-2.88-2.39-3.78-3.91-.89-1.51-1.47-3.11-1.71-4.8-.24-1.68-.17-3.37.21-5.08.38-1.7,1.05-3.26,1.99-4.67.99-1.48,2.21-2.71,3.66-3.69,1.46-.98,3.02-1.67,4.68-2.07,1.66-.39,3.37-.45,5.11-.18,1.74.28,3.39.94,4.95,1.98,1.6,1.07,2.85,2.38,3.73,3.92.88,1.54,1.44,3.15,1.67,4.84.23,1.69.15,3.38-.23,5.08-.38,1.7-1.04,3.25-1.97,4.64-.99,1.48-2.2,2.71-3.64,3.69-1.44.98-2.98,1.67-4.62,2.06-1.65.39-3.34.45-5.08.17-1.74-.27-3.39-.93-4.95-1.98ZM470.57,480.88c-.64.96-1.11,1.98-1.42,3.07-.31,1.09-.41,2.16-.32,3.22.09,1.05.4,2.05.92,3.01.52.95,1.29,1.77,2.32,2.45,1.04.7,2.1,1.1,3.19,1.21,1.09.11,2.14,0,3.17-.34,1.02-.34,1.97-.86,2.84-1.56.87-.69,1.61-1.5,2.23-2.41.64-.96,1.1-1.99,1.4-3.08.29-1.1.4-2.17.31-3.23-.1-1.06-.41-2.05-.94-3-.53-.94-1.29-1.74-2.29-2.42-1.04-.69-2.11-1.09-3.2-1.22-1.1-.12-2.15,0-3.16.34-1.01.33-1.95.85-2.82,1.55-.87.69-1.61,1.5-2.23,2.42Z"/>
          <path class="cls-5" d="M512.22,493.78l-7.75-3.54-9.19,20.11-4.68-2.14,9.19-20.1-7.75-3.54,1.89-4.13,20.18,9.21-1.89,4.13Z"/>
          <path class="cls-5" d="M533.54,521.98l-1.59-2.61c-1.25.6-2.55.98-3.89,1.14-1.34.16-2.67.1-3.99-.19-1.34-.29-2.52-.76-3.52-1.41-1-.65-1.8-1.41-2.41-2.28-.6-.87-1.01-1.83-1.23-2.86-.21-1.03-.21-2.06.01-3.09.17-.81.46-1.53.85-2.16.39-.63.86-1.19,1.42-1.67.55-.48,1.16-.9,1.81-1.28.65-.37,1.33-.7,2.03-.98-.8-1.4-1.32-2.57-1.57-3.51-.25-.93-.27-1.86-.07-2.8.2-.93.57-1.74,1.1-2.43.53-.69,1.18-1.24,1.93-1.66.75-.41,1.6-.67,2.53-.78.93-.11,1.91-.05,2.94.17.91.2,1.75.5,2.53.93.78.42,1.44.94,1.97,1.56.53.61.92,1.32,1.16,2.13.24.81.25,1.69.04,2.64-.3,1.42-.99,2.57-2.05,3.46-1.06.89-2.34,1.65-3.84,2.3l3.87,6.29c.54-.7,1.01-1.5,1.42-2.38.41-.88.73-1.86.96-2.95l4,.86c-.4,1.73-.95,3.27-1.65,4.6-.7,1.33-1.53,2.52-2.49,3.53l4.18,6.81-6.46-1.39ZM525.37,516.57c1.52.33,3.03.13,4.54-.6l-4.65-7.64c-.99.43-1.8.9-2.42,1.43-.63.53-1.03,1.19-1.19,1.97-.11.52-.11,1.03.01,1.56.12.52.34,1,.67,1.43.33.43.75.81,1.27,1.14.52.33,1.11.57,1.77.71ZM525.91,499.1c-.05.22-.05.44-.03.67.03.22.1.48.22.76.12.28.28.61.5.99.21.37.49.84.83,1.4,1.07-.43,1.9-.87,2.51-1.32.61-.45.98-1,1.12-1.66.14-.66.03-1.24-.34-1.74-.36-.5-.9-.83-1.61-.98-.78-.17-1.48-.08-2.08.3-.61.37-.98.89-1.13,1.58Z"/>
          <path class="cls-5" d="M554.82,524.43l-.43-26.65,11.79-.19c1.23-.02,2.37.22,3.41.71,1.04.5,1.95,1.16,2.71,1.99.76.83,1.37,1.77,1.81,2.82.45,1.06.68,2.12.7,3.2.03,1.73-.38,3.3-1.22,4.73-.84,1.43-2,2.47-3.46,3.12l6.25,9.92-5.83.09-5.58-8.84-5.1.08.14,8.93-5.18.08ZM559.78,510.88l6.49-.1c.48,0,.92-.13,1.33-.36.41-.23.76-.54,1.05-.94.29-.39.53-.85.69-1.38.16-.53.24-1.09.23-1.69,0-.62-.12-1.2-.33-1.72-.21-.52-.48-.97-.83-1.36-.34-.38-.74-.68-1.18-.88-.44-.21-.89-.31-1.34-.3l-6.27.1.14,8.63Z"/>
          <path class="cls-5" d="M599.29,515.82l.75,4.47-18.25,3.09-4.44-26.28,17.91-3.03.75,4.47-12.81,2.17,1.07,6.33,11.06-1.87.7,4.14-11.06,1.87,1.16,6.85,13.14-2.21Z"/>
          <path class="cls-5" d="M614.39,495.29c-.21-.12-.6-.24-1.13-.39-.53-.14-1.16-.25-1.87-.32-.73-.06-1.48-.07-2.28-.03-.8.05-1.58.2-2.34.44-1.36.44-2.29,1.02-2.8,1.73-.5.71-.61,1.52-.32,2.43.17.52.44.92.8,1.18.35.27.82.45,1.38.56.56.11,1.24.15,2.03.13.8-.02,1.71-.07,2.74-.14,1.35-.07,2.58-.07,3.72-.02,1.14.06,2.15.25,3.04.6.89.34,1.65.85,2.28,1.52.64.68,1.16,1.6,1.53,2.76.44,1.36.56,2.6.36,3.73-.21,1.13-.64,2.13-1.31,3.01-.68.88-1.54,1.64-2.58,2.27-1.04.64-2.18,1.17-3.42,1.56-1.9.62-3.88.94-5.92.97-2.04.03-3.97-.24-5.79-.81l.8-4.96c.29.15.76.3,1.44.47.67.17,1.45.3,2.32.39.87.1,1.81.12,2.81.06,1.01-.07,2-.25,2.97-.57,2.71-.88,3.79-2.19,3.22-3.92-.18-.55-.48-.96-.91-1.24-.43-.28-.98-.47-1.64-.57-.67-.1-1.44-.14-2.33-.11-.89.02-1.87.06-2.96.09-1.32.06-2.5.04-3.51-.07-1.03-.1-1.92-.33-2.68-.67-.77-.34-1.42-.82-1.94-1.43-.53-.6-.95-1.4-1.27-2.37-.41-1.28-.55-2.5-.39-3.66.15-1.16.54-2.2,1.17-3.14.62-.94,1.44-1.76,2.45-2.47,1.01-.71,2.15-1.27,3.44-1.69,1.78-.58,3.51-.83,5.2-.76,1.68.07,3.21.31,4.57.71l-.89,4.71Z"/>
          <path class="cls-5" d="M636.74,482.03l-7.62,3.81,9.88,19.77-4.59,2.3-9.89-19.78-7.62,3.81-2.02-4.06,19.84-9.92,2.02,4.06Z"/>
          <path class="cls-5" d="M659.6,493.17c-1.58,1.14-3.24,1.86-4.98,2.17-1.74.31-3.44.28-5.1-.08-1.67-.36-3.23-1.02-4.68-1.98-1.46-.95-2.68-2.12-3.68-3.5-1.03-1.44-1.76-3.01-2.17-4.72-.41-1.71-.51-3.41-.3-5.11.22-1.69.76-3.31,1.63-4.84.87-1.53,2.07-2.85,3.59-3.94,1.57-1.13,3.23-1.84,4.98-2.12,1.74-.29,3.45-.24,5.11.14,1.66.38,3.22,1.05,4.68,2,1.45.96,2.67,2.11,3.65,3.47,1.03,1.45,1.76,3.01,2.17,4.7.42,1.69.52,3.37.31,5.05-.21,1.68-.75,3.29-1.62,4.82-.87,1.53-2.07,2.85-3.59,3.95ZM645.43,486.71c.67.94,1.46,1.74,2.38,2.41.91.67,1.88,1.15,2.9,1.43,1.03.29,2.07.35,3.14.2,1.08-.16,2.12-.6,3.1-1.3,1.02-.73,1.77-1.59,2.26-2.57.47-.98.74-2,.78-3.09.04-1.08-.11-2.15-.46-3.21-.35-1.06-.84-2.04-1.48-2.93-.67-.94-1.47-1.73-2.4-2.4-.92-.66-1.89-1.14-2.92-1.42-1.02-.28-2.06-.34-3.13-.18-1.06.16-2.09.6-3.06,1.3-1.02.73-1.77,1.59-2.26,2.57-.49.99-.76,2.01-.8,3.08-.04,1.06.12,2.12.47,3.18.34,1.06.84,2.04,1.48,2.93Z"/>
          <path class="cls-5" d="M674.68,481.07l-19.05-18.64,8.25-8.43c.86-.88,1.84-1.5,2.93-1.89,1.09-.39,2.2-.55,3.33-.5,1.12.05,2.22.29,3.27.73,1.05.44,1.97,1.03,2.74,1.79,1.23,1.21,2.05,2.61,2.46,4.22.4,1.61.32,3.16-.27,4.65l11.42,2.67-4.07,4.16-10.19-2.36-3.57,3.65,6.38,6.25-3.62,3.7ZM668.67,467.94l4.55-4.64c.33-.34.56-.74.69-1.19.13-.45.16-.92.09-1.41-.08-.49-.23-.97-.48-1.47-.25-.49-.6-.95-1.03-1.37-.44-.44-.92-.77-1.45-.99-.51-.23-1.02-.35-1.54-.38-.51-.03-1,.04-1.46.2-.46.16-.84.41-1.16.73l-4.38,4.48,6.16,6.04Z"/>
          <path class="cls-5" d="M700.14,443.61l3.69,2.64-10.77,15.05-21.67-15.5,10.57-14.78,3.69,2.64-7.56,10.57,5.22,3.73,6.53-9.13,3.42,2.45-6.53,9.13,5.65,4.04,7.76-10.84Z"/>
        </g>
        <path class="cls-5" d="M423.24,409.4c0,3.04-2.46,5.51-5.51,5.51s-5.51-2.46-5.51-5.51,2.47-5.5,5.51-5.5,5.51,2.46,5.51,5.5Z"/>
      </g>
      <g>
        <path class="cls-3" d="M671,379.16c-.71,3.81-1.58,7.55-2.55,11.04-2.98-1.06-16.58-5.78-26.22-10.22-.98-.55-2.04-1.06-3.18-1.57,10.46-2.55,20.67-2.32,31.95.75Z"/>
        <path class="cls-3" d="M632.2,377.98c-7.78,2.63-15.44,6.37-23.5,10.34l-.44.24c-6.92,3.42-14.11,6.96-22.29,10.22-1.06.43-2.12.83-3.18,1.18-.83-.4-1.61-.83-2.44-1.26l-.23-.08c-13.09-6.6-26.57-13.44-43-17.22-4.8-1.1-9.47-1.65-14.07-1.65-6.84,0-13.64,1.22-20.67,3.65-10.45-5.7-25.39-10.97-49.05-2.4-.79-3.93-1.34-8.1-1.73-12.38,8.92-6.21,31.29-19.34,52.43-12.97,10.89,3.26,19.77,7.7,28.38,12.03,13.28,6.64,25.86,12.93,43.03,12.93,9.87,0,17.85-1.73,24.25-3.14,10.92-2.32,19.65-4.21,32.5.51Z"/>
        <path class="cls-3" d="M499.44,384.43c-4.64,1.77-9.12,3.85-13.09,5.74-8.57,4.01-17.41,8.13-27.59,9.55-2.12-5.42-3.77-10.97-4.95-16.47,21.85-7.98,35.84-3.77,45.63,1.18Z"/>
        <path class="cls-3" d="M579.77,400.98c-28.65,8.84-53.29-1.81-69.02-12.42-1.69-1.1-3.62-2.4-5.74-3.65,10.77-3.34,20.87-3.74,31.6-1.26,16.43,3.77,30.39,10.84,42.73,17.09l.43.24Z"/>
        <path class="cls-3" d="M667.77,392.41c-1.81,5.86-4.17,11.67-7.03,17.29-2.32.39-4.8.95-7.32,1.53-5.89,1.37-13.91,3.26-24.17,3.26-15.72,0-29.13-5.9-43.67-13.13.39-.16.83-.31,1.22-.47,8.41-3.38,15.76-7,22.87-10.5,8.85-4.4,17.22-8.53,25.94-11.08,1.65.71,3.46,1.61,5.58,2.71,4.36,2,12.46,5.42,26.56,10.37Z"/>
        <path class="cls-4" d="M659.4,412.26c-1.72,3.22-3.69,6.45-5.82,9.55h-183.19c-4.29-6.33-7.9-13.01-10.77-19.93,10.34-1.53,19.14-5.66,27.67-9.67l.39-.2c4.68-2.16,9.47-4.36,14.46-6.13,2.28,1.26,4.64,2.71,7.35,4.56,15.84,10.69,32.23,16.11,48.74,16.11,8.18,0,16.39-1.38,24.41-4.12,15.6,7.86,29.87,14.34,46.61,14.34,10.41,0,18.32-1.85,24.68-3.3,2.04-.51,3.81-.9,5.46-1.22Z"/>
        <path class="cls-1" d="M652.01,424.05c-20.82,29.05-54.4,46.34-90.04,46.34s-69.17-17.29-90-46.34h180.05Z"/>
        <path class="cls-6" d="M634.53,335.73c0,12.11-9.86,21.97-22.01,21.97s-22.02-9.87-22.02-21.97,9.87-22.01,22.02-22.01,22.01,9.86,22.01,22.01Z"/>
        <g>
          <path class="cls-5" d="M674.93,348.95c0-.4-.04-.79-.08-1.16-.46-4.09-1.09-8.03-1.89-11.67-.02-.21-.09-.77-.24-1.16-1.04-4.7-2.39-9.34-3.98-13.76-.07-.22-.17-.44-.25-.66l-.15-.38c-1.43-3.86-2.99-7.48-4.65-10.75-.13-.32-.25-.55-.4-.77l-.08-.24c-1.91-3.7-4-7.28-6.18-10.59-.07-.14-.17-.27-.25-.41-.08-.14-.18-.27-.27-.45-2.11-3.13-4.13-5.88-6.18-8.38-.21-.29-.41-.53-.6-.75l-.13-.18c-3.08-3.7-6.43-7.26-9.95-10.57-.28-.28-.56-.56-.84-.8-3.68-3.4-7.62-6.58-11.7-9.42-.2-.16-.39-.29-.58-.42-.14-.09-.28-.19-.43-.3-5.26-3.6-10.85-6.79-16.65-9.48-.31-.12-.65-.27-1.07-.46-5.45-2.45-11.2-4.51-17.17-6.13-.26-.03-.54-.11-.86-.21l-.18-.05c-9.26-2.36-18.75-3.55-28.22-3.55-62.55,0-113.44,50.91-113.44,113.48,0,2.41.1,5.01.32,8.17l.08,1.23c.36,4.42,1,8.91,1.9,13.36l.23.97c1.27,5.95,3.02,11.82,5.21,17.46l.43,1.01c2.94,7.38,6.72,14.47,11.19,21.04.2.37.45.74.73,1.14,21.22,30.72,56.11,49.06,93.35,49.06s72.17-18.34,93.43-49.07c.25-.37.49-.73.67-1.06,2.41-3.49,4.66-7.27,6.71-11.25.14-.28.29-.55.45-.84l.18-.35c2.96-5.87,5.37-11.9,7.15-17.91l.32-1.03c1.24-4.18,2.22-8.37,2.93-12.45l.04-.31c0-.1.04-.2.06-.29.04-.19.07-.37.06-.44.75-4.46,1.23-9.19,1.43-14.11,0-.14,0-.29.02-.44,0-.17.02-.33,0-.4l.05-3.48c0-3.9-.17-7.42-.51-10.76ZM651.08,424.53c-20.76,28.43-54,45.38-89.11,45.38s-68.31-16.95-89.07-45.38h178.18ZM638.83,346.41c-.11.3-.22.6-.38.92-.22.52,0,1.14.55,1.41l33.16,15.47c-.2,4.15-.6,8.21-1.2,12.08-1.62-.42-3.37-.8-5.18-1.15l-28.79-22.8c-.23-.24-.55-.32-.92-.25-.42.11-.62.34-.7.51-.15.26-.32.49-.51.69-.2.2-.29.46-.29.76v.13c.08.26.21.48.41.68l24.44,19.36c-4.57-.47-8.95-.41-13.37.16l-13.65-16.75c-.17-.24-.44-.39-.73-.43-.28-.04-.58.05-.79.22l-.87.71c-.21.17-.34.44-.37.72-.03.28.06.57.23.77l12.44,15.28c-2.05.35-4.21.86-6.57,1.53-.06-.02-.09-.03-.12-.06l-8.37-15.16c-.14-.22-.4-.4-.68-.48s-.56-.04-.86.12c-.24.18-.52.32-.83.47-.3.14-.5.39-.58.67-.07.29-.04.55.08.82l6.56,11.86c-2.72-.88-5.3-1.48-7.85-1.83l-2.54-8.76c-.07-.31-.25-.54-.52-.67-.33-.17-.62-.18-.88-.07-.18.04-.37.08-.55.14l-.36.05c-.32.08-.53.32-.67.51-.15.22-.19.54-.09.87l2.16,7.55c-1.7-.13-3.47-.14-5.52-.05v-7.21c0-.58-.48-1.07-1.06-1.07h-1.1c-.58,0-1.07.49-1.07,1.07v7.47c-1.54.18-3.21.42-5.17.77l2.11-8.57c.06-.25.02-.52-.11-.8l-.09-.12c-.14-.14-.4-.38-.65-.36l-.94-.23c-.29-.07-.56-.05-.8.08-.27.13-.48.39-.57.7l-2.44,9.98c-.44.1-.89.2-1.34.29-.47.1-.93.2-1.39.3l-3.06.64,4.94-12.39c.21-.56-.08-1.18-.62-1.39-.27-.11-.58-.27-.89-.42-.23-.11-.54-.14-.94-.03-.24.12-.44.32-.58.6l-5.71,14.42c-3.56.64-6.66,1.08-9.64,1.35l12.53-17.67c.35-.49.25-1.15-.22-1.49-.24-.17-.51-.36-.73-.58-.21-.21-.6-.37-.81-.3-.38,0-.67.28-.82.44l-14.09,19.89c-.99.04-2.1.06-3.4.06-3.37,0-6.63-.25-9.94-.77l24.74-21.97c.26-.17.42-.47.42-.79,0-.3-.1-.57-.25-.71-.09-.14-.21-.27-.31-.41-.09-.12-.19-.24-.27-.36-.15-.22-.41-.41-.79-.49-.31,0-.56.08-.83.28l-26.71,23.69c-4.7-1.04-9.57-2.65-14.83-4.91l40.07-21.3c.29-.14.49-.38.57-.67.04-.15.09-.54-.1-.84-.19-.3-.33-.55-.41-.76-.07-.32-.35-.58-.61-.63-.29-.14-.6-.14-.9,0l-42.36,22.53c-2.58-1.2-5.32-2.53-8.38-4.06l-2.48-1.26c-1.41-.7-2.85-1.41-4.32-2.12l-1.14-.56,57.93-16.9c.2-.1.42-.24.57-.53.12-.25.15-.52.06-.85-.09-.26-.17-.58-.21-.94-.08-.3-.3-.56-.51-.66-.23-.16-.56-.21-.88-.14l-61.38,17.99c-6.28-2.89-11.82-5.01-17.39-6.67-21.28-6.42-43.61,5.96-52.92,12.13-.1-2.02-.15-3.82-.15-5.46,0-60.79,49.45-110.24,110.24-110.24,1.28,0,2.55,0,3.83.03l30.65,61.38c.14.29.42.5.74.56.33.07.65,0,.89-.19.21-.14.47-.28.71-.43.27-.1.42-.32.52-.48l.07-.16c.07-.29.04-.55-.08-.8l-29.81-59.7c6.79.49,13.46,1.57,19.83,3.2l13.3,54.94c.07.27.25.54.52.71.12.06.48.23.79.08.19-.04.36-.09.54-.14.16-.05.32-.09.49-.14.26-.07.47-.21.68-.48.14-.21.17-.49.1-.8l-12.9-53.2c4.67,1.37,9.4,3.12,14.08,5.21l1.69,47.32c0,.28.11.55.34.77.2.2.45.34.84.29l1.04-.08c.6-.07,1.03-.6.97-1.12l-1.62-45.66c4.7,2.28,9.36,4.99,13.86,8.05l-7.79,37.76c-.06.28,0,.62.2.91.24.25.48.37.65.37.17.04.35.07.53.1.15.03.31.06.46.09.26.06.52.02.86-.15.21-.15.39-.4.47-.69l7.51-36.34c3.05,2.2,6.19,4.78,9.37,7.67l-13.29,29.73c-.15.29-.15.62-.04.81.09.33.34.57.57.62.13.07.27.13.4.19.17.07.34.15.49.24.25.13.59.16.9.04.17-.08.48-.27.58-.55l12.89-28.74c2.75,2.68,5.38,5.54,7.83,8.5l-18.23,21.52c-.22.22-.33.59-.26.81,0,.36.21.69.48.82l.83.59c.48.34,1.1.27,1.46-.15l17.78-21.06c1.58,1.98,3.1,4.07,4.65,6.36l-19.57,17.14c-.24.17-.4.47-.4.79,0,.27.08.53.3.81l.24.25c.15.14.27.26.42.49.21.22.5.35.66.33.25.06.53,0,.86-.22l19.28-16.88c1.8,2.87,3.34,5.55,4.69,8.15l-22.05,11.49c-.19.09-.42.29-.48.61-.17.34-.08.72.07.96.19.26.33.55.45.77.09.29.36.49.62.57.29.15.65.07.83-.06l22.02-11.49c1.28,2.65,2.48,5.44,3.59,8.31l-24.22,6.73c-.27.07-.51.27-.66.57-.11.24-.14.5-.06.82.06.21.14.46.21.77l.06.14c.07.27.21.47.47.66.16.1.44.21.83.1l24.46-6.8c1.26,3.46,2.36,7.16,3.27,11.01h-27.19c-.61,0-1.1.48-1.1,1.07v1.06c0,.62.48,1.1,1.1,1.1h27.91c.59,2.87,1.08,5.85,1.48,8.89l-29.54-6.8c-.32-.08-.64,0-.88.19-.17.11-.37.31-.47.72l-.16,1.07c-.08.59.33,1.13.84,1.19l30.55,7.03c.29,3.32.44,6.71.44,10.07v.98l-31.99-14.89c-.2-.05-.48-.13-.7,0-.21.05-.48.19-.69.61ZM578.52,400.86c-28.04,8.2-52.14-2.33-67.5-12.7l-1.04-.68c-1.15-.75-2.43-1.59-3.79-2.42,10.32-3.03,19.98-3.33,30.33-.94,16.08,3.69,29.81,10.57,42,16.75ZM503.9,356.12c10.95,3.28,19.77,7.71,28.31,12,13.35,6.67,25.96,12.98,43.24,12.98,10.08,0,18.33-1.83,24.35-3.16l.15-.03c10.48-2.22,18.83-4,30.82.07-7.66,2.72-15.4,6.53-22.29,9.92l-.41.23c-6.51,3.21-13.87,6.86-22.26,10.21-1.04.42-2,.78-2.97,1.1-.54-.26-1.06-.54-1.59-.83l-1.2-.58c-13-6.56-26.44-13.34-42.8-17.09-4.81-1.1-9.58-1.66-14.18-1.66-6.8,0-13.55,1.18-20.63,3.61-10.35-5.61-25.23-10.87-48.73-2.51-.67-3.45-1.19-7.22-1.59-11.51,8.78-6.07,30.89-19.03,51.79-12.75ZM487.51,392.64l.38-.19c4.3-1.99,9.16-4.24,14.22-6.04,2.28,1.27,4.55,2.68,7.12,4.44,15.92,10.74,32.41,16.2,49,16.2,8.21,0,16.4-1.38,24.37-4.09,15.56,7.83,29.83,14.3,46.65,14.3,10.29,0,18.15-1.79,24.46-3.23l.34-.08c1.58-.4,3.05-.73,4.44-1.02-1.55,2.82-3.28,5.64-5.16,8.41h-182.69c-4.09-6.07-7.57-12.49-10.35-19.07,10.18-1.62,18.83-5.68,27.21-9.62ZM629.26,414.02c-15.47,0-28.95-5.9-42.48-12.59.07-.03.14-.06.21-.08,8.38-3.37,15.71-6.97,22.79-10.45l.12-.06c8.3-4.13,16.87-8.4,25.7-11.01,1.72.75,3.61,1.71,5.41,2.64,4.39,2.01,12.48,5.42,26.18,10.24-1.77,5.64-4.04,11.21-6.76,16.57-2.4.41-4.93.99-7.19,1.51-5.84,1.37-13.83,3.23-23.98,3.23ZM670.45,379.51c-.65,3.44-1.44,6.83-2.32,10.08l-.34-.12c-4.06-1.44-16.45-5.81-25.33-9.9-.58-.33-1.21-.65-1.96-1.01,9.8-2.18,19.38-1.88,29.95.95ZM609.29,306.81h0ZM498.26,384.38c-4.38,1.72-8.53,3.66-12.11,5.36-8.4,3.93-17.09,8-27.08,9.46-1.96-5.07-3.54-10.32-4.71-15.64,21.15-7.62,34.54-3.74,43.89.82Z"/>
          <path class="cls-5" d="M612.52,310.97c-13.64,0-24.73,11.11-24.73,24.77s11.09,24.73,24.73,24.73,24.72-11.09,24.72-24.73-11.09-24.77-24.72-24.77ZM634.05,335.73c0,11.85-9.66,21.49-21.53,21.49s-21.54-9.64-21.54-21.49,9.67-21.53,21.54-21.53,21.53,9.66,21.53,21.53Z"/>
          <path class="cls-5" d="M584.13,336.91c0-.29-.11-.57-.32-.77h0c-.21-.21-.45-.3-.78-.31l-52.3,1.47c-.29,0-.55.13-.75.34-.2.21-.3.48-.3.77l.03,1.07c0,.29.13.57.33.76.2.19.47.3.78.3l52.32-1.5c.29,0,.57-.14.77-.36.19-.21.29-.51.27-.82v-.16c-.03-.25-.06-.51-.06-.78ZM583.47,336.48h0s0,0,0,0ZM583.71,337.89h0Z"/>
          <path class="cls-5" d="M516.65,337.3h7.75c.6,0,1.08.48,1.08,1.08v1.06c0,.6-.48,1.08-1.08,1.08h-7.75c-.6,0-1.08-.48-1.08-1.08v-1.06c0-.6.48-1.08,1.08-1.08Z"/>
          <path class="cls-5" d="M491.59,310.66l-20.34-4.16c-.3-.07-.58,0-.82.15-.24.16-.41.4-.47.69l-.21,1.03c-.06.28,0,.57.15.81.16.24.4.41.69.47l20.33,4.16c.07.02.14.03.23.03.51,0,.95-.36,1.06-.86l.21-1.04c.06-.28,0-.57-.15-.81-.15-.24-.4-.41-.69-.47ZM491.49,311.13h0s0,0,0,0ZM470.43,307.43h0ZM470.69,309.19h0Z"/>
          <path class="cls-5" d="M509.1,314.24l-8.58-1.75c-.29-.06-.58,0-.82.15-.24.16-.41.41-.46.69l-.21,1.04c-.06.28,0,.57.16.81.16.24.4.4.68.46l8.57,1.75c.08.02.15.03.23.03.51,0,.95-.36,1.06-.86l.21-1.04c.06-.28,0-.57-.15-.81-.16-.24-.41-.41-.69-.47Z"/>
          <path class="cls-5" d="M583.7,329.5l-64.29-13.13c-.29-.07-.59,0-.83.16-.24.16-.41.41-.46.7l-.18,1.02c-.1.58.27,1.13.85,1.25l64.33,13.18c.07.02.15.03.22.03.22,0,.45-.07.62-.2.24-.17.4-.44.44-.73l.16-1.06c.09-.57-.28-1.1-.85-1.22ZM518.58,317.31h0Z"/>
          <path class="cls-5" d="M522.78,293.42c-.26-.12-.54-.14-.83-.04-.26.1-.48.3-.61.55l-.45.96c-.13.27-.14.56-.04.83.1.27.29.49.55.61l63.1,29.89c.15.07.31.11.47.11.15,0,.29-.03.44-.09.29-.13.5-.37.59-.66.06-.15.11-.29.17-.43.08-.2.16-.4.21-.6.16-.51-.08-1.07-.57-1.3l-63.02-29.83Z"/>
          <path class="cls-5" d="M500.17,282.71c-.26-.13-.55-.14-.82-.05-.27.09-.49.29-.62.55l-.46.96c-.12.26-.14.56-.04.82.1.27.29.49.55.62l9.3,4.41c.15.07.3.1.46.1.42,0,.8-.25.97-.61l.46-.96c.12-.27.14-.56.04-.83-.1-.27-.3-.48-.55-.61l-9.3-4.4ZM509.27,287.55h0s0,0,0,0ZM498.99,285.19h0Z"/>
          <path class="cls-5" d="M588.92,319.9l.21-.31h0c.12-.18.23-.35.38-.53.19-.23.27-.53.23-.81-.04-.29-.2-.56-.44-.74l-63.99-46.29c-.23-.17-.54-.25-.81-.19-.27.04-.53.2-.71.43l-.61.86c-.35.48-.24,1.16.24,1.51l63.96,46.32c.19.14.41.2.63.2.34,0,.66-.16.88-.45ZM524.21,271.74h0,0Z"/>
          <path class="cls-5" d="M591.58,314.85h0c.19.23.46.36.82.38.27,0,.53-.1.72-.28l.81-.73c.44-.4.48-1.06.09-1.5l-33.86-39.67c-.18-.22-.45-.35-.77-.38h-.02c-.28,0-.55.09-.74.26l-.8.7c-.45.39-.5,1.07-.11,1.51l33.85,39.7Z"/>
          <path class="cls-5" d="M553.6,270.3c.2.24.5.38.82.38.26,0,.51-.09.7-.26l.81-.69c.22-.19.35-.45.38-.74.02-.28-.07-.56-.26-.78l-4.59-5.39c-.18-.22-.45-.36-.73-.38-.33-.04-.58.07-.79.26l-.81.69c-.22.19-.35.44-.38.73-.03.28.07.57.26.79l4.6,5.39ZM549.36,264.6h0ZM555.69,268.52h0s0,0,0,0Z"/>
        </g>
      </g>
      <path class="cls-5" d="M795.77,376.76c3.25-5.34,6.62-10.85,6.62-16.76s-3.36-11.41-6.62-16.74c-2.79-4.57-5.42-8.88-5.98-13.25-.6-4.54.92-9.7,2.4-14.7,1.74-5.9,3.54-12.01,2.07-17.53-1.52-5.65-6.18-10.1-10.68-14.4-3.89-3.71-7.56-7.21-9.27-11.32-1.74-4.18-1.62-9.54-1.5-14.72.14-6.17.29-12.56-2.59-17.53-2.91-5.05-8.56-8.11-14.02-11.08-4.74-2.57-9.21-5.01-11.93-8.55-2.73-3.57-3.99-8.76-5.21-13.78-1.46-6.03-2.97-12.26-7.08-16.36-4.09-4.1-10.32-5.61-16.34-7.07-5.02-1.22-10.22-2.48-13.79-5.24-3.55-2.72-5.99-7.2-8.57-11.94-2.97-5.45-6.04-11.08-11.06-13.98-4.99-2.88-11.39-2.75-17.57-2.61-5.17.11-10.53.24-14.72-1.49-4.09-1.71-7.59-5.37-11.29-9.25-4.3-4.51-8.74-9.18-14.41-10.7-5.53-1.47-11.63.33-17.54,2.06-4.99,1.47-10.13,3-14.68,2.4-4.37-.57-8.68-3.2-13.24-5.98-5.34-3.26-10.87-6.62-16.78-6.62s-11.41,3.36-16.75,6.62c-4.56,2.79-8.88,5.42-13.24,5.98-4.53.6-9.7-.93-14.69-2.4-5.9-1.74-12-3.54-17.54-2.06-5.66,1.52-10.11,6.18-14.41,10.7-3.7,3.88-7.19,7.54-11.28,9.25-4.19,1.72-9.54,1.6-14.73,1.49-6.19-.14-12.58-.28-17.57,2.61-5.03,2.9-8.1,8.54-11.07,13.98-2.47,4.53-5.01,9.2-8.57,11.94-3.57,2.75-8.77,4.01-13.79,5.23-6.02,1.46-12.24,2.98-16.34,7.08-4.08,4.1-5.59,10.31-7.06,16.33-1.22,5.02-2.48,10.21-5.22,13.78-2.73,3.56-7.42,6.11-11.95,8.58-5.46,2.97-11.09,6.04-14,11.07-2.88,4.98-2.74,11.37-2.59,17.54.12,5.19.24,10.54-1.5,14.73-1.71,4.12-5.38,7.62-9.26,11.33-4.5,4.3-9.16,8.74-10.68,14.4-1.47,5.52.32,11.62,2.06,17.53,1.47,5,2.99,10.16,2.4,14.7-.57,4.37-3.2,8.68-5.98,13.25-3.26,5.33-6.62,10.85-6.62,16.74s3.36,11.42,6.62,16.76c2.79,4.56,5.42,8.88,5.99,13.26.59,4.53-.93,9.69-2.4,14.68-1.74,5.91-3.54,12.01-2.06,17.55,1.52,5.65,6.18,10.09,10.68,14.38,3.88,3.7,7.55,7.2,9.26,11.31,1.74,4.2,1.62,9.55,1.5,14.74-.14,6.17-.29,12.56,2.59,17.55,2.91,5.03,8.54,8.09,14,11.06,4.53,2.47,9.22,5.02,11.95,8.57,2.73,3.57,3.99,8.75,5.21,13.77,1.46,6.03,2.98,12.25,7.07,16.34,4.09,4.09,10.32,5.61,16.34,7.07,5.03,1.22,10.22,2.48,13.79,5.23,3.55,2.74,5.99,7.21,8.57,11.95,2.97,5.45,6.04,11.08,11.06,14,4.99,2.88,11.37,2.73,17.57,2.59,5.18-.13,10.54-.25,14.72,1.48,4.1,1.7,7.59,5.37,11.29,9.25,4.3,4.52,8.75,9.2,14.41,10.71,5.52,1.47,11.63-.33,17.54-2.06,4.99-1.47,10.13-3,14.69-2.41,4.37.57,8.68,3.2,13.24,5.97,5.34,3.24,10.85,6.6,16.75,6.6s11.44-3.36,16.78-6.61c4.56-2.77,8.86-5.4,13.24-5.97,4.54-.6,9.69.93,14.68,2.41,5.91,1.74,12,3.54,17.54,2.06,5.66-1.52,10.1-6.18,14.4-10.7,3.7-3.89,7.2-7.56,11.3-9.25,4.19-1.74,9.56-1.61,14.75-1.51,6.17.14,12.56.29,17.54-2.59,5.02-2.92,8.09-8.55,11.06-14,2.57-4.74,5.01-9.21,8.57-11.95,3.58-2.75,8.79-4.02,13.82-5.24,6-1.45,12.22-2.96,16.32-7.05,4.07-4.09,5.59-10.32,7.05-16.33,1.22-5.02,2.49-10.22,5.23-13.79,2.73-3.55,7.2-5.99,11.94-8.58,5.45-2.96,11.08-6.03,14-11.06,2.89-4.99,2.74-11.38,2.6-17.55-.12-5.19-.24-10.55,1.5-14.74,1.71-4.1,5.37-7.59,9.25-11.28,4.51-4.3,9.18-8.75,10.7-14.42,1.47-5.53-.33-11.64-2.07-17.54-1.47-4.99-2.99-10.15-2.4-14.68.57-4.38,3.2-8.7,5.98-13.26ZM772.19,360c0,115.91-94.3,210.21-210.21,210.21s-210.18-94.29-210.18-210.21,94.29-210.21,210.18-210.21,210.21,94.29,210.21,210.21Z"/>
    </g>
  </g>
</svg>