<?xml version="1.0" encoding="UTF-8"?><svg id="Layer_1" xmlns="http://www.w3.org/2000/svg" viewBox="0 0 768 414.04"><path d="M137.41,46.72c.21,1.7-1.99.81-3.01.67-16.43-2.23-28.93-5.38-46.03-3.48-71.48,7.98-65.06,77.87-41.01,127.88,14.74,30.66,28.25,41.03,31.18,78.14,3.32,42.03-.07,94.3,30.43,128.42,11.7,13.08,13.18-.25,12.55-10.68-2.83-47.42-14.22-102.12,26.66-137.81,50.42-44.01,93.31,5.29,101.1,56.76,4.31,28.46-.14,49.82-1.6,77.31-1.62,30.48,23.97-8.3,28.51-16.34,30.42-53.88,14.08-108.49,31.26-164.95l6.55-13.53c-3.04,15.23-7.5,30.6-8.44,46.21-1.4,23.27,5.01,45.73,3.77,69.17-2.13,39.98-16.65,79.89-43.02,109.99-6.94,7.93-25.65,29.42-35.46,14.3-4.59-7.09.29-29.17.93-38.32,2.51-35.82,4.87-80.53-11.97-113.22-16.97-32.95-46.87-30.95-65.39-.59-24.11,39.53-14.07,93.93-13.46,137.91-2.11,9.27-18.48,6.75-24.72,3.63-16.06-8.03-33.16-32.16-40.65-48.12-19.76-42.12-14.47-87.01-30.65-130.07C32.6,187.17,6.81,167.37,1.26,131.01c-3.36-21.98-.16-51.85,11.5-71.14,27.13-44.88,85.38-34.37,124.65-13.15Z" style="fill:#30587b;"/><path d="M287.84,234.51l-2.36-7.43c-14.98-56.51,49.42-134.79-4.15-182.72-26.5-23.7-46.17-4.31-69.46,9.05-22.41,12.85-61.79,27.94-87.57,22.78-6.91-1.38-11.97-6.16-15.84-11.72,22.11,6.5,41.3-.16,60.43-11.06C201.46,34.85,232.95-8.16,274.81,1.36c26.74,6.08,45.87,33.53,50.92,59.33,11.03,56.3-28.58,96.08-35.87,147.33-1.24,8.72-1.6,17.7-2.01,26.49Z" style="fill:#30587b;"/><path d="M160.78,94.36v19.62h-31.77c-.58,0,.04,10.3,0,11.67-.04,1.19-1.93,6.08.47,6.08h29.43v18.69h-29.9c-.64,4.22.1,8.4.04,12.66-.02,1.47-1.94,6.96.43,6.96h32.24v20.56h-52.79c-1.08,0-5.14-.15-5.14-1.4v-94.84h57Z" style="fill:#30587b;"/><path d="M229.92,153.22v35.97l-1.4,1.4h-22.89v-96.24h43.45c1.8,0,10.76,4.63,12.54,6.15,10.93,9.27,11.25,32.63,2.43,43.4-3.24,3.96-12.8,9.32-17.77,9.32h-16.35ZM229.92,135.47c12.47,2.83,18.4-7.26,14.08-18.29-2.26-5.78-14.08-7.49-14.08-4.61v22.89Z" style="fill:#30587b;"/><path d="M355.79,175.19v-86.44h54.85v15.04h-37.26v19.56h28.81v15.04h-28.81v21.76h38.07v15.04h-55.66Z" style="fill:#30587b;"/><path d="M421.09,157.14h12.61c-.12,1.04-.12,1.5-.12,2.08,0,4.63,2.66,6.48,7.06,6.48,3.82,0,7.75-1.5,7.75-6.36s-3.24-7.17-9.72-10.07c-7.41-3.36-16.2-7.75-16.2-20.13s7.06-17.94,19.33-17.94c11.46,0,19.56,3.24,19.56,17.24,0,.81-.23,2.08-.23,2.08h-12.5c0-.23.12-1.62.12-1.97,0-3.47-1.62-6.02-6.48-6.02-4.28,0-5.32,2.66-5.32,6.48,0,3.12,2.08,5.67,9.49,9.14,3.24,1.5,15.97,6.13,15.97,20.02,0,14.58-8.33,18.98-22.22,18.98-10.88,0-19.21-3.01-19.21-17.71,0-.35.12-1.97.12-2.31Z" style="fill:#30587b;"/><path d="M479.67,113.16l2.55-20.94h12.84v20.94h12.03v11.69h-12.03v31.59c0,4.86,1.85,6.83,6.94,6.83,1.5,0,3.59-.23,5.09-.58v12.5c-3.47,1.27-6.25,1.97-10.76,1.97-16.78,0-16.66-13.31-16.66-18.51v-33.79h-9.95v-11.69h9.95Z" style="fill:#30587b;"/><path d="M535.71,88.75v32.4c5.09-6.83,9.84-9.95,18.17-9.95s14,4.74,14,16.78v47.21h-15.39v-42.82c0-5.09-1.62-7.87-5.9-7.87-5.79,0-10.88,5.55-10.88,13.77v36.91h-15.39v-86.44h15.39Z" style="fill:#30587b;"/><path d="M599.38,147.53v3.59c0,10.65,1.73,14.12,6.36,14.12,3.7,0,6.6-2.89,6.6-7.41,0-.81,0-1.39-.12-2.43h12.96c.12.93.23,1.5.23,2.31,0,12.03-8.22,19.44-20.83,19.44-14.46,0-20.95-6.83-20.95-26.04v-11.34c0-20.94,7.17-28.58,21.76-28.58s19.9,9.37,19.9,28.81v7.52h-25.92ZM610.84,138.39v-3.93c0-9.14-1.39-13.42-5.55-13.42s-5.9,4.17-5.9,11.69v5.67h11.46Z" style="fill:#30587b;"/><path d="M643.04,113.16l2.55-20.94h12.84v20.94h12.03v11.69h-12.03v31.59c0,4.86,1.85,6.83,6.94,6.83,1.5,0,3.59-.23,5.09-.58v12.5c-3.47,1.27-6.25,1.97-10.76,1.97-16.78,0-16.66-13.31-16.66-18.51v-33.79h-9.95v-11.69h9.95Z" style="fill:#30587b;"/><path d="M684.61,102.86v-14.12h15.39v14.12h-15.39ZM684.61,175.19v-62.02h15.39v62.02h-15.39Z" style="fill:#30587b;"/><path d="M716.46,140.01c0-20.14,6.13-28.81,21.99-28.81,11.11,0,19.79,6.13,19.79,19.79,0,.93-.23,2.31-.23,2.31h-12.38v-1.74c0-4.98-2.31-8.79-6.71-8.79-3.93,0-6.36,4.86-6.36,15.16v13.19c0,10.65,2.31,14.12,6.94,14.12,4.05,0,7.06-3.12,7.06-7.64,0-.69-.12-1.27-.23-2.55h12.73s.12,1.62.12,2.31c0,13.08-8.22,19.79-20.94,19.79-14.46,0-21.76-9.95-21.76-26.04v-11.11Z" style="fill:#30587b;"/><path d="M355.79,281.37v-86.44h24.19c24.18,0,34.25,10.88,34.25,27.54s-9.03,28.12-35.41,28.12h-5.44v30.78h-17.59ZM382.06,235.54c8.56,0,13.19-5.32,13.19-12.85s-4.74-12.73-14.58-12.73h-7.29v25.57h8.68Z" style="fill:#30587b;"/><path d="M436.59,238.78h-13.08c-.12-1.62-.12-3.01-.12-4.05,0-7.06,3.93-17.36,20.37-17.36s22.8,6.71,22.8,19.67v27.66c0,7.64,2.55,8.22,6.48,8.33l-.93,10.07s-2.2.23-3.59.23c-7.52,0-12.61-2.55-15.16-8.68-6.6,7.17-12.73,8.79-17.94,8.79-8.45,0-14.93-7.75-14.93-17.82,0-19.79,22.22-22.91,30.66-23.49v-5.44c0-5.09-.46-8.45-7.52-8.45-4.51,0-7.17,2.31-7.17,6.71,0,.93,0,2.2.12,3.82ZM451.17,251.51c-8.79.93-14.58,4.17-14.58,11.46,0,4.74,2.89,7.98,6.94,7.98s7.64-3.93,7.64-8.45v-10.99Z" style="fill:#30587b;"/><path d="M497.49,281.37h-15.39v-62.02h15.39v13.89c3.93-10.76,13.08-15.85,17.13-15.85h.46v18.98h-.81c-12.03,0-16.78,10.07-16.78,15.85v29.16Z" style="fill:#30587b;"/><path d="M525.99,219.34l2.55-20.94h12.84v20.94h12.03v11.69h-12.03v31.59c0,4.86,1.85,6.83,6.94,6.83,1.5,0,3.59-.23,5.09-.58v12.5c-3.47,1.27-6.25,1.97-10.76,1.97-16.78,0-16.66-13.31-16.66-18.51v-33.79h-9.95v-11.69h9.95Z" style="fill:#30587b;"/><path d="M579.13,281.37h-15.39v-62.02h15.39v7.98c4.74-6.83,9.84-9.95,18.17-9.95s14,4.74,14,16.78v47.21h-15.39v-42.82c0-5.09-1.62-7.87-5.9-7.87-5.79,0-10.88,5.55-10.88,13.77v36.91Z" style="fill:#30587b;"/><path d="M639.91,253.71v3.59c0,10.65,1.73,14.12,6.36,14.12,3.7,0,6.6-2.89,6.6-7.41,0-.81,0-1.39-.12-2.43h12.96c.12.93.23,1.5.23,2.31,0,12.03-8.22,19.44-20.83,19.44-14.46,0-20.95-6.83-20.95-26.04v-11.34c0-20.94,7.17-28.58,21.76-28.58s19.9,9.37,19.9,28.81v7.52h-25.92ZM651.37,244.57v-3.93c0-9.14-1.39-13.42-5.55-13.42s-5.9,4.17-5.9,11.69v5.67h11.46Z" style="fill:#30587b;"/><path d="M693.87,281.37h-15.39v-62.02h15.39v13.89c3.93-10.76,13.08-15.85,17.13-15.85h.46v18.98h-.81c-12.03,0-16.78,10.07-16.78,15.85v29.16Z" style="fill:#30587b;"/><path d="M716,263.32h12.61c-.12,1.04-.12,1.5-.12,2.08,0,4.63,2.66,6.48,7.06,6.48,3.82,0,7.75-1.5,7.75-6.36s-3.24-7.17-9.72-10.07c-7.41-3.36-16.2-7.75-16.2-20.13s7.06-17.94,19.33-17.94c11.46,0,19.56,3.24,19.56,17.24,0,.81-.23,2.08-.23,2.08h-12.5c0-.23.12-1.62.12-1.97,0-3.47-1.62-6.02-6.48-6.02-4.28,0-5.32,2.66-5.32,6.48,0,3.12,2.08,5.67,9.49,9.14,3.24,1.5,15.97,6.13,15.97,20.02,0,14.58-8.33,18.98-22.22,18.98-10.88,0-19.21-3.01-19.21-17.71,0-.35.12-1.97.12-2.31Z" style="fill:#30587b;"/><path d="M362.09,351.57v-54.91h14.63c18.82,0,23.01,15.8,23.01,27.13,0,16.25-5.29,27.79-24.99,27.79h-12.64ZM375.54,342.61c7.94,0,12.13-4.41,12.13-16.83,0-13.75-2.57-20.14-12.35-20.14h-2.06v36.98h2.28Z" style="fill:#30587b;"/><path d="M416.85,334.01v2.28c0,6.76,1.1,8.97,4.04,8.97,2.35,0,4.19-1.84,4.19-4.7,0-.51,0-.88-.07-1.54h8.23c.07.59.15.96.15,1.47,0,7.65-5.22,12.35-13.23,12.35-9.19,0-13.31-4.34-13.31-16.54v-7.2c0-13.31,4.56-18.16,13.82-18.16s12.64,5.95,12.64,18.3v4.78h-16.47ZM424.13,328.2v-2.5c0-5.81-.88-8.53-3.53-8.53s-3.75,2.65-3.75,7.42v3.6h7.28Z" style="fill:#30587b;"/><path d="M451.47,351.57h-9.78v-39.4h9.78v5.07c3.01-4.34,6.25-6.32,11.54-6.32s8.89,3.01,8.89,10.66v29.99h-9.78v-27.2c0-3.23-1.03-5-3.75-5-3.68,0-6.91,3.53-6.91,8.75v23.45Z" style="fill:#30587b;"/><path d="M483.23,312.17l1.62-13.31h8.16v13.31h7.65v7.42h-7.65v20.07c0,3.09,1.18,4.34,4.41,4.34.96,0,2.28-.15,3.23-.37v7.94c-2.21.81-3.97,1.25-6.84,1.25-10.66,0-10.58-8.45-10.58-11.76v-21.46h-6.32v-7.42h6.32Z" style="fill:#30587b;"/><path d="M515.72,324.52h-8.31c-.07-1.03-.07-1.91-.07-2.57,0-4.48,2.5-11.03,12.94-11.03s14.48,4.26,14.48,12.5v17.57c0,4.85,1.62,5.22,4.12,5.29l-.59,6.4s-1.4.15-2.28.15c-4.78,0-8.01-1.62-9.63-5.51-4.19,4.56-8.09,5.59-11.39,5.59-5.37,0-9.48-4.93-9.48-11.32,0-12.57,14.11-14.55,19.48-14.92v-3.46c0-3.23-.29-5.37-4.78-5.37-2.87,0-4.56,1.47-4.56,4.26,0,.59,0,1.4.07,2.43ZM524.98,332.61c-5.59.59-9.26,2.65-9.26,7.28,0,3.01,1.84,5.07,4.41,5.07s4.85-2.5,4.85-5.37v-6.98Z" style="fill:#30587b;"/><path d="M545.49,351.57v-54.91h9.78v54.91h-9.78Z" style="fill:#30587b;"/><path d="M615.32,348.71c-3.75,3.01-8.31,4.19-13.6,4.19-7.13,0-19.55-1.54-19.55-25.21v-5.95c0-23.52,11.39-26.39,21.32-26.39,7.42,0,16.98,4.12,16.98,16.17,0,.59-.07,1.03-.29,2.13h-10.95s.15-1.1.15-2.13c0-4.56-3.31-7.13-7.42-7.13-4.7,0-7.65,3.38-7.65,9.19v17.5c0,8.45,2.21,12.79,8.01,12.79s8.68-3.46,8.68-8.75v-2.87h-8.53v-8.09h19.41v28.74h-4.7l-1.84-4.19Z" style="fill:#30587b;"/><path d="M641.86,351.57h-9.78v-39.4h9.78v8.82c2.5-6.84,8.31-10.07,10.88-10.07h.29v12.06h-.51c-7.64,0-10.66,6.4-10.66,10.07v18.52Z" style="fill:#30587b;"/><path d="M688.76,331.87c0,14.7-5,20.95-15.66,20.95s-15.66-6.25-15.66-20.95,4.93-20.95,15.66-20.95,15.66,6.25,15.66,20.95ZM667.66,331.87c0,10.22,1.62,12.72,5.44,12.72s5.44-2.5,5.44-12.72-1.62-12.72-5.44-12.72-5.44,2.43-5.44,12.72Z" style="fill:#30587b;"/><path d="M717.35,312.17h9.78v39.4h-9.78v-5.07c-3.09,4.48-6.25,6.32-11.54,6.32s-8.89-3.01-8.89-10.66v-29.99h9.78v27.2c0,3.24,1.03,5,3.75,5,3.68,0,6.91-3.53,6.91-8.75v-23.45Z" style="fill:#30587b;"/><path d="M746.9,316.73l.44-.66c2.57-3.31,5.81-5.15,9.04-5.15,11.17,0,11.61,13.01,11.61,20.44,0,16.39-5.59,21.46-11.98,21.46-4.85,0-6.91-2.5-9.11-5.51v16.02h-9.78v-51.16h9.78v4.56ZM746.9,339.08c2.35,3.75,4.56,5.29,6.39,5.29,2.94,0,3.97-3.97,3.97-11.54,0-7.06-.3-13.67-4.04-13.67-1.76,0-4.12,1.4-6.32,4.7v15.22Z" style="fill:#30587b;"/></svg>