<?xml version="1.0" encoding="UTF-8"?><svg id="Layer_2" xmlns="http://www.w3.org/2000/svg" viewBox="0 0 768 150.2"><g id="Layer_1-2"><path d="M15.68,54.03c41.18-39.23,106.6,8.64,81.38,59.33C74.59,158.52.09,145.82.09,94.29.09,68.46-.11,36.16.09,7.01c1.67-9.85,14.34-8.84,15.59-.02v47.03ZM87.08,90.37c0-19.82-16.2-35.88-36.18-35.88S14.72,70.55,14.72,90.37s16.2,35.88,36.18,35.88,36.18-16.06,36.18-35.88Z" style="fill:#0b7abf;"/><path d="M69.85,93.99h9.18c-3.38,18.73-19.8,31.43-38.55,24.01-9.58-3.79-16.76-13.68-17.29-24.01h9.66s.01,2.1,1.74,5.9c8.41,18.45,33.25,13.22,35.26-5.9Z" style="fill:#27cdf2;"/><path d="M137.69,71.89c-5.06,0-9.43,2.2-12.34,6.12v-19.24c0-.9-.76-1.65-1.65-1.65s-1.65.76-1.65,1.65v28.69c0,3.48,1.16,6.86,3.3,9.61,2.7,3.63,6.65,5.79,11.24,6.08,8.92.58,16.39-6.02,16.74-14.95.35-9.09-6.64-16.31-15.64-16.31ZM137.69,100.01c-6.92,0-12.34-5.48-12.34-12.47s5.42-12.47,12.34-12.47,12.34,5.36,12.34,12.47-5.31,12.47-12.34,12.47Z" style="fill:#0b7abf;"/><path d="M191.74,72.14c-4.29,0-8.46,2.04-10.92,5.11v-3.46c0-.9-.76-1.65-1.65-1.65s-1.65.76-1.65,1.65v27.47c0,.9.76,1.65,1.65,1.65s1.65-.76,1.65-1.65v-15.61c0-5.67,5-10.46,10.92-10.46.86,0,1.46-.63,1.46-1.52s-.64-1.52-1.46-1.52Z" style="fill:#0b7abf;"/><path d="M227.38,71.89c-8.77,0-15.65,6.87-15.65,15.65s6.87,15.65,15.65,15.65,15.65-6.87,15.65-15.65-6.87-15.65-15.65-15.65ZM227.38,100.01c-7.04,0-12.34-5.36-12.34-12.47s5.31-12.47,12.34-12.47,12.34,5.36,12.34,12.47-5.31,12.47-12.34,12.47Z" style="fill:#0b7abf;"/><path d="M294.9,57.11c-.9,0-1.65.76-1.65,1.65v19.24c-2.7-3.63-6.64-5.79-11.23-6.08-8.92-.58-16.39,6.02-16.74,14.95-.36,9.09,6.64,16.31,15.63,16.31,5.06,0,9.43-2.2,12.34-6.12,2.13-2.51,3.31-5.7,3.31-9v-29.3c0-.9-.76-1.65-1.65-1.65ZM280.91,100.01c-7.04,0-12.34-5.36-12.34-12.47s5.31-12.47,12.34-12.47,12.34,5.48,12.34,12.47-5.42,12.47-12.34,12.47Z" style="fill:#0b7abf;"/><path d="M324.46,70.52c-.9,0-1.65.76-1.65,1.65v29.09c0,.9.76,1.65,1.65,1.65s1.65-.76,1.65-1.65v-29.09c0-.9-.76-1.65-1.65-1.65Z" style="fill:#0b7abf;"/><path d="M324.46,60.61c-.9,0-1.65.76-1.65,1.65v1.23c0,.9.76,1.65,1.65,1.65s1.65-.76,1.65-1.65v-1.23c0-.9-.76-1.65-1.65-1.65Z" style="fill:#0b7abf;"/><path d="M365.54,71.89c-8.63,0-15.13,6.73-15.13,15.65s6.73,15.65,15.65,15.65c5.42,0,10.21-2.59,13.11-7.1.22-.33.33-.68.33-1.03,0-.89-.73-1.59-1.65-1.59-.59,0-1.03.26-1.33.76-2.38,3.72-6.19,5.85-10.46,5.85-6.61,0-11.85-4.97-12.25-11.47h24.95c.99,0,1.65-.64,1.65-1.59,0-8.48-6.53-15.13-14.87-15.13ZM353.92,85.49c.74-6.08,5.6-10.56,11.62-10.56s10.91,4.66,11.57,10.56h-23.19Z" style="fill:#0b7abf;"/><path d="M455.68,71.89c-5.06,0-9.43,2.2-12.34,6.12v-19.24c0-.9-.76-1.65-1.65-1.65s-1.65.76-1.65,1.65v29.3c0,3.3,1.17,6.49,3.3,9,2.7,3.63,6.65,5.79,11.24,6.08,8.92.58,16.39-6.02,16.74-14.95.35-9.09-6.64-16.31-15.64-16.31ZM455.68,100.01c-6.92,0-12.34-5.48-12.34-12.47s5.42-12.47,12.34-12.47,12.34,5.36,12.34,12.47-5.31,12.47-12.34,12.47Z" style="fill:#0b7abf;"/><path d="M509.21,71.89c-8.77,0-15.65,6.87-15.65,15.65s6.87,15.65,15.65,15.65,15.65-6.87,15.65-15.65-6.87-15.65-15.65-15.65ZM509.21,100.01c-7.04,0-12.34-5.36-12.34-12.47s5.31-12.47,12.34-12.47,12.34,5.36,12.34,12.47-5.31,12.47-12.34,12.47Z" style="fill:#0b7abf;"/><path d="M584.44,72.14c-.48,0-1.12.18-1.48,1.07l-7.8,23.16-8.05-23.13c-.36-.9-1.03-1.09-1.53-1.09s-1.17.19-1.54,1.13l-8.03,23.1-7.81-23.2c-.34-.85-.98-1.03-1.47-1.03-.94,0-1.65.65-1.65,1.52,0,.33.09.61.17.84l9.26,27.27c.24.71.79,1.14,1.48,1.14.74,0,1.31-.41,1.54-1.12l8.05-22.96,8.04,22.95c.24.72.8,1.14,1.55,1.14.69,0,1.24-.42,1.48-1.13l9.27-27.28c.08-.23.17-.51.17-.84,0-.87-.71-1.52-1.65-1.52Z" style="fill:#0b7abf;"/><path d="M646.85,71.89c-5.07,0-9.86,2.75-12.45,6.99-2.01-4.41-6.16-6.99-11.39-6.99-4.41,0-8.57,2.01-11.11,5.21v-3.29c0-.9-.76-1.65-1.65-1.65s-1.65.76-1.65,1.65v27.47c0,.9.76,1.65,1.65,1.65s1.65-.76,1.65-1.65v-15.81c0-5.8,4.88-10.33,11.11-10.33,5.9,0,9.43,3.79,9.43,10.14v16c0,.9.76,1.65,1.65,1.65s1.65-.76,1.65-1.65v-15.81c0-5.51,5.19-10.33,11.11-10.33s9.43,3.79,9.43,10.14v16c0,.9.76,1.65,1.65,1.65s1.65-.76,1.65-1.65v-15.94c0-8.17-5-13.44-12.73-13.44Z" style="fill:#0b7abf;"/><path d="M699.08,71.89c-8.77,0-15.65,6.87-15.65,15.65s6.87,15.65,15.65,15.65c5.04,0,9.48-2.18,12.34-5.95v4.04c0,.9.76,1.65,1.65,1.65s1.65-.76,1.65-1.65v-13.74c0-8.77-6.87-15.65-15.65-15.65ZM699.08,100.01c-7.04,0-12.34-5.36-12.34-12.47s5.31-12.47,12.34-12.47,12.34,5.36,12.34,12.47-5.31,12.47-12.34,12.47Z" style="fill:#0b7abf;"/><path d="M754.17,71.89c-4.26,0-8.01,1.82-10.53,4.74v-3.09c0-.9-.76-1.65-1.65-1.65s-1.65.76-1.65,1.65v27.73c0,.9.76,1.65,1.65,1.65s1.65-.76,1.65-1.65v-15.74c0-5.93,4.53-10.4,10.53-10.4s10.53,4.47,10.53,10.4v15.74c0,.9.76,1.65,1.65,1.65s1.65-.76,1.65-1.65v-15.68c0-7.68-6.08-13.7-13.83-13.7Z" style="fill:#0b7abf;"/><path d="M279.75,150.2c-1.89,0-3.48-.37-4.75-1.11-1.27-.74-2.23-1.83-2.87-3.29-.64-1.45-.96-3.27-.96-5.45,0-3.25.72-5.7,2.17-7.36,1.44-1.65,3.58-2.48,6.41-2.48,1.91,0,3.5.37,4.78,1.1,1.27.74,2.23,1.83,2.87,3.29.64,1.45.96,3.27.96,5.45,0,3.25-.72,5.7-2.17,7.36-1.44,1.65-3.59,2.48-6.44,2.48ZM279.75,148.25c1.51,0,2.74-.28,3.7-.83.96-.55,1.66-1.42,2.11-2.58.45-1.17.67-2.66.67-4.48s-.22-3.3-.67-4.46c-.45-1.16-1.15-2.02-2.11-2.58-.96-.56-2.19-.85-3.7-.85s-2.72.28-3.67.85c-.96.56-1.66,1.43-2.11,2.58-.45,1.16-.67,2.64-.67,4.46s.22,3.31.67,4.48c.45,1.17,1.15,2.03,2.11,2.58.96.55,2.18.83,3.67.83Z" style="fill:#585959;"/><path d="M304.71,149.91v-19.14h7.86c1.87,0,3.29.47,4.23,1.41.95.94,1.42,2.32,1.42,4.16,0,1.11-.23,2.09-.69,2.96-.46.86-1.1,1.54-1.92,2.04-.82.5-1.79.75-2.9.75l.86-.57,5.51,8.41h-2.44l-5.68-8.78,1.03,1.06h-5.22v7.72h-2.07ZM306.78,140.24h4.85c1.59,0,2.74-.32,3.46-.96.72-.64,1.08-1.57,1.08-2.8,0-1.15-.27-2.06-.8-2.74-.54-.68-1.54-1.02-3.01-1.02h-5.57v7.52Z" style="fill:#585959;"/><path d="M339.49,149.91v-17.19h-6.77v-1.95h15.58v1.95h-6.74v17.19h-2.07Z" style="fill:#585959;"/><path d="M363.5,149.91v-19.14h2.07v8.61h10.18v-8.61h2.07v19.14h-2.07v-8.58h-10.18v8.58h-2.07Z" style="fill:#585959;"/><path d="M402.75,150.2c-1.89,0-3.48-.37-4.75-1.11-1.27-.74-2.23-1.83-2.87-3.29-.64-1.45-.96-3.27-.96-5.45,0-3.25.72-5.7,2.17-7.36,1.44-1.65,3.58-2.48,6.41-2.48,1.91,0,3.5.37,4.78,1.1,1.27.74,2.23,1.83,2.87,3.29.64,1.45.96,3.27.96,5.45,0,3.25-.72,5.7-2.17,7.36-1.44,1.65-3.59,2.48-6.44,2.48ZM402.75,148.25c1.51,0,2.74-.28,3.7-.83.96-.55,1.66-1.42,2.11-2.58.45-1.17.67-2.66.67-4.48s-.22-3.3-.67-4.46c-.45-1.16-1.15-2.02-2.11-2.58-.96-.56-2.19-.85-3.7-.85s-2.72.28-3.67.85c-.96.56-1.66,1.43-2.11,2.58-.45,1.16-.67,2.64-.67,4.46s.22,3.31.67,4.48c.45,1.17,1.15,2.03,2.11,2.58.96.55,2.18.83,3.67.83Z" style="fill:#585959;"/><path d="M427.71,149.91v-19.14h6c2.98,0,5.23.8,6.73,2.4,1.5,1.6,2.25,3.98,2.25,7.16s-.75,5.57-2.25,7.17c-1.5,1.61-3.74,2.41-6.73,2.41h-6ZM429.78,147.96h3.79c2.45,0,4.23-.61,5.34-1.84s1.66-3.16,1.66-5.8-.56-4.57-1.66-5.8-2.89-1.84-5.34-1.84h-3.79v15.26Z" style="fill:#585959;"/><path d="M466.9,150.2c-1.89,0-3.48-.37-4.75-1.11-1.27-.74-2.23-1.83-2.87-3.29-.64-1.45-.96-3.27-.96-5.45,0-3.25.72-5.7,2.17-7.36,1.44-1.65,3.58-2.48,6.41-2.48,1.91,0,3.5.37,4.78,1.1,1.27.74,2.23,1.83,2.87,3.29.64,1.45.96,3.27.96,5.45,0,3.25-.72,5.7-2.17,7.36-1.44,1.65-3.59,2.48-6.44,2.48ZM466.9,148.25c1.51,0,2.74-.28,3.7-.83.96-.55,1.66-1.42,2.11-2.58.45-1.17.67-2.66.67-4.48s-.22-3.3-.67-4.46c-.45-1.16-1.15-2.02-2.11-2.58-.96-.56-2.19-.85-3.7-.85s-2.72.28-3.67.85c-.96.56-1.66,1.43-2.11,2.58-.45,1.16-.67,2.64-.67,4.46s.22,3.31.67,4.48c.45,1.17,1.15,2.03,2.11,2.58.96.55,2.18.83,3.67.83Z" style="fill:#585959;"/><path d="M491.86,149.91v-19.14h2.35l11.94,16.84-.52.8v-17.64h2.07v19.14h-2.32l-12.39-17.47.95-.89v18.36h-2.07Z" style="fill:#585959;"/><path d="M529.68,149.91v-17.19h-6.77v-1.95h15.58v1.95h-6.74v17.19h-2.07Z" style="fill:#585959;"/><path d="M553.69,149.91v-19.14h2.07v19.14h-2.07Z" style="fill:#585959;"/><path d="M580.84,150.14c-2.95,0-5.16-.82-6.64-2.47-1.48-1.65-2.22-4.09-2.22-7.35s.74-5.7,2.22-7.34c1.48-1.64,3.7-2.47,6.64-2.47,1.01,0,2.01.12,2.98.37.98.25,1.92.59,2.84,1.03v1.98c-.88-.48-1.79-.84-2.73-1.08-.94-.24-1.89-.36-2.87-.36-1.61,0-2.92.28-3.94.83-1.02.55-1.78,1.41-2.27,2.57-.49,1.16-.73,2.64-.73,4.46s.24,3.3.73,4.46c.49,1.16,1.24,2.01,2.27,2.57,1.02.55,2.34.83,3.94.83.98,0,1.93-.11,2.87-.34.94-.23,1.85-.58,2.73-1.06v1.98c-.61.29-1.24.54-1.88.75-.64.21-1.29.37-1.95.47-.66.11-1.33.16-1.99.16Z" style="fill:#585959;"/><path d="M608.29,150.2c-.96,0-1.77-.07-2.44-.2-.67-.13-1.27-.33-1.81-.57-.54-.25-1.12-.53-1.75-.86v-2.24c.61.52,1.43.98,2.47,1.38,1.03.4,2.24.6,3.62.6,1.45,0,2.51-.31,3.17-.93.66-.62.99-1.41.99-2.37,0-.8-.22-1.45-.66-1.94-.44-.49-1-.89-1.69-1.2-.69-.32-1.42-.62-2.18-.9-.65-.23-1.3-.47-1.94-.73-.64-.26-1.22-.58-1.74-.98-.52-.39-.93-.9-1.23-1.52-.31-.62-.46-1.4-.46-2.34,0-.52.1-1.06.3-1.64.2-.57.53-1.11.98-1.61.45-.5,1.05-.9,1.81-1.2s1.68-.46,2.77-.46c.75,0,1.38.05,1.91.16s1.03.26,1.51.46c.48.2,1.01.44,1.61.73v2.12c-.5-.29-.97-.55-1.42-.79-.45-.24-.95-.43-1.49-.57-.54-.14-1.21-.22-1.99-.22-.94,0-1.69.13-2.25.4-.56.27-.98.62-1.23,1.06-.26.44-.39.91-.39,1.41,0,.78.18,1.41.53,1.87.35.46.85.84,1.49,1.13.64.3,1.38.59,2.22.87.67.23,1.34.48,2.01.76.67.28,1.28.62,1.82,1.03.54.41.98.93,1.32,1.55.33.62.5,1.39.5,2.31,0,.86-.19,1.71-.57,2.54s-1.03,1.52-1.95,2.07c-.92.54-2.19.82-3.82.82Z" style="fill:#585959;"/></g></svg>