<?xml version="1.0" encoding="UTF-8"?><svg id="Layer_1" xmlns="http://www.w3.org/2000/svg" xmlns:xlink="http://www.w3.org/1999/xlink" viewBox="0 0 768 298.76"><defs><radialGradient id="radial-gradient" cx="384" cy="149.38" fx="384" fy="149.38" r="291.35" gradientUnits="userSpaceOnUse"><stop offset="0" stop-color="#ba8822"/><stop offset="1" stop-color="#e0b960"/></radialGradient></defs><polygon points="661.27 241.74 644.98 218.99 639.1 218.99 639.1 250.49 644.35 250.49 644.35 228.03 644.35 227.16 644.35 227.16 660.94 250.49 665.94 250.49 665.94 218.99 661.27 218.99 661.27 241.74"/><path d="M551.35,218.42c-9.02,0-16.33,7.31-16.33,16.33s7.31,16.33,16.33,16.33,16.33-7.31,16.33-16.33-7.31-16.33-16.33-16.33ZM551.31,246.99c-13.98,0-14.74-23.78-.43-24.34,14.93-.58,14.96,24.34.43,24.34Z"/><path d="M619.08,218.42c-9.02,0-16.34,7.31-16.34,16.34s7.31,16.34,16.34,16.34,16.34-7.31,16.34-16.34-7.31-16.34-16.34-16.34ZM626.64,243.87c-4.6,4.48-12.72,3.81-16.38-1.58-5.82-8.59.31-22.05,11.56-19.14,8.82,2.28,10.77,14.92,4.81,20.72Z"/><path d="M448.93,218.99v31.5h5.25v-12.25h5.71l7.24,12.13,5.72.12-7.59-12.53c9.24-1.64,9.71-14.52,2.28-18.16-1.21-.59-2.58-.81-3.93-.81h-14.67ZM454.18,234.16v-11.08h9.04c2.05.04,3.08,1.79,3.49,2.34,2.24,3.06-.01,8.74-3.49,8.74h-9.04Z"/><path d="M429.02,218.46c-9.01,0-16.31,7.3-16.31,16.31s7.3,16.31,16.31,16.31,16.31-7.3,16.31-16.31-7.3-16.31-16.31-16.31ZM428.96,246.39c-6.43,0-11.64-5.21-11.64-11.64s5.21-11.64,11.64-11.64,11.64,5.21,11.64,11.64-5.21,11.64-11.64,11.64Z"/><path d="M591.46,220.85c-.1-.05-.25-.12-.44-.19-2.79-1.12-5.79-1.66-8.8-1.66h-10.78v31.5h10.78c3.01,0,6-.54,8.8-1.66.19-.08.35-.14.44-.19,10.53-5.4,10.42-22.45,0-27.79ZM583.39,246.4c-2.04.21-7.28.16-7.28.16v-23.53s5.96-.1,7.28.04c14.93,1.53,14.33,21.85,0,23.32Z"/><polygon points="526.52 231.53 526.52 232.41 509.02 232.41 509.02 218.99 504.35 218.99 504.35 250.49 509.02 250.49 509.02 236.49 526.52 236.49 526.52 250.49 531.19 250.49 531.19 218.99 526.52 218.99 526.52 231.53"/><path d="M747.89,228.91c-3.77-7.8,11.68-6.96,14.87-2.34l2.32-3.73c-5.57-6.64-21.97-6.25-22.74,4.03-.89,11.99,18.69,7.9,18.64,15.15-.05,7.03-13.78,5.3-16.58.31l-2.96,4.08c7.27,7.37,26.13,6.92,24.19-6.66-1.22-8.58-16.03-7.3-17.74-10.84Z"/><path d="M733.98,227.07l4.29-1.66c-10.48-15.59-33.63-3.48-28.17,14.47,3.83,12.6,21.25,15.69,28.17,4.21l-3.9-1.69c-1.17,1.17-1.93,2.16-3.74,3.09-6.58,3.36-14.14-.2-15.88-7.34-3.04-12.46,10.67-20.98,19.23-11.07Z"/><polygon points="475.18 223.08 485.1 223.08 485.1 250.49 490.35 250.49 490.64 224.53 490.64 223.95 490.64 223.08 499.68 223.08 499.68 218.99 475.18 218.99 475.18 223.08"/><polygon points="670.6 223.08 680.52 223.08 680.52 250.49 685.19 250.49 685.19 223.08 695.1 223.08 695.1 218.99 670.6 218.99 670.6 223.08"/><rect x="700.35" y="218.99" width="4.67" height="31.5"/><path d="M406.92,193.04l-13.99-4.96c7.64-.65,16.02-.83,21.96,4.87,2.44,2.35,4.99,6.97,5.78,10.26.14.59.77,1.91-.32,1.77-3.08-5.04-8.18-9.19-13.43-11.95ZM254.1,78.7c9.53-4.42,8.48-18.81-3.04-17.67-14.27,1.41-12.11,24.68,3.04,17.67ZM744.11,160.96c11.64-9.62,17.97-25.6,23.89-39.1-1.62-1.9-3.13-.62-4.31.92-2.18,2.83-4.6,10.04-6.65,13.77-4.79,8.73-12.78,20.31-21.87,24.79-10.57,5.21-21,2.91-22-10.29-.25-3.34,1.16-17.29,3.92-18.87,1.55-.89,9.46-1.99,12.3-2.87,11.31-3.52,23.26-11.11,29.02-21.73,4.26-7.85,6.66-18.12-3.97-21.72-9.11-3.08-20.04,2.59-27.2,8.05-19.48,14.85-22.93,39.27-37.14,57.94-8.53,11.21-20.58,16.73-15.57-3.91,3.71-15.27,14.09-29.03,19.7-43.3,1.44-3.65,2.51-7.07,2.05-11.08-10.71.37-21.38,1.83-32.09.58,8.11-5.97,16.68-16.05,11.19-26.64-1.85-3.57-6.33-6.07-10.01-3.38-3.04,2.22-5.36,17.91-6.59,22.57-4.68,17.67-22.34,64.81-38.51,73.5-6.32,3.4-10.81,1.01-10.93-6.28-.18-10.83,14.56-40.47,20.33-50.82,3.38-6.05,6.75-10.56,11.77-15.36h-14.29c-1.97,0-5.27,2.44-6.37,4.13-3.97,6.13-7.47,15.86-11.12,22.71-5.89,11.06-22.82,43.39-33.9,47.76-3.94,1.55-8.11-.99-8.85-5.03-1.71-9.38,8.4-27.67,12.78-36.53,4.79-9.69,9.47-19.58,16.27-28.07l5.23-4.98h-16.04c-1.22,0-4.88,1.87-5.74,3.07-11.93,19.03-21.87,51.93-39.16,66.36-7.16,5.97-18.31,7.23-18.39-4.97-.02-2.67,5.35-26.95,6.48-29.1,11.81-11.62,22.81-24.23,30.96-38.74,1.63-.94,11.19.61,14.06-.24,2.34-.69,1.75-4.55.7-4.55h-11.96c5.32-12.58,17.56-29.65,15.72-43.82-.78-6.01-6.35-9.48-12.01-7.31-16.39,6.3-26.52,36.86-34.92,51.13h-14.58c-1.36,1.13-1.31,3.62,0,4.67h12.54c-3.57,9.73-7.32,19.4-10.77,29.19-5.83,16.53-9.83,28.64-21.91,42.25-2.22,2.5-12.01,11.46-13.39,4.08-2.99-16.02,13.24-41.29,21.57-54.52-5.22-.45-9.76-2.41-14.8.07-5.3,2.61-11.54,17.49-14.85,23.07-5.61,9.45-11.38,19.1-19.24,26.81-1.35,1.33-2.82,2.53-4.39,3.6l-1.81,1.24c-1.05.72-2.2,1.3-3.44,1.63-2.21.59-5.35.67-7.31-2.55-6.32-10.45,9.42-34.78,15.77-43.56,7.44-10.29,30.7-37.15,42.58-19.46,1.06,1.58.5,3.46,2.97,2.61,4.17-1.43,1.63-5.42-.44-7.48-12.67-12.59-36-4.14-47.57,6.13-18.46,16.38-20.9,39.86-36.44,57.47-9.57,10.84-20.89,13.55-16.21-5.71,4.92-20.27,18.24-37.45,26.44-55.81.31-.69.78-1.15.55-2.07-8.44,0-16.96,4.66-24.09,8.86-14.57,8.56-26.62,20.4-36.86,33.73-.77-.56.06-1.92.35-2.57,3.82-8.31,9.86-18.84,14.86-26.55,3.01-4.63,6.68-10.65,11.32-13.47l-7.29-1.15c-8.02-.27-9.15.7-13.22,7.18-7.72,12.31-13.56,26.11-20.8,38.7-5.97,10.39-13.02,20.54-23.72,26.45l3.03-14.47c2.05-12.84,1.75-25.99.11-38.87-.06-.5-.34-2.05-.89-2.13-3.79.95-8.52.53-11.31,3.82-2.33,2.74-4.37,10.78-6.29,14.71-4.75,9.71-19.69,32.14-30.43,34.9-8.03,2.07-11.82-3.71-11.62-11.04.46-17.52,30.83-58.76,49.81-59.3,8.16-.24,8.17,5.27,11.48,10.15,3.43,5.05,6.01-.86,4.89-4.31-2.22-6.89-19.85-10.92-26.27-10.46-35.91,2.59-44.21,46.67-62.73,69.1-3.79,4.59-10.81,11.05-17.11,7.22-5.42-3.3-1.83-13.19-.08-17.99,5.7-15.63,15.17-31.71,20.4-47.27.56-1.68,1.89-4.43-.04-5.78-3.59-2.52-13.39-.42-17.75-.62,1.58,2.87,3.06,5.44,2.19,8.9-4.53,13.61-11.98,27.39-16.21,40.95-4.12,13.18-1.8,29.4,15.47,27.72,10.51-1.02,19.8-14.2,24.5-22.74,1.08.45.17,3.46.36,4.88,1.6,12.06,10.43,20.74,23.01,16.73,12.97-4.13,27.11-27.3,32.93-39.12,1.41-.19.92,0,1.22.81,1.46,3.91-.06,17.4-.72,22.16-.98,7.09-2.79,14.54-5.33,21.22-14.81,5.63-30.08,9.96-44.58,16.38-13.47,5.96-35.8,16.53-37.45,33.13-1.13,11.4,4.86,18.61,16.13,19.89,33.2,3.76,62.32-31.06,75.3-57.96,1.16-2.4,4.3-11.67,5.35-12.74.84-.86,5.16-3.28,6.82-4.38,1.58-1.05,5.63-4.38,6.29-4.67.71-.31,1.1.13.86.86l-3.49,6.71c3.56-.99,14.99-2.51,14.99-2.51,0,0,5.44-10.28,7.08-13.04,8.23-13.91,22.85-35.39,36.9-43.6,3.21-1.87,10.02-3.94,9.05,2-.63,3.86-8.85,15.23-11.16,19.81-5.43,10.79-13.1,31.85,3.78,36.5,14.33,3.94,23.81-10.96,30.24-21.14.39-.62.63-1.49,1.57-1.35-1.08,7.91.97,19.06,9.63,21.87,6.49,2.11,12.52-1.48,17.51-5.89,2.93-2.59,5.53-5.54,7.87-8.69l10.2-13.71c-1.37,7.71-3.98,17.28,1.19,24.2,1.28,1.72,3.03,3.08,5.01,3.9,13.89,5.77,25.36-16.48,32.31-25.77v13.13c0,3.19,4.84,9.34,7.63,11.04,15.85,9.62,30.06-9.63,37-21.26.44-.74-.12-1.48,1.45-1.15-3.41,8.06-3.49,19.9,6.26,23.2,14.06,4.77,23.52-7.26,30.97-17.19l6.52-10.1c-1.58,8.79-4.07,24.06,7.01,27.7,10.99,3.61,20.31-6.11,26.14-14.1,11.35-15.56,18.7-34.61,25.26-52.62,8.11-.17,23.03.37,17.75,12.2-6.39,14.33-23.8,32.75-14.41,49.37,2.94,5.2,6.73,6.66,12.67,6.06,9.84-.99,19.6-16.5,25.06-23.94-.91,25.85,26.41,31.8,44.05,17.21ZM737.09,100.27c2.78-2.96,17.49-17.23,18.7-6.41,1.86,16.66-22.05,33.8-37.34,34.14,4.63-9.81,11.21-19.8,18.65-27.72ZM549.75,69.26c3.04-6.74,13.29-29.1,19.14-32.19,6.26-3.3,2.88,9.9,2.11,12.61-2.86,10.12-8.96,21.02-14.44,29.89h-10.79c-.61-.58,3.37-8.95,3.98-10.31ZM542.85,84.24h11.08l-9.68,15.12c-4.4,5.09-8,11.04-13.36,15.22l11.95-30.34ZM291.68,204.94c-9.56,12.43-20.73,23.47-35.68,29.08-15.25,5.72-30.24,3.36-21.07-16.4,5.84-12.6,21.26-19.63,33.36-24.98,12.64-5.58,25.89-9.85,38.89-14.48-3.93,9.52-9.23,18.62-15.5,26.78ZM285.12,282.97c-59.93,11.09-124.63-12.4-163.43-59.04-1.17-1.41-11.37-14.62-10.52-15.44,50.35-4.73,136.57-73.97,63.01-115.23-15.9-8.92-34.96-15.02-50.13-24.53-35.51-22.26-11.66-48.37,18.04-57.7,19.33-6.07,47.99-10.13,62.71,7.28,7.24,8.56,7.79,23.71-3.98,28.12-2.09.78-13.59,1.66-10.65,5.76,1.28,1.79,11.56-2.45,13.56-3.44,20.9-10.29,18.39-34-1.92-43.2-30.35-13.75-103.72-2.16-112.06,36.55-11.53,53.5,108.12,42.91,93.47,103.38-7.89,32.55-44.63,52.69-75.58,57.45-13.27-19.79-14.91-43.45-21.13-65.74-4.24-15.2-14.52-46.41-30.76-52.07-13.73-4.78-32.68,12.51-40.13,22.85-35.23,48.86-7.28,93.67,48.11,101.59,11.52,1.65,22.94,1.37,34.52.78,22.45,42.98,67.38,73.9,114.42,84.2,73.08,16.01,139.78-14.56,181.9-74.2,5.25-7.44,10.17-15.31,14.1-23.52-30.15,42.07-71.32,76.49-123.56,86.15ZM20.29,178.34c-17.32-26.58-1.52-72.49,23.86-89.09,5.92-3.87,8.83-3.71,14.25.81,21.25,17.69,21.66,73.95,30.6,100.07,1.73,5.05,4.28,9.87,5.84,14.86-25.72.55-59.26-3.16-74.56-26.65ZM251.69,254.28v4.54s.08,0,.11,0h.34v-4.54h3.51v4.54h2.65c10.92,0,24.53-2.01,32.08-3.69v-5.78l3.51-1.27v6.18c.16-.05.31-.09.46-.14v-6.18l3.51-1.41v6.34l6.41-1.78c13.64-3.43,26.59-9.12,39.09-15.44l20.99-12.55c-16.65,16.59-37.26,29.45-59.48,37.36l-7.01,2.66v3.84l-3.51,1.27v-4.22c-.15.04-.3.07-.46.11v4.25l-3.51,1.41v-4.84c-9.69,2.31-19.49,4.65-29.5,4.82h-5.24s0,4.96,0,4.96h-3.51v-4.97c-.15,0-.3-.01-.46-.01v4.99h-3.51v-5.09c-10.86-.43-21.65-1.72-32.29-3.98l-2.45-.66v4.8l-3.51-1.27v-4.48l-.46-.12v4.46l-3.51-1.41v-4.01c-21.87-6.52-42.21-17.53-59.8-31.99.41-.84,1.43.11,1.95.38,6.76,3.42,13.24,7.12,20.23,10.1,12.14,5.18,24.77,9.11,37.61,12.18v-5.68l3.51.71v5.83l.46.11v-5.81l3.51.71v5.85l2.03.39c10.61,1.41,21.92,2.84,32.7,3.05v-4.5h3.51Z" style="fill:url(#radial-gradient);"/></svg>