<?xml version="1.0" encoding="UTF-8"?><svg id="Layer_1" xmlns="http://www.w3.org/2000/svg" xmlns:xlink="http://www.w3.org/1999/xlink" viewBox="0 0 766.77 368.96"><defs><linearGradient id="linear-gradient" x1="601.29" y1="308" x2="601.29" y2="0" gradientUnits="userSpaceOnUse"><stop offset="0" stop-color="#bd8b1a"/><stop offset="1" stop-color="#65950a"/></linearGradient></defs><line x1="282.93" y1="352.28" x2="6.41" y2="352.28" style="fill:none; stroke:#000; stroke-miterlimit:10; stroke-width:.75px;"/><path d="M592.54,296.61c-.42-2.31-5-8.59-6.77-10.53-16.86-18.46-40.17-37.5-58.51-55.47-36.68-35.92-95.79-91.44-91.21-146.92,6.7-81.25,100.37-113.35,155.32-50.7,2.11,2.41,8.4,12.9,10.93,12.63,2.92-4.29,6.04-8.75,9.49-12.64,41.34-46.42,111.45-44.97,142.66,11.5,39.82,72.05-25.69,132.79-72.28,179.82-20.41,20.59-41.41,40.95-62.88,60.53-8.7,7.93-17.56,15.85-26.75,23.17-.43-3.47.59-8.12,0-11.39Z" style="fill:url(#linear-gradient);"/><path d="M56.36,154.24c-.74,1.12-2.14,4.37-4.56,10.14l-19.25,46.87-7.07,1.21-16.74-47.25c-2.33-6.42-4-10.42-4.37-11.07C3.81,153.31,2.6,151.45,0,151.54v-1.67c2.7.19,8.93.37,11.63.37s9.76-.19,12.46-.37v1.67c-2.23,0-3.63.46-4.37,1.12-.56.46-.84,1.21-.84,2.05,0,1.12.46,2.7,1.39,5.3l10.14,29.2c1.95,5.67,2.6,8.37,2.6,8.37,0,0,1.02-3.07,3.07-8.56l10.79-29.11c.93-2.6,1.49-4.09,1.49-5.3,0-.84-.19-1.49-.74-1.95-1.02-1.02-2.98-1.02-4.28-1.12v-1.67c3.25.19,5.58.37,8.93.37,2.98,0,5.67-.09,8.65-.37v1.67c-2.6-.09-4,1.86-4.56,2.7Z" style="fill:#bd8b1a;"/><path d="M84.54,153.59c-1.58,1.77-1.67,4.37-1.67,12.37v31.99c0,5.86.28,7.91,1.21,9.3.74,1.02,2.23,2.14,4.74,2.33v1.67c-3.63-.19-9.3-.37-12.56-.37s-8.83.19-12.46.37v-1.67c1.21,0,3.16-.46,4.56-2.05,1.58-1.77,1.67-4.37,1.67-12.37v-31.99c0-5.86-.28-7.91-1.21-9.3-.74-1.02-2.23-2.14-4.74-2.33v-1.67c3.63.19,9.3.37,12.55.37s8.84-.19,12.46-.37v1.67c-1.21,0-3.16.46-4.56,2.05Z" style="fill:#bd8b1a;"/><path d="M148.33,211.53c-9.67,0-12-3.91-15.25-7.91-2.05-2.6-9.02-11.62-13.58-18.32h-3.91v12.65c0,5.86.28,7.91,1.21,9.3.74,1.02,2.23,2.14,4.74,2.33v1.67c-3.63-.19-8.93-.37-12.18-.37s-8.74.19-12.37.37v-1.67c1.21,0,3.16-.46,4.56-2.05,1.58-1.77,1.67-4.37,1.67-12.37v-31.99c0-5.86-.28-7.91-1.21-9.3-.74-1.02-2.23-2.14-4.74-2.33v-1.67c3.63.19,6.79.28,10.04.28,6.7,0,8.28-.28,14.23-.28,2.14,0,6.88,0,10.6.93,11.07,2.79,12.37,11.07,12.37,14.79,0,4.84-1.67,13.58-13.58,16.93,0,0,10.32,11.9,15.81,18.23,4.56,5.12,7.72,8.65,11.63,8.83v1.58s-2.14.37-10.04.37ZM119.6,153.5c-1.95,0-4,.28-4,.28v27.53s2.14.19,4.37.19c1.3,0,2.6-.09,3.63-.37,1.3-.37,7.44-1.49,7.44-14.14s-7.81-13.49-11.44-13.49Z" style="fill:#bd8b1a;"/><path d="M212.32,188.65c-1.58,1.77-1.67,4.37-1.67,12.37v8.46c-5.21,1.67-14.04,2.14-17.76,2.14-11.35,0-20.74-2.7-26.79-8.83-4.65-4.74-7.25-11.62-7.25-20.83,0-7.91,2.14-17.21,10.32-24.37,4.28-3.72,11.62-8.18,26.04-8.18,8.28,0,15.44,1.02,15.72,1.02-.19,1.77-.19,3.91-.19,5.77,0,2.42.09,4.74.19,5.95h-1.95c0-2.42-1.02-4.19-2.51-5.39-2.98-2.6-7.91-2.88-12.56-2.88-9.95,0-21.11,3.53-21.11,27.06,0,25.11,13.76,26.51,21.48,26.51,1.95,0,3.07-.09,3.72-.19v-9.02c0-5.86-.28-7.91-1.21-9.3-.74-1.02-2.23-2.14-4.74-2.33v-1.67c3.63.19,9.21.37,12.46.37s8.74-.19,12.37-.37v1.67c-1.21,0-3.16.47-4.56,2.05Z" style="fill:#bd8b1a;"/><path d="M244.12,153.59c-1.58,1.77-1.67,4.37-1.67,12.37v31.99c0,5.86.28,7.91,1.21,9.3.74,1.02,2.23,2.14,4.74,2.33v1.67c-3.63-.19-9.3-.37-12.56-.37s-8.83.19-12.46.37v-1.67c1.21,0,3.16-.46,4.56-2.05,1.58-1.77,1.67-4.37,1.67-12.37v-31.99c0-5.86-.28-7.91-1.21-9.3-.74-1.02-2.23-2.14-4.74-2.33v-1.67c3.63.19,9.3.37,12.55.37s8.84-.19,12.46-.37v1.67c-1.21,0-3.16.46-4.56,2.05Z" style="fill:#bd8b1a;"/><path d="M313.22,153.59c-1.58,1.77-1.67,4.37-1.67,12.37v45.57h-5.21l-35.43-47.06c-1.58-2.05-2.23-3.53-2.23-3.53v37.01c0,5.86.28,7.91,1.21,9.3.74,1.02,2.23,2.14,4.74,2.33v1.67c-3.63-.19-5.49-.37-8.74-.37s-5.3,0-9.3.37v-1.67c1.21,0,3.16-.46,4.56-2.05,1.58-1.77,1.67-4.37,1.67-12.37v-31.99c0-5.86-.28-7.91-1.21-9.3-.74-1.02-2.23-2.14-4.74-2.33v-1.67c3.63.19,7.53.37,10.79.37,1.39,0,5.58-.19,8.09-.37l26.97,35.9c2.33,3.16,2.98,4.56,2.98,4.56v-27.16c0-5.86-.28-7.91-1.21-9.3-.74-1.02-2.23-2.14-4.74-2.33v-1.67c3.63.19,5.86.37,9.11.37s4.93,0,8.93-.37v1.67c-1.21,0-3.16.46-4.56,2.05Z" style="fill:#bd8b1a;"/><path d="M345.03,153.59c-1.58,1.77-1.67,4.37-1.67,12.37v31.99c0,5.86.28,7.91,1.21,9.3.74,1.02,2.23,2.14,4.74,2.33v1.67c-3.63-.19-9.3-.37-12.56-.37s-8.83.19-12.46.37v-1.67c1.21,0,3.16-.46,4.56-2.05,1.58-1.77,1.67-4.37,1.67-12.37v-31.99c0-5.86-.28-7.91-1.21-9.3-.74-1.02-2.23-2.14-4.74-2.33v-1.67c3.63.19,9.3.37,12.55.37s8.84-.19,12.46-.37v1.67c-1.21,0-3.16.46-4.56,2.05Z" style="fill:#bd8b1a;"/><path d="M400.08,210.88c-2.79,0-9.67.19-12.37.37v-1.67c2.23,0,3.63-.46,4.37-1.12.56-.46.84-1.21.84-2.05,0-1.12-.46-2.7-1.39-5.3l-4.46-12.83h-17.39l-4.74,12.93c-.93,2.6-1.49,4.09-1.49,5.3,0,.84.19,1.49.74,1.95,1.02,1.02,2.98,1.02,4.28,1.12v1.67c-3.26-.19-5.49-.37-8.84-.37-2.98,0-5.67.09-8.65.37v-1.67c2.6.09,4-1.86,4.56-2.7.74-1.12,2.14-4.37,4.56-10.14l19.34-46.87,6.79-1.21,16.74,47.25c2.33,6.42,4,10.42,4.37,11.07.56.84,1.77,2.7,4.37,2.6v1.67c-2.7-.19-8.93-.37-11.63-.37ZM381.39,171.72c-2.05-5.86-2.51-8.37-2.51-8.37l-7.72,20.83h14.51l-4.28-12.46Z" style="fill:#bd8b1a;"/><path d="M8.68,243.65c.73,0,5.91-.08,7.78-.32,1.7-.24,4.62-.65,7.13-.65,8.18,0,15.63,3.89,15.63,13.2,0,3.08-2.02,5.99-3.16,7.05-1.46,1.13-3.08,2.27-4.7,2.92-.49.24-.16.49.08.65,3.56,1.46,5.26,2.67,7.21,4.21,2.59,2.19,4.29,5.75,4.29,9.88,0,6.4-3.4,10.45-8.91,12.96-1.62.73-4.62,1.7-9.15,1.7-1.38,0-2.43.08-5.59-.08-3.16-.16-5.1-.16-6.8-.16h-4.29c-1.38,0-1.78-.32-1.78-.57,0-.4.65-.57,1.3-.65,3.4-.41,4.45-1.7,4.7-4.62.24-2.27.24-13.93.24-22.92,0-4.13-.08-14.09-.24-17.25-.16-2.83-.73-3.64-3.97-4.21-.97-.16-1.13-.49-1.13-.65,0-.32.57-.49,1.38-.49ZM34.44,272.48c-3.73-4.62-6.16-5.18-12.39-5.18-1.86,0-3.24.08-4.05.16-.41.08-.65.65-.73,1.05-.24,1.62,0,12.55.24,15.07.41,4.21.73,6.16,1.13,6.96.65,1.3,2.75,3.4,7.78,3.4,1.3,0,3.24-.32,5.18-1.38,2.67-1.54,5.75-4.29,5.75-11.18,0-2.59-.81-6.48-2.92-8.91ZM21.64,244.06c-1.38,0-3,.16-3.4.32-.32.08-.81,1.05-.81,1.3-.16,1.38-.16,11.34-.16,18.63,0,.32.16,1.3.65,1.3,1.21.24,5.02.32,5.99.24,4.29-.32,10.12-3.81,10.12-9.8,0-7.61-4.94-11.99-12.39-11.99Z" style="fill:#bd8b1a;"/><path d="M54.85,243.33c2.27,0,3.81.32,6.32.32,2.27,0,4.54-.32,6.32-.32.57,0,1.13.16,1.13.32,0,.32-.32.65-1.21.73-3.16.57-3.48,1.62-3.64,5.02-.24,4.29-.16,13.69-.16,18.95,0,11.91.24,18.95.4,21.22.24,3.08.65,3.48,3.08,4.13,1.13.24,1.38.49,1.38.81,0,.41-.57.49-1.54.49-.73,0-3.08-.24-5.02-.24-3.48,0-5.91.41-7.37.41-.73,0-1.21-.16-1.21-.57,0-.24.49-.49,1.86-.81,3-.65,3.4-1.94,3.48-6.8.16-4.62.08-27.62.08-31.91,0-3.97-.24-5.83-.4-7.05-.24-2.67-.97-3-3.81-3.64-.57-.16-.89-.32-.89-.65,0-.24.41-.4,1.22-.4Z" style="fill:#bd8b1a;"/><path d="M132.44,269.81c0,13.12-8.91,21.22-15.15,23.97-3.24,1.46-6.88,2.43-10.45,2.43-14.42,0-26.4-12.88-26.4-27.7,0-8.1,2.67-15.23,10.45-21.14,4.13-3.24,10.45-5.18,15.63-5.18,13.69,0,25.92,12.55,25.92,27.62ZM92.19,249.48c-4.54,5.26-6.07,12.8-6.07,19.11,0,5.75,2.43,12.39,5.91,17.09,5.51,7.37,11.66,8.99,16.28,8.99,3.16,0,5.99-.89,8.75-2.92,4.45-3.32,9.8-10.85,9.8-21.87,0-6.88-2.75-14.5-7.61-20-3.16-3.56-7.61-6.48-14.34-6.48-4.54,0-9.96,2.92-12.72,6.07Z" style="fill:#bd8b1a;"/><path d="M145,243.33c2.43,0,4.86.32,6.8.32,2.11,0,4.54-.32,5.91-.32.97,0,1.3.24,1.3.4,0,.32-.32.57-.97.73-3.56.73-3.65,1.21-3.97,7.05-.08,1.38-.08,8.34-.08,15.71,0,7.94.08,16.28.16,17.82.24,3.32.4,5.67,1.13,6.56.89,1.13,3.08,2.03,10.04,2.03,4.29,0,6.4-.16,7.61-.41,1.86-.32,3.4-2.02,5.02-5.02.41-.73.89-1.13,1.21-1.13s.16,1.13-.16,2.02c-.24.73-1.62,4.86-2.02,5.43-.49.65-1.05.81-1.38.81-.81,0-7.13,0-11.1-.16-4.13-.24-10.21-.41-12.64-.41s-5.99.41-7.05.41c-.97,0-1.62-.16-1.62-.57,0-.32.73-.57,1.38-.65,3.64-.65,4.05-1.86,4.29-4.29.32-3.32.32-8.67.32-19.92s-.08-16.77-.24-19.36c-.24-4.78-.41-5.26-4.13-5.91-.89-.16-1.13-.41-1.13-.73,0-.16.4-.4,1.3-.4Z" style="fill:#bd8b1a;"/><path d="M238.23,269.81c0,13.12-8.91,21.22-15.15,23.97-3.24,1.46-6.88,2.43-10.45,2.43-14.42,0-26.4-12.88-26.4-27.7,0-8.1,2.67-15.23,10.45-21.14,4.13-3.24,10.45-5.18,15.63-5.18,13.69,0,25.92,12.55,25.92,27.62ZM197.97,249.48c-4.54,5.26-6.07,12.8-6.07,19.11,0,5.75,2.43,12.39,5.91,17.09,5.51,7.37,11.66,8.99,16.28,8.99,3.16,0,5.99-.89,8.75-2.92,4.45-3.32,9.8-10.85,9.8-21.87,0-6.88-2.75-14.5-7.61-20-3.16-3.56-7.61-6.48-14.34-6.48-4.54,0-9.96,2.92-12.72,6.07Z" style="fill:#bd8b1a;"/><path d="M289.66,243.73c1.94.57,4.7,1.62,5.51,2.03.49.24.81,1.05.81,1.94,0,.49.49,3.56.65,4.54.24,1.05-.08,1.54-.32,1.54-.4,0-.49-.16-.97-1.3-2.43-5.83-6.97-9.07-15.55-9.07-6.16,0-12.15,2.67-15.88,6.64-3.89,4.21-6.96,10.77-6.96,19.68,0,9.56,5.51,16.93,9.8,20.41,3.89,3.08,8.83,4.78,13.2,4.78s8.1-1.7,10.12-3.73c1.05-1.21,1.05-2.51,1.21-4.46.16-1.62.32-6.56.08-9.07-.24-2.83-1.21-3.73-4.78-4.21-.81-.08-1.38-.32-1.38-.65,0-.24.32-.57,1.94-.49,1.3,0,3.4.24,6.24.24s4.05-.16,4.7-.16c.73,0,1.3.16,1.3.49,0,.41-.97.65-1.54.81-1.13.24-1.62.81-1.62,5.1,0,3.4.41,9.23.41,10.37,0,1.05.08,1.62-.57,1.94-.65.32-2.02,1.05-3.81,1.94-3.64,1.7-7.53,3.16-11.99,3.16-8.83,0-15.39-3-20.57-7.61-5.67-4.78-8.67-11.42-8.67-19.36,0-8.34,3.24-15.39,10.85-21.22,3.73-2.75,8.58-5.83,18.79-5.83,3.97,0,7.13,1.13,8.99,1.54Z" style="fill:#bd8b1a;"/><path d="M311.62,243.33c2.27,0,3.81.32,6.32.32,2.27,0,4.54-.32,6.32-.32.57,0,1.13.16,1.13.32,0,.32-.32.65-1.21.73-3.16.57-3.48,1.62-3.64,5.02-.24,4.29-.16,13.69-.16,18.95,0,11.91.24,18.95.4,21.22.24,3.08.65,3.48,3.08,4.13,1.13.24,1.38.49,1.38.81,0,.41-.57.49-1.54.49-.73,0-3.08-.24-5.02-.24-3.48,0-5.91.41-7.37.41-.73,0-1.21-.16-1.21-.57,0-.24.49-.49,1.86-.81,3-.65,3.4-1.94,3.48-6.8.16-4.62.08-27.62.08-31.91,0-3.97-.24-5.83-.4-7.05-.24-2.67-.97-3-3.81-3.64-.57-.16-.89-.32-.89-.65,0-.24.41-.4,1.22-.4Z" style="fill:#bd8b1a;"/><path d="M380.78,246.49c.49.32.73.89.73,1.3-.24,1.94.16,5.18.16,6.08,0,.73-.24,1.3-.49,1.3-.32,0-.57-.49-.73-1.05-.65-2.75-2.43-5.35-3.81-6.48-3-2.83-8.1-4.21-12.64-4.21-7.29,0-11.91,3.48-15.06,6.8-3.08,3.32-5.99,10.61-5.99,18.55s3.64,15.39,7.69,19.76c4.05,4.29,9.88,5.99,14.34,5.99s7.53-.81,9.8-2.19c3.16-1.86,5.18-4.7,6.32-8.1.32-1.13.57-1.46.81-1.46.32,0,.49.65.49,1.21,0,1.38-.97,5.67-1.13,6.64-.08.32-.32.65-.65.89-4.86,2.83-9.48,4.7-15.96,4.7-9.56,0-15.55-3.56-20.73-8.83-3.24-3.32-6.72-10.93-6.72-17.74,0-9.8,3.97-16.12,9.15-20.82,4.21-3.81,11.18-6.64,18.3-6.64,6.64,0,13.53,2.75,16.12,4.29Z" style="fill:#bd8b1a;"/><path d="M417.15,243.08c.32,2.11,1.13,4.13,2.27,6.97,6.24,16.68,9.64,24.78,15.06,37.42,2.11,5.02,2.83,5.75,4.94,6.24.89.16,1.38.49,1.38.73,0,.41-.73.57-1.46.57-1.3,0-2.19-.24-6.56-.24-2.19,0-5.59.32-7.29.32-.81,0-1.3-.24-1.3-.57s.81-.65,1.54-.73c3.64-.49,3.73-2.11,3.73-3.64,0-.97-2.92-8.42-5.91-16.28-.24-.49-.73-.97-.97-.97-3,.24-14.09.16-15.88.24-.24,0-.89,1.05-1.13,1.62-.73,1.62-3.16,7.78-4.46,12.15-.97,3.32-.89,4.78,0,5.67.65.65,1.78.97,3.32,1.3.81.16,1.21.49,1.21.73,0,.41-.73.57-1.54.57-1.54,0-5.02-.41-8.02-.41-2.02,0-3.4.41-5.1.41-.89,0-1.38-.16-1.38-.57s.81-.57,1.62-.73c3.73-.73,4.21-1.3,7.37-8.18,2.19-4.62,9.48-22.68,14.5-35.15.41-1.05.49-1.62.49-2.35,0-.32.16-.81.24-.89.49-.57,1.94-2.03,2.27-4.05.08-.32.16-.81.49-.81.24,0,.41.16.57.65ZM421.77,269.57c-3.64-10.21-5.59-14.5-6.96-17.82-.24-.57-.41-.32-.65.24-2.27,5.51-5.51,14.5-6.64,17.9-.08,0-.16.73.24.73,1.3.08,3.4.08,6.48.08,2.75,0,6.56,0,7.53-.32.16-.08.08-.49,0-.81Z" style="fill:#bd8b1a;"/><path d="M450.77,243.33c2.43,0,4.86.32,6.8.32,2.11,0,4.54-.32,5.91-.32.97,0,1.3.24,1.3.4,0,.32-.32.57-.97.73-3.56.73-3.65,1.21-3.97,7.05-.08,1.38-.08,8.34-.08,15.71,0,7.94.08,16.28.16,17.82.24,3.32.4,5.67,1.13,6.56.89,1.13,3.08,2.03,10.04,2.03,4.29,0,6.4-.16,7.61-.41,1.86-.32,3.4-2.02,5.02-5.02.41-.73.89-1.13,1.21-1.13s.16,1.13-.16,2.02c-.24.73-1.62,4.86-2.02,5.43-.49.65-1.05.81-1.38.81-.81,0-7.13,0-11.1-.16-4.13-.24-10.21-.41-12.64-.41s-5.99.41-7.05.41c-.97,0-1.62-.16-1.62-.57,0-.32.73-.57,1.38-.65,3.64-.65,4.05-1.86,4.29-4.29.32-3.32.32-8.67.32-19.92s-.08-16.77-.24-19.36c-.24-4.78-.41-5.26-4.13-5.91-.89-.16-1.13-.41-1.13-.73,0-.16.4-.4,1.3-.4Z" style="fill:#bd8b1a;"/><path d="M310.69,335.81c2.19,0,4.44,0,6.53-.2,1.38-.15,3.06-.36,4.08-.36,3.88,0,7.6.66,11.12,2.75,4.18,2.6,7.75,6.99,7.75,13.77,0,10-6.94,14.79-13.31,16.42-1.07.31-3.01.41-4.44.41-1.12,0-2.35-.1-3.77-.2-1.53-.1-2.96-.26-4.44-.26-1.38,0-2.91.1-3.47.1s-.97-.15-.97-.41c0-.15.25-.31.87-.36,1.79-.26,2.24-.77,2.35-2.75.1-1.22.15-7.14.15-9.89,0-9.08-.15-14.07-.25-15.66-.1-1.73-.31-2.29-2.35-2.7-.51-.05-.61-.2-.61-.41,0-.15.31-.25.77-.25ZM316.76,336.63c-.15.05-.56.41-.56,1.38-.05,1.79-.1,3.31-.1,12.7,0,5.61.15,8.52.31,11.07.2,2.96.46,3.98,1.73,4.95.71.56,2.29,1.12,4.49,1.12,2.65,0,4.59-.46,6.12-1.27,3.26-1.68,7.8-5.3,7.8-13.92,0-4.84-1.48-9.08-4.64-12.09-2.7-2.55-6.02-4.44-11.32-4.44-1.58,0-3.31.31-3.82.51Z" style="fill:#65950a;"/><path d="M369.98,335.71c1.17,0,2.29.15,3.93.15,2.29,0,9.69-.1,11.73-.1,1.89,0,2.5-.1,3.06-.1.2,0,.36.25.46.87.05.61.1,2.09.36,3.26.05.31,0,.76-.2.76-.15,0-.25-.15-.51-.71-.97-2.29-1.73-2.8-2.65-2.96-1.38-.25-9.08-.25-10.2-.15-.41.05-.61.15-.61,1.89v11.88c0,.76.15.92.31.92h6.94c2.6,0,3.01-.1,3.42-.36.36-.15.82-.76,1.33-1.78.2-.41.36-.56.51-.56s.26.2.26.56c0,.31-.2,1.63-.31,2.55-.1,1.02.05,2.45.1,2.75.15.77-.2,1.07-.31,1.07-.2,0-.25-.25-.61-1.12-.15-.46-.51-1.27-1.22-1.53-1.07-.31-2.6-.36-9.94-.36-.46,0-.46.05-.46,1.17,0,2.55.15,9.54.15,10.5,0,.56.36,1.84,1.38,2.35.87.46,1.58.56,5.25.56,4.9,0,5.56-.15,6.48-.97.46-.41,1.27-1.63,1.78-2.35.51-.71.71-.92.92-.92s.25.31.05.92c-.41,1.38-.82,3.16-1.12,3.77-.15.31-.36.56-.66.56-5.41,0-11.22-.2-15.4-.2-1.68,0-4.33.25-4.9.25-.61,0-.92-.15-.92-.36s.36-.31.92-.41c1.84-.31,2.8-1.02,2.86-3.26.2-8.26.25-13.21.25-23.81,0-3.01-.56-3.62-2.4-4.03-.51-.1-.71-.25-.71-.46,0-.1.31-.25.71-.25Z" style="fill:#65950a;"/><path d="M418.92,335.61c1.07,0,3.47.25,5.3.25.25,0,.46.2,1.17,1.12,3.31,4.28,17.24,20.04,22.18,25.55.05.05.31.15.31-.41,0-2.04-.2-17.08-.25-21.72,0-3.06-1.02-3.52-2.6-3.93-.61-.15-.97-.25-.97-.46,0-.25.46-.31,1.02-.31.92,0,2.24.15,3.42.15,1.53,0,2.65-.15,3.21-.15.51,0,.82.05.82.25,0,.26-.46.36-.87.51-1.99.66-2.04,1.73-2.24,3.06-.2,1.53-.31,12.95-.31,17.75s-.1,7.5,0,10.2c.05,1.02,0,1.48-.36,1.48-.2,0-.76-.56-1.68-1.68-3.21-3.93-16.17-18.77-23.3-27.13-.25-.31-.41-.25-.41.1,0,2.04-.15,19.02-.15,21.21s.15,3.47.56,4.33c.41.92,1.79,1.43,2.5,1.63.56.15.92.25.92.56,0,.25-.46.31-.97.31-.87,0-2.24-.25-3.88-.25s-3.16.25-3.52.25c-.76,0-.87-.15-.87-.31,0-.25.41-.36.97-.51,1.99-.56,2.45-1.07,2.7-4.03.15-1.84.56-19.17.56-22.34s-.46-3.37-.92-3.72c-.66-.51-1.27-.77-2.5-.97-.71-.1-.97-.2-.97-.46,0-.2.25-.36,1.12-.36Z" style="fill:#65950a;"/><path d="M488.16,367.43c2.4-.31,2.7-1.17,2.86-3.52.36-4.84.36-25.29.25-26.06-.05-.46-.2-.61-.36-.66-.31-.05-1.48-.15-3.82-.15s-3.57.1-4.74.25c-.92.15-1.53.76-2.24,2.75-.2.51-.51.82-.66.82-.2,0-.2-.46-.15-.76.25-1.48.71-3.01.71-4.28,0-.46,0-.66.2-.77.1-.05.31.05.41.2.2.25,1.02.46,1.68.51.87.05,5.71.1,10.96.1,3.88,0,8.11,0,9.59-.05,1.38-.05,2.35-.1,3.21-.56.2-.15.36-.15.41-.05.05.15.05.25,0,.61-.15.61-.15,1.84-.15,3.67,0,.76-.2,1.17-.41,1.17s-.31-.46-.36-.77c-.1-.92-.46-1.89-.87-2.29-.46-.41-1.02-.51-5.05-.51-1.38,0-4.08,0-4.95.1-.25.05-.31.41-.31.71,0,1.84-.05,13.41-.05,15.45,0,2.91.15,9.84.31,11.42.2,1.89.71,2.19,2.4,2.7.61.15.87.25.87.51,0,.31-.36.36-1.02.36-1.22,0-2.45-.31-4.28-.31-2.24,0-3.77.31-4.59.31-.66,0-.92-.2-.92-.46,0-.2.51-.36,1.07-.46Z" style="fill:#65950a;"/><path d="M535.01,335.66c1.43,0,2.4.2,3.98.2,1.43,0,2.86-.2,3.98-.2.36,0,.71.1.71.2,0,.2-.2.41-.76.46-1.99.36-2.19,1.02-2.29,3.16-.15,2.7-.1,8.62-.1,11.93,0,7.5.15,11.93.25,13.36.15,1.94.41,2.19,1.94,2.6.71.15.87.31.87.51,0,.25-.36.31-.97.31-.46,0-1.94-.15-3.16-.15-2.19,0-3.72.25-4.64.25-.46,0-.76-.1-.76-.36,0-.15.31-.31,1.17-.51,1.89-.41,2.14-1.22,2.19-4.28.1-2.91.05-17.39.05-20.09,0-2.5-.15-3.67-.25-4.44-.15-1.68-.61-1.89-2.4-2.29-.36-.1-.56-.2-.56-.41,0-.15.25-.25.76-.25Z" style="fill:#65950a;"/><path d="M588.64,335.81c.25.1.36.41.36.56,0,1.38.15,2.8.2,3.31.1.71-.1,1.02-.26,1.02-.2,0-.36-.2-.46-.77-.31-1.33-.87-2.4-1.84-3.01-1.17-.87-2.86-1.22-4.18-1.22-2.35,0-6.02,2.24-6.02,6.58,0,3.06,2.09,4.95,3.82,6.12,2.09,1.38,3.72,2.6,5.3,3.77,1.84,1.33,4.59,3.62,4.59,7.8,0,5.56-5.25,8.98-10.4,8.98-2.04,0-5.15-.56-6.73-1.43-.66-.36-.82-.66-.97-1.53-.1-.87-.41-2.19-.46-3.47-.05-.41,0-.87.25-.87.2,0,.36.25.56.97.92,3.88,4.18,5.46,7.45,5.46,4.23,0,6.93-3.57,6.93-6.94,0-3.77-2.6-5.61-6.37-8.16-3.47-2.35-6.78-5.15-6.78-9.43,0-2.96,1.17-5,3.21-6.58,1.33-1.07,3.62-2.04,6.42-2.04,2.14,0,4.59.66,5.35.87Z" style="fill:#65950a;"/><path d="M626.06,367.43c2.4-.31,2.7-1.17,2.86-3.52.36-4.84.36-25.29.25-26.06-.05-.46-.2-.61-.36-.66-.31-.05-1.48-.15-3.82-.15s-3.57.1-4.74.25c-.92.15-1.53.76-2.24,2.75-.2.51-.51.82-.66.82-.2,0-.2-.46-.15-.76.25-1.48.71-3.01.71-4.28,0-.46,0-.66.2-.77.1-.05.31.05.41.2.2.25,1.02.46,1.68.51.87.05,5.71.1,10.96.1,3.88,0,8.11,0,9.59-.05,1.38-.05,2.35-.1,3.21-.56.2-.15.36-.15.41-.05.05.15.05.25,0,.61-.15.61-.15,1.84-.15,3.67,0,.76-.2,1.17-.41,1.17s-.31-.46-.36-.77c-.1-.92-.46-1.89-.87-2.29-.46-.41-1.02-.51-5.05-.51-1.38,0-4.08,0-4.95.1-.26.05-.31.41-.31.71,0,1.84-.05,13.41-.05,15.45,0,2.91.15,9.84.31,11.42.2,1.89.71,2.19,2.4,2.7.61.15.87.25.87.51,0,.31-.36.36-1.02.36-1.22,0-2.45-.31-4.28-.31-2.24,0-3.77.31-4.59.31-.66,0-.92-.2-.92-.46,0-.2.51-.36,1.07-.46Z" style="fill:#65950a;"/><path d="M688.82,337.39c2.19,1.58,3.16,3.88,3.16,6.12,0,3.42-1.73,4.9-2.91,5.81-.87.76-2.29,1.38-3.11,1.68-.2.1-.1.46.1.97,1.02,1.99,4.33,7.19,5.76,9.13,1.58,2.14,2.65,3.42,3.72,4.49,1.63,1.63,3.11,2.09,4.03,2.09.41,0,.66.15.66.31,0,.1-.2.25-.61.41-.41.15-1.22.2-1.94.2-3.11,0-5.15-1.68-7.04-4.03-2.6-3.31-6.88-10.35-7.6-11.22-.51-.56-.97-1.02-1.58-1.17-.51-.15-1.22-.25-2.55-.2-.25,0-.46.2-.51.41-.1.51-.15,7.04-.1,9.08.05,2.35.26,4.18.41,4.64.2.61.56,1.12,2.4,1.43.56.1.77.2.77.41s-.41.36-1.02.36c-1.07,0-2.04-.25-3.77-.25-1.89,0-3.37.25-4.33.25-.51,0-.87-.1-.87-.36,0-.2.36-.31,1.02-.46,1.58-.31,2.14-.77,2.29-2.91.15-2.91.25-6.73.25-14.12s-.2-9.84-.31-11.47c-.1-1.48-.2-2.19-2.35-2.55-.46-.1-.87-.2-.87-.46,0-.15.25-.31.92-.31.71,0,1.94.2,3.77.2s3.77-.25,5.46-.25c3.06,0,5.05.56,6.73,1.79ZM678.67,336.73c-.1.05-.25.05-.31.87-.05,1.02-.05,11.83-.05,12.65,0,.76.2.92.36.92.31.05.97.05,1.38.05,1.48,0,4.64-.41,5.66-1.07,1.43-1.02,3.06-3.11,3.06-5.86s-.82-4.64-2.14-5.86c-1.38-1.28-3.21-2.04-6.27-2.04-.66,0-1.43.2-1.68.36Z" style="fill:#65950a;"/><path d="M721.04,335.61c.71,0,3.16.25,4.74.25s3.06-.15,3.62-.15c.61,0,.82.15.82.31,0,.25-.31.41-.87.51-1.22.25-1.48.56-1.48.92,0,.31.31,1.07.87,1.99.92,1.58,5.61,9.59,6.88,11.32.05.05.46.31.61.05,2.09-3.42,5.46-8.82,6.37-10.45.87-1.38,1.22-2.14,1.22-2.65,0-.61-.41-.97-1.84-1.28-.46-.05-.92-.25-.92-.51,0-.15.31-.25.82-.25,1.43,0,2.24.2,3.67.2,1.22,0,2.55-.2,3.37-.2.61,0,.92.1.92.31s-.31.41-1.12.51c-1.48.25-2.45,1.02-3.42,2.29-2.7,3.37-6.27,9.59-7.96,12.29-.51.87-.76,1.68-.82,2.14-.15,1.22-.15,4.49-.15,6.88,0,1.33,0,2.35.1,4.08.15,2.35.41,3.06,2.19,3.37.87.15,1.07.31,1.07.51,0,.25-.46.31-.87.31-1.63,0-3.31-.31-4.54-.31-1.48,0-2.19.2-3.57.2-.71,0-1.07-.2-1.07-.41s.46-.36,1.12-.46c1.99-.2,2.19-.66,2.35-2.75.1-1.07.2-4.38.2-6.63,0-3.16-.05-4.23-.15-4.79-.05-.31-.15-.82-.31-1.07-1.99-3.47-6.07-10.25-7.55-12.39-1.58-2.24-2.75-3.06-4.18-3.32-.82-.15-1.12-.36-1.12-.51,0-.25.31-.31.97-.31Z" style="fill:#65950a;"/></svg>