<?xml version="1.0" encoding="UTF-8"?><svg id="Layer_1" xmlns="http://www.w3.org/2000/svg" viewBox="0 0 539.33 235.57"><path d="M106.86,168.54c0,4.7-.81,9.02-2.44,12.96-1.62,3.95-3.87,7.35-6.74,10.22s-6.26,5.12-10.18,6.74-8.16,2.44-12.75,2.44-8.83-.81-12.75-2.44-7.31-3.87-10.18-6.74c-2.87-2.87-5.12-6.28-6.74-10.22-1.62-3.94-2.44-8.26-2.44-12.96s.81-9.02,2.44-12.96c1.62-3.94,3.87-7.35,6.74-10.22,2.87-2.87,6.26-5.12,10.18-6.74,3.92-1.62,8.16-2.44,12.75-2.44s8.83.81,12.75,2.44c3.92,1.62,7.31,3.87,10.18,6.74s5.12,6.28,6.74,10.22c1.62,3.94,2.44,8.26,2.44,12.96ZM100.25,168.58c0-3.59-.58-7.01-1.74-10.25-1.16-3.24-2.84-6.09-5.05-8.55-2.21-2.46-4.89-4.42-8.05-5.86-3.16-1.45-6.71-2.17-10.66-2.17s-7.5.72-10.66,2.17c-3.16,1.45-5.84,3.4-8.05,5.86-2.21,2.46-3.89,5.31-5.05,8.55-1.16,3.24-1.74,6.66-1.74,10.25s.58,7.01,1.74,10.25c1.16,3.24,2.84,6.08,5.05,8.51,2.2,2.43,4.89,4.37,8.05,5.82,3.16,1.45,6.71,2.17,10.66,2.17s7.5-.72,10.66-2.17c3.16-1.45,5.84-3.39,8.05-5.82,2.2-2.43,3.88-5.27,5.05-8.51,1.16-3.24,1.74-6.66,1.74-10.25Z" style="fill:#1594c8;"/><path d="M114.34,163.32c-.06-1.74-.15-3.31-.26-4.7h5.66c.12,1.1.2,2.32.26,3.65.06,1.33.09,2.44.09,3.31h.17c1.16-2.38,2.9-4.31,5.22-5.79,2.32-1.48,4.93-2.22,7.83-2.22.75,0,1.44.03,2.04.09.61.06,1.23.17,1.87.35l-.78,5.66c-.35-.12-.93-.23-1.74-.35-.81-.12-1.62-.17-2.44-.17-1.57,0-3.07.29-4.52.87-1.45.58-2.71,1.49-3.78,2.73-1.07,1.24-1.94,2.83-2.61,4.77-.67,1.94-1,4.27-1,6.99v20.83h-5.92v-31.75c0-1.1-.03-2.52-.09-4.26Z" style="fill:#1594c8;"/><path d="M165.41,163.58h-11.48v23.75c0,1.51.14,2.75.44,3.74.29.99.71,1.75,1.26,2.3.55.55,1.2.93,1.96,1.13.75.2,1.57.3,2.44.3.81,0,1.67-.12,2.57-.35.9-.23,1.75-.55,2.57-.96l.26,5.13c-1.04.41-2.13.71-3.26.91-1.13.2-2.36.3-3.7.3-1.1,0-2.26-.15-3.48-.44-1.22-.29-2.35-.84-3.39-1.65-1.04-.81-1.9-1.91-2.57-3.31-.67-1.39-1-3.22-1-5.48v-25.4h-8.44v-4.96h8.44v-11.48h5.92v11.48h11.48v4.96Z" style="fill:#1594c8;"/><path d="M183.51,165.32c1.1-2.38,2.93-4.26,5.48-5.66,2.55-1.39,5.28-2.09,8.18-2.09,5.16,0,9.03,1.54,11.61,4.61,2.58,3.08,3.87,7.13,3.87,12.18v24.97h-5.92v-22.53c0-2.14-.17-4.09-.52-5.83-.35-1.74-.94-3.23-1.78-4.48-.84-1.25-1.97-2.22-3.39-2.91-1.42-.7-3.21-1.04-5.35-1.04-1.57,0-3.09.32-4.57.96-1.48.64-2.8,1.61-3.96,2.91-1.16,1.31-2.09,2.96-2.78,4.96-.7,2-1.04,4.37-1.04,7.09v20.88h-5.92v-65.77h5.92v31.76h.17Z" style="fill:#1594c8;"/><path d="M264.41,178.98c0,3.08-.54,5.92-1.61,8.53-1.07,2.61-2.57,4.87-4.48,6.79s-4.21,3.41-6.87,4.48c-2.67,1.07-5.6,1.61-8.79,1.61s-6.03-.54-8.7-1.61c-2.67-1.07-4.96-2.57-6.87-4.48s-3.41-4.18-4.48-6.79c-1.07-2.61-1.61-5.45-1.61-8.53s.54-5.92,1.61-8.53c1.07-2.61,2.57-4.87,4.48-6.79s4.2-3.41,6.87-4.48c2.67-1.07,5.57-1.61,8.7-1.61s6.12.54,8.79,1.61c2.67,1.07,4.96,2.57,6.87,4.48s3.41,4.18,4.48,6.79c1.07,2.61,1.61,5.45,1.61,8.53ZM258.15,178.98c0-2.26-.36-4.39-1.09-6.39-.73-2-1.75-3.74-3.09-5.22-1.33-1.48-2.96-2.65-4.87-3.52s-4.06-1.3-6.44-1.3-4.51.43-6.39,1.3c-1.89.87-3.5,2.04-4.83,3.52-1.33,1.48-2.36,3.22-3.09,5.22-.73,2-1.09,4.13-1.09,6.39s.36,4.39,1.09,6.39c.72,2,1.75,3.74,3.09,5.22,1.33,1.48,2.94,2.64,4.83,3.48,1.88.84,4.02,1.26,6.39,1.26s4.52-.42,6.44-1.26c1.91-.84,3.54-2,4.87-3.48,1.33-1.48,2.36-3.22,3.09-5.22.72-2,1.09-4.13,1.09-6.39Z" style="fill:#1594c8;"/><path d="M305.74,192.46c-1.74,2.61-4,4.58-6.79,5.92s-5.66,2-8.61,2c-3.19,0-6.08-.55-8.66-1.65-2.58-1.1-4.79-2.61-6.61-4.52-1.83-1.91-3.25-4.18-4.26-6.79-1.02-2.61-1.52-5.42-1.52-8.44s.51-5.83,1.52-8.44c1.01-2.61,2.44-4.87,4.26-6.79,1.83-1.91,4.03-3.42,6.61-4.52,2.58-1.1,5.47-1.65,8.66-1.65,2.96,0,5.83.68,8.61,2.04,2.78,1.36,5.05,3.38,6.79,6.05h.17v-32.1h5.92v65.77h-5.92v-6.87h-.17ZM275.55,178.98c0,2.26.35,4.39,1.04,6.39.7,2,1.7,3.74,3,5.22,1.3,1.48,2.91,2.64,4.83,3.48,1.91.84,4.09,1.26,6.53,1.26,2.26,0,4.35-.42,6.26-1.26,1.91-.84,3.57-1.99,4.96-3.44,1.39-1.45,2.48-3.18,3.26-5.18s1.17-4.16,1.17-6.48-.39-4.48-1.17-6.48-1.87-3.74-3.26-5.22c-1.39-1.48-3.04-2.64-4.96-3.48s-4-1.26-6.26-1.26c-2.44,0-4.61.43-6.53,1.3-1.91.87-3.52,2.04-4.83,3.52-1.31,1.48-2.31,3.22-3,5.22-.7,2-1.04,4.13-1.04,6.39Z" style="fill:#1594c8;"/><path d="M362.98,178.98c0,3.08-.54,5.92-1.61,8.53-1.07,2.61-2.57,4.87-4.48,6.79s-4.21,3.41-6.87,4.48c-2.67,1.07-5.6,1.61-8.79,1.61s-6.03-.54-8.7-1.61c-2.67-1.07-4.96-2.57-6.87-4.48s-3.41-4.18-4.48-6.79c-1.07-2.61-1.61-5.45-1.61-8.53s.54-5.92,1.61-8.53c1.07-2.61,2.57-4.87,4.48-6.79s4.2-3.41,6.87-4.48c2.67-1.07,5.57-1.61,8.7-1.61s6.12.54,8.79,1.61c2.67,1.07,4.96,2.57,6.87,4.48s3.41,4.18,4.48,6.79c1.07,2.61,1.61,5.45,1.61,8.53ZM356.72,178.98c0-2.26-.36-4.39-1.09-6.39-.73-2-1.75-3.74-3.09-5.22-1.33-1.48-2.96-2.65-4.87-3.52s-4.06-1.3-6.44-1.3-4.51.43-6.39,1.3c-1.89.87-3.5,2.04-4.83,3.52-1.33,1.48-2.36,3.22-3.09,5.22-.73,2-1.09,4.13-1.09,6.39s.36,4.39,1.09,6.39c.72,2,1.75,3.74,3.09,5.22,1.33,1.48,2.94,2.64,4.83,3.48,1.88.84,4.02,1.26,6.39,1.26s4.52-.42,6.44-1.26c1.91-.84,3.54-2,4.87-3.48,1.33-1.48,2.36-3.22,3.09-5.22.72-2,1.09-4.13,1.09-6.39Z" style="fill:#1594c8;"/><path d="M376.03,158.62c.12,1.1.2,2.32.26,3.65.06,1.33.09,2.44.09,3.31h.17c1.16-2.38,3.04-4.31,5.65-5.79,2.61-1.48,5.36-2.22,8.27-2.22,5.16,0,9.03,1.54,11.61,4.61,2.58,3.08,3.87,7.13,3.87,12.18v24.97h-5.92v-22.53c0-2.14-.17-4.09-.52-5.83-.35-1.74-.94-3.23-1.78-4.48-.84-1.25-1.97-2.22-3.39-2.91-1.42-.7-3.21-1.04-5.35-1.04-1.57,0-3.09.32-4.57.96-1.48.64-2.8,1.61-3.96,2.91-1.16,1.31-2.09,2.96-2.78,4.96s-1.04,4.37-1.04,7.09v20.88h-5.92v-31.75c0-1.1-.03-2.52-.09-4.26-.06-1.74-.15-3.31-.26-4.7h5.66Z" style="fill:#1594c8;"/><path d="M437.45,163.58h-11.48v23.75c0,1.51.14,2.75.44,3.74.29.99.71,1.75,1.26,2.3.55.55,1.2.93,1.96,1.13.75.2,1.57.3,2.44.3.81,0,1.67-.12,2.57-.35.9-.23,1.75-.55,2.57-.96l.26,5.13c-1.04.41-2.13.71-3.26.91-1.13.2-2.36.3-3.7.3-1.1,0-2.26-.15-3.48-.44-1.22-.29-2.35-.84-3.39-1.65-1.04-.81-1.9-1.91-2.57-3.31-.67-1.39-1-3.22-1-5.48v-25.4h-8.44v-4.96h8.44v-11.48h5.92v11.48h11.48v4.96Z" style="fill:#1594c8;"/><path d="M456.33,142.96c0,1.22-.43,2.22-1.3,3-.87.78-1.83,1.17-2.87,1.17s-2-.39-2.87-1.17c-.87-.78-1.3-1.78-1.3-3s.43-2.22,1.3-3c.87-.78,1.83-1.17,2.87-1.17s2,.39,2.87,1.17c.87.78,1.3,1.78,1.3,3ZM455.11,199.34h-5.92v-40.72h5.92v40.72Z" style="fill:#1594c8;"/><path d="M498,167.93c-.99-1.57-2.42-2.86-4.31-3.87-1.89-1.01-3.93-1.52-6.13-1.52-2.38,0-4.52.42-6.44,1.26s-3.55,2-4.92,3.48c-1.36,1.48-2.41,3.22-3.13,5.22-.73,2-1.09,4.16-1.09,6.48s.36,4.47,1.09,6.44c.72,1.97,1.75,3.7,3.09,5.18,1.33,1.48,2.96,2.64,4.87,3.48,1.91.84,4.06,1.26,6.44,1.26,2.61,0,4.81-.49,6.61-1.48,1.8-.99,3.28-2.26,4.44-3.83l4.44,3.31c-1.74,2.15-3.87,3.86-6.39,5.13s-5.55,1.91-9.09,1.91c-3.31,0-6.29-.54-8.96-1.61-2.67-1.07-4.95-2.57-6.83-4.48-1.89-1.91-3.35-4.18-4.39-6.79s-1.57-5.45-1.57-8.53.52-5.92,1.57-8.53c1.04-2.61,2.51-4.87,4.39-6.79,1.88-1.91,4.16-3.41,6.83-4.48,2.67-1.07,5.65-1.61,8.96-1.61,2.73,0,5.49.59,8.31,1.78,2.81,1.19,5.09,2.94,6.83,5.26l-4.61,3.31Z" style="fill:#1594c8;"/><path d="M534.11,168.28c-.87-1.68-2.19-3.06-3.96-4.13-1.77-1.07-3.78-1.61-6.05-1.61-1.04,0-2.09.12-3.13.35-1.04.23-1.97.61-2.78,1.13-.81.52-1.47,1.19-1.96,2-.49.81-.74,1.77-.74,2.87,0,1.91.78,3.38,2.35,4.39,1.57,1.02,4.03,1.87,7.4,2.57,4.81.99,8.37,2.42,10.66,4.31,2.29,1.89,3.44,4.42,3.44,7.61,0,2.32-.45,4.28-1.35,5.87-.9,1.6-2.07,2.9-3.52,3.92-1.45,1.02-3.09,1.74-4.92,2.17-1.83.43-3.67.65-5.52.65-3.07,0-6.06-.64-8.96-1.91-2.9-1.28-5.28-3.28-7.13-6l4.7-3.48c1.04,1.8,2.58,3.31,4.61,4.52,2.03,1.22,4.26,1.83,6.7,1.83,1.27,0,2.49-.12,3.65-.35,1.16-.23,2.18-.64,3.05-1.22.87-.58,1.57-1.32,2.09-2.22.52-.9.78-2.01.78-3.35,0-2.15-1.03-3.75-3.09-4.83-2.06-1.07-5.03-2.07-8.92-3-1.22-.29-2.51-.65-3.87-1.09-1.36-.43-2.62-1.07-3.78-1.91-1.16-.84-2.12-1.9-2.87-3.17-.75-1.28-1.13-2.87-1.13-4.79,0-2.09.4-3.87,1.22-5.35.81-1.48,1.9-2.7,3.26-3.65,1.36-.96,2.91-1.67,4.65-2.13,1.74-.46,3.54-.7,5.39-.7,2.84,0,5.6.64,8.27,1.91,2.67,1.28,4.67,3.07,6,5.39l-4.52,3.39Z" style="fill:#1594c8;"/><path d="M51.54,39.16h4.67v42.66l39.61-42.66h5.94l-25.59,27.57,27.78,41.39h-5.94l-25.39-37.78-16.4,17.62v20.16h-4.67V39.16Z" style="fill:#546770;"/><path d="M123.66,39.16h4.67v68.96h-4.67V39.16Z" style="fill:#546770;"/><path d="M162.51,39.16l51.09,62.51v-62.51h4.67v68.96h-5.28l-51.19-62.56v62.56h-4.67V39.16h5.38Z" style="fill:#546770;"/><path d="M246.16,92.48c4.47,7.31,11.48,12.39,22.95,12.39,9.39,0,18.08-5.08,18.08-13.81,0-8.23-7.01-11.58-20.92-16.05-11.58-3.71-21.07-8.02-21.07-19.14,0-11.68,10.97-17.72,21.94-17.72s18.89,5.59,22.8,11.58l-3.5,2.59c-3.55-5.28-10.51-9.9-19.3-9.9s-17.27,4.62-17.27,13.36,7.46,11.63,17.62,14.88c16.55,5.28,24.38,10.21,24.38,20.31,0,12.24-11.63,18.18-22.65,18.18-12.85,0-21.94-6.3-26.41-14.07l3.35-2.59Z" style="fill:#546770;"/><path d="M316.24,39.16h44.59v4.11h-39.86v27.22h34.43v4.11h-34.43v29.4h41.03v4.11h-45.75V39.16Z" style="fill:#546770;"/><path d="M386.28,108.12V39.16h29c13.05,0,21.48,7.31,21.48,19.14,0,9.8-6.45,16.81-16.86,18.89l17.98,30.93h-5.48l-17.42-30.62h-24.02v30.62h-4.67ZM390.95,73.33h24.02c11.17,0,16.96-6.04,16.96-15.03s-5.79-15.03-16.96-15.03h-24.02v30.06Z" style="fill:#546770;"/><line x1="1" x2="1" y2="235.57" style="fill:none; stroke:#546770; stroke-miterlimit:10; stroke-width:2px;"/></svg>